<svg xmlns="http://www.w3.org/2000/svg" width="94.257" height="94.226" viewBox="0 0 94.257 94.226"><g transform="translate(0 0)"><path d="M89.349,84.494H87.969V42.038a3.5,3.5,0,0,0-3.5-3.5H59.415V4.767A4.69,4.69,0,0,0,54.731.083H10.973A4.69,4.69,0,0,0,6.288,4.767V84.494H4.907a4.907,4.907,0,0,0,0,9.815H89.349a4.907,4.907,0,0,0,0-9.815ZM9.05,4.767a1.925,1.925,0,0,1,1.923-1.923H54.73a1.925,1.925,0,0,1,1.923,1.923V38.538H44.867a3.5,3.5,0,0,0-3.5,3.5V73.792a1.381,1.381,0,1,0,2.761,0V42.038a.74.74,0,0,1,.739-.739h39.6a.74.74,0,0,1,.739.739V84.494H44.129V80.247a1.381,1.381,0,0,0-2.761,0v4.248H9.05Zm80.3,86.78H4.907a2.146,2.146,0,0,1,0-4.292H89.349a2.146,2.146,0,0,1,0,4.292Z" transform="translate(0 -0.083)" fill="#0093dd"/><path d="M80.1,45.787H74.432A2.739,2.739,0,0,0,71.7,48.523v5.665a2.739,2.739,0,0,0,2.736,2.736H80.1a2.739,2.739,0,0,0,2.736-2.736V48.523A2.739,2.739,0,0,0,80.1,45.787Zm-.025,8.376H74.457V48.548h5.614Z" transform="translate(-58.497 -37.373)" fill="#0093dd"/><path d="M156.6,45.787h-5.665a2.739,2.739,0,0,0-2.736,2.736v5.665a2.739,2.739,0,0,0,2.736,2.736H156.6a2.739,2.739,0,0,0,2.736-2.736V48.523A2.739,2.739,0,0,0,156.6,45.787Zm-.025,8.376h-5.614V48.548h5.614Z" transform="translate(-120.919 -37.373)" fill="#0093dd"/><path d="M227.441,56.924h5.665a2.739,2.739,0,0,0,2.736-2.736V48.523a2.739,2.739,0,0,0-2.736-2.736h-5.665a2.739,2.739,0,0,0-2.736,2.736v5.665a2.739,2.739,0,0,0,2.736,2.736Zm.025-8.376h5.614v5.614h-5.614Z" transform="translate(-183.338 -37.373)" fill="#0093dd"/><path d="M80.1,139.412H74.432a2.739,2.739,0,0,0-2.736,2.736v5.665a2.739,2.739,0,0,0,2.736,2.736H80.1a2.739,2.739,0,0,0,2.736-2.736v-5.665A2.739,2.739,0,0,0,80.1,139.412Zm-.025,8.376H74.457v-5.614h5.614Z" transform="translate(-58.497 -113.762)" fill="#0093dd"/><path d="M156.6,139.412h-5.665a2.739,2.739,0,0,0-2.736,2.736v5.665a2.739,2.739,0,0,0,2.736,2.736H156.6a2.739,2.739,0,0,0,2.736-2.736v-5.665A2.739,2.739,0,0,0,156.6,139.412Zm-.025,8.376h-5.614v-5.614h5.614Z" transform="translate(-120.919 -113.762)" fill="#0093dd"/><path d="M227.441,150.55h5.665a2.739,2.739,0,0,0,2.736-2.736v-5.665a2.739,2.739,0,0,0-2.736-2.736h-5.665a2.739,2.739,0,0,0-2.736,2.736v5.665a2.739,2.739,0,0,0,2.736,2.736Zm.025-8.376h5.614v5.614h-5.614Z" transform="translate(-183.338 -113.763)" fill="#0093dd"/><path d="M80.1,233.036H74.432a2.739,2.739,0,0,0-2.736,2.736v5.665a2.739,2.739,0,0,0,2.736,2.736H80.1a2.739,2.739,0,0,0,2.736-2.736v-5.665A2.739,2.739,0,0,0,80.1,233.036Zm-.025,8.376H74.457V235.8h5.614Z" transform="translate(-58.497 -190.15)" fill="#0093dd"/><path d="M156.6,233.036h-5.665a2.739,2.739,0,0,0-2.736,2.736v5.665a2.739,2.739,0,0,0,2.736,2.736H156.6a2.739,2.739,0,0,0,2.736-2.736v-5.665A2.739,2.739,0,0,0,156.6,233.036Zm-.025,8.376h-5.614V235.8h5.614Z" transform="translate(-120.919 -190.15)" fill="#0093dd"/><path d="M80.1,326.661H74.432A2.739,2.739,0,0,0,71.7,329.4v5.665a2.739,2.739,0,0,0,2.736,2.736H80.1a2.739,2.739,0,0,0,2.736-2.736V329.4A2.739,2.739,0,0,0,80.1,326.661Zm-.025,8.376H74.457v-5.614h5.614Z" transform="translate(-58.497 -266.54)" fill="#0093dd"/><path d="M156.6,326.661h-5.665A2.739,2.739,0,0,0,148.2,329.4v5.665a2.739,2.739,0,0,0,2.736,2.736H156.6a2.739,2.739,0,0,0,2.736-2.736V329.4A2.739,2.739,0,0,0,156.6,326.661Zm-.025,8.376h-5.614v-5.614h5.614Z" transform="translate(-120.919 -266.54)" fill="#0093dd"/><path d="M259.7,258.8h5.365a2.362,2.362,0,0,0,2.359-2.359v-5.228a2.362,2.362,0,0,0-2.359-2.359H259.7a2.362,2.362,0,0,0-2.359,2.359v5.228A2.362,2.362,0,0,0,259.7,258.8Zm.4-7.186h4.561v4.424H260.1Z" transform="translate(-209.967 -203.052)" fill="#0093dd"/><path d="M259.7,320.1h5.365a2.362,2.362,0,0,0,2.359-2.359v-5.228a2.362,2.362,0,0,0-2.359-2.359H259.7a2.362,2.362,0,0,0-2.359,2.359v5.228A2.362,2.362,0,0,0,259.7,320.1Zm.4-7.186h4.561v4.424H260.1Z" transform="translate(-209.967 -253.074)" fill="#0093dd"/><path d="M259.7,381.413h5.365a2.362,2.362,0,0,0,2.359-2.359v-5.229a2.362,2.362,0,0,0-2.359-2.359H259.7a2.362,2.362,0,0,0-2.359,2.359v5.229A2.362,2.362,0,0,0,259.7,381.413Zm.4-7.186h4.561v4.425H260.1Z" transform="translate(-209.967 -303.096)" fill="#0093dd"/><path d="M326.246,258.8h5.365a2.362,2.362,0,0,0,2.359-2.359v-5.228a2.362,2.362,0,0,0-2.359-2.359h-5.365a2.362,2.362,0,0,0-2.359,2.359v5.228A2.362,2.362,0,0,0,326.246,258.8Zm.4-7.186h4.561v4.424h-4.561Z" transform="translate(-264.261 -203.052)" fill="#0093dd"/><path d="M326.246,320.1h5.365a2.362,2.362,0,0,0,2.359-2.359v-5.228a2.362,2.362,0,0,0-2.359-2.359h-5.365a2.362,2.362,0,0,0-2.359,2.359v5.228A2.362,2.362,0,0,0,326.246,320.1Zm.4-7.186h4.561v4.424h-4.561Z" transform="translate(-264.261 -253.074)" fill="#0093dd"/><path d="M326.246,381.413h5.365a2.362,2.362,0,0,0,2.359-2.359v-5.229a2.362,2.362,0,0,0-2.359-2.359h-5.365a2.362,2.362,0,0,0-2.359,2.359v5.229A2.362,2.362,0,0,0,326.246,381.413Zm.4-7.186h4.561v4.425h-4.561Z" transform="translate(-264.261 -303.096)" fill="#0093dd"/><path d="M392.791,258.8h5.365a2.362,2.362,0,0,0,2.359-2.359v-5.228a2.362,2.362,0,0,0-2.359-2.359h-5.365a2.362,2.362,0,0,0-2.359,2.359v5.228A2.362,2.362,0,0,0,392.791,258.8Zm.4-7.186h4.561v4.424h-4.561Z" transform="translate(-318.555 -203.052)" fill="#0093dd"/><path d="M392.791,320.1h5.365a2.362,2.362,0,0,0,2.359-2.359v-5.228a2.362,2.362,0,0,0-2.359-2.359h-5.365a2.362,2.362,0,0,0-2.359,2.359v5.228A2.362,2.362,0,0,0,392.791,320.1Zm.4-7.186h4.561v4.424h-4.561Z" transform="translate(-318.555 -253.074)" fill="#0093dd"/><path d="M392.791,381.413h5.365a2.362,2.362,0,0,0,2.359-2.359v-5.229a2.362,2.362,0,0,0-2.359-2.359h-5.365a2.362,2.362,0,0,0-2.359,2.359v5.229A2.362,2.362,0,0,0,392.791,381.413Zm.4-7.186h4.561v4.425h-4.561Z" transform="translate(-318.555 -303.096)" fill="#0093dd"/><path d="M364.192,47.332a2.675,2.675,0,0,0,3.165,0c2.388-1.744,8.116-6.525,9.733-13.239a1.381,1.381,0,1,0-2.685-.647c-1.429,5.934-6.906,10.355-8.631,11.622-2.17-1.593-8.981-7.186-8.981-14.526a8.983,8.983,0,0,1,17.515-2.808,1.381,1.381,0,1,0,2.623-.863,11.744,11.744,0,0,0-22.9,3.671C354.032,39.236,361.809,45.592,364.192,47.332Z" transform="translate(-288.856 -15.354)" fill="#0093dd"/><path d="M388.874,47.112a6.531,6.531,0,1,0,6.531,6.531A6.538,6.538,0,0,0,388.874,47.112Zm0,10.3a3.77,3.77,0,1,1,3.77-3.77A3.774,3.774,0,0,1,388.874,57.412Z" transform="translate(-311.956 -38.454)" fill="#0093dd"/></g></svg>