<svg xmlns="http://www.w3.org/2000/svg" width="54.643" height="51" viewBox="0 0 54.643 51"><g transform="translate(0 0)"><path d="M50.911,43.388H50V24.263a8.162,8.162,0,0,0-8.2-8.2c-4.031,0-6.93,2.989-7.254,7.368a4.5,4.5,0,0,0-3.674,4.471.86.86,0,0,0,.911.911h7.286a.86.86,0,0,0,.911-.911,4.5,4.5,0,0,0-3.6-4.458c.272-2.894,2.01-5.56,5.425-5.56a6.336,6.336,0,0,1,6.375,6.375V43.388H20.769A4.5,4.5,0,0,0,16.3,39.746a4.754,4.754,0,0,0-3.643-1.821,4.5,4.5,0,0,0-4.007,2.459,5.41,5.41,0,0,0-2.368-.637A4.5,4.5,0,0,0,1.82,43.388H1.732a2.732,2.732,0,0,0,0,5.464H2.827L5.284,58.6a6.425,6.425,0,0,0,6.193,4.827h.729l-1.184,2.368a.8.8,0,0,0,.364,1.184.548.548,0,0,0,.364.091.957.957,0,0,0,.82-.455l1.594-3.187H39.436l1.548,3.1a.875.875,0,0,0,.82.546c.182,0,.273,0,.364-.182a.959.959,0,0,0,.364-1.184l-1.141-2.282a6.448,6.448,0,0,0,5.968-4.731l2.48-9.836h1.072a2.732,2.732,0,1,0,0-5.464ZM38.07,27H32.879a2.769,2.769,0,0,1,2.641-1.821A2.653,2.653,0,0,1,38.07,27ZM6.286,41.567a3.06,3.06,0,0,1,2.186,1,.824.824,0,0,0,.911.273.882.882,0,0,0,.637-.729,2.82,2.82,0,0,1,2.732-2.368,2.545,2.545,0,0,1,2.368,1.366.916.916,0,0,0,1,.455h.273a2.653,2.653,0,0,1,2.55,1.821H3.736A2.653,2.653,0,0,1,6.286,41.567ZM45.72,58.142A4.673,4.673,0,0,1,41.257,61.6H11.568a4.673,4.673,0,0,1-4.462-3.461L4.738,48.853H47.905Zm5.191-11.111H1.732a.911.911,0,0,1,0-1.821H50.911a.911.911,0,1,1,0,1.821Z" transform="translate(1 -16.067)"/><path d="M298.578,154.877a.86.86,0,0,0,.911-.911v-.455a.911.911,0,1,0-1.821,0v.455A.86.86,0,0,0,298.578,154.877Z" transform="translate(-265.792 -138.029)"/><path d="M298.578,189.557a.913.913,0,0,0,.911-.911v-1a.911.911,0,1,0-1.821,0v1A.86.86,0,0,0,298.578,189.557Z" transform="translate(-265.792 -168.52)"/><path d="M298.578,227.411a.86.86,0,0,0,.911-.911v-.455a.911.911,0,0,0-1.821,0v.455A.86.86,0,0,0,298.578,227.411Z" transform="translate(-265.792 -202.821)"/><path d="M332.711,154.877a.86.86,0,0,0,.911-.911v-.455a.911.911,0,1,0-1.821,0v.455A.86.86,0,0,0,332.711,154.877Z" transform="translate(-296.282 -138.029)"/><path d="M331.8,188.646a.86.86,0,0,0,.911.911.913.913,0,0,0,.911-.911v-1a.911.911,0,0,0-1.821,0Z" transform="translate(-296.282 -168.519)"/><path d="M331.8,226.5a.911.911,0,1,0,1.821,0v-.455a.911.911,0,0,0-1.821,0Z" transform="translate(-296.282 -202.821)"/><path d="M366.845,154.877a.86.86,0,0,0,.911-.911v-.455a.911.911,0,1,0-1.821,0v.455A.86.86,0,0,0,366.845,154.877Z" transform="translate(-326.773 -138.029)"/><path d="M365.933,188.646a.86.86,0,0,0,.911.911.913.913,0,0,0,.911-.911v-1a.911.911,0,1,0-1.821,0v1Z" transform="translate(-326.772 -168.519)"/><path d="M365.933,226.5a.911.911,0,1,0,1.821,0v-.455a.911.911,0,0,0-1.821,0Z" transform="translate(-326.772 -202.821)"/></g></svg>