<svg xmlns="http://www.w3.org/2000/svg" width="50.769" height="44" viewBox="0 0 50.769 44"><path d="M49.923,57.385h-.846V54.846a4.231,4.231,0,0,0-2.538-3.872V37.923a.846.846,0,0,0-.508-.775,3.349,3.349,0,0,0,.508-1.763,3.385,3.385,0,1,0-6.769,0,3.35,3.35,0,0,0,.47,1.692H10.53A3.35,3.35,0,0,0,11,35.385a3.385,3.385,0,1,0-6.769,0,3.349,3.349,0,0,0,.508,1.763.846.846,0,0,0-.508.775V50.974a4.231,4.231,0,0,0-2.538,3.872v2.538H.846A.846.846,0,0,0,0,58.231V70.077a.846.846,0,0,0,.846.846h.846v4.231A.846.846,0,0,0,2.538,76H5.923a.846.846,0,0,0,.846-.846V70.923H44v4.231a.846.846,0,0,0,.846.846h3.385a.846.846,0,0,0,.846-.846V70.923h.846a.846.846,0,0,0,.846-.846V58.231A.846.846,0,0,0,49.923,57.385ZM43.154,33.692a1.692,1.692,0,1,1-1.692,1.692A1.692,1.692,0,0,1,43.154,33.692Zm-35.538,0a1.692,1.692,0,1,1-1.692,1.692A1.692,1.692,0,0,1,7.615,33.692ZM5.923,38.769H44.846V50.615H41.44a4.187,4.187,0,0,0,.868-2.538V46.385a4.236,4.236,0,0,0-4.231-4.231H31.308a4.236,4.236,0,0,0-4.231,4.231v1.692a4.187,4.187,0,0,0,.868,2.538H22.824a4.187,4.187,0,0,0,.868-2.538V46.385a4.236,4.236,0,0,0-4.231-4.231H12.692a4.236,4.236,0,0,0-4.231,4.231v1.692a4.187,4.187,0,0,0,.868,2.538H5.923Zm34.692,7.615v1.692a2.538,2.538,0,0,1-2.538,2.538H31.308a2.538,2.538,0,0,1-2.538-2.538V46.385a2.538,2.538,0,0,1,2.538-2.538h6.769A2.538,2.538,0,0,1,40.615,46.385ZM22,46.385v1.692a2.538,2.538,0,0,1-2.538,2.538H12.692a2.538,2.538,0,0,1-2.538-2.538V46.385a2.538,2.538,0,0,1,2.538-2.538h6.769A2.538,2.538,0,0,1,22,46.385ZM3.385,54.846a2.538,2.538,0,0,1,2.538-2.538H44.846a2.538,2.538,0,0,1,2.538,2.538v2.538h-44ZM5.077,74.308H3.385V70.923H5.077Zm42.308,0H45.692V70.923h1.692Zm1.692-5.077H1.692V59.077H49.077Z" transform="translate(0 -32)"/><g transform="translate(3.385 33.846)"><path d="M36.231,352H32.846a.846.846,0,0,0,0,1.692h3.385a.846.846,0,0,0,0-1.692Z" transform="translate(-32 -352)"/></g><g transform="translate(10.154 33.846)"><path d="M132.385,352H96.846a.846.846,0,0,0,0,1.692h35.538a.846.846,0,0,0,0-1.692Z" transform="translate(-96 -352)"/></g></svg>