<svg id="Layer_1" enable-background="new 0 0 511.354 511.354" height="512" viewBox="0 0 511.354 511.354" width="512" xmlns="http://www.w3.org/2000/svg"><path d="m273.849 209.646h-2.172v301.432h82.488z"/><path d="m239.677 511.078v-301.432h-2.172l-80.315 301.432z"/><path d="m306.965 209.646 80.316 301.432h98.126l-173.262-301.432z"/><path d="m124.073 511.078 80.316-301.432h-5.179l-173.263 301.432z"/><path d="m128.188 266.891c1.737 0-2.465 6.388 34.112-57.245h-146.3c-8.836 0-16 7.163-16 16v41.245z"/><path d="m0 298.891v35.396h90.657l20.345-35.396z"/><path d="m0 366.287v35.395h51.918l20.345-35.395z"/><path d="m0 433.682v58.324l33.525-58.324z"/><path d="m420.698 334.287h90.656v-35.396h-111.001z"/><path d="m511.354 366.287h-72.263l20.411 35.51c1.428-.164-3.019-.115 51.853-.115v-35.395z"/><path d="m383.166 266.891h128.188v-41.245c0-8.837-7.164-16-16-16h-146.3c36.556 63.597 32.369 57.245 34.112 57.245z"/><path d="m477.83 433.682 33.524 58.325v-58.325z"/><path d="m411.623 141.811c24.863 0 35.372-13.582 39.809-24.977 4.648-11.934 4.648-26.293 4.648-41.495 0-30.449-14.197-75.063-44.457-75.063-30.185 0-44.457 44.439-44.457 75.063 0 15.202 0 29.562 4.648 41.495 4.437 11.395 14.946 24.977 39.809 24.977z"/><path d="m472.072 167.582-18.572-16.775c-5.367-4.848-13.316-5.491-19.394-1.574l-22.483 14.494-22.483-14.494c-6.079-3.917-14.028-3.271-19.394 1.574l-18.572 16.774c-6.558 5.924-7.072 16.041-1.149 22.599 5.922 6.557 16.04 7.07 22.598 1.149l9.478-8.561 20.853 13.442c5.35 3.451 12.105 3.358 17.319.01 2.206-1.416-5.335 3.443 20.873-13.452l9.478 8.561c6.557 5.921 16.675 5.408 22.598-1.149 5.922-6.557 5.407-16.675-1.15-22.598z"/><path d="m255.677 141.811c24.863 0 35.371-13.582 39.809-24.977 4.648-11.934 4.648-26.293 4.648-41.495 0-30.449-14.197-75.063-44.457-75.063-30.185 0-44.457 44.424-44.457 75.063 0 15.202 0 29.562 4.648 41.495 4.438 11.395 14.946 24.977 39.809 24.977z"/><path d="m316.126 167.582-18.572-16.774c-5.367-4.848-13.317-5.491-19.394-1.574l-22.483 14.494-22.483-14.494c-6.078-3.917-14.028-3.271-19.394 1.574l-18.572 16.774c-6.558 5.924-7.072 16.041-1.149 22.599 5.922 6.557 16.04 7.07 22.598 1.149l9.478-8.561 20.853 13.442c5.375 3.467 12.132 3.343 17.325.006 1.819-1.169-5.655 3.648 20.867-13.449l9.478 8.561c6.557 5.921 16.676 5.408 22.598-1.149s5.408-16.675-1.15-22.598z"/><path d="m99.732 141.811c24.863 0 35.371-13.582 39.809-24.977 4.648-11.934 4.648-26.293 4.648-41.495 0-30.443-14.197-75.063-44.457-75.063-30.185 0-44.457 44.424-44.457 75.063 0 15.202 0 29.562 4.648 41.495 4.437 11.395 14.946 24.977 39.809 24.977z"/><path d="m160.181 167.582-18.572-16.774c-5.366-4.848-13.318-5.491-19.394-1.574l-22.483 14.494-22.483-14.494c-6.078-3.917-14.028-3.271-19.394 1.574l-18.572 16.774c-6.558 5.924-7.072 16.041-1.149 22.599 5.922 6.557 16.04 7.07 22.598 1.149l9.478-8.561 20.853 13.443c5.399 3.48 12.154 3.328 17.326.004 1.789-1.068-6.993 4.511 20.865-13.448l9.478 8.561c6.557 5.921 16.676 5.408 22.598-1.149 5.923-6.557 5.408-16.675-1.149-22.598z"/></svg>