<svg xmlns="http://www.w3.org/2000/svg" width="59.324" height="50.062" viewBox="0 0 59.324 50.062"><g transform="translate(45.986 4.818)"><path d="M400.488,81.562h-2.9a.635.635,0,0,0-.706.576h0V91.5c0,.389.461.591.936.591s.936-.2.936-.591V88.16h1.614c1.9,0,3.386-.908,3.386-3.27V84.8A2.934,2.934,0,0,0,400.488,81.562Zm1.4,3.472c0,1.124-.576,1.657-1.513,1.657h-1.614V83.2h1.614c.936,0,1.513.533,1.513,1.657Z" transform="translate(-396.886 -81.562)"/></g><g transform="translate(13.232 4.238)"><path d="M134.924,80.8a14.48,14.48,0,0,0-20.478,0,.845.845,0,0,0,1.2,1.2,12.79,12.79,0,0,1,18.087,0,.845.845,0,0,0,1.2-1.2Z" transform="translate(-114.198 -76.554)"/></g><g transform="translate(16.719 9.174)"><g transform="translate(0 0)"><path d="M158.041,121.94a9.56,9.56,0,0,0-13.5,0,.845.845,0,0,0,1.2,1.2,7.868,7.868,0,0,1,11.114,0,.845.845,0,0,0,1.2-1.2Z" transform="translate(-144.289 -119.147)"/></g></g><g transform="translate(20.15 14.025)"><g transform="translate(0 0)"><path d="M180.793,162.382a4.7,4.7,0,0,0-6.642,0,.845.845,0,0,0,1.2,1.2,3.01,3.01,0,0,1,4.252,0,.845.845,0,1,0,1.2-1.2Z" transform="translate(-173.903 -161.009)"/></g></g><g transform="translate(7.182 25.674)"><g transform="translate(0 0)"><path d="M96.392,267.736c-.366-.2-.726-.422-1.072-.655L89.73,263.3a10.186,10.186,0,0,0-5.723-1.752H73.747a10.159,10.159,0,0,0-7.216,2.981,13.7,13.7,0,0,1-3.358,2.457,2.2,2.2,0,0,0,1.013,4.15h3.5a.845.845,0,0,0,0-1.69h-3.5a.508.508,0,0,1-.235-.96,15.384,15.384,0,0,0,3.772-2.76,8.479,8.479,0,0,1,6.023-2.488h2.3v6.207H73.236a.845.845,0,0,0,0,1.69H96.409a1.261,1.261,0,0,0,1.26-1.26A2.451,2.451,0,0,0,96.392,267.736ZM77.734,269.45v-6.207h6.273a8.5,8.5,0,0,1,4.777,1.462l5.59,3.776c.388.262.793.51,1.2.736a.788.788,0,0,1,.262.233Z" transform="translate(-61.987 -261.552)"/></g></g><g transform="translate(21.568 36.547)"><g transform="translate(0 0)"><path d="M189.6,355.388h-2.61a.845.845,0,1,0,0,1.69h2.61a.845.845,0,1,0,0-1.69Z" transform="translate(-186.142 -355.388)"/></g></g><g transform="translate(0 0)"><path d="M58.6,75.807l-.267-.443a6.956,6.956,0,0,0-4.591-3.225L51.555,71.7V60.646H57.2a2.111,2.111,0,0,0,2.108-2.108V42.078A2.111,2.111,0,0,0,57.2,39.97H40.743a2.111,2.111,0,0,0-2.108,2.108v6.244a.845.845,0,0,0,1.69,0V42.078a.419.419,0,0,1,.418-.418H57.2a.419.419,0,0,1,.418.418V58.538a.419.419,0,0,1-.418.418H40.743a.419.419,0,0,1-.418-.418V53.816a.845.845,0,0,0-1.69,0v4.721a2.111,2.111,0,0,0,2.108,2.108h6.4V70.828l-1.122-.223a11.916,11.916,0,0,1-4.058-1.918l-5.59-3.776a12.77,12.77,0,0,0-7.174-2.2H18.942A12.734,12.734,0,0,0,9.9,66.451a11.1,11.1,0,0,1-5.571,3.007l-1.213.254A3.933,3.933,0,0,0,0,73.545V81.73a2.475,2.475,0,0,0,1.469,2.26l3.366,1.5a5.6,5.6,0,0,0,10.9.46H43.8a5.6,5.6,0,0,0,10.788,0h1.6a3.137,3.137,0,0,0,3.134-3.134V78.429A5.083,5.083,0,0,0,58.6,75.807Zm-9.76-15.162h1.029V71.369l-1.029-.2ZM13.108,87.195a3.916,3.916,0,0,1-6.332-4.4l.016-.035c.02-.043.041-.085.063-.127l.031-.059c.02-.037.04-.073.061-.109l.044-.074c.019-.032.039-.064.059-.1l.057-.084c.019-.028.038-.055.058-.083s.046-.062.07-.092.036-.048.055-.071.057-.068.086-.1l.049-.058q.065-.072.133-.141l.011-.012.027-.025c.039-.038.078-.076.117-.112l.032-.027c.04-.035.079-.07.12-.1l.012-.009a3.924,3.924,0,0,1,4.929,0l.005,0c.044.036.086.073.129.111l.023.02q.074.067.145.137c.051.051.1.1.148.157.021.023.041.047.061.071s.05.058.074.088.053.067.078.1l.043.057q.046.064.09.129l.015.022A3.923,3.923,0,0,1,13.108,87.195Zm38.855,0a3.917,3.917,0,0,1-6.047-4.914l.014-.022q.044-.066.09-.13l.042-.056c.026-.034.052-.068.079-.1s.048-.058.073-.087.041-.048.062-.072c.048-.053.1-.106.148-.157a3.916,3.916,0,0,1,5.539,0c.051.051.1.1.148.157.021.023.041.048.061.071s.05.058.073.087.053.067.078.1l.042.057c.031.043.061.086.09.129l.015.022A3.923,3.923,0,0,1,51.963,87.195Zm5.672-4.382h0a1.445,1.445,0,0,1-1.444,1.444H54.8A5.536,5.536,0,0,0,53.555,80.9l-.016-.02c-.048-.059-.1-.116-.149-.174l-.038-.044c-.054-.059-.109-.117-.166-.174l-.028-.03a5.572,5.572,0,0,0-2.595-1.475,5.69,5.69,0,0,0-2.472-.06,5.568,5.568,0,0,0-2.862,1.534l-.028.029c-.057.058-.113.116-.167.175L45,80.708c-.051.058-.1.116-.15.175l-.014.018a5.537,5.537,0,0,0-1.246,3.355H15.944A5.537,5.537,0,0,0,14.7,80.9l-.011-.014c-.051-.062-.1-.123-.158-.184l-.029-.034q-.095-.1-.2-.205a5.613,5.613,0,0,0-7.929,0c-.062.062-.123.127-.182.191l-.052.058q-.063.071-.123.143l-.053.065q-.062.077-.121.156l-.037.049q-.159.217-.295.448l-.008.013q-.067.113-.128.229l0,.007a5.571,5.571,0,0,0-.584,1.8L2.155,82.446a.784.784,0,0,1-.465-.715V73.545a2.236,2.236,0,0,1,1.77-2.179l1.213-.254a12.785,12.785,0,0,0,6.417-3.464A11.054,11.054,0,0,1,18.943,64.4H29.2a11.086,11.086,0,0,1,6.228,1.906l5.59,3.776a13.477,13.477,0,0,0,4.674,2.175L53.408,73.8a5.262,5.262,0,0,1,3.473,2.44l.267.443a3.389,3.389,0,0,1,.486,1.75Z" transform="translate(0 -39.97)"/></g><g transform="translate(7.772 41.891)"><g transform="translate(0 0)"><path d="M71.46,402.251a2.566,2.566,0,1,0,0,3.629A2.549,2.549,0,0,0,71.46,402.251Zm-1.2,2.433a.876.876,0,1,1,0-1.238A.87.87,0,0,1,70.265,404.685Z" transform="translate(-67.08 -401.5)"/></g></g><g transform="translate(46.629 41.891)"><g transform="translate(0 0)"><path d="M406.809,402.252a2.566,2.566,0,1,0,.751,1.814A2.549,2.549,0,0,0,406.809,402.252Zm-1.2,2.433a.875.875,0,1,1,.257-.619A.87.87,0,0,1,405.614,404.685Z" transform="translate(-402.43 -401.5)"/></g></g></svg>