<svg xmlns="http://www.w3.org/2000/svg" xmlns:xlink="http://www.w3.org/1999/xlink" width="50" height="50" viewBox="0 0 50 50"><defs><radialGradient id="a" cx="0.205" cy="0.874" r="1.103" gradientTransform="translate(0)" gradientUnits="objectBoundingBox"><stop offset="0" stop-color="#fae100"/><stop offset="0.054" stop-color="#fadc04"/><stop offset="0.117" stop-color="#fbce0e"/><stop offset="0.183" stop-color="#fcb720"/><stop offset="0.251" stop-color="#fe9838"/><stop offset="0.305" stop-color="#ff7950"/><stop offset="0.492" stop-color="#ff1c74"/><stop offset="1" stop-color="#6c1cd1"/></radialGradient><linearGradient id="b" x1="0.369" y1="0.426" x2="-1.54" y2="-0.648" gradientUnits="objectBoundingBox"><stop offset="0" stop-color="#a1b5d8" stop-opacity="0"/><stop offset="0.309" stop-color="#90a2bd" stop-opacity="0.31"/><stop offset="0.755" stop-color="#7c8b9c" stop-opacity="0.757"/><stop offset="1" stop-color="#748290"/></linearGradient><linearGradient id="c" x1="0.5" y1="0.413" x2="0.5" y2="1.193" gradientUnits="objectBoundingBox"><stop offset="0" stop-color="#fae100" stop-opacity="0"/><stop offset="0.307" stop-color="#fca800" stop-opacity="0.306"/><stop offset="0.627" stop-color="#fe7300" stop-opacity="0.627"/><stop offset="0.868" stop-color="#ff5200" stop-opacity="0.867"/><stop offset="1" stop-color="#ff4500"/></linearGradient><linearGradient id="d" x1="0.316" y1="0.311" x2="0.012" y2="0.005" gradientUnits="objectBoundingBox"><stop offset="0" stop-color="#833ab4" stop-opacity="0"/><stop offset="1" stop-color="#833ab4"/></linearGradient><linearGradient id="e" x1="0.582" y1="0.887" x2="0.418" y2="0.113" xlink:href="#d"/><linearGradient id="f" x1="0.605" y1="0.605" x2="-0.16" y2="-0.16" xlink:href="#d"/><linearGradient id="g" x1="0.376" y1="0.332" x2="-0.072" y2="-0.063" xlink:href="#d"/><linearGradient id="h" x1="0.816" y1="0.182" x2="0.172" y2="0.835" gradientUnits="objectBoundingBox"><stop offset="0" stop-color="#833ab4"/><stop offset="0.092" stop-color="#9c3495"/><stop offset="0.293" stop-color="#dc2546"/><stop offset="0.392" stop-color="#fd1d1d"/><stop offset="0.559" stop-color="#fc6831"/><stop offset="0.689" stop-color="#fc9b40"/><stop offset="0.752" stop-color="#fcaf45"/><stop offset="0.781" stop-color="#fdb750"/><stop offset="0.866" stop-color="#fecb6a"/><stop offset="0.942" stop-color="#ffd87a"/><stop offset="1" stop-color="#ffdc80"/></linearGradient></defs><g transform="translate(0)"><path d="M49.144,8.943A9.1,9.1,0,0,0,41.056.856a151.019,151.019,0,0,0-32.113,0A9.1,9.1,0,0,0,.856,8.943a151.019,151.019,0,0,0,0,32.113,9.1,9.1,0,0,0,8.087,8.088,151.022,151.022,0,0,0,32.114,0,9.1,9.1,0,0,0,8.087-8.088,151.018,151.018,0,0,0,0-32.113Zm0,0" transform="translate(0 0)" fill="url(#a)"/><path d="M72.443,36.77a8.079,8.079,0,0,0-7.176-7.177,134.062,134.062,0,0,0-28.5,0,8.08,8.08,0,0,0-7.177,7.177,134.058,134.058,0,0,0,0,28.5,8.079,8.079,0,0,0,7.177,7.177,134.009,134.009,0,0,0,28.5,0,8.078,8.078,0,0,0,7.177-7.177,134.009,134.009,0,0,0,0-28.5Zm0,0" transform="translate(-26.019 -26.018)" fill="url(#b)"/><path d="M7.672,409.8q.051.518.107,1.037a9.1,9.1,0,0,0,8.088,8.087,151.019,151.019,0,0,0,32.113,0,9.1,9.1,0,0,0,8.087-8.087q.056-.518.107-1.037Zm0,0" transform="translate(-6.923 -369.785)" fill="url(#c)"/><path d="M134.948,128.871a151.15,151.15,0,0,0,.851-17.256L124.37,100.186a8.186,8.186,0,0,0-5.964-2.736c-5.04-.182-10.1-.172-15.136,0-4.186.144-7.114,2.958-7.864,7.093-.132.73-.212,1.47-.316,2.205v12.124c.058.393.142.784.169,1.179a8.814,8.814,0,0,0,2.857,6.128l11.63,11.63a151.152,151.152,0,0,0,17.115-.852,9.1,9.1,0,0,0,8.087-8.088Zm0,0" transform="translate(-85.804 -87.814)" fill="url(#d)"/><path d="M163.068,155.443a9.1,9.1,0,0,1-8.087,8.087,151.237,151.237,0,0,1-17.115.852L126.254,152.77a8.142,8.142,0,0,0,5.137,1.973c5.039.189,10.1.184,15.135,0a8.1,8.1,0,0,0,8-8.1c.152-4.839.152-9.691,0-14.531a8.436,8.436,0,0,0-2.027-5.353l11.422,11.422a151.422,151.422,0,0,1-.851,17.256Zm0,0" transform="translate(-113.924 -114.386)" fill="url(#e)"/><path d="M187.9,176.587A8.008,8.008,0,1,0,176.587,187.9l18.529,18.529q1.471-.128,2.942-.285a9.1,9.1,0,0,0,8.088-8.088q.157-1.47.285-2.942Zm0,0" transform="translate(-157.001 -157.001)" fill="url(#f)"/><path d="M341.618,166.407,326.705,151.5a1.9,1.9,0,1,0-2.667,2.667l17.313,17.313q.176-2.533.267-5.068Zm0,0" transform="translate(-291.715 -136.021)" fill="url(#g)"/><path d="M95.09,106.749c.1-.735.183-1.475.316-2.205.75-4.136,3.678-6.949,7.864-7.093,5.04-.173,10.1-.182,15.136,0a8.1,8.1,0,0,1,8,8.1q.227,7.26,0,14.531a8.1,8.1,0,0,1-8,8.1c-5.04.182-10.1.187-15.136,0-4.557-.171-7.707-3.553-8.012-8.117-.026-.395-.111-.786-.169-1.179V106.749Zm15.718,18.721c2.306,0,4.615.069,6.918-.016,3.611-.134,5.833-2.289,5.917-5.9q.157-6.743,0-13.493c-.084-3.607-2.307-5.813-5.917-5.89q-6.873-.145-13.751,0c-3.582.075-5.81,2.236-5.907,5.8q-.185,6.829,0,13.665c.1,3.567,2.325,5.678,5.908,5.811,2.274.085,4.554.016,6.832.016Zm0,0" transform="translate(-85.804 -87.813)" fill="url(#h)"/><g transform="translate(9.286 9.504)"><path d="M95.09,106.749c.1-.735.183-1.475.316-2.205.75-4.136,3.678-6.949,7.864-7.093,5.04-.173,10.1-.182,15.136,0a8.1,8.1,0,0,1,8,8.1q.227,7.26,0,14.531a8.1,8.1,0,0,1-8,8.1c-5.04.182-10.1.187-15.136,0-4.557-.171-7.707-3.553-8.012-8.117-.026-.395-.111-.786-.169-1.179V106.749Zm15.718,18.721c2.306,0,4.615.069,6.918-.016,3.611-.134,5.833-2.289,5.917-5.9q.157-6.743,0-13.493c-.084-3.607-2.307-5.813-5.917-5.89q-6.873-.145-13.751,0c-3.582.075-5.81,2.236-5.907,5.8q-.185,6.829,0,13.665c.1,3.567,2.325,5.678,5.908,5.811,2.274.085,4.554.016,6.832.016Zm0,0" transform="translate(-95.09 -97.317)" fill="#fff"/><path d="M182,174A8.008,8.008,0,1,0,190.009,182,8.009,8.009,0,0,0,182,174Zm0,13.26A5.251,5.251,0,1,1,187.252,182,5.251,5.251,0,0,1,182,187.256Zm0,0" transform="translate(-166.287 -166.508)" fill="#fff"/><path d="M327.1,152.648a1.905,1.905,0,1,1-1.905-1.905A1.905,1.905,0,0,1,327.1,152.648Zm0,0" transform="translate(-301.001 -145.525)" fill="#fff"/></g></g></svg>