<svg xmlns="http://www.w3.org/2000/svg" xmlns:xlink="http://www.w3.org/1999/xlink" width="50" height="50" viewBox="0 0 50 50"><defs><linearGradient id="a" x1="0.332" y1="0.141" x2="0.585" y2="0.682" gradientUnits="objectBoundingBox"><stop offset="0" stop-color="#0077b5"/><stop offset="1" stop-color="#0066b2"/></linearGradient><linearGradient id="b" x1="0.738" y1="0.628" x2="-0.899" y2="-0.25" gradientUnits="objectBoundingBox"><stop offset="0" stop-color="#0066b2" stop-opacity="0"/><stop offset="1" stop-color="#07485e"/></linearGradient><linearGradient id="c" x1="0.5" y1="0.059" x2="0.5" y2="1.106" xlink:href="#b"/><linearGradient id="d" x1="0.438" y1="0.439" x2="-0.037" y2="-0.037" xlink:href="#b"/><linearGradient id="e" x1="0.795" y1="0.804" x2="-0.29" y2="0.216" xlink:href="#b"/><linearGradient id="f" x1="0.892" y1="0.936" x2="-0.003" y2="0.073" xlink:href="#b"/></defs><g transform="translate(0 0)" style="isolation:isolate"><path d="M41.057,49.144a151.023,151.023,0,0,1-32.114,0A9.1,9.1,0,0,1,.856,41.056a151.019,151.019,0,0,1,0-32.114A9.1,9.1,0,0,1,8.943.856a151.02,151.02,0,0,1,32.114,0,9.1,9.1,0,0,1,8.088,8.087,151.02,151.02,0,0,1,0,32.114,9.1,9.1,0,0,1-8.087,8.088Zm0,0" fill="url(#a)"/><path d="M72.443,36.77a8.079,8.079,0,0,0-7.176-7.177,134.062,134.062,0,0,0-28.5,0,8.08,8.08,0,0,0-7.177,7.177,134.059,134.059,0,0,0,0,28.5,8.079,8.079,0,0,0,7.177,7.177,134.01,134.01,0,0,0,28.5,0,8.078,8.078,0,0,0,7.177-7.177A134.009,134.009,0,0,0,72.443,36.77Zm0,0" transform="translate(-26.018 -26.019)" fill="url(#b)"/><path d="M7.672,409.8q.051.518.107,1.037a9.1,9.1,0,0,0,8.088,8.087,151.021,151.021,0,0,0,32.114,0,9.1,9.1,0,0,0,8.087-8.087q.056-.518.107-1.037Zm0,0" transform="translate(-6.923 -369.785)" fill="url(#c)"/><path d="M134.233,131.13,101.967,98.863a3.941,3.941,0,1,0-5.524,5.524L128.6,136.542a9.112,9.112,0,0,0,5.636-5.412Zm0,0" transform="translate(-85.628 -87.813)" fill="url(#d)"/><path d="M107.972,204.5h-6.621V225.03l9.395,9.395a151.033,151.033,0,0,0,21.764-.747,9.078,9.078,0,0,0,3.51-1.126Zm0,0" transform="translate(-91.454 -184.533)" fill="url(#e)"/><path d="M228.345,202.141a6.6,6.6,0,0,0-4.893-2.161,9.319,9.319,0,0,0-6.222,2.077l-1.3-1.635h-6.1v20.526l9.423,9.423q5.574-.181,11.142-.776a9.1,9.1,0,0,0,8.087-8.087q.457-4.277.669-8.559Zm0,0" transform="translate(-189.34 -180.451)" fill="url(#f)"/><g transform="translate(9.267 9.503)"><path d="M101.355,204.5h6.621V225.03h-6.621Zm0,0" transform="translate(-100.724 -194.036)" fill="#fff"/><path d="M223.453,199.98c-4.852,0-6.983,2.7-7.52,3.518v-3.076h-6.1v20.526h6.621v-10.31c0-2.979,1.371-5.3,3.973-5.3s3.027,2.885,3.027,6.432v9.175h6.621V206.6a6.621,6.621,0,0,0-6.621-6.621Zm0,0" transform="translate(-198.608 -189.954)" fill="#fff"/><path d="M102.776,101.258a3.941,3.941,0,1,1-3.941-3.941A3.941,3.941,0,0,1,102.776,101.258Zm0,0" transform="translate(-94.894 -97.317)" fill="#fff"/></g></g></svg>