<svg xmlns="http://www.w3.org/2000/svg" xmlns:xlink="http://www.w3.org/1999/xlink" width="50" height="50" viewBox="0 0 50 50"><defs><linearGradient id="a" x1="0.332" y1="0.141" x2="0.585" y2="0.682" gradientUnits="objectBoundingBox"><stop offset="0" stop-color="#00c3ff"/><stop offset="1" stop-color="#00b0ed"/></linearGradient><linearGradient id="b" x1="0.738" y1="0.628" x2="-0.899" y2="-0.25" gradientUnits="objectBoundingBox"><stop offset="0" stop-color="#00b0ed" stop-opacity="0"/><stop offset="1" stop-color="#00a2ce"/></linearGradient><linearGradient id="c" x1="0.5" y1="0.27" x2="0.5" y2="0.926" xlink:href="#b"/><linearGradient id="d" x1="0.946" y1="0.922" x2="0.342" y2="0.273" xlink:href="#b"/></defs><g transform="translate(0 0)" style="isolation:isolate"><path d="M41.057,49.144a151.023,151.023,0,0,1-32.114,0A9.1,9.1,0,0,1,.856,41.056a151.019,151.019,0,0,1,0-32.114A9.1,9.1,0,0,1,8.943.856a151.019,151.019,0,0,1,32.114,0,9.1,9.1,0,0,1,8.088,8.087,151.019,151.019,0,0,1,0,32.114,9.1,9.1,0,0,1-8.087,8.088Zm0,0" transform="translate(0 0)" fill="url(#a)"/><path d="M72.443,36.77a8.079,8.079,0,0,0-7.176-7.177,134.062,134.062,0,0,0-28.5,0,8.08,8.08,0,0,0-7.177,7.177,134.059,134.059,0,0,0,0,28.5,8.079,8.079,0,0,0,7.177,7.177,134.009,134.009,0,0,0,28.5,0,8.078,8.078,0,0,0,7.177-7.177,134.009,134.009,0,0,0,0-28.5Zm0,0" transform="translate(-26.018 -26.019)" fill="url(#b)"/><path d="M7.672,409.8q.051.518.107,1.037a9.1,9.1,0,0,0,8.088,8.087,151.021,151.021,0,0,0,32.114,0,9.1,9.1,0,0,0,8.087-8.087q.056-.518.107-1.037Zm0,0" transform="translate(-6.923 -369.785)" fill="url(#c)"/><path d="M137.807,137.566l-10.379-10.378a12.386,12.386,0,0,1-2.96,1.238,8.469,8.469,0,0,1-1.043.214,6.445,6.445,0,0,0-11.059,4.5c0,.129,0,.256.012.382a6.214,6.214,0,0,0,.117.907,17.654,17.654,0,0,1-10.921-4.367h0L99.4,127.89s-2.548,4.448,1.2,7.822a7.152,7.152,0,0,0,.543.543l.048.052a6.315,6.315,0,0,1-2.827-.785,6.253,6.253,0,0,0,2.093,4.72l1.829,1.844a3.559,3.559,0,0,1-1.6-.153,6.159,6.159,0,0,0,1.845,2.9l2.562,2.575a13.263,13.263,0,0,1-7.769,1.73l15.542,15.186a151.185,151.185,0,0,0,16.012-.856,9.1,9.1,0,0,0,8.088-8.087,151.258,151.258,0,0,0,.845-17.814Zm0,0" transform="translate(-87.817 -114.324)" fill="url(#d)"/><path d="M128.31,129.69a11.658,11.658,0,0,1-3.325.923l-.014-.078a6.186,6.186,0,0,0,2.453-3.349,12.386,12.386,0,0,1-2.96,1.238,8.543,8.543,0,0,1-1.043.214,6.445,6.445,0,0,0-11.059,4.5c0,.128,0,.256.012.382a6.212,6.212,0,0,0,.117.907,18.014,18.014,0,0,1-13.094-6.54s-2.869,5.006,1.955,8.426a6.721,6.721,0,0,1-2.992-.794s-.305,4.824,5.251,6.35a6.1,6.1,0,0,1-2.931.061,6.216,6.216,0,0,0,5.862,4.458,12.842,12.842,0,0,1-9.224,2.746,18.213,18.213,0,0,0,27.936-15.4q0-.188,0-.376c0-.074,0-.148,0-.224,0-.052,0-.1,0-.157a11.4,11.4,0,0,0,3.059-3.293Zm0,0" transform="translate(-87.813 -114.323)" fill="#fff"/></g></svg>