<svg xmlns="http://www.w3.org/2000/svg" width="166.563" height="162" viewBox="0 0 166.563 162"><g transform="translate(-67.5 -72.5)"><path d="M222.722,147.978a27.866,27.866,0,0,1-4.426,6.434H86.231a47.665,47.665,0,0,1-4.244-6.434H222.722m-9.857,13.143a21.282,21.282,0,0,1-6.754,5.932H97.959a36.14,36.14,0,0,1-6.3-5.932h121.2M197.9,173.305c-11.682,8.716-24.505,13.143-34.225,13.781a71.712,71.712,0,0,1,1-13.781H197.9M235.043,104.9c1,10.678-2.464,23.684-9.036,36.826H177.362a59.522,59.522,0,0,1,6.708-9.081c14.146-16.519,35.868-26.787,50.973-27.745m-94.371,82.232c-9.355-.639-22.224-5.065-34-13.781h33.541a82.019,82.019,0,0,1,.456,13.781m11.682,1c-3.788-3.605-7.073-8.534-10.5-14.785h20.855a66,66,0,0,1-10.359,14.785m-24.825-46.41H78.7c-6.617-13.143-9.857-26.148-8.9-36.826,14.968.958,36.872,11.18,51.019,27.745a80.033,80.033,0,0,1,6.708,9.081m45.862,0h-42.12a68.643,68.643,0,0,1-.639-11.682c0-23.045,10.176-46.866,21.676-57.544,11.363,10.678,21.722,34.545,21.722,57.544a115.614,115.614,0,0,1-.639,11.682" transform="translate(-1.162)"/><path d="M419.905,344.2a3.656,3.656,0,0,1,3.605,3.788,3.605,3.605,0,0,1-7.21,0A3.685,3.685,0,0,1,419.905,344.2Zm0,.5a3.2,3.2,0,0,0,0,6.389,3.2,3.2,0,0,0,3.1-3.1A3.238,3.238,0,0,0,419.905,344.7Zm.821,3.331c.183,0,.639.137.639.821V350h-.639v-.5c0-.821-.183-1.186-.639-1.186h-.821v1.643h-.639v-4.107h1.323a1.316,1.316,0,0,1,1.46,1.186C421.411,347.486,421.046,348.033,420.726,348.033Zm-1.46-1.506v1.141h.639c.319,0,.821-.183.821-.5a.686.686,0,0,0-.639-.639h-.821" transform="translate(-189.629 -147.713)"/><path d="M389.423,392.651c6.891,0,12.686-2.784,12.686-9.674,0-3.924-2.784-6.571-7.256-7.758-4.609-1.141-10.5-.958-10.5-3.924.319-1.962,2.145-2.464,4.928-2.464,4.29,0,4.472,2.282,4.655,3.788h7.028c-.5-5.43-4.928-9.218-12-9.218-7.393,0-11.682,3.924-11.682,9.081a7.6,7.6,0,0,0,3.925,6.891,31.607,31.607,0,0,0,7.256,2.008c3.1.319,5.887.639,6.069,2.784,0,1.46-1.46,3.286-4.792,3.286-4.792,0-5.75-2.647-5.75-4.427H376.6c.183,5.659,4.928,9.629,12.823,9.629" transform="translate(-168.046 -158.151)"/><path d="M319.331,392.651a15.446,15.446,0,0,0,8.26-2.464v1.825h7.073V363.719h-7.119v2.145a13.823,13.823,0,0,0-8.26-2.464A14.723,14.723,0,0,0,304.5,378.048,14.873,14.873,0,0,0,319.331,392.651ZM311.482,378a8.368,8.368,0,0,1,8.214-8.26,8.173,8.173,0,0,1,0,16.337A8.334,8.334,0,0,1,311.482,378" transform="translate(-128.848 -158.151)"/><path d="M256.945,342.746v11.819a14.756,14.756,0,0,0-8.4-2.464,14.626,14.626,0,1,0,0,29.251,16.051,16.051,0,0,0,8.4-2.464v1.825h6.891V342.7h-6.891Zm-16.246,24a8.146,8.146,0,1,1,8.032,8.077,8.336,8.336,0,0,1-8.032-8.077" transform="translate(-90.465 -146.897)"/><path d="M212.4,380.767h6.891V352.474H212.4Zm0-30.894h6.891V342.8H212.4v7.073" transform="translate(-78.777 -146.952)"/><path d="M153.285,381.452a16.568,16.568,0,0,0,8.4-2.464v1.825h7.073V342.8h-7.073v11.819a14.743,14.743,0,1,0-8.4,26.833ZM145.208,366.8a8.238,8.238,0,1,1,8.4,8.077,8.406,8.406,0,0,1-8.4-8.077" transform="translate(-38.6 -146.952)"/><path d="M82.1,392.651a16.415,16.415,0,0,0,8.534-2.464v1.825h6.891V363.719H90.636v2.145A15.306,15.306,0,0,0,82.1,363.4a14.626,14.626,0,0,0,0,29.251ZM74.208,378a8.238,8.238,0,1,1,8.077,8.077A8.343,8.343,0,0,1,74.208,378" transform="translate(0 -158.151)"/></g></svg>