<svg xmlns="http://www.w3.org/2000/svg" width="75" height="75" viewBox="0 0 75 75"><rect width="75" height="75" fill="none"/><g transform="translate(9.375 9.375)"><path d="M46.75,28V3H15.5V15.5H3V59.25H28V46.75h6.25v12.5h25V28ZM15.5,53H9.25V46.75H15.5Zm0-12.5H9.25V34.25H15.5Zm0-12.5H9.25V21.75H15.5ZM28,40.5H21.75V34.25H28ZM28,28H21.75V21.75H28Zm0-12.5H21.75V9.25H28Zm12.5,25H34.25V34.25H40.5Zm0-12.5H34.25V21.75H40.5Zm0-12.5H34.25V9.25H40.5ZM53,53H46.75V46.75H53Zm0-12.5H46.75V34.25H53Z" transform="translate(-3 -3)" fill="#0093dd"/></g></svg>