<svg xmlns="http://www.w3.org/2000/svg" width="280.516" height="207.5" viewBox="0 0 280.516 207.5"><path d="M513.791,529.815s37.253-4.47,50.292-11.549,109.9-10.431,109.9,11.549-111.387,31.665-111.387,31.665L504.1,558.128Z" transform="translate(-394.208 -388.999)" fill="#a0616a"/><path d="M513.791,529.815s37.253-4.47,50.292-11.549,109.9-10.431,109.9,11.549-111.387,31.665-111.387,31.665L504.1,558.128Z" transform="translate(-394.208 -388.999)" fill="#a0616a" opacity="0.1"/><path d="M287.386,527.792l-7.823,22.724L157,552.006V518.479s46.939-10.8,84.192,12.294C241.192,530.772,285.151,525.557,287.386,527.792Z" transform="translate(-157 -391.073)" fill="#0093dd"/><path d="M287.386,527.676,279.563,550.4,157,551.89V518.362s46.939-10.8,84.192,12.294C241.192,530.656,285.151,525.441,287.386,527.676Z" transform="translate(-157 -390.994)" opacity="0.1"/><path d="M801.441,460.663c0,1.27-2.847,2.212-3.127,3.437s1.414,3.062.879,4.222a22.979,22.979,0,0,1-1.954,3.4c-.7,1-2.868.857-3.756,1.8a29.845,29.845,0,0,1-2.758,2.4c-.943.784-2.219.948-3.291,1.67-1.019.686-.9,3.2-2.023,3.827-1.077.6-2.726.117-3.894.653-1.121.515-1.713,2.378-2.912,2.834-1.156.439-2.588.25-3.81.631-1.183.368-2.507.309-3.747.619-1.2.3-2.123,2.106-3.376,2.349-1.22.237-2.65-.4-3.912-.216-1.232.175-2.665-1.384-3.933-1.266-1.241.116-2.41.837-3.68.9-1.246.057-2.478.606-3.748.606s-2.582,1.192-3.828,1.135c-1.271-.058-2.421-1.865-3.661-1.981-1.268-.118-2.78,1.769-4.012,1.594-1.262-.18-2.261-2.027-3.481-2.264-1.253-.243-2.871,1.077-4.075.776-1.24-.31-1.976-2.459-3.159-2.828-1.223-.381-2.738.135-3.894-.3-1.2-.456-2.66-.382-3.782-.9-1.168-.537-2.007-1.806-3.084-2.4-1.127-.625-1.647-2.174-2.666-2.86-1.072-.722-2.7-.63-3.647-1.413-1-.828-2.859-.871-3.7-1.761-.888-.942-1.248-2.523-1.949-3.527-.739-1.058.711-3.294.2-4.411-.535-1.16-2.772-1.631-3.05-2.846a17.866,17.866,0,0,1-.438-3.865c0-1.27,1.913-2.24,2.193-3.465s-1.13-2.96-.6-4.12c.516-1.118.45-2.836,1.189-3.894.7-1,2.451-1.4,3.339-2.339.84-.89,2.343-1.139,3.338-1.966.943-.784.822-3.148,1.894-3.869,1.019-.686,2.442-1,3.569-1.624,1.077-.6,2.6-.5,3.77-1.033,1.122-.515,2.878.5,4.077.044,1.156-.439,2.094-1.4,3.317-1.78,1.183-.368,1.739-3.177,2.979-3.487,1.2-.3,2.685.2,3.938-.045,1.22-.237,2.862,1.979,4.124,1.8,1.232-.175,2.154-3.134,3.421-3.252,1.241-.116,2.64,1.417,3.91,1.358,1.246-.057,2.5.841,3.768.841s2.537-1.232,3.782-1.175c1.271.058,2.391,1.687,3.631,1.8,1.268.118,2.824-2.359,4.056-2.183,1.262.18,2.237,2.094,3.457,2.331,1.253.243,2.822-.945,4.026-.644,1.24.31,1.986,2.345,3.169,2.713,1.222.381,1.976,1.816,3.132,2.255,1.2.456,3.427-1.676,4.548-1.161,1.168.537,2.178,1.465,3.255,2.062,1.127.625,2.919.311,3.938,1,1.072.722,1.335,2.659,2.278,3.443,1,.828,2.636,1.077,3.476,1.967.888.942,1.012,2.629,1.713,3.633.738,1.058.715,2.523,1.231,3.641.535,1.16,1.964,2.037,2.241,3.252S801.441,459.393,801.441,460.663Z" transform="translate(-530.929 -333.444)" fill="#3f3d56"/><path d="M580.409,563.279s42.1-21.607,69.291-13.411,65.193-5.96,69.663-1.118,10.8,57-42.841,59.978-99.466-8.941-99.466-8.941Z" transform="translate(-444.062 -412.777)" fill="#a0616a"/><path d="M283.433,562.669s16.619-1.052,15.874,4.909-1.49,52.154-5.961,53.272-39.861,1.118-54.39,1.118H157V550.549s58.115-3.46,87.173,11.069C244.173,561.618,279.108,561.113,283.433,562.669Z" transform="translate(-157 -414.468)" fill="#0093dd"/><path d="M784.926,236.779a8.562,8.562,0,0,0-7.38,5.16c-1.845,4.461.531,9.7,4.1,12.953s8.149,5.112,12.312,7.556c5.591,3.283,10.616,7.839,13.414,13.688s3.1,13.095-.193,18.682c-3.052,5.187-8.6,8.291-13.9,11.154" transform="translate(-580.637 -200.287)" fill="none" stroke="#3f3d56" stroke-miterlimit="10" stroke-width="1"/><path d="M831.991,150.885a8.562,8.562,0,0,0-7.38,5.16c-1.845,4.461.531,9.7,4.1,12.953s8.149,5.112,12.311,7.556c5.592,3.283,10.616,7.839,13.414,13.688s3.1,13.094-.193,18.682c-3.052,5.187-8.6,8.291-13.9,11.154" transform="translate(-612.801 -141.588)" fill="none" stroke="#3f3d56" stroke-miterlimit="10" stroke-width="1"/><path d="M926.878,167.387a8.562,8.562,0,0,0-8.994-.438c-4.19,2.4-5.519,8-4.69,12.751s3.314,9.031,5.11,13.511c2.412,6.019,3.6,12.7,2.227,19.035s-5.569,12.249-11.59,14.654c-5.589,2.232-11.878,1.289-17.816.312" transform="translate(-658.694 -151.836)" fill="none" stroke="#3f3d56" stroke-miterlimit="10" stroke-width="1"/><ellipse cx="8.941" cy="4.343" rx="8.941" ry="4.343" transform="translate(216.069 63.085)" fill="#57b894"/><ellipse cx="8.941" cy="4.343" rx="8.941" ry="4.343" transform="translate(214.951 62.34)" fill="none" stroke="#3f3d56" stroke-miterlimit="10" stroke-width="1"/><ellipse cx="8.941" cy="4.343" rx="8.941" ry="4.343" transform="translate(235.44 59.36)" fill="#57b894"/><ellipse cx="8.941" cy="4.343" rx="8.941" ry="4.343" transform="translate(234.322 58.615)" fill="none" stroke="#3f3d56" stroke-miterlimit="10" stroke-width="1"/><ellipse cx="8.941" cy="4.343" rx="8.941" ry="4.343" transform="translate(238.42 75.751)" fill="#57b894"/><ellipse cx="8.941" cy="4.343" rx="8.941" ry="4.343" transform="translate(237.303 75.006)" fill="none" stroke="#3f3d56" stroke-miterlimit="10" stroke-width="1"/><ellipse cx="8.941" cy="4.343" rx="8.941" ry="4.343" transform="translate(236.558 34.773)" fill="#57b894"/><ellipse cx="8.941" cy="4.343" rx="8.941" ry="4.343" transform="translate(235.44 34.028)" fill="none" stroke="#3f3d56" stroke-miterlimit="10" stroke-width="1"/><ellipse cx="8.941" cy="4.343" rx="8.941" ry="4.343" transform="translate(214.206 32.165)" fill="#57b894"/><ellipse cx="8.941" cy="4.343" rx="8.941" ry="4.343" transform="translate(213.088 31.42)" fill="none" stroke="#3f3d56" stroke-miterlimit="10" stroke-width="1"/><ellipse cx="8.941" cy="4.343" rx="8.941" ry="4.343" transform="translate(224.264 22.852)" fill="#57b894"/><ellipse cx="8.941" cy="4.343" rx="8.941" ry="4.343" transform="translate(223.147 22.107)" fill="none" stroke="#3f3d56" stroke-miterlimit="10" stroke-width="1"/><ellipse cx="8.941" cy="4.343" rx="8.941" ry="4.343" transform="translate(246.243 24.715)" fill="#57b894"/><ellipse cx="8.941" cy="4.343" rx="8.941" ry="4.343" transform="translate(245.126 23.97)" fill="none" stroke="#3f3d56" stroke-miterlimit="10" stroke-width="1"/><ellipse cx="8.941" cy="4.343" rx="8.941" ry="4.343" transform="translate(262.635 37.008)" fill="#57b894"/><ellipse cx="8.941" cy="4.343" rx="8.941" ry="4.343" transform="translate(261.517 36.263)" fill="none" stroke="#3f3d56" stroke-miterlimit="10" stroke-width="1"/><ellipse cx="8.941" cy="4.343" rx="8.941" ry="4.343" transform="translate(204.893 15.401)" fill="#57b894"/><ellipse cx="8.941" cy="4.343" rx="8.941" ry="4.343" transform="translate(203.775 14.656)" fill="none" stroke="#3f3d56" stroke-miterlimit="10" stroke-width="1"/><ellipse cx="8.941" cy="4.343" rx="8.941" ry="4.343" transform="translate(210.48 1.245)" fill="#57b894"/><ellipse cx="8.941" cy="4.343" rx="8.941" ry="4.343" transform="translate(209.363 0.5)" fill="none" stroke="#3f3d56" stroke-miterlimit="10" stroke-width="1"/><ellipse cx="8.941" cy="4.343" rx="8.941" ry="4.343" transform="translate(262.262 11.676)" fill="#57b894"/><ellipse cx="8.941" cy="4.343" rx="8.941" ry="4.343" transform="translate(261.145 10.931)" fill="none" stroke="#3f3d56" stroke-miterlimit="10" stroke-width="1"/><ellipse cx="8.941" cy="4.343" rx="8.941" ry="4.343" transform="translate(179.933 45.949)" fill="#57b894"/><ellipse cx="8.941" cy="4.343" rx="8.941" ry="4.343" transform="translate(178.815 45.204)" fill="none" stroke="#3f3d56" stroke-miterlimit="10" stroke-width="1"/><ellipse cx="8.941" cy="4.343" rx="8.941" ry="4.343" transform="translate(210.853 43.714)" fill="#57b894"/><ellipse cx="8.941" cy="4.343" rx="8.941" ry="4.343" transform="translate(209.735 42.969)" fill="none" stroke="#3f3d56" stroke-miterlimit="10" stroke-width="1"/><ellipse cx="8.941" cy="4.343" rx="8.941" ry="4.343" transform="translate(251.459 47.066)" fill="#57b894"/><ellipse cx="8.941" cy="4.343" rx="8.941" ry="4.343" transform="translate(250.341 46.321)" fill="none" stroke="#3f3d56" stroke-miterlimit="10" stroke-width="1"/><ellipse cx="8.941" cy="4.343" rx="8.941" ry="4.343" transform="translate(229.852 48.557)" fill="#57b894"/><ellipse cx="8.941" cy="4.343" rx="8.941" ry="4.343" transform="translate(228.735 47.812)" fill="none" stroke="#3f3d56" stroke-miterlimit="10" stroke-width="1"/><ellipse cx="8.941" cy="4.343" rx="8.941" ry="4.343" transform="translate(231.342 11.303)" fill="#57b894"/><ellipse cx="8.941" cy="4.343" rx="8.941" ry="4.343" transform="translate(230.225 10.558)" fill="none" stroke="#3f3d56" stroke-miterlimit="10" stroke-width="1"/><ellipse cx="8.941" cy="4.343" rx="8.941" ry="4.343" transform="translate(192.972 34.4)" fill="#57b894"/><ellipse cx="8.941" cy="4.343" rx="8.941" ry="4.343" transform="translate(191.854 33.655)" fill="none" stroke="#3f3d56" stroke-miterlimit="10" stroke-width="1"/><ellipse cx="8.941" cy="4.343" rx="8.941" ry="4.343" transform="translate(198.187 51.164)" fill="#57b894"/><ellipse cx="8.941" cy="4.343" rx="8.941" ry="4.343" transform="translate(197.069 50.419)" fill="none" stroke="#3f3d56" stroke-miterlimit="10" stroke-width="1"/><g transform="translate(200.92 79.09)" opacity="0.3"><ellipse cx="4.684" cy="2.028" rx="4.684" ry="2.028" transform="translate(0.589 8.177) rotate(-60.799)" fill="#57b894"/><ellipse cx="4.684" cy="2.028" rx="4.684" ry="2.028" transform="translate(0 8.519) rotate(-60.799)" fill="none" stroke="#3f3d56" stroke-miterlimit="10" stroke-width="1"/></g><g transform="translate(245.4 87.576)" opacity="0.3"><ellipse cx="2.028" cy="4.684" rx="2.028" ry="4.684" transform="matrix(0.667, -0.745, 0.745, 0.667, 0.204, 3.673)" fill="#57b894"/><ellipse cx="2.028" cy="4.684" rx="2.028" ry="4.684" transform="matrix(0.667, -0.745, 0.745, 0.667, 0, 3.023)" fill="none" stroke="#3f3d56" stroke-miterlimit="10" stroke-width="1"/></g><g transform="translate(203.676 64.106)" opacity="0.3"><ellipse cx="2.028" cy="4.684" rx="2.028" ry="4.684" transform="matrix(0.667, -0.745, 0.745, 0.667, 0.204, 3.673)" fill="#57b894"/><ellipse cx="2.028" cy="4.684" rx="2.028" ry="4.684" transform="matrix(0.667, -0.745, 0.745, 0.667, 0, 3.023)" fill="none" stroke="#3f3d56" stroke-miterlimit="10" stroke-width="1"/></g></svg>