<svg xmlns="http://www.w3.org/2000/svg" width="193.17" height="96.27" viewBox="0 0 193.17 96.27"><g transform="translate(0 0)"><path d="M677.282,340.752H592.706a4.365,4.365,0,0,1-4.172-4.526V274.55a2.534,2.534,0,0,1,1.378-2.3l31.96-18.973a12.932,12.932,0,0,1,11.276-.011l46.919,18.982a2.534,2.534,0,0,1,1.386,2.3v61.674A4.364,4.364,0,0,1,677.282,340.752Z" transform="translate(-502.779 -244.671)" fill="#f2f2f2"/><path d="M664.925,444.079H592.3a3.444,3.444,0,0,1-3.6-3.258V396.858a1.827,1.827,0,0,1,1.2-1.669l33.816-13.527a13.165,13.165,0,0,1,9.674,0l33.931,13.533a1.827,1.827,0,0,1,1.2,1.67v43.962A3.444,3.444,0,0,1,664.925,444.079Z" transform="translate(-502.911 -348.066)" fill="#0093dd"/><circle cx="10.642" cy="10.642" r="10.642" transform="translate(47.599 29.622)" fill="#85c226"/><ellipse cx="13.478" cy="16.871" rx="13.478" ry="16.871" transform="translate(48.918 44.706)" fill="#f2f2f2"/><path d="M317.349,282.238h.037l.667,38.213h-1.407Z" transform="translate(-255.343 -224.553)" fill="#ccc"/><path d="M423.382,618.968h0a.333.333,0,0,1-.14.45l-1.933,1.018-.311-.59,1.933-1.018A.333.333,0,0,1,423.382,618.968Z" transform="translate(-359.152 -535.985)" fill="#ccc"/><ellipse cx="13.478" cy="16.871" rx="13.478" ry="16.871" transform="translate(15.122 44.706)" fill="#f2f2f2"/><path d="M237.061,525.438h0a.333.333,0,0,0-.45-.14l-1.35.71-.462-26.5h-.037l-.7,38.213h1.407l-.191-10.966,1.647-.867A.333.333,0,0,0,237.061,525.438Z" transform="translate(-206.124 -441.823)" fill="#ccc"/><path d="M265.058,331c9.432,0,17.1,17.161,17.1,28.561S274.511,380.2,265.078,380.2,248,370.961,248,359.561,255.626,331,265.058,331Z" transform="translate(-217.13 -307.049)" fill="#0093dd"/><path d="M328.891,483.9a.422.422,0,0,0-.57-.177l-1.71.9-.585-33.579h-.047l-.891,48.42h1.783l-.242-13.895,2.087-1.1A.422.422,0,0,0,328.891,483.9Z" transform="translate(-281.828 -403.563)" fill="#3f3d56"/><path d="M637.92,512.623v-4.547a2.236,2.236,0,0,0-2.236-2.236H624.21a2.236,2.236,0,0,0-2.236,2.236v4.547Z" transform="translate(-521.855 -446.236)" fill="#fff"/><path d="M621.974,541.439v7.046a2.236,2.236,0,0,0,2.236,2.236h11.474a2.236,2.236,0,0,0,2.236-2.236v-7.046Z" transform="translate(-521.855 -474.519)" fill="#fff"/><path d="M647.84,390.931,613.392,378.3a9.422,9.422,0,0,0-6.486,0l-34.448,12.628A4.8,4.8,0,0,1,566,386.42h0a4.8,4.8,0,0,1,3.151-4.511l37.756-13.84a9.422,9.422,0,0,1,6.486,0l37.755,13.84a4.8,4.8,0,0,1,3.151,4.511h0a4.8,4.8,0,0,1-6.458,4.511Z" transform="translate(-484.991 -336.604)" fill="#3f3d56"/><path d="M753.725,571.3h-9.207a3.69,3.69,0,0,1-3.685-3.685v-22.3a3.69,3.69,0,0,1,3.685-3.685h9.207a3.69,3.69,0,0,1,3.685,3.685v22.3a3.69,3.69,0,0,1-3.685,3.685Zm-9.207-29.036a3.057,3.057,0,0,0-3.054,3.054v22.3a3.057,3.057,0,0,0,3.054,3.054h9.207a3.057,3.057,0,0,0,3.054-3.054v-22.3a3.057,3.057,0,0,0-3.054-3.054Z" transform="translate(-617.892 -475.078)" fill="#3f3d56"/><path d="M756.542,293.7a6.663,6.663,0,0,0-13.272,0Z" transform="translate(-619.662 -273.098)" fill="#fff"/><path d="M743.151,319.842a6.662,6.662,0,1,0,13.323,0Z" transform="translate(-619.569 -298.655)" fill="#fff"/><path d="M751.877,339.748H740.691a2.009,2.009,0,0,1,0-4.019h11.186a2.009,2.009,0,0,1,0,4.019Z" transform="translate(-616.072 -311.247)" fill="#ccc"/><path d="M615.8,574.713a1.8,1.8,0,0,0,0,3.6H631.5a1.8,1.8,0,0,0,0-3.6Z" transform="translate(-515.578 -500.835)" fill="#ccc"/><path d="M854.216,541.439v7.046a2.236,2.236,0,0,0,2.236,2.236h11.474a2.236,2.236,0,0,0,2.236-2.236v-7.046Z" transform="translate(-709.429 -474.519)" fill="#fff"/><path d="M870.161,512.623v-4.547a2.236,2.236,0,0,0-2.236-2.236H856.451a2.236,2.236,0,0,0-2.236,2.236v4.547Z" transform="translate(-709.429 -446.236)" fill="#fff"/><circle cx="1.309" cy="1.309" r="1.309" transform="translate(135.173 79.486)" fill="#3f3d56"/><path d="M476.659,365.338l-5.156-8.02.239-.154,4.893,7.611,3.987-7.6.251.132Z" transform="translate(-380.537 -283.7)" fill="#3f3d56"/><path d="M537.341,552.049H525.075v-.213a2.623,2.623,0,0,0-2.623-2.623h0a2.623,2.623,0,0,0-2.623,2.623v.213h-1.205a2.623,2.623,0,0,0,0,5.247h1.205V577.12c5.227-.1-.038.106,5.247,0V557.3h12.266a2.623,2.623,0,0,0,0-5.247Z" transform="translate(-436.589 -481.06)" fill="#3f3d56"/><circle cx="0.993" cy="0.993" r="0.993" transform="translate(85.198 72.945)" fill="#fff"/><path d="M574.648,608.285H563.306a2.023,2.023,0,0,1-2.021-2.021v-3.685a2.023,2.023,0,0,1,2.021-2.021h11.342a2.023,2.023,0,0,1,2.021,2.021v3.685A2.023,2.023,0,0,1,574.648,608.285Z" transform="translate(-472.814 -521.593)" fill="#ccc"/><rect width="8.792" height="1.56" rx="0.78" transform="translate(91.701 81.907)" fill="#0093dd"/><path d="M294.431,681.509H101.562a.163.163,0,0,1,0-.326H294.432a.163.163,0,0,1,0,.326Z" transform="translate(-101.412 -585.239)" fill="#ccc"/><path d="M862.392,577.732H846.684a2.009,2.009,0,0,1,0-4.019h15.708a2.009,2.009,0,0,1,0,4.019Z" transform="translate(-701.993 -500.048)" fill="#ccc"/><path d="M837.962,249.694s-3.809-.27-11.583-.632C817.113,232.846,787,228.938,787,217.271h37.016a13.964,13.964,0,0,1,13.964,13.964Z" transform="translate(-659.447 -217.271)" fill="#ccc"/><path d="M875.371,237.514a.316.316,0,0,0-.316.316v10.547a.316.316,0,0,0,.316.316h6.57a.316.316,0,0,0,.316-.316V237.83a.316.316,0,0,0-.316-.316Z" transform="translate(-725.651 -233.251)" fill="#f2f2f2"/><path d="M656.424,248.843,621.976,228.08a9.422,9.422,0,0,0-6.486,0l-34.448,20.763a4.8,4.8,0,0,1-6.458-4.511h0a4.8,4.8,0,0,1,3.151-4.511l37.755-21.975a9.422,9.422,0,0,1,6.486,0l37.755,21.975a4.8,4.8,0,0,1,3.151,4.511h0a4.8,4.8,0,0,1-6.458,4.511Z" transform="translate(-491.767 -217.27)" fill="#ccc"/></g></svg>