<svg xmlns="http://www.w3.org/2000/svg" width="193.17" height="96.266" viewBox="0 0 193.17 96.266"><g transform="translate(0 0)"><circle cx="9.495" cy="9.495" r="9.495" transform="translate(43.246 59.744)" fill="#e4e4e4"/><path d="M351.778,519.474a9.5,9.5,0,0,0,15.822,10.05,9.5,9.5,0,1,1-15.822-10.05Z" transform="translate(-306.048 -456.577)" opacity="0.2"/><path d="M246.473,325.819h.026l.47,26.921h-.991Z" transform="translate(-193.705 -256.579)" fill="#3f3d56"/><circle cx="19.144" cy="19.144" r="19.144" transform="translate(14.386 22.739)" fill="#e4e4e4"/><path d="M218.786,360.416a19.146,19.146,0,0,0,31.9,20.262,19.146,19.146,0,1,1-31.9-20.262Z" transform="translate(-199.392 -331.32)" opacity="0.2"/><path d="M154.326,197.087h.053l.947,54.277h-2Z" transform="translate(-120.744 -155.204)" fill="#3f3d56"/><rect width="87.749" height="26.013" transform="translate(72 68.067)" fill="#f0f0f0"/><rect width="10.232" height="20.637" transform="translate(110.758 73.443)" fill="#cacaca"/><rect width="77.518" height="23.932" transform="translate(77.115 37.372)" fill="#f0f0f0"/><path d="M561.745,262.346H468.509a.78.78,0,0,1-.541-1.343L493.45,236.51V225.842a.781.781,0,0,1,.78-.78h5.029a.781.781,0,0,1,.78.78v4.334l1.925-1.85a17.293,17.293,0,0,1,23.546-.392l36.756,33.051a.78.78,0,0,1-.522,1.361Z" transform="translate(-399.252 -223.5)" fill="#cacaca"/><path d="M440.861,204.421h0a4.942,4.942,0,0,1,4.942,4.942v6.677h-9.885v-6.677A4.942,4.942,0,0,1,440.861,204.421Z" transform="translate(-343.283 -160.98)" fill="#fff"/><path d="M526.955,204.829h0a4.942,4.942,0,0,1,4.942,4.942v6.677h-9.885v-6.677A4.942,4.942,0,0,1,526.955,204.829Z" transform="translate(-411.08 -161.301)" fill="#fff"/><path d="M613.048,205.237h0a4.942,4.942,0,0,1,4.942,4.942v6.677h-9.885v-6.677A4.942,4.942,0,0,1,613.048,205.237Z" transform="translate(-478.879 -161.622)" fill="#fff"/><path d="M647.322,344.373h0a4.942,4.942,0,0,1,4.942,4.942v6.677H642.38v-6.677A4.942,4.942,0,0,1,647.322,344.373Z" transform="translate(-505.869 -271.191)" fill="#fff"/><path d="M417.2,344.373h0a4.942,4.942,0,0,1,4.942,4.942v6.677h-9.885v-6.677A4.942,4.942,0,0,1,417.2,344.373Z" transform="translate(-324.647 -271.191)" fill="#fff"/><path d="M535.841,518.5l-16.461-7.284a.694.694,0,0,0-.281-.059H440.65a.692.692,0,0,0-.261.051l-17.917,7.284a.694.694,0,0,0,.261,1.336h4.649V543.76h-.52v2.428H531.432V543.76h-.867V519.829h5a.694.694,0,0,0,.281-1.328Zm-6.663,25.26H428.769V519.829H529.177Z" transform="translate(-363.272 -450.028)" fill="#cacaca"/><rect width="12.659" height="2.081" transform="translate(91.076 54.107)" fill="#cacaca"/><rect width="12.659" height="2.081" transform="translate(109.631 54.107)" fill="#cacaca"/><rect width="12.659" height="2.081" transform="translate(128.187 54.107)" fill="#cacaca"/><rect width="12.659" height="2.081" transform="translate(135.124 84.108)" fill="#cacaca"/><rect width="12.659" height="2.081" transform="translate(86.046 84.108)" fill="#cacaca"/><path d="M338.457,674.925H145.712a.213.213,0,0,1,0-.425H338.457a.213.213,0,0,1,0,.425Z" transform="translate(-145.5 -578.659)" fill="#3f3d56"/><path d="M655.189,385.86c0,.136,0,.274,0,.41,0,.164-.006.325-.013.489-.006.142-.013.283-.021.423-.026.47-.066.937-.121,1.407-.013.119-.028.236-.045.355-.013.091-.026.185-.04.278s-.03.208-.047.312q-.051.331-.115.663c-.021.111-.043.221-.066.332-.044.219-.093.44-.144.659l-.013.053c-.026.108-.051.215-.078.323-.009.032-.015.062-.026.093-.019.081-.041.161-.062.242-.03.113-.06.223-.092.336-.051.174-.1.346-.155.521a.548.548,0,0,0-.017.055c-.1.329-.21.655-.329.978-.062.17-.128.342-.193.512s-.134.34-.2.508-.138.327-.208.489c-.017.038-.034.077-.053.115-.074.168-.151.332-.229.5,0,0,0,.006,0,.008-.062.132-.128.264-.193.393a.016.016,0,0,1,0,.011c-.064.128-.13.255-.2.38l-.108.206-.013.023c-.136.253-.276.5-.425.752-.032.055-.064.111-.1.164s-.066.11-.1.164-.045.077-.07.115c-.045.072-.089.147-.136.219-.009.015-.019.03-.028.045l-.242.374c-.1.151-.2.3-.306.448l-2.308,3.693-.1-.083-.027-.026h0l-.091-.077-.251-.213c-.077.074-.151.149-.227.221-.03.03-.062.057-.092.087l-.068.064a22.253,22.253,0,0,1-14.871,6.322h-.006a24.29,24.29,0,0,1-12.119-2.86c-.083-.043-.164-.085-.245-.134-.484-.264-.958-.542-1.424-.839l-.006,0q-.81-.574-1.581-1.224a23.36,23.36,0,0,1-8.273-19.081c.006-.142.015-.283.025-.425q.051-.772.157-1.536c.019-.142.04-.285.062-.425h45.43q.134.975.185,1.962C655.178,385.041,655.189,385.449,655.189,385.86Z" transform="translate(-510.712 -348.845)" fill="#f0f0f0"/><path d="M655.185,310.208a22.971,22.971,0,0,0-45.43,0c-.021.14-.042.283-.062.425q-.105.765-.157,1.536H655.37Q655.319,311.184,655.185,310.208Z" transform="translate(-510.925 -276.382)" fill="#0093dd"/><path d="M675.683,436.493H662.521V425.963c.243-4.812,4.355-5.2,8.22-4.942a4.942,4.942,0,0,1,4.942,4.943Z" transform="translate(-552.65 -378.999)" fill="#0093dd"/><path d="M620.582,325.51v0s0,0,0,0Zm-5.294-16.182c-.008.053-.019.106-.028.159.009-.053.019-.106.03-.159Zm-.263,1.961c-.006.081-.013.162-.017.242q.007-.121.019-.242a.32.32,0,0,1,0-.045C615.027,311.26,615.027,311.275,615.025,311.289Zm5.557,14.223s0,0,0,0l0,0Zm-5.294-16.185c-.008.053-.019.106-.028.159.009-.053.019-.106.03-.159Zm-.281,2.2q.007-.121.019-.242a.32.32,0,0,1,0-.045c0,.015,0,.03,0,.045-.006.081-.013.162-.017.242Zm65.652,39.093a1.447,1.447,0,0,0-.132-.123l0,0L670,341.619l-.272-.23-1.035-.873-.259-.219-1.475-1.245-.4-.34-.835-.706-.427-.361-4.029-3.4-2.31-1.949-.31-.261-6.807-5.744c.1-.149.206-.3.306-.448l.242-.374c.008-.015.019-.03.028-.045.047-.072.091-.147.136-.219.026-.038.049-.077.07-.115.034-.053.068-.108.1-.164s.064-.108.1-.164c.149-.249.289-.5.425-.752l.013-.023.108-.206c.068-.125.134-.253.2-.38a.015.015,0,0,0,0-.011c.066-.13.132-.261.193-.393,0,0,0-.006,0-.008.079-.164.155-.327.23-.5.019-.038.036-.076.053-.115.07-.161.14-.325.208-.489s.138-.338.2-.508.132-.342.193-.512q.175-.488.329-.978a.515.515,0,0,1,.017-.055c.053-.174.1-.346.155-.521.032-.113.062-.223.091-.336.021-.081.042-.161.062-.242.011-.032.017-.062.025-.094.028-.108.053-.215.079-.323l.013-.053c.051-.219.1-.44.144-.659.023-.11.045-.221.066-.332.04-.221.081-.442.115-.663.017-.1.032-.208.047-.312s.027-.187.04-.278c.017-.119.032-.236.045-.355.055-.47.1-.937.121-1.407.009-.14.015-.281.021-.423.006-.164.01-.325.013-.489,0-.136,0-.274,0-.41,0-.41-.011-.818-.032-1.228q-.051-.985-.185-1.961a23.387,23.387,0,0,0-46.28-.425c-.021.14-.042.283-.062.425q-.105.765-.157,1.536c-.011.142-.019.283-.026.425a23.36,23.36,0,0,0,8.273,19.081q.771.65,1.581,1.224l.006,0c.181.128.361.253.544.376.291.191.584.378.88.557l.07.04c.255.153.512.3.769.442h0a22.97,22.97,0,0,0,2.973,1.369,23.457,23.457,0,0,0,9.4,1.475h.006a23.325,23.325,0,0,0,10.606-3.139c.47-.272.933-.563,1.386-.873.113-.076.227-.155.338-.234.136-.1.272-.2.408-.3,0,0,0,0,0,0l.032-.023.274-.208c.023-.017.047-.034.07-.053a.1.1,0,0,0,.017-.015c.053-.038.1-.081.157-.121s.1-.083.157-.125a.2.2,0,0,0,.025-.019l.179-.145c.062-.049.121-.1.179-.149s.117-.1.176-.149.1-.087.155-.134c.017-.013.032-.028.049-.043a.146.146,0,0,1,.021-.017c.07-.06.138-.121.206-.183l.049-.045c.1-.093.208-.187.31-.285l.072-.066.068-.064c.03-.03.062-.057.091-.087.077-.072.151-.147.227-.221l.251.212.091.076h0l.028.026.1.083,1.484,1.254.032.028.025.019.168.142.336.285.336.283.049.04,1.562,1.318.217.183,1.507,1.271,7.8,6.581.272.23,10.674,9.006,2.737,2.31,1.018.858a2.153,2.153,0,0,0,3.037-.255,2.093,2.093,0,0,0,.359-.6A2.145,2.145,0,0,0,680.66,350.625ZM619.1,301.363a17.521,17.521,0,0,1,30.591,7.965c.028.142.053.283.076.425.087.508.151,1.022.189,1.536.011.142.021.283.028.425.019.319.028.64.028.958a17.441,17.441,0,0,1-.948,5.682v0a17.431,17.431,0,0,1-3.181,5.606c-.03.034-.06.07-.091.1-.281.331-.576.65-.88.954l-.006.009c-.1.1-.21.21-.317.308q-.325.316-.663.6-.507.443-1.039.831c-.119.087-.238.172-.359.257s-.24.166-.361.247c-.242.161-.489.317-.737.463-.123.074-.251.147-.376.217s-.253.14-.38.206-.255.134-.385.2q-.386.194-.78.363-.2.089-.4.166c-.083.034-.164.068-.246.1a.807.807,0,0,1-.1.038q-.067.029-.134.051a.389.389,0,0,1-.045.017c-.091.036-.181.068-.274.1-.134.049-.268.093-.4.136s-.27.087-.406.125-.274.081-.41.117-.274.074-.412.106-.293.072-.442.1c-.13.03-.257.055-.387.079s-.244.047-.365.068c-.17.03-.34.057-.512.081-.094.015-.185.028-.278.036-.04.006-.079.011-.117.015-.119.017-.238.03-.355.04l-.091.009c-.13.013-.261.023-.391.034-.278.019-.555.032-.833.038-.14,0-.283,0-.423,0s-.281,0-.421-.006c0,0,0,0,0,0s0,0,0,0h0a.035.035,0,0,1-.021,0c-.1,0-.2,0-.3-.011-.072,0-.147,0-.221-.011q-.15-.006-.3-.019c-.032,0-.064,0-.1-.006a.329.329,0,0,1-.044,0c-.1-.008-.206-.017-.308-.028-.051,0-.1-.008-.155-.015-.155-.017-.31-.036-.463-.057-.174-.021-.348-.047-.521-.079-.081-.011-.159-.026-.238-.04q-.156-.026-.312-.057c-.108-.021-.217-.043-.325-.068-.087-.019-.176-.038-.263-.059-.043-.009-.085-.019-.125-.03-.223-.053-.444-.111-.663-.174-.138-.038-.276-.079-.412-.121-.187-.057-.372-.119-.557-.185-.072-.023-.143-.049-.215-.076s-.142-.051-.215-.079-.132-.049-.2-.074c-.106-.04-.21-.083-.315-.125-.215-.087-.425-.179-.635-.276-.119-.057-.238-.113-.355-.17q-.692-.335-1.362-.744c-.11-.066-.221-.136-.331-.206-.138-.085-.272-.174-.406-.264-.074-.051-.147-.1-.219-.151-.134-.093-.266-.189-.4-.285-.068-.049-.136-.1-.2-.151-.236-.178-.467-.366-.695-.557-.108-.091-.217-.185-.323-.28-.045-.038-.089-.079-.134-.119s-.1-.091-.151-.14l0,0c-.074-.066-.149-.136-.221-.206-.113-.106-.223-.215-.33-.325s-.217-.221-.321-.332-.208-.223-.308-.338-.2-.227-.3-.344-.189-.225-.278-.338q-.325-.4-.621-.818c-.091-.128-.178-.255-.263-.385s-.178-.266-.261-.4-.17-.27-.251-.408a.045.045,0,0,0-.009-.013c-.159-.27-.312-.542-.455-.818s-.285-.564-.414-.85c-.066-.142-.13-.287-.189-.431-.123-.291-.238-.582-.344-.878-.053-.142-.1-.285-.151-.429a.114.114,0,0,0-.008-.028q-.147-.44-.266-.886s0-.008,0-.013c-.041-.147-.079-.293-.113-.442-.034-.13-.064-.259-.091-.391s-.064-.293-.091-.442c-.015-.077-.03-.153-.043-.23s-.023-.13-.034-.193-.021-.13-.032-.2q-.032-.194-.057-.389c-.021-.153-.038-.306-.055-.461-.019-.185-.036-.37-.051-.557-.011-.125-.017-.253-.023-.38s-.013-.234-.015-.351a.03.03,0,0,1,0-.019v0s0,0,0,0v0c0-.047,0-.094,0-.14q-.007-.207-.006-.414c0-.125,0-.249,0-.374q.006-.261.019-.523c0-.038,0-.074.006-.113s0-.074.006-.113c0-.081.011-.161.019-.242a.3.3,0,0,1,0-.045c.006-.091.015-.183.023-.274.017-.183.038-.368.062-.55.013-.091.023-.183.038-.274.009-.064.019-.13.03-.2s.019-.132.032-.2c.015-.087.03-.176.047-.266.009-.053.019-.106.03-.159q.06-.319.134-.637c.049-.215.1-.427.164-.64s.121-.429.189-.644c.032-.108.066-.215.1-.321.07-.215.145-.427.227-.637.038-.1.079-.21.123-.315.085-.21.174-.421.266-.627.047-.1.094-.208.145-.312.1-.206.2-.412.3-.614s.217-.408.331-.608.234-.4.359-.6c.057-.1.121-.2.187-.293.127-.2.261-.391.4-.582C618.5,302.113,618.791,301.733,619.1,301.363Zm-4.078,9.926c-.006.081-.013.162-.017.242q.007-.121.019-.242a.32.32,0,0,1,0-.045C615.027,311.26,615.027,311.275,615.025,311.289Zm.263-1.961c-.008.053-.019.106-.028.159.009-.053.019-.106.03-.159Zm5.294,16.182v0s0,0,0,0Z" transform="translate(-510.712 -275.503)" fill="#3f3d56"/><path d="M635.473,374.093a17.522,17.522,0,0,1-2.973-23.554q-.5.506-.972,1.06a17.521,17.521,0,0,0,26.782,22.6q.468-.555.881-1.136A17.522,17.522,0,0,1,635.473,374.093Z" transform="translate(-524.99 -323.542)" opacity="0.3"/></g></svg>