<svg xmlns="http://www.w3.org/2000/svg" width="313" height="146.269" viewBox="0 0 313 146.269"><g transform="translate(-0.247 0)"><path d="M155.984,461.809l-.537-.121a122.3,122.3,0,0,1,238.5-.325l-.537.122a121.043,121.043,0,0,0-118.676-94.572C218.29,366.913,168.349,406.822,155.984,461.809Z" transform="translate(-121.167 -316.259)" fill="#3f3d56"/><path d="M1038.457,480.326l.826,6.058-5.783.551.826-7.435Z" transform="translate(-748.754 -347.459)" fill="#a0616a"/><path d="M968.863,364.916s.551,7.435.551,7.71-3.855,19.276-3.855,19.276-5.508,10.464,0,10.189,3.855-9.913,3.855-9.913l5.783-15.972-2.478-11.29Z" transform="translate(-706.423 -315.211)" fill="#a0616a"/><path d="M983.326,480.326l-.826,6.058,5.783.551-.826-7.435Z" transform="translate(-711.798 -347.459)" fill="#a0616a"/><path d="M989.411,457.293l-1.377,1.928s-.826,8.261,0,11.015,2.478,15.421,2.478,16.247.275,1.377,0,1.652-1.1.275-.551.826.551,2.2.551,2.2v1.377l3.58,20.378s-2.2,2.478-.551,2.478,7.71,0,7.435-2.754l-.551-.275s-.826-18.175-.551-19a7.028,7.028,0,0,0,0-2.478s-.551-.826,0-1.1.551-2.478.551-2.478l2.478-16.8s2.2,11.29,3.58,12.392,1.1,3.855,1.1,3.855l1.1,24.233s-1.1,2.754,0,3.3,5.783,2.478,6.058-.275,1.652-26.711,1.652-27.813-.275-1.652,0-2.478-.275-.826,0-.826-.551-.826-.551-1.377V468.032a20.333,20.333,0,0,1,.551-3.3c.275-.551-.275-1.1,0-1.928s-.551-3.58-.551-3.58l-12.392-3.3Z" transform="translate(-724.216 -381.152)" fill="#2f2e41"/><path d="M1008.411,681.293s1.377-1.377-.551-1.377a8.964,8.964,0,0,0-3.58.826L1002.9,685.7s-5.645,4.544.688,3.993,5.37-.138,5.37-.138,1.927-.551,2.2-1.1-.551-8.537-.551-8.537S1009.788,682.119,1008.411,681.293Z" transform="translate(-733.579 -543.469)" fill="#2f2e41"/><path d="M1062.5,681.293s-1.377-1.377.551-1.377a8.964,8.964,0,0,1,3.58.826l1.377,4.957s5.645,4.544-.688,3.993-6.2-.138-6.2-.138-1.928-.551-2.2-1.1,1.377-8.537,1.377-8.537S1061.121,682.119,1062.5,681.293Z" transform="translate(-775.825 -543.469)" fill="#2f2e41"/><rect width="2.452" height="96.836" transform="translate(78.944 48.86)" fill="#3f3d56"/><path d="M282.659,245.616c.156,33.861-23.667,61.421-23.667,61.421s-24.076-27.339-24.232-61.2,23.667-61.421,23.667-61.421S282.5,211.755,282.659,245.616Z" transform="translate(-178.639 -184.416)" fill="#0093dd"/><rect width="189.732" height="40.204" transform="translate(62.245 105.605)" fill="#f2f2f2"/><path d="M203.5,285.733,224.153,242.5H389.1l15.421,43.233Z" transform="translate(-147.313 -175.722)" fill="rgba(0,0,0,0.87)"/><rect width="76.554" height="25.334" transform="translate(107.681 69.532)" fill="#f2f2f2"/><path d="M376.616,177.5,364.5,202.834h90.873l-7.16-25.334Z" transform="translate(-263.979 -128.621)" fill="rgba(0,0,0,0.87)"/><rect width="60.444" height="32.219" transform="translate(114.428 113.591)" fill="#ccc"/><rect width="32.219" height="31.117" transform="translate(69.68 114.693)" fill="#ccc"/><rect width="16.66" height="29.189" transform="translate(185.336 116.62)" fill="rgba(0,0,0,0.87)"/><rect width="313" height="0.404" transform="translate(0.247 145.797)" fill="#3f3d56"/><rect width="1.618" height="63.901" transform="translate(49.689 81.802)" fill="#3f3d56"/><path d="M188.32,404.774c.1,22.345-15.618,40.531-15.618,40.531s-15.888-18.041-15.991-40.386,15.618-40.531,15.618-40.531S188.217,382.429,188.32,404.774Z" transform="translate(-122.084 -314.829)" fill="#0093dd"/><path d="M188.32,404.774c.1,22.345-15.618,40.531-15.618,40.531s-15.888-18.041-15.991-40.386,15.618-40.531,15.618-40.531S188.217,382.429,188.32,404.774Z" transform="translate(-122.084 -314.829)" fill="rgba(0,147,221,0.54)" opacity="0.1"/><rect width="1.618" height="63.901" transform="translate(28.658 81.802)" fill="#3f3d56"/><path d="M111.948,404.774c.1,22.345-15.618,40.531-15.618,40.531S80.443,427.264,80.34,404.919s15.618-40.531,15.618-40.531S111.845,382.429,111.948,404.774Z" transform="translate(-66.742 -314.829)" fill="#0093dd"/><rect width="8.123" height="7.573" transform="translate(220.033 118.273)" fill="rgba(0,0,0,0.87)"/><rect width="8.123" height="7.573" transform="translate(230.91 118.273)" fill="rgba(0,0,0,0.87)"/><rect width="8.123" height="7.848" transform="translate(220.033 128.599)" fill="rgba(0,0,0,0.87)"/><rect width="8.123" height="7.848" transform="translate(230.91 128.599)" fill="rgba(0,0,0,0.87)"/><rect width="6.358" height="5.926" transform="translate(114.703 76.464)" fill="rgba(0,0,0,0.87)"/><rect width="6.358" height="5.926" transform="translate(123.216 76.464)" fill="rgba(0,0,0,0.87)"/><rect width="6.358" height="6.142" transform="translate(114.703 84.545)" fill="rgba(0,0,0,0.87)"/><rect width="6.358" height="6.142" transform="translate(123.216 84.545)" fill="rgba(0,0,0,0.87)"/><rect width="6.358" height="5.926" transform="translate(162.343 76.464)" fill="rgba(0,0,0,0.87)"/><rect width="6.358" height="5.926" transform="translate(170.855 76.464)" fill="rgba(0,0,0,0.87)"/><rect width="6.358" height="6.142" transform="translate(162.343 84.545)" fill="rgba(0,0,0,0.87)"/><rect width="6.358" height="6.142" transform="translate(170.855 84.545)" fill="rgba(0,0,0,0.87)"/><rect width="6.358" height="5.926" transform="translate(138.661 76.464)" fill="rgba(0,0,0,0.87)"/><rect width="6.358" height="5.926" transform="translate(147.173 76.464)" fill="rgba(0,0,0,0.87)"/><rect width="6.358" height="6.142" transform="translate(138.661 84.545)" fill="rgba(0,0,0,0.87)"/><rect width="6.358" height="6.142" transform="translate(147.173 84.545)" fill="rgba(0,0,0,0.87)"/><rect width="4.003" height="3.731" transform="translate(189.054 119.578)" fill="#f2f2f2"/><rect width="4.003" height="3.731" transform="translate(194.414 119.578)" fill="#f2f2f2"/><rect width="4.003" height="3.867" transform="translate(189.054 124.666)" fill="#f2f2f2"/><rect width="4.003" height="3.867" transform="translate(194.414 124.666)" fill="#f2f2f2"/><circle cx="1.212" cy="1.212" r="1.212" transform="translate(198.547 132.066)" fill="#f2f2f2"/><rect width="60.177" height="0.808" transform="translate(114.542 117.123)" fill="#f2f2f2"/><rect width="60.177" height="0.404" transform="translate(114.542 119.546)" fill="#f2f2f2"/><rect width="60.177" height="0.404" transform="translate(114.542 121.969)" fill="#f2f2f2"/><rect width="60.177" height="0.808" transform="translate(114.542 124.392)" fill="#f2f2f2"/><rect width="60.177" height="0.404" transform="translate(114.542 127.219)" fill="#f2f2f2"/><rect width="60.177" height="0.404" transform="translate(114.542 129.239)" fill="#f2f2f2"/><rect width="60.177" height="0.808" transform="translate(114.542 131.662)" fill="#f2f2f2"/><rect width="60.177" height="0.404" transform="translate(114.542 134.489)" fill="#f2f2f2"/><rect width="60.177" height="0.404" transform="translate(114.542 136.912)" fill="#f2f2f2"/><rect width="60.177" height="0.808" transform="translate(114.542 139.335)" fill="#f2f2f2"/><rect width="60.177" height="0.404" transform="translate(114.542 141.759)" fill="#f2f2f2"/><rect width="32.219" height="0.551" transform="translate(69.68 117.033)" fill="#f2f2f2"/><rect width="32.219" height="0.551" transform="translate(69.68 119.512)" fill="#f2f2f2"/><rect width="32.219" height="0.551" transform="translate(69.68 121.99)" fill="#f2f2f2"/><rect width="32.219" height="0.551" transform="translate(69.68 124.468)" fill="#f2f2f2"/><rect width="32.219" height="0.551" transform="translate(69.68 126.947)" fill="#f2f2f2"/><rect width="32.219" height="0.551" transform="translate(69.68 129.425)" fill="#f2f2f2"/><rect width="32.219" height="0.551" transform="translate(69.68 131.903)" fill="#f2f2f2"/><rect width="32.219" height="0.551" transform="translate(69.68 134.382)" fill="#f2f2f2"/><rect width="32.219" height="0.551" transform="translate(69.68 136.86)" fill="#f2f2f2"/><rect width="32.219" height="0.551" transform="translate(69.68 139.339)" fill="#f2f2f2"/><rect width="32.219" height="0.551" transform="translate(69.68 141.817)" fill="#f2f2f2"/><path d="M22.415,0A22.214,22.214,0,1,1,0,22.213,22.315,22.315,0,0,1,22.415,0Z" transform="translate(219.145 44.426)" fill="#0093dd"/><path d="M854.088,202.841H842.247V191h-4.406v11.841H826v4.406h11.841v11.841h4.406V207.247h11.841Z" transform="translate(-598.394 -138.404)" fill="#fff"/><circle cx="7.16" cy="7.16" r="7.16" transform="translate(261.614 13.631)" fill="#a0616a"/><path d="M998,271.67s1.1,5.507,1.1,6.334,4.681,3.3,4.681,3.3l5.232-6.609s-3.3-4.681-3.3-5.783Z" transform="translate(-731.704 -245.647)" fill="#a0616a"/><path d="M984.74,289.745s-2.4-.639-3.128-1.7c0,0-7.612,7.479-7.612,8.856l6.058,10.739s0,3.855.551,4.131,0,0,0,1.1-1.652,8.261-1.1,9.363,1.1.275.551,1.928-1.928,10.464-1.928,10.464,4.957-1.652,12.116,1.1,15.7-1.1,15.7-1.1-2.2-4.957-1.652-6.609-1.377-4.681-1.377-4.681l-1.377-25.334s1.928-11.29.551-11.841l-2.754-1.1-8.817-1.084S988.319,289.47,984.74,289.745Z" transform="translate(-714.313 -256.563)" fill="#e4e4e4"/><path d="M975.143,323.916l-2.754,1.928s-1.377,4.131,0,6.058a14.121,14.121,0,0,1,1.928,4.681l5.507-.551Z" transform="translate(-712.703 -285.501)" fill="#e4e4e4"/><path d="M986.782,332.916a21.061,21.061,0,0,0-1.261,8.158,4.3,4.3,0,0,0,.711,2.031h0L966.7,352.38s-8.827.914-6.624,4.769,10.189-1.928,10.189-1.928,20.928-3.029,22.58-6.058,2.754-15.7,2.754-15.7Z" transform="translate(-703.964 -292.023)" fill="#a0616a"/><path d="M980.815,220.828l-1.242-.5a8.472,8.472,0,0,1,6.21-2.61l-1.016-1.119a4.32,4.32,0,0,1,4.742,1.616,22.042,22.042,0,0,1,3.417,4.8h1.33l-.555,1.222,1.943,1.222-1.994-.22a6.763,6.763,0,0,1-.189,3.166l.054.966A29.7,29.7,0,0,1,991.2,225.3v1.243s-1.242-1.119-1.242-1.864l-.677.87-.339-1.367-4.177,1.367.677-1.119-2.6.373,1.016-1.367s-2.936,1.616-3.048,2.983a7.334,7.334,0,0,1-1.581,3.107l-.677-1.243S977.541,222.692,980.815,220.828Z" transform="translate(-717.507 -207.604)" fill="#2f2e41"/><path d="M1055.927,291.916h4.131s3.029.551,3.855,6.058,1.652,6.884.826,6.884-10.74-.275-10.74-.551S1055.927,291.916,1055.927,291.916Z" transform="translate(-772.283 -262.313)" fill="#e4e4e4"/></g></svg>