<svg xmlns="http://www.w3.org/2000/svg" width="286.17" height="142.613" viewBox="0 0 286.17 142.613"><g transform="translate(0 0)"><circle cx="14.067" cy="14.067" r="14.067" transform="translate(64.067 88.507)" fill="#e4e4e4"/><path d="M352.937,519.474a14.068,14.068,0,0,0,23.439,14.888,14.068,14.068,0,1,1-23.439-14.888Z" transform="translate(-285.189 -426.296)" opacity="0.2"/><path d="M246.712,325.819h.038l.7,39.881h-1.469Z" transform="translate(-168.539 -223.245)" fill="#3f3d56"/><circle cx="28.361" cy="28.361" r="28.361" transform="translate(21.312 33.686)" fill="#e4e4e4"/><path d="M221.122,360.416a28.363,28.363,0,0,0,47.258,30.017,28.364,28.364,0,1,1-47.258-30.017Z" transform="translate(-192.39 -317.312)" opacity="0.2"/><path d="M154.807,197.087h.078l1.4,80.409h-2.961Z" transform="translate(-105.057 -135.04)" fill="#3f3d56"/><rect width="129.995" height="38.536" transform="translate(106.663 100.837)" fill="#f0f0f0"/><rect width="15.158" height="30.572" transform="translate(164.082 108.801)" fill="#cacaca"/><rect width="114.838" height="35.453" transform="translate(114.242 55.364)" fill="#f0f0f0"/><path d="M607.008,281.048H468.885a1.156,1.156,0,0,1-.8-1.99l37.749-36.285v-15.8a1.157,1.157,0,0,1,1.156-1.156h7.45a1.157,1.157,0,0,1,1.156,1.156v6.421l2.851-2.741a25.618,25.618,0,0,1,34.882-.58l54.452,48.963a1.156,1.156,0,0,1-.773,2.016Z" transform="translate(-366.285 -223.5)" fill="#cacaca"/><path d="M443.241,204.421h0a7.322,7.322,0,0,1,7.322,7.322v9.891H435.919v-9.891A7.322,7.322,0,0,1,443.241,204.421Z" transform="translate(-298.684 -140.065)" fill="#fff"/><path d="M529.334,204.829h0a7.322,7.322,0,0,1,7.322,7.322v9.891H522.012v-9.891A7.322,7.322,0,0,1,529.334,204.829Z" transform="translate(-357.673 -140.345)" fill="#fff"/><path d="M615.428,205.237h0a7.322,7.322,0,0,1,7.322,7.322v9.891H608.106v-9.891A7.322,7.322,0,0,1,615.428,205.237Z" transform="translate(-416.663 -140.624)" fill="#fff"/><path d="M649.7,344.373h0a7.322,7.322,0,0,1,7.322,7.322v9.891H642.38v-9.891A7.322,7.322,0,0,1,649.7,344.373Z" transform="translate(-440.147 -235.958)" fill="#fff"/><path d="M419.576,344.373h0a7.322,7.322,0,0,1,7.322,7.322v9.891H412.254v-9.891A7.322,7.322,0,0,1,419.576,344.373Z" transform="translate(-282.469 -235.958)" fill="#fff"/><path d="M590.63,522.036l-24.386-10.79a1.028,1.028,0,0,0-.416-.088H449.61a1.026,1.026,0,0,0-.387.076l-26.544,10.79a1.028,1.028,0,0,0,.387,1.979h6.887v35.453h-.771v3.6H584.1v-3.6h-1.285V524h7.4a1.028,1.028,0,0,0,.416-1.967Zm-9.871,37.421H432.008V524H580.758Z" transform="translate(-334.979 -420.598)" fill="#cacaca"/><rect width="18.754" height="3.083" transform="translate(134.923 80.156)" fill="#cacaca"/><rect width="18.754" height="3.083" transform="translate(162.412 80.156)" fill="#cacaca"/><rect width="18.754" height="3.083" transform="translate(189.901 80.156)" fill="#cacaca"/><rect width="18.754" height="3.083" transform="translate(200.178 124.6)" fill="#cacaca"/><rect width="18.754" height="3.083" transform="translate(127.473 124.6)" fill="#cacaca"/><path d="M431.355,675.13H145.815a.315.315,0,0,1,0-.63h285.54a.315.315,0,0,1,0,.63Z" transform="translate(-145.5 -532.517)" fill="#3f3d56"/><path d="M677.3,387.4c0,.2,0,.406-.006.608,0,.242-.009.482-.019.724-.009.211-.019.419-.031.626-.038.7-.1,1.388-.18,2.084-.019.176-.041.35-.066.526-.019.135-.038.274-.06.412-.022.154-.044.308-.069.463q-.076.491-.17.982c-.032.164-.063.327-.1.491-.066.324-.138.652-.214.976l-.019.079c-.038.161-.076.318-.116.479-.013.047-.022.091-.038.138-.028.12-.06.239-.091.359-.044.167-.089.331-.136.5-.075.258-.151.513-.23.771a.8.8,0,0,0-.025.082c-.151.488-.312.97-.488,1.448-.091.252-.189.507-.286.759s-.2.5-.3.752-.2.485-.308.724c-.025.057-.05.113-.079.17-.11.249-.223.491-.34.734,0,0,0,.009-.006.013-.092.2-.189.39-.287.582a.024.024,0,0,1-.006.016c-.095.189-.192.378-.293.564l-.161.305-.019.035c-.2.375-.409.746-.63,1.114-.047.082-.094.164-.141.243s-.1.164-.148.242c-.032.057-.066.113-.1.17-.066.107-.132.217-.2.324-.013.022-.028.044-.041.066-.12.186-.239.368-.359.554-.148.224-.3.444-.454.664l-3.419,5.471-.148-.123-.041-.038h0l-.135-.113-.371-.315c-.113.11-.224.22-.337.327-.044.044-.091.085-.136.129l-.1.094a32.967,32.967,0,0,1-22.031,9.366h-.009a35.984,35.984,0,0,1-17.954-4.237c-.123-.063-.243-.126-.362-.2-.718-.39-1.42-.8-2.109-1.244,0,0-.006,0-.009-.006q-1.2-.85-2.342-1.813a34.606,34.606,0,0,1-12.256-28.268c.009-.211.022-.419.038-.63q.076-1.143.233-2.276c.028-.211.06-.422.091-.63h67.3q.2,1.445.274,2.906C677.283,386.183,677.3,386.788,677.3,387.4Z" transform="translate(-463.264 -332.56)" fill="#f0f0f0"/><path d="M677.162,319.622a34.03,34.03,0,0,0-67.3,0c-.031.208-.063.419-.091.63q-.156,1.133-.233,2.276h67.9Q677.361,321.068,677.162,319.622Z" transform="translate(-463.449 -269.512)" fill="#0093dd"/><path d="M682.02,443.97h-19.5v-15.6c.36-7.128,6.452-7.7,12.177-7.321a7.321,7.321,0,0,1,7.322,7.322Z" transform="translate(-499.753 -358.796)" fill="#0093dd"/><path d="M626.03,342.83v0s0,0,.006,0Zm-7.842-23.973c-.012.079-.028.157-.041.236.013-.079.029-.157.044-.236Zm-.39,2.906c-.01.12-.019.239-.025.359q.01-.18.029-.359a.478.478,0,0,1,0-.066C617.8,321.718,617.8,321.74,617.8,321.762Zm8.233,21.071s0,0,.006,0l-.006-.006Zm-7.842-23.977c-.012.079-.028.157-.041.236.013-.079.029-.157.044-.236Zm-.416,3.265q.01-.18.029-.359a.477.477,0,0,1,0-.066c0,.022,0,.044-.006.066-.01.12-.019.239-.025.359Zm97.26,57.914a2.143,2.143,0,0,0-.2-.183l0,0-15.59-13.156-.4-.34-1.533-1.294-.384-.324-2.185-1.845-.6-.5-1.237-1.045-.633-.535-5.969-5.034-3.422-2.887-.46-.387-10.084-8.51c.154-.22.305-.441.453-.664l.359-.554c.012-.022.028-.044.041-.066.069-.107.135-.217.2-.324.038-.057.073-.113.1-.17.05-.079.1-.161.148-.242s.094-.161.142-.242c.22-.368.428-.74.63-1.115l.019-.035.161-.305c.1-.186.2-.375.293-.564a.022.022,0,0,0,.006-.016c.1-.192.2-.387.287-.582,0,0,0-.009.006-.013.116-.242.23-.485.34-.734.028-.057.054-.113.079-.17.1-.239.208-.482.309-.724s.2-.5.3-.753.2-.507.287-.758q.26-.723.488-1.448a.768.768,0,0,1,.025-.082c.079-.258.154-.513.23-.771.047-.167.091-.331.135-.5.031-.12.063-.239.091-.359.016-.047.025-.091.038-.139.041-.161.079-.318.117-.478l.019-.079c.076-.324.148-.652.214-.976.035-.164.066-.327.1-.491.06-.327.12-.655.17-.982.025-.154.047-.309.07-.463.022-.139.041-.277.06-.412.025-.176.047-.349.066-.526.082-.7.142-1.388.179-2.084.013-.208.022-.416.032-.626.009-.242.016-.482.019-.724,0-.2.006-.406.006-.608,0-.608-.016-1.212-.047-1.82q-.075-1.459-.274-2.906a34.646,34.646,0,0,0-68.561-.63c-.031.208-.063.419-.091.63q-.156,1.133-.233,2.276c-.016.211-.028.419-.038.63a34.607,34.607,0,0,0,12.256,28.267q1.143.964,2.342,1.813s.006,0,.009.006c.268.189.535.375.806.557.431.283.866.56,1.3.825.035.019.069.041.1.06.378.227.759.444,1.14.655h0a34.032,34.032,0,0,0,4.4,2.027,34.752,34.752,0,0,0,13.924,2.185h.009a34.554,34.554,0,0,0,15.713-4.65c.7-.4,1.382-.834,2.053-1.294.167-.113.337-.23.5-.346.2-.142.4-.29.6-.438,0,0,0,0,.006,0a.525.525,0,0,1,.047-.035c.135-.1.274-.208.406-.309.035-.025.069-.05.1-.079a.151.151,0,0,0,.025-.022c.079-.057.154-.119.233-.179s.154-.123.233-.186a.29.29,0,0,0,.038-.028c.088-.073.176-.142.264-.214s.18-.148.265-.22.173-.145.261-.22.154-.129.23-.2c.025-.019.047-.041.072-.063a.216.216,0,0,1,.031-.025c.1-.088.2-.18.305-.271.025-.022.047-.044.072-.066.154-.138.308-.277.46-.422l.107-.1c.035-.031.066-.063.1-.094s.091-.085.135-.129c.113-.107.224-.217.337-.327l.372.315.135.113h0l.041.038.148.123,2.2,1.857.047.041.038.028.249.211.5.422.5.419.072.06,2.314,1.952.321.271,2.232,1.883,11.554,9.75.4.34,15.814,13.342,4.055,3.422,1.508,1.272a3.19,3.19,0,0,0,4.5-.378,3.1,3.1,0,0,0,.532-.894A3.177,3.177,0,0,0,715.032,380.035Zm-91.194-72.978a25.956,25.956,0,0,1,45.318,11.8c.041.211.079.419.113.63.129.753.223,1.514.28,2.276.016.211.031.419.041.63.028.472.041.948.041,1.42a25.837,25.837,0,0,1-1.4,8.418v0a25.822,25.822,0,0,1-4.713,8.3c-.044.05-.088.1-.135.154-.416.491-.853.963-1.3,1.413,0,0-.006.009-.009.013-.154.154-.312.312-.469.456q-.482.468-.982.891-.751.656-1.54,1.231c-.176.129-.352.255-.532.381s-.356.245-.535.365c-.359.239-.724.469-1.093.686-.183.11-.371.217-.557.321s-.375.208-.563.305-.378.2-.57.293q-.571.288-1.155.538-.293.132-.586.245c-.123.05-.242.1-.365.145a1.193,1.193,0,0,1-.148.057q-.1.042-.2.076a.578.578,0,0,1-.066.025c-.135.054-.268.1-.406.148-.2.072-.4.138-.6.2s-.4.129-.6.186-.406.12-.607.173-.406.11-.611.157-.434.107-.655.154c-.192.044-.381.082-.573.116s-.362.069-.541.1c-.252.044-.5.085-.759.12-.139.022-.274.041-.412.053-.06.01-.117.016-.173.022-.176.025-.353.044-.526.06-.047,0-.091.009-.135.013-.192.019-.387.035-.579.05-.412.028-.822.047-1.234.057-.208,0-.419.006-.627.006s-.416,0-.623-.009c0,0,0,0,0,0s0,0-.006,0h-.006a.051.051,0,0,1-.031,0c-.148,0-.3-.006-.441-.016-.107,0-.217-.006-.328-.016q-.221-.009-.444-.028c-.047,0-.094-.006-.142-.009a.475.475,0,0,1-.066-.006c-.151-.013-.305-.025-.457-.041-.076-.006-.154-.013-.23-.022-.23-.025-.46-.054-.687-.085-.258-.031-.516-.069-.771-.116-.119-.016-.236-.038-.353-.06q-.231-.038-.462-.085c-.161-.032-.321-.063-.482-.1-.129-.028-.261-.057-.39-.088-.063-.013-.126-.028-.186-.044-.331-.079-.658-.164-.982-.258-.2-.057-.409-.116-.611-.179-.277-.085-.551-.176-.825-.274-.107-.035-.211-.072-.318-.113s-.211-.076-.318-.117-.2-.072-.29-.11c-.157-.06-.312-.123-.466-.186-.318-.129-.63-.264-.941-.409-.176-.085-.352-.167-.526-.252q-1.025-.5-2.018-1.1c-.164-.1-.327-.2-.491-.305-.2-.126-.4-.258-.6-.39-.11-.076-.217-.148-.324-.224-.2-.138-.393-.28-.586-.422-.1-.073-.2-.148-.3-.224-.349-.264-.693-.542-1.029-.825-.161-.135-.321-.274-.479-.415-.066-.057-.132-.117-.2-.176s-.151-.135-.224-.208l-.006-.006c-.11-.1-.22-.2-.327-.305-.167-.157-.331-.318-.488-.482s-.321-.327-.475-.491-.309-.33-.456-.5-.3-.337-.444-.51-.28-.334-.412-.5q-.482-.6-.919-1.212c-.135-.189-.264-.378-.39-.57s-.264-.394-.387-.592-.252-.4-.371-.6a.066.066,0,0,0-.013-.019c-.236-.4-.463-.8-.674-1.212s-.422-.835-.614-1.259c-.1-.211-.192-.425-.28-.639-.183-.431-.353-.862-.51-1.3-.079-.211-.151-.422-.223-.636a.169.169,0,0,0-.013-.041q-.218-.652-.394-1.313c0-.006,0-.013-.006-.019-.06-.217-.117-.435-.167-.655-.051-.192-.095-.384-.136-.579-.047-.217-.094-.434-.135-.655-.022-.113-.044-.227-.063-.34-.019-.094-.035-.192-.05-.286s-.031-.192-.047-.29q-.047-.288-.085-.576c-.031-.227-.057-.453-.082-.683-.028-.274-.053-.548-.076-.825-.016-.186-.025-.375-.034-.564-.01-.173-.019-.346-.022-.519a.045.045,0,0,1,0-.028,0,0,0,0,1,0,0,0,0,0,0,1,0,0s0,0,0-.006a0,0,0,0,1,0,0,0,0,0,0,1,0,0c0-.069-.006-.139-.006-.208q-.01-.307-.01-.614c0-.186,0-.368.006-.554q.009-.387.028-.774c0-.057.006-.11.01-.167s.006-.11.009-.167c.006-.12.016-.239.028-.359a.461.461,0,0,1,0-.066c.01-.135.022-.271.034-.406.025-.271.057-.545.091-.815.019-.135.035-.271.057-.406.013-.094.029-.192.044-.29s.028-.2.047-.293c.022-.129.044-.261.069-.393.013-.079.028-.157.044-.236q.089-.472.2-.944c.072-.318.154-.633.243-.948s.18-.636.28-.954c.047-.161.1-.318.154-.476.1-.318.214-.633.337-.944.057-.154.116-.312.183-.466.126-.312.258-.623.393-.929.069-.154.139-.308.214-.463.142-.305.29-.611.45-.91s.321-.6.491-.9.346-.592.532-.885c.085-.145.18-.293.277-.434.189-.29.387-.579.589-.863C622.939,308.168,623.376,307.6,623.839,307.057ZM617.8,321.762c-.01.12-.019.239-.025.359q.01-.18.029-.359a.477.477,0,0,1,0-.066C617.8,321.718,617.8,321.74,617.8,321.762Zm.39-2.906c-.012.079-.028.157-.041.236.013-.079.029-.157.044-.236Zm7.842,23.973v0s0,0,.006,0Z" transform="translate(-463.264 -268.747)" fill="#3f3d56"/><path d="M639.36,385.434a25.958,25.958,0,0,1-4.4-34.894q-.744.75-1.439,1.57a25.957,25.957,0,0,0,39.676,33.479q.693-.822,1.306-1.683A25.958,25.958,0,0,1,639.36,385.434Z" transform="translate(-475.687 -310.545)" opacity="0.3"/></g></svg>