<svg xmlns="http://www.w3.org/2000/svg" width="793.008" height="370.584" viewBox="0 0 793.008 370.584"><g transform="translate(-0.247 0)"><path d="M156.808,608.184l-1.361-.307a309.855,309.855,0,0,1,604.26-.824l-1.36.309C726.219,466.286,602.576,367.757,457.672,367.757,314.666,367.757,188.135,468.87,156.808,608.184Z" transform="translate(-68.975 -239.423)" fill="#3f3d56"/><path d="M1046.058,481.593l2.093,15.349-14.651,1.4,2.093-18.837Z" transform="translate(-312.454 -144.964)" fill="#a0616a"/><path d="M977.685,364.916s1.4,18.837,1.4,19.535-9.768,48.837-9.768,48.837-13.954,26.512,0,25.814,9.768-25.116,9.768-25.116l14.651-40.465-6.279-28.6Z" transform="translate(-313.151 -238.985)" fill="#a0616a"/><path d="M984.593,481.593,982.5,496.942l14.651,1.4L995.058,479.5Z" transform="translate(-297.036 -144.964)" fill="#a0616a"/><path d="M992.085,459.4l-3.488,4.884s-2.093,20.93,0,27.907,6.279,39.07,6.279,41.163.7,3.488,0,4.186-2.791.7-1.4,2.093,1.4,5.581,1.4,5.581v3.488l9.07,51.628s-5.581,6.279-1.4,6.279,19.535,0,18.837-6.977l-1.4-.7s-2.093-46.047-1.4-48.14,0-6.279,0-6.279-1.4-2.093,0-2.791,1.4-6.279,1.4-6.279l6.279-42.558s5.581,28.6,9.07,31.4,2.791,9.768,2.791,9.768l2.791,61.4s-2.791,6.977,0,8.372,14.651,6.279,15.349-.7,4.186-67.675,4.186-70.465-.7-4.186,0-6.279-.7-2.093,0-2.093-1.4-2.093-1.4-3.488V486.614s.7-6.977,1.4-8.372-.7-2.791,0-4.884-1.4-9.07-1.4-9.07l-31.4-8.372Z" transform="translate(-320.574 -266.497)" fill="#2f2e41"/><path d="M1020.41,683.4s3.488-3.488-1.4-3.488a22.709,22.709,0,0,0-9.07,2.093l-3.488,12.558s-14.3,11.512,1.744,10.116,13.6-.349,13.6-.349,4.884-1.4,5.581-2.791-1.4-21.628-1.4-21.628S1023.9,685.5,1020.41,683.4Z" transform="translate(-324.481 -334.217)" fill="#2f2e41"/><path d="M1068.036,683.4s-3.488-3.488,1.4-3.488a22.709,22.709,0,0,1,9.07,2.093l3.488,12.558s14.3,11.512-1.744,10.116-15.7-.349-15.7-.349-4.884-1.4-5.582-2.791,3.489-21.628,3.489-21.628S1064.547,685.5,1068.036,683.4Z" transform="translate(-342.106 -334.217)" fill="#2f2e41"/><rect width="6.211" height="245.34" transform="translate(199.631 123.79)" fill="#3f3d56"/><path d="M356.117,339.472c.4,85.789-59.962,155.615-59.962,155.615s-61-69.266-61.394-155.056,59.962-155.615,59.962-155.615S355.722,253.682,356.117,339.472Z" transform="translate(-92.953 -184.416)" fill="#0093dd"/><rect width="480.699" height="101.861" transform="translate(157.323 267.559)" fill="#f2f2f2"/><path d="M203.5,352.035,255.826,242.5H673.734L712.8,352.035Z" transform="translate(-61.526 -73.313)" fill="rgba(0,0,0,0.87)"/><rect width="193.954" height="64.186" transform="translate(272.44 176.163)" fill="#f2f2f2"/><path d="M395.2,177.5l-30.7,64.186H594.733L576.594,177.5Z" transform="translate(-110.2 -53.662)" fill="rgba(0,0,0,0.87)"/><rect width="153.14" height="81.628" transform="translate(289.533 287.792)" fill="#ccc"/><rect width="81.628" height="78.838" transform="translate(176.16 290.582)" fill="#ccc"/><rect width="42.209" height="73.954" transform="translate(469.185 295.466)" fill="rgba(0,0,0,0.87)"/><rect width="793.008" height="1.023" transform="translate(0.247 369.388)" fill="#3f3d56"/><rect width="4.099" height="161.898" transform="translate(125.512 207.251)" fill="#3f3d56"/><path d="M236.795,466.709c.261,56.612-39.568,102.689-39.568,102.689s-40.252-45.708-40.513-102.32,39.568-102.69,39.568-102.69S236.534,410.1,236.795,466.709Z" transform="translate(-69.358 -238.826)" fill="#0093dd"/><path d="M236.795,466.709c.261,56.612-39.568,102.689-39.568,102.689s-40.252-45.708-40.513-102.32,39.568-102.69,39.568-102.69S236.534,410.1,236.795,466.709Z" transform="translate(-69.358 -238.826)" fill="rgba(0,147,221,0.54)" opacity="0.1"/><rect width="4.099" height="161.898" transform="translate(72.229 207.251)" fill="#3f3d56"/><path d="M160.423,466.709c.261,56.612-39.568,102.689-39.568,102.689S80.6,523.689,80.341,467.078s39.568-102.69,39.568-102.69S160.162,410.1,160.423,466.709Z" transform="translate(-46.269 -238.826)" fill="#0093dd"/><rect width="20.581" height="19.186" transform="translate(557.092 299.652)" fill="rgba(0,0,0,0.87)"/><rect width="20.581" height="19.186" transform="translate(584.65 299.652)" fill="rgba(0,0,0,0.87)"/><rect width="20.581" height="19.884" transform="translate(557.092 325.815)" fill="rgba(0,0,0,0.87)"/><rect width="20.581" height="19.884" transform="translate(584.65 325.815)" fill="rgba(0,0,0,0.87)"/><rect width="16.107" height="15.015" transform="translate(290.23 193.727)" fill="rgba(0,0,0,0.87)"/><rect width="16.107" height="15.015" transform="translate(311.798 193.727)" fill="rgba(0,0,0,0.87)"/><rect width="16.107" height="15.561" transform="translate(290.23 214.202)" fill="rgba(0,0,0,0.87)"/><rect width="16.107" height="15.561" transform="translate(311.798 214.202)" fill="rgba(0,0,0,0.87)"/><rect width="16.107" height="15.015" transform="translate(410.929 193.727)" fill="rgba(0,0,0,0.87)"/><rect width="16.107" height="15.015" transform="translate(432.496 193.727)" fill="rgba(0,0,0,0.87)"/><rect width="16.107" height="15.561" transform="translate(410.929 214.202)" fill="rgba(0,0,0,0.87)"/><rect width="16.107" height="15.561" transform="translate(432.496 214.202)" fill="rgba(0,0,0,0.87)"/><rect width="16.107" height="15.015" transform="translate(350.928 193.727)" fill="rgba(0,0,0,0.87)"/><rect width="16.107" height="15.015" transform="translate(372.496 193.727)" fill="rgba(0,0,0,0.87)"/><rect width="16.107" height="15.561" transform="translate(350.928 214.202)" fill="rgba(0,0,0,0.87)"/><rect width="16.107" height="15.561" transform="translate(372.496 214.202)" fill="rgba(0,0,0,0.87)"/><rect width="10.142" height="9.454" transform="translate(478.603 302.959)" fill="#f2f2f2"/><rect width="10.142" height="9.454" transform="translate(492.183 302.959)" fill="#f2f2f2"/><rect width="10.142" height="9.798" transform="translate(478.603 315.85)" fill="#f2f2f2"/><rect width="10.142" height="9.798" transform="translate(492.183 315.85)" fill="#f2f2f2"/><circle cx="3.07" cy="3.07" r="3.07" transform="translate(502.656 334.598)" fill="#f2f2f2"/><rect width="152.462" height="2.046" transform="translate(289.823 296.739)" fill="#f2f2f2"/><rect width="152.462" height="1.023" transform="translate(289.823 302.878)" fill="#f2f2f2"/><rect width="152.462" height="1.023" transform="translate(289.823 309.017)" fill="#f2f2f2"/><rect width="152.462" height="2.046" transform="translate(289.823 315.157)" fill="#f2f2f2"/><rect width="152.462" height="1.023" transform="translate(289.823 322.32)" fill="#f2f2f2"/><rect width="152.462" height="1.023" transform="translate(289.823 327.436)" fill="#f2f2f2"/><rect width="152.462" height="2.046" transform="translate(289.823 333.575)" fill="#f2f2f2"/><rect width="152.462" height="1.023" transform="translate(289.823 340.738)" fill="#f2f2f2"/><rect width="152.462" height="1.023" transform="translate(289.823 346.877)" fill="#f2f2f2"/><rect width="152.462" height="2.046" transform="translate(289.823 353.017)" fill="#f2f2f2"/><rect width="152.462" height="1.023" transform="translate(289.823 359.156)" fill="#f2f2f2"/><rect width="81.628" height="1.395" transform="translate(176.16 296.513)" fill="#f2f2f2"/><rect width="81.628" height="1.395" transform="translate(176.16 302.792)" fill="#f2f2f2"/><rect width="81.628" height="1.395" transform="translate(176.16 309.071)" fill="#f2f2f2"/><rect width="81.628" height="1.395" transform="translate(176.16 315.35)" fill="#f2f2f2"/><rect width="81.628" height="1.395" transform="translate(176.16 321.629)" fill="#f2f2f2"/><rect width="81.628" height="1.395" transform="translate(176.16 327.908)" fill="#f2f2f2"/><rect width="81.628" height="1.395" transform="translate(176.16 334.187)" fill="#f2f2f2"/><rect width="81.628" height="1.395" transform="translate(176.16 340.466)" fill="#f2f2f2"/><rect width="81.628" height="1.395" transform="translate(176.16 346.745)" fill="#f2f2f2"/><rect width="81.628" height="1.395" transform="translate(176.16 353.025)" fill="#f2f2f2"/><rect width="81.628" height="1.395" transform="translate(176.16 359.304)" fill="#f2f2f2"/><path d="M56.79,0c31.364,0,56.79,25.2,56.79,56.278s-25.426,56.278-56.79,56.278S0,87.359,0,56.278,25.426,0,56.79,0Z" transform="translate(554.841 112.556)" fill="#0093dd"/><path d="M897.163,221h-30V191H856v30H826v11.163h30v30h11.163v-30h30Z" transform="translate(-249.722 -57.744)" fill="#fff"/><circle cx="18.14" cy="18.14" r="18.14" transform="translate(662.441 34.535)" fill="#a0616a"/><path d="M998,275.893s2.791,13.954,2.791,16.047,11.86,8.372,11.86,8.372l13.256-16.744s-8.372-11.861-8.372-14.651Z" transform="translate(-323.698 -209.962)" fill="#a0616a"/><path d="M1001.209,298.587s-6.081-1.618-7.924-4.3c0,0-19.285,18.949-19.285,22.437l15.349,27.209s0,9.767,1.4,10.465,0,0,0,2.791-4.186,20.93-2.791,23.721,2.791.7,1.4,4.884-4.884,26.512-4.884,26.512,12.558-4.186,30.7,2.791,39.768-2.791,39.768-2.791-5.581-12.558-4.186-16.744-3.488-11.861-3.488-11.861l-3.489-64.186s4.884-28.6,1.4-30l-6.977-2.791-22.339-2.746S1010.279,297.889,1001.209,298.587Z" transform="translate(-316.443 -214.516)" fill="#e4e4e4"/><path d="M980.3,323.916l-6.977,4.884s-3.488,10.465,0,15.349,4.884,11.86,4.884,11.86l13.954-1.4Z" transform="translate(-315.771 -226.59)" fill="#e4e4e4"/><path d="M1028.287,332.916s-4.04,10.389-3.2,20.668a10.893,10.893,0,0,0,1.8,5.146h0l-49.5,23.5s-22.365,2.316-16.783,12.083,25.814-4.884,25.814-4.884,53.023-7.674,57.209-15.349,6.977-39.768,6.977-39.768Z" transform="translate(-312.125 -229.311)" fill="#a0616a"/><path d="M984.506,227.594l-3.147-1.26s6.579-7.243,15.733-6.613l-2.575-2.834s6.293-2.519,12.014,4.094c3.007,3.477,6.487,7.563,8.656,12.166h3.37l-1.406,3.1,4.922,3.1-5.052-.556a17.134,17.134,0,0,1-.478,8.02l.136,2.448s-5.856-9.061-5.856-10.321v3.149s-3.147-2.834-3.147-4.724l-1.716,2.2-.858-3.464-10.584,3.464,1.716-2.834-6.579.945,2.575-3.464s-7.437,4.094-7.723,7.558-4,7.873-4,7.873l-1.716-3.149S976.211,232.318,984.506,227.594Z" transform="translate(-317.775 -194.09)" fill="#2f2e41"/><path d="M1058.884,291.916h10.465s7.674,1.4,9.767,15.349,4.186,17.442,2.093,17.442-27.209-.7-27.209-1.4S1058.884,291.916,1058.884,291.916Z" transform="translate(-340.628 -216.916)" fill="#e4e4e4"/></g></svg>