<svg xmlns="http://www.w3.org/2000/svg" width="189.02" height="189.017" viewBox="0 0 189.02 189.017"><g transform="translate(290 200)"><g transform="translate(-290 -200)"><path d="M-290-108.9a3.415,3.415,0,0,0,.128-.593,93.287,93.287,0,0,1,10.02-38.585,93.621,93.621,0,0,1,15.27-21.861,94.255,94.255,0,0,1,27.215-20.269,92.906,92.906,0,0,1,23.9-8.047,91.477,91.477,0,0,1,14.054-1.619A2.511,2.511,0,0,0-198.9-200h6.813a4.527,4.527,0,0,0,.672.13,92.39,92.39,0,0,1,38.428,9.993,93.952,93.952,0,0,1,41.166,40.469A92.021,92.021,0,0,1-102.626-123a89.526,89.526,0,0,1,1.516,13.432,4.33,4.33,0,0,0,.13.672v6.813a4.528,4.528,0,0,0-.13.672,92.2,92.2,0,0,1-9.958,38.358,93.83,93.83,0,0,1-41,41.481A91.744,91.744,0,0,1-177.6-12.717a92.681,92.681,0,0,1-13.817,1.6,4.524,4.524,0,0,0-.672.13H-198.9a4.525,4.525,0,0,0-.672-.13,92.2,92.2,0,0,1-38.358-9.958,93.834,93.834,0,0,1-41.481-41A91.744,91.744,0,0,1-288.265-87.6a92.894,92.894,0,0,1-1.6-13.817,4.531,4.531,0,0,0-.13-.672Q-290-105.489-290-108.9Zm187.066,3.4a92.55,92.55,0,0,0-91.673-92.538,92.518,92.518,0,0,0-93.432,91.721,92.527,92.527,0,0,0,91.862,93.373A92.56,92.56,0,0,0-102.934-105.5Z" transform="translate(290 200)" fill="#0f3977"/><path d="M-92.533-95.084A92.563,92.563,0,0,1-185.776-2.527,92.528,92.528,0,0,1-277.638-95.9a92.516,92.516,0,0,1,93.432-91.721A92.548,92.548,0,0,1-92.533-95.084Zm-17.744-.014a74.755,74.755,0,0,0-74.855-74.764,74.652,74.652,0,0,0-74.745,74.771,74.643,74.643,0,0,0,74.788,74.8A74.748,74.748,0,0,0-110.277-95.1Zm-142.879-58.209c1.115,1.892,2.2,3.736,3.376,5.726L-256.4-148.9l-1.285,1.748c1.065,1.958,2.1,3.863,3.218,5.919l-6.477-1.5c-.572.781-1.092,1.493-1.679,2.3l11.82,2.711c.247-.337.459-.629.68-.928-1.239-2.318-2.459-4.6-3.761-7.036l7.854,1.492c.249-.347.447-.621.67-.932-2.022-3.468-4.035-6.922-6.1-10.468C-252.048-154.8-252.577-154.09-253.156-153.308Zm-10.162,52.966c-2.218-.336-4.4-.423-6.558-.857.987-.78,1.979-1.469,2.972-2.156.26-.179.567-.32.491-.8l-2.871-3.109c.03-.049.062-.1.092-.146l6.545.681c.1-.955.19-1.806.285-2.719-3.69-.393-7.293-.778-10.95-1.166-.093.854-.176,1.608-.258,2.369,1.225,1.326,2.429,2.632,3.663,3.967l-4.425,3.085c-.074.8-.143,1.548-.219,2.364,3.688.4,7.282.822,10.924,1.152C-263.518-98.6-263.424-99.411-263.318-100.341Zm162.532.534a2.93,2.93,0,0,1,.311.276,2.4,2.4,0,0,0,4.1-.675,4.442,4.442,0,0,0,.36-2.4c-.106-1.261-.212-2.522-.328-3.784-.029-.3-.1-.6-.149-.921l-10.958.966c.219,2.167.417,4.238.643,6.306a2.947,2.947,0,0,0,.3.9,2.935,2.935,0,0,0,3.018,1.733,2.711,2.711,0,0,0,2.538-1.933C-100.906-99.46-100.865-99.584-100.786-99.807Zm-94.8-72.846a7.556,7.556,0,0,0,3.858-.871,5.452,5.452,0,0,0,.667-9.332,7.039,7.039,0,0,0-8.608.737,5.42,5.42,0,0,0,1.32,8.766A5.8,5.8,0,0,0-195.585-172.653Zm16.147-.355a14.222,14.222,0,0,0,2.023-.307,5.513,5.513,0,0,0,4.078-4.023,5.252,5.252,0,0,0-1.727-5.439,7.089,7.089,0,0,0-8.259-.54,5.432,5.432,0,0,0-.008,9.093A7.42,7.42,0,0,0-179.439-173.008Zm27.632.261a2.307,2.307,0,0,0,2.229-1.882,2.71,2.71,0,0,0-1.195-2.747,5.2,5.2,0,0,0-1.16-.664c-1.337-.551-2.689-1.071-4.039-1.594a4.074,4.074,0,0,0-.543-.125c-1.332,3.389-2.649,6.734-3.961,10.072a1.854,1.854,0,0,0,.266.179c1.64.646,3.267,1.331,4.931,1.911a5.538,5.538,0,0,0,2.082.3,2.727,2.727,0,0,0,2.389-1.806,2.684,2.684,0,0,0-.353-2.9C-151.33-172.227-151.529-172.43-151.807-172.747Zm53.993,58.3c-.364.086-.67.151-.974.227-1.686.428-3.368.873-5.059,1.282a2.366,2.366,0,0,1-2.741-.908,3.045,3.045,0,0,1-.333-3.284,2.352,2.352,0,0,1,1.608-1.18c1.838-.474,3.677-.941,5.514-1.416.193-.049.377-.132.594-.208l-.688-2.608c-2.442.675-4.828,1.239-7.144,2.011a3.7,3.7,0,0,0-2.486,3.389,7.636,7.636,0,0,0,1.489,5.446,3.926,3.926,0,0,0,3.993,1.543c.832-.128,1.648-.36,2.465-.566,1.453-.364,2.9-.743,4.419-1.133C-97.381-112.747-97.594-113.579-97.814-114.449Zm-135.862-42.4-11.046-4.756-2.323,2.145c1.407,3.7,2.8,7.353,4.213,11.077.756-.708,1.424-1.332,2.087-1.954-.3-.754-.567-1.435-.852-2.16q1.847-1.7,3.636-3.357l2.147.963Zm87.294-8.907,4.233,2.51c-.1.851-.181,1.6-.268,2.361l2.459,1.447c.471-4.037.925-7.954,1.386-11.908l-2.717-1.608-9.375,7.2,2.451,1.443C-147.6-164.791-147.028-165.248-146.382-165.758Zm33.556,32.382c-.623-.448-1.185-.838-1.729-1.25a5.6,5.6,0,0,1-1.645-2.1,3.762,3.762,0,0,1-.32-2.54,3.225,3.225,0,0,1,5.377-1.6,5.958,5.958,0,0,1,1.892,3.475c.1.475.155.957.244,1.515.7-.434,1.32-.819,1.922-1.191a4.365,4.365,0,0,0-.006-.768,8.031,8.031,0,0,0-3.929-5.832,5.164,5.164,0,0,0-5.823.233,5.214,5.214,0,0,0-2.217,5.393,7.9,7.9,0,0,0,2.24,4.276,7.347,7.347,0,0,0,2.053,1.584C-114.108-132.589-113.485-132.97-112.826-133.376ZM-192.9-11.717a3.028,3.028,0,0,1-.309.241,2.824,2.824,0,0,0-1.405,2.953,2.961,2.961,0,0,0,1.933,2.583,4.6,4.6,0,0,0,3.172.173,2.9,2.9,0,0,0,2.163-2.288,2.862,2.862,0,0,0-.974-3.056,1.975,1.975,0,0,0-.375-.187c.189-.176.241-.236.3-.28a2.618,2.618,0,0,0,1.114-2.768,2.663,2.663,0,0,0-1.971-2.255,6.25,6.25,0,0,0-2.253-.2,2.723,2.723,0,0,0-2.421,2.264A2.774,2.774,0,0,0-192.9-11.717Zm11.354.339a3.759,3.759,0,0,0-.353.228,3.118,3.118,0,0,0,.813,5.267,4.479,4.479,0,0,0,2.876.16,3,3,0,0,0,2.494-2.362,2.936,2.936,0,0,0-1.377-3.411c-.078-.046-.122-.149-.187-.23.093-.106.163-.185.234-.263a2.865,2.865,0,0,0-1.22-4.683,4.24,4.24,0,0,0-2.5-.036A2.832,2.832,0,0,0-183-13.531,2.782,2.782,0,0,0-181.546-11.378ZM-209.84-178.87l4.645-1.345c-.189-.667-.35-1.242-.532-1.889l-7.261,2.063,3.006,10.571,2.578-.745c-.4-1.458-.794-2.866-1.2-4.34l4.641-1.347c-.193-.675-.363-1.264-.537-1.876l-4.652,1.293C-209.39-177.3-209.6-178.019-209.84-178.87Zm49.308-.233c.155-.686.287-1.264.434-1.914l-10.419-2.358c-.149.7-.277,1.3-.409,1.912l3.861.914c-.67,2.979-1.315,5.848-1.971,8.762l2.619.586c.675-2.95,1.336-5.842,2-8.762Zm-6.019,160.437-5.553,1.128c.42,2.053.825,4.043,1.239,6.067a8.226,8.226,0,0,1,1.036-.282,6.608,6.608,0,0,1,1.412-.074,1.423,1.423,0,0,1,1.291,1.112,1.434,1.434,0,0,1-.642,1.58,2.449,2.449,0,0,1-1.1.361,20.392,20.392,0,0,1-2.041-.1c.119.591.234,1.169.344,1.711a5.545,5.545,0,0,0,4.664-.716,3.325,3.325,0,0,0,1.016-4.115,3.276,3.276,0,0,0-3.54-1.942c-.227.035-.456.051-.735.082-.132-.681-.252-1.312-.382-1.984l3.416-.722C-166.269-17.264-166.4-17.921-166.551-18.666Zm-93.682-98.953c.935-2.652,1.846-5.241,2.777-7.889l-1.862-.629c-.643,1.809-1.256,3.535-1.887,5.306l-8.492-2.977c-.311.9-.589,1.7-.881,2.546Zm129.34-36.916-4.387-3.57c1.908-2.356,3.776-4.663,5.664-7l-2.093-1.7-6.919,8.527,6.491,5.268C-131.7-153.536-131.324-154-130.893-154.536Zm.117,2.879q2.89,3.049,5.672,5.983l1.486-1.283c-1.328-1.413-2.579-2.744-3.856-4.105l6.526-6.2c-.677-.662-1.287-1.26-1.927-1.884C-125.511-156.648-128.128-154.165-130.775-151.657Zm-107.633-15.2c2.072,3.039,4.1,6.019,6.178,9.061,2.323-1.583,4.579-3.118,6.9-4.7-.4-.574-.746-1.079-1.114-1.613l-4.666,3.151-5.065-7.415Zm-18.759,36.284-8.038-4.077-1.207,2.413,9.785,4.97c1.294-2.546,2.53-4.98,3.791-7.461-.624-.307-1.176-.58-1.767-.87C-255.475-133.888-256.3-132.272-257.167-130.572Zm152.789-3-10.088,4.311,3.286,7.678c.643-.279,1.19-.517,1.8-.781-.74-1.752-1.454-3.441-2.193-5.19l8.259-3.544C-103.673-131.926-104-132.692-104.378-133.576Zm-112.655-35.356c-1.73.87-3.367,1.692-5.065,2.548-1.375-2.717-2.711-5.358-4.069-8.042l-2.411,1.209c1.673,3.319,3.3,6.553,4.951,9.823l7.466-3.769Zm-55.205,54.112,10.671,2.576c.219-.894.423-1.724.643-2.622l-10.676-2.576C-271.817-116.554-272.015-115.742-272.238-114.82ZM-201.956-7.16c.745-3.631,1.466-7.155,2.2-10.742l-2.343-.475c-.737,3.6-1.462,7.147-2.2,10.747C-203.512-7.474-202.8-7.33-201.956-7.16Z" transform="translate(279.599 189.586)" fill="#fff"/><path d="M-15.912-.756A74.747,74.747,0,0,1-90.722,74.05,74.643,74.643,0,0,1-165.51-.749,74.652,74.652,0,0,1-90.766-75.52,74.755,74.755,0,0,1-15.912-.756ZM-138.289,43.208c.214.093.4.192.6.257a1.89,1.89,0,0,0,2.332-.84c.711-1.41.669-2.738-.919-3.563a2.12,2.12,0,0,1-.806-.61,5.921,5.921,0,0,0-1.971-1.9c-.472-.28-.494-.58-.244-1.088a2.426,2.426,0,0,1,.29-.471c.986-1.2,1.946-2.434,2.979-3.6a10.521,10.521,0,0,1,4.465-2.911,14.89,14.89,0,0,0,4.9-2.841c.615-.537,1.336-.954,1.946-1.494a4.6,4.6,0,0,1,3.221-1.055c.185,0,.369-.01.555,0a15.8,15.8,0,0,0,4.714-.4,1.272,1.272,0,0,1,1.659.951,9.363,9.363,0,0,1,.244,1.128c1,.19,1.309.445,1.337,1.084.024.523-.254.764-.753.748-.1.89.718,1.138,1.122,1.732-.341.417-.675.829-1.011,1.241.277.223.471.379.738.6-.875,1.312-1.727,2.521-3.3,2.968-.8.227-1.054.537-1.054,1.35a3.437,3.437,0,0,0,2.023,3.319,16.317,16.317,0,0,1,4.731,3.4,14.919,14.919,0,0,0,4.533,3.4,4.254,4.254,0,0,0,3.875-.059c.832-.41,1.846-.377,2.614-.985.017-.014.052-.01.078-.008A1.769,1.769,0,0,0-98.035,43l1.453-.434c.461-2.158-.252-3.194-2.071-3.408-.157-.019-.315-.029-.472-.052a8.954,8.954,0,0,1-1.789-.293,20.223,20.223,0,0,1-6.223-3.709c-.545-.472-.566-.734-.242-1.394a5.188,5.188,0,0,1,1.714-1.939,10.453,10.453,0,0,0,2.907-3.3,17.527,17.527,0,0,0,2.616-7.884,6.245,6.245,0,0,1,2.112-4.3,18.166,18.166,0,0,1,3.91-2.678,73.9,73.9,0,0,1,16.15-6.182,18.65,18.65,0,0,0,7.9-3.628A10.053,10.053,0,0,0-66.43-1.42a.847.847,0,0,1,.814-.753c.1.33.189.658.287,1a2.069,2.069,0,0,0,1.464-.453c.437-.29.825-.654,1.244-.978a3.244,3.244,0,0,1,2.212-.883c.144.322.266.6.418.94,1.469-1.249,2.958-2.244,4.848-1.128.225-.2.38-.345.539-.483a8.373,8.373,0,0,1,5.027-2.267,2.234,2.234,0,0,0,.99-.42A11.725,11.725,0,0,1-44.22-8.624a14.652,14.652,0,0,0,1.771-.41,4.045,4.045,0,0,1,3.478.48A12.815,12.815,0,0,0-36.58-7.543a4.055,4.055,0,0,0,1.028.109l.6-.445a20.445,20.445,0,0,0,2.416.61,18.366,18.366,0,0,0,2.383.022c.054.363.089.591.127.848a3.028,3.028,0,0,0,2,.225c1.063-.295,2.12.133,3.181.006a.621.621,0,0,1,.439.155,1.415,1.415,0,0,0,1.538.292c.133.233.244.428.349.608a2.834,2.834,0,0,0,2.964-2.442,10.88,10.88,0,0,0,.143-4.555,3.618,3.618,0,0,0-.648-1.5c-.749-.952-1.614-1.811-2.4-2.733a4.3,4.3,0,0,0-3.62-1.917.905.905,0,0,1-.155-.025,8.551,8.551,0,0,0-4.593.4,13.1,13.1,0,0,1-1.575.523,2.822,2.822,0,0,1-2.3-.206,6.718,6.718,0,0,0-4.668-.7c-1.356.189-2.725.295-4.091.4-1.025.082-2.06.062-3.08.176-2.253.25-4.5.589-6.75.829a9.573,9.573,0,0,1-5.186-.745c-1.218-.57-2.448-1.117-3.671-1.678-.28-.128-.553-.274-.925-.458a2.365,2.365,0,0,0,1.231-2.54c-.046-.285-.141-.562-.2-.848a7.777,7.777,0,0,1-.1-3.375,5.46,5.46,0,0,1,.3-.727c.4.3.688.523,1,.756A2.367,2.367,0,0,0-61-28.464a1.842,1.842,0,0,1,.073-1.816c.092-.155.174-.317.219-.4A8.346,8.346,0,0,1-61-32.315a6.839,6.839,0,0,0-.686-3.676c.852-1.3,1.163-2.584.119-3.931-.618.185-1.233.388-1.729-.249a1.721,1.721,0,0,1-.025-2.205c-.5-.572-.97-1.138-1.467-1.681a6.057,6.057,0,0,1-1.531-2.9,2.7,2.7,0,0,0-.49-1.152A9.82,9.82,0,0,0-72.628-51.8a14.321,14.321,0,0,0-2.435-.257,8.776,8.776,0,0,1-4.327-.716c-.894.629-1.141.727-1.827.61a4.768,4.768,0,0,0-4.368,1.3,1.7,1.7,0,0,1-1.287.5,12.2,12.2,0,0,0-1.424.008,4.081,4.081,0,0,0-2.429.727c.6,1.244.5,1.523-.751,2.057-.429.184-.884.306-1.317.453.111,1.1.049,1.146-.886,1.729a7.51,7.51,0,0,0-1.461,1.2c-.96,1.009-1.866,2.069-2.836,3.153.4.6.127,1.049-.442,1.524a11.378,11.378,0,0,0-1.268,1.451c.12.266.2.45.279.62-.421.616-.819,1.2-1.237,1.806a1.283,1.283,0,0,1,.57,1.423,6.562,6.562,0,0,1-1.512,3.429,8.529,8.529,0,0,0-1.708,3.785c-.162.879-.246,1.775-.328,2.665a3.089,3.089,0,0,1-.9,2.358,1.316,1.316,0,0,0-.472,1.107c1.057.025,1.248.157,1.47.978a2.52,2.52,0,0,0-.17,2.819c.3-.193.6-.387.867-.561.776.524.865.865.309,1.412a22.118,22.118,0,0,1-1.912,1.657A35.075,35.075,0,0,0-112.457-6c-1.076,1.662-2.194,3.3-3.17,5.021a11.56,11.56,0,0,1-3.891,4.042c-3.489,2.278-6.653,5.032-10.272,7.128a2.869,2.869,0,0,1-1.149.437,27.981,27.981,0,0,1-3.475.111,7.208,7.208,0,0,1-2.063-.494A2.677,2.677,0,0,1-138.083,8.6a6.349,6.349,0,0,1,.491-5.774A12.332,12.332,0,0,1-132-2.144a42.019,42.019,0,0,1,12.468-3.408,8.361,8.361,0,0,0,6.125-3.33c.212-.3.414-.6.612-.887.285.013.521.035.756.033a3.089,3.089,0,0,0,3.166-3.284,4.623,4.623,0,0,0-.4-1.275,3.12,3.12,0,0,1,.019-2.815,2.591,2.591,0,0,0,.181-1.377,3.693,3.693,0,0,0-1.055-2.258,4.023,4.023,0,0,1-1.163-2.007c-.157.193-.26.344-.387.469s-.292.244-.52.433c-.377-1.325.44-2.405.353-3.7a7.026,7.026,0,0,0-2.364,2.8,2.235,2.235,0,0,0-.139,1.155,4.051,4.051,0,0,1-.577,2.882c-.575,1.008-1.2,1.988-1.8,2.985a3.113,3.113,0,0,0,.816,4.409c.223.177.448.352.646.507a1.363,1.363,0,0,1-.7,1.317,10.04,10.04,0,0,1-1.813.952,26.118,26.118,0,0,1-6.561,1.4A29.221,29.221,0,0,0-136.081-3.41a17.48,17.48,0,0,0-6.3,5.775,8.192,8.192,0,0,0-1.331,4.173,9.349,9.349,0,0,0,2.5,6.49,16.548,16.548,0,0,0,5.444,4.012c.255.124.505.255.772.39a15.753,15.753,0,0,1-3.765,6.564.762.762,0,0,1-.423.2,2.472,2.472,0,0,0-1.881,1.74,8.461,8.461,0,0,1-.445,1.1c-1.825,2.987-3.31,6.2-5.85,8.709a3.421,3.421,0,0,0-1.063,2.082,25.444,25.444,0,0,0-.166,3.706,2.252,2.252,0,0,0,3.044,2.072c.3-.087.6-.187.96-.3a3.006,3.006,0,0,0,3.017.029A4.456,4.456,0,0,0-138.289,43.208Z" transform="translate(185.234 95.243)" fill="#0f3977"/><path d="M-173.366,16.767l1.7-2.3c2.066,3.546,4.08,7,6.1,10.468-.223.311-.421.585-.67.932l-7.854-1.492c1.3,2.437,2.522,4.717,3.761,7.036l-.68.928-11.82-2.711,1.679-2.3,6.477,1.5c-1.119-2.058-2.153-3.963-3.218-5.919.418-.57.835-1.136,1.285-1.748l6.616,1.323Z" transform="translate(199.81 19.51)" fill="#0f3977"/><path d="M-246.89,308.72c-.106.928-.2,1.738-.306,2.667-3.643-.328-7.236-.749-10.924-1.152.076-.818.146-1.567.219-2.364l4.425-3.085c-1.234-1.336-2.438-2.641-3.663-3.967.082-.761.165-1.513.258-2.369l10.95,1.166c-.1.911-.185,1.763-.285,2.719l-6.545-.681c-.03.049-.062.1-.092.146l2.871,3.109c.074.475-.233.616-.491.8-.993.688-1.987,1.377-2.972,2.156C-251.294,308.3-249.108,308.386-246.89,308.72Z" transform="translate(263.171 -219.476)" fill="#0f3977"/><path d="M803.169,326.809c-.079.223-.122.347-.166.469a2.714,2.714,0,0,1-2.538,1.933,3.2,3.2,0,0,1-3.321-2.629c-.227-2.068-.426-4.137-.643-6.306l10.958-.966c.052.317.12.616.149.921.116,1.261.222,2.522.328,3.784a4.426,4.426,0,0,1-.36,2.4,2.4,2.4,0,0,1-4.1.675A2.777,2.777,0,0,0,803.169,326.809Zm-1.781-4.2-2.66.231c.135.919.209,1.778.4,2.61a1.046,1.046,0,0,0,1.239.848,1.16,1.16,0,0,0,1.149-1.249C801.532,324.264,801.439,323.482,801.388,322.6Zm1.973-.17c.082.669.109,1.249.234,1.8a1.114,1.114,0,0,0,1.217.906,1.078,1.078,0,0,0,1.027-1.1c.024-.569-.051-1.142-.087-1.813C804.945,322.3,804.222,322.36,803.361,322.434Z" transform="translate(-624.356 -237.031)" fill="#0f3977"/><path d="M209.683-153.364a5.746,5.746,0,0,1-2.763-.7,5.42,5.42,0,0,1-1.32-8.766,7.043,7.043,0,0,1,8.608-.737,5.452,5.452,0,0,1-.667,9.332A7.553,7.553,0,0,1,209.683-153.364Zm.361-2.305c2.152.013,3.643-1.291,3.665-3.2a3.241,3.241,0,0,0-3.326-3.527,3.337,3.337,0,0,0-3.635,3.256A3.23,3.23,0,0,0,210.044-155.669Z" transform="translate(-125.669 170.296)" fill="#0f3977"/><path d="M308.457-155.85a7.406,7.406,0,0,1-3.891-1.217,5.431,5.431,0,0,1,.008-9.093,7.083,7.083,0,0,1,8.259.54,5.252,5.252,0,0,1,1.727,5.439,5.513,5.513,0,0,1-4.078,4.023A14.247,14.247,0,0,1,308.457-155.85Zm-.149-9.077a3.261,3.261,0,0,0-3.378,3.476,3.352,3.352,0,0,0,3.612,3.277,3.288,3.288,0,0,0,3.37-3.5A3.3,3.3,0,0,0,308.308-164.927Z" transform="translate(-208.296 172.428)" fill="#0f3977"/><path d="M470.528-130.976c.277.317.477.52.646.743a2.682,2.682,0,0,1,.353,2.9,2.726,2.726,0,0,1-2.389,1.806,5.538,5.538,0,0,1-2.082-.3c-1.664-.581-3.291-1.264-4.931-1.911a1.851,1.851,0,0,1-.266-.179c1.312-3.337,2.628-6.681,3.961-10.072a4.082,4.082,0,0,1,.543.125c1.348.524,2.7,1.043,4.039,1.594a5.165,5.165,0,0,1,1.16.664,2.711,2.711,0,0,1,1.195,2.747A2.305,2.305,0,0,1,470.528-130.976Zm-5.46,2.3c.856.3,1.607.615,2.389.818a1.159,1.159,0,0,0,1.513-.791,1.183,1.183,0,0,0-.627-1.534c-.713-.377-1.481-.653-2.3-1C465.709-130.312,465.408-129.539,465.068-128.672Zm1.71-4.351c.49.2.917.388,1.351.556a1.864,1.864,0,0,0,.458.1,1.149,1.149,0,0,0,1.317-.749,1.092,1.092,0,0,0-.548-1.4c-.523-.279-1.09-.471-1.7-.729C467.347-134.463,467.073-133.766,466.778-133.023Z" transform="translate(-342.736 147.815)" fill="#0f3977"/><path d="M794.942,231.226c.22.87.431,1.7.658,2.594-1.516.39-2.966.768-4.419,1.133-.818.2-1.633.437-2.465.566a3.923,3.923,0,0,1-3.993-1.543,7.636,7.636,0,0,1-1.489-5.446,3.7,3.7,0,0,1,2.486-3.389c2.316-.77,4.7-1.334,7.144-2.011l.688,2.608c-.217.076-.4.158-.594.208-1.838.475-3.677.943-5.514,1.416a2.352,2.352,0,0,0-1.608,1.18,3.045,3.045,0,0,0,.333,3.284,2.366,2.366,0,0,0,2.741.908c1.69-.409,3.373-.854,5.059-1.282C794.271,231.377,794.577,231.312,794.942,231.226Z" transform="translate(-613.156 -156.09)" fill="#0f3977"/><path d="M-71.161-18.645c-.786.719-1.461,1.337-2.139,1.96l-2.147-.963-3.636,3.357.852,2.16-2.087,1.954c-1.416-3.723-2.8-7.375-4.213-11.076.77-.711,1.519-1.4,2.323-2.145Zm-6.152.143c-1.445-.656-2.746-1.29-4.073-1.862l-.114.152,1.657,4.053Z" transform="translate(117.085 51.38)" fill="#0f3977"/><path d="M528.071-87.842l-1.83,1.445-2.451-1.443,9.375-7.2c.887.524,1.786,1.055,2.717,1.608-.461,3.955-.916,7.871-1.386,11.908l-2.459-1.447c.086-.757.171-1.51.268-2.361Zm5.152-3.926-.188-.071L529.629-89.1l2.972,1.751C532.823-88.929,533.022-90.349,533.224-91.768Z" transform="translate(-394.854 111.67)" fill="#0f3977"/><path d="M729.071,95.918l-1.941,1.193a7.353,7.353,0,0,1-2.053-1.584,7.9,7.9,0,0,1-2.24-4.276,5.218,5.218,0,0,1,2.217-5.393,5.164,5.164,0,0,1,5.823-.233,8.026,8.026,0,0,1,3.929,5.832,4.36,4.36,0,0,1,.006.768l-1.922,1.191c-.089-.558-.149-1.039-.244-1.515a5.95,5.95,0,0,0-1.892-3.475,3.225,3.225,0,0,0-5.377,1.6,3.773,3.773,0,0,0,.32,2.54,5.57,5.57,0,0,0,1.645,2.1C727.887,95.08,728.45,95.47,729.071,95.918Z" transform="translate(-562.298 -39.709)" fill="#0f3977"/><path d="M248.031,895.481a2.764,2.764,0,0,1-1.022-2.819,2.721,2.721,0,0,1,2.421-2.264,6.217,6.217,0,0,1,2.253.2,2.664,2.664,0,0,1,1.971,2.255,2.619,2.619,0,0,1-1.114,2.768c-.063.044-.114.1-.3.28a1.974,1.974,0,0,1,.375.187,2.865,2.865,0,0,1,.974,3.056,2.9,2.9,0,0,1-2.163,2.288,4.6,4.6,0,0,1-3.172-.173,2.961,2.961,0,0,1-1.933-2.583,2.819,2.819,0,0,1,1.405-2.953A3.569,3.569,0,0,0,248.031,895.481Zm3.24,2.882a7.6,7.6,0,0,0-.158-.94,1.114,1.114,0,0,0-2.129-.136,2.322,2.322,0,0,0,.03,2.129,1.029,1.029,0,0,0,1.813.113A4.873,4.873,0,0,0,251.271,898.363Zm.1-4.9a4.573,4.573,0,0,0-.059-.653.953.953,0,0,0-1.859-.163,2.2,2.2,0,0,0-.035,1.691.911.911,0,0,0,.816.643.878.878,0,0,0,.9-.627A6.571,6.571,0,0,0,251.371,893.461Z" transform="translate(-161.332 -717.612)" fill="#0f3977"/><path d="M321.093,895.554a2.777,2.777,0,0,1-1.45-2.153,2.831,2.831,0,0,1,2.234-3.178,4.252,4.252,0,0,1,2.5.036,2.865,2.865,0,0,1,1.22,4.683c-.071.078-.139.157-.234.263.063.081.109.184.187.23a2.932,2.932,0,0,1,1.377,3.411,3,3,0,0,1-2.494,2.362,4.478,4.478,0,0,1-2.876-.16,3.118,3.118,0,0,1-.813-5.267A3.453,3.453,0,0,1,321.093,895.554Zm.933,2.423a7.074,7.074,0,0,0,.374,1.139,1.048,1.048,0,0,0,1.1.613,1.12,1.12,0,0,0,.954-.833,2.438,2.438,0,0,0-.122-1.843,1.108,1.108,0,0,0-1.095-.754,1.123,1.123,0,0,0-1.054.914C322.12,897.436,322.09,897.672,322.026,897.976Zm1.982-4.68.04,0a6.819,6.819,0,0,0-.147-.848.941.941,0,0,0-1.859.109,3.866,3.866,0,0,0,.038,1.245,1.01,1.01,0,0,0,1.1.911c.459-.059.767-.463.827-1.1A2.645,2.645,0,0,0,324.009,893.3Z" transform="translate(-223.04 -717.346)" fill="#0f3977"/><path d="M133.551-149.538c.244.851.45,1.575.683,2.388l4.652-1.293c.174.61.344,1.2.537,1.876l-4.641,1.347c.409,1.473.8,2.882,1.2,4.34l-2.578.745c-1-3.511-1.988-6.992-3.006-10.571l7.261-2.063.532,1.889C136.65-150.436,135.15-150,133.551-149.538Z" transform="translate(-63.792 160.253)" fill="#0f3977"/><path d="M406.285-156.528l-3.882-.859c-.667,2.92-1.329,5.81-2,8.762l-2.619-.586c.656-2.914,1.3-5.781,1.971-8.762l-3.861-.914c.132-.616.26-1.217.409-1.912l10.419,2.358C406.572-157.793,406.442-157.215,406.285-156.528Z" transform="translate(-287.218 167.011)" fill="#0f3977"/><path d="M394.022,878.77c.149.745.28,1.4.423,2.11l-3.416.722c.13.672.25,1.3.382,1.984.28-.03.509-.048.735-.082a3.276,3.276,0,0,1,3.54,1.943,3.328,3.328,0,0,1-1.016,4.115,5.545,5.545,0,0,1-4.664.716c-.109-.542-.225-1.122-.344-1.711a20.4,20.4,0,0,0,2.041.1,2.43,2.43,0,0,0,1.1-.361,1.461,1.461,0,0,0-.65-2.692,6.811,6.811,0,0,0-1.412.074,8.228,8.228,0,0,0-1.036.282c-.414-2.025-.821-4.013-1.239-6.067Z" transform="translate(-280.974 -707.85)" fill="#0f3977"/><path d="M-222.715,208.978l-10.345-3.643c.292-.843.572-1.651.881-2.546l8.492,2.977c.631-1.771,1.244-3.5,1.887-5.306l1.862.629C-220.87,203.735-221.781,206.325-222.715,208.978Z" transform="translate(242.082 -137.011)" fill="#0f3977"/><path d="M607.485-43.934,606.241-42.4l-6.491-5.268,6.919-8.527,2.093,1.7c-1.89,2.334-3.757,4.641-5.664,7C604.557-46.315,605.986-45.154,607.485-43.934Z" transform="translate(-458.779 78.984)" fill="#0f3977"/><path d="M649.31-.382l7.9-7.488c.639.626,1.25,1.223,1.927,1.884L652.61.212c1.279,1.359,2.53,2.692,3.856,4.105L654.981,5.6Z" transform="translate(-500.486 38.311)" fill="#0f3977"/><path d="M-30.02-64.577l2.228-1.513,5.065,7.415,4.666-3.151,1.114,1.613c-2.316,1.58-4.573,3.115-6.9,4.7C-25.918-58.558-27.948-61.538-30.02-64.577Z" transform="translate(71.211 87.307)" fill="#0f3977"/><path d="M-197.533,145.784c.868-1.7,1.692-3.316,2.564-5.024l1.767.87c-1.261,2.481-2.5,4.915-3.791,7.461l-9.785-4.97c.407-.814.791-1.578,1.207-2.413Z" transform="translate(219.965 -86.77)" fill="#0f3977"/><path d="M762.329,153.51l1.058,2.473-8.259,3.544c.738,1.749,1.453,3.438,2.193,5.19l-1.8.781c-1.1-2.565-2.179-5.092-3.286-7.678Z" transform="translate(-587.108 -97.5)" fill="#0f3977"/><path d="M43.574-98.834l.873,1.767L36.981-93.3c-1.648-3.27-3.278-6.5-4.951-9.823l2.411-1.209,4.069,8.042Z" transform="translate(18.992 119.488)" fill="#0f3977"/><path d="M-243.54,257.962c.225-.924.423-1.735.639-2.622l10.676,2.576-.643,2.622C-236.453,259.675-239.95,258.83-243.54,257.962Z" transform="translate(250.901 -183.196)" fill="#0f3977"/><path d="M187.6,891.808l-2.343-.471c.737-3.6,1.462-7.144,2.2-10.747l2.343.475C189.069,884.652,188.348,888.175,187.6,891.808Z" transform="translate(-109.96 -709.382)" fill="#0f3977"/><path d="M-48.495,163.938a4.4,4.4,0,0,1-3.278.111,3.01,3.01,0,0,1-3.017-.029c-.356.111-.658.212-.96.3a2.253,2.253,0,0,1-3.044-2.072,25.225,25.225,0,0,1,.166-3.706,3.421,3.421,0,0,1,1.063-2.082c2.54-2.508,4.024-5.723,5.85-8.709a8.465,8.465,0,0,0,.445-1.1,2.472,2.472,0,0,1,1.881-1.74.773.773,0,0,0,.423-.2,15.77,15.77,0,0,0,3.765-6.564c-.265-.135-.517-.266-.772-.39a16.548,16.548,0,0,1-5.444-4.012,9.349,9.349,0,0,1-2.5-6.49,8.192,8.192,0,0,1,1.331-4.173,17.48,17.48,0,0,1,6.3-5.775,29.237,29.237,0,0,1,11.751-3.734,26.049,26.049,0,0,0,6.561-1.4,10.146,10.146,0,0,0,1.813-.952,1.363,1.363,0,0,0,.7-1.317c-.2-.155-.423-.33-.646-.507a3.113,3.113,0,0,1-.816-4.409c.594-1,1.22-1.977,1.8-2.985a4.039,4.039,0,0,0,.577-2.882,2.234,2.234,0,0,1,.139-1.155,7.026,7.026,0,0,1,2.364-2.8c.087,1.291-.73,2.372-.353,3.7.228-.187.385-.3.52-.433s.23-.276.387-.469a4.012,4.012,0,0,0,1.163,2.007,3.7,3.7,0,0,1,1.055,2.258,2.591,2.591,0,0,1-.181,1.377,3.11,3.11,0,0,0-.019,2.815,4.623,4.623,0,0,1,.4,1.275,3.09,3.09,0,0,1-3.166,3.284c-.236,0-.471-.021-.756-.033-.2.287-.4.591-.612.887a8.367,8.367,0,0,1-6.125,3.33,41.971,41.971,0,0,0-12.468,3.408,12.315,12.315,0,0,0-5.593,4.97,6.339,6.339,0,0,0-.491,5.774,2.677,2.677,0,0,0,1.607,1.648,7.261,7.261,0,0,0,2.063.494,27.671,27.671,0,0,0,3.475-.111A2.917,2.917,0,0,0-40,130.91c3.619-2.1,6.783-4.851,10.272-7.128a11.56,11.56,0,0,0,3.891-4.042c.976-1.719,2.095-3.359,3.17-5.021a35.075,35.075,0,0,1,8.028-8.575,21.884,21.884,0,0,0,1.912-1.657c.556-.547.469-.889-.309-1.412l-.867.561a2.52,2.52,0,0,1,.17-2.819c-.222-.821-.414-.954-1.47-.978a1.318,1.318,0,0,1,.472-1.107,3.1,3.1,0,0,0,.9-2.358c.081-.89.166-1.786.328-2.665a8.513,8.513,0,0,1,1.708-3.785A6.574,6.574,0,0,0-10.281,86.5a1.286,1.286,0,0,0-.57-1.423c.418-.61.814-1.19,1.237-1.806-.076-.17-.158-.353-.279-.62A11.377,11.377,0,0,1-8.625,81.2c.569-.475.846-.927.442-1.524.97-1.084,1.878-2.144,2.836-3.153a7.568,7.568,0,0,1,1.461-1.2c.936-.583,1-.626.886-1.729.433-.147.887-.269,1.317-.453,1.249-.534,1.347-.813.751-2.057A4.088,4.088,0,0,1,1.5,70.358a11.547,11.547,0,0,1,1.424-.008,1.691,1.691,0,0,0,1.287-.5,4.772,4.772,0,0,1,4.368-1.3c.686.117.933.021,1.827-.61a8.782,8.782,0,0,0,4.327.716,14.3,14.3,0,0,1,2.435.257A9.82,9.82,0,0,1,22.987,72.6a2.716,2.716,0,0,1,.49,1.152,6.07,6.07,0,0,0,1.531,2.9c.5.543.97,1.109,1.467,1.681a1.72,1.72,0,0,0,.025,2.205c.5.637,1.111.433,1.729.249,1.044,1.347.732,2.632-.119,3.931A6.839,6.839,0,0,1,28.8,88.4a8.346,8.346,0,0,0,.29,1.637c-.044.082-.128.242-.219.4a1.846,1.846,0,0,0-.073,1.816,2.366,2.366,0,0,1,.146,1.992c-.307-.234-.6-.455-1-.756a5.928,5.928,0,0,0-.3.727,7.825,7.825,0,0,0,.1,3.375c.057.284.152.562.2.848a2.365,2.365,0,0,1-1.231,2.54c.372.185.645.33.925.458,1.223.561,2.453,1.107,3.671,1.678a9.6,9.6,0,0,0,5.186.745c2.255-.239,4.5-.578,6.75-.829,1.02-.114,2.055-.093,3.08-.176,1.366-.109,2.735-.215,4.091-.4a6.735,6.735,0,0,1,4.668.7,2.816,2.816,0,0,0,2.3.206,13.005,13.005,0,0,0,1.575-.523,8.536,8.536,0,0,1,4.593-.4.773.773,0,0,0,.155.025,4.3,4.3,0,0,1,3.62,1.917c.789.922,1.654,1.781,2.4,2.733a3.659,3.659,0,0,1,.648,1.5,10.878,10.878,0,0,1-.143,4.555,2.834,2.834,0,0,1-2.964,2.442l-.349-.608a1.415,1.415,0,0,1-1.538-.292.626.626,0,0,0-.439-.155c-1.062.127-2.117-.3-3.181-.006a3.026,3.026,0,0,1-2-.225c-.038-.257-.073-.485-.127-.848a18.367,18.367,0,0,1-2.383-.022,20.521,20.521,0,0,1-2.416-.61l-.6.445a4.128,4.128,0,0,1-1.028-.109,12.771,12.771,0,0,1-2.391-1.011,4.045,4.045,0,0,0-3.478-.48,15.028,15.028,0,0,1-1.771.41,11.709,11.709,0,0,0-4.367,1.781,2.261,2.261,0,0,1-.99.42,8.391,8.391,0,0,0-5.027,2.267c-.16.138-.314.28-.539.483-1.89-1.115-3.38-.12-4.848,1.128-.152-.342-.276-.616-.418-.94a3.247,3.247,0,0,0-2.212.883c-.418.322-.8.686-1.244.978a2.064,2.064,0,0,1-1.464.453c-.1-.344-.192-.672-.287-1a.844.844,0,0,0-.814.753,10.023,10.023,0,0,1-3.641,5.221,18.65,18.65,0,0,1-7.9,3.628,74.206,74.206,0,0,0-16.153,6.19,18.109,18.109,0,0,0-3.91,2.678,6.236,6.236,0,0,0-2.112,4.3,17.5,17.5,0,0,1-2.616,7.884,10.434,10.434,0,0,1-2.907,3.3,5.214,5.214,0,0,0-1.714,1.939c-.323.661-.3.922.242,1.394a20.241,20.241,0,0,0,6.224,3.709,8.954,8.954,0,0,0,1.789.293c.157.024.315.033.472.052,1.819.215,2.532,1.25,2.071,3.408l-1.453.434a1.764,1.764,0,0,1-1.358.551.138.138,0,0,0-.078.008c-.768.607-1.782.575-2.614.985a4.254,4.254,0,0,1-3.875.059,14.945,14.945,0,0,1-4.533-3.4,16.338,16.338,0,0,0-4.731-3.4,3.434,3.434,0,0,1-2.023-3.319c0-.813.255-1.125,1.054-1.35,1.575-.445,2.429-1.654,3.3-2.968l-.738-.6,1.011-1.241c-.4-.594-1.222-.841-1.122-1.732.5.016.776-.225.753-.748-.029-.64-.337-.9-1.337-1.084a9.069,9.069,0,0,0-.244-1.128,1.272,1.272,0,0,0-1.659-.951,15.792,15.792,0,0,1-4.714.4c-.184-.006-.369,0-.555,0a4.6,4.6,0,0,0-3.221,1.055c-.61.542-1.331.957-1.946,1.494a14.89,14.89,0,0,1-4.9,2.841,10.561,10.561,0,0,0-4.465,2.911c-1.033,1.163-1.992,2.392-2.979,3.6a2.425,2.425,0,0,0-.29.471c-.25.509-.228.808.244,1.088a5.906,5.906,0,0,1,1.971,1.9,2.1,2.1,0,0,0,.806.61c1.588.825,1.63,2.155.919,3.563a1.887,1.887,0,0,1-2.332.84A5.63,5.63,0,0,1-48.495,163.938Z" transform="translate(95.44 -25.488)" fill="#fff"/><path d="M813.22,340.1c.051.878.144,1.66.128,2.44a1.16,1.16,0,0,1-1.149,1.249,1.046,1.046,0,0,1-1.239-.848c-.192-.832-.266-1.691-.4-2.609Z" transform="translate(-636.188 -254.527)" fill="#fff"/><path d="M839.8,337.936l2.391-.206c.036.67.111,1.244.087,1.813a1.077,1.077,0,0,1-1.027,1.1,1.115,1.115,0,0,1-1.217-.906C839.909,339.183,839.884,338.6,839.8,337.936Z" transform="translate(-660.795 -252.532)" fill="#fff"/><path d="M225.035-143.43a3.23,3.23,0,0,1-3.3-3.475,3.339,3.339,0,0,1,3.635-3.256,3.241,3.241,0,0,1,3.326,3.527C228.678-144.721,227.187-143.418,225.035-143.43Z" transform="translate(-140.66 158.057)" fill="#fff"/><path d="M323.285-152.661a3.3,3.3,0,0,1,3.6,3.258,3.288,3.288,0,0,1-3.37,3.5,3.352,3.352,0,0,1-3.612-3.277A3.261,3.261,0,0,1,323.285-152.661Z" transform="translate(-223.273 160.162)" fill="#fff"/><path d="M482.11-92.51c.339-.867.64-1.64.981-2.51.814.35,1.583.626,2.3,1a1.184,1.184,0,0,1,.627,1.534,1.158,1.158,0,0,1-1.513.791C483.718-91.9,482.966-92.212,482.11-92.51Z" transform="translate(-359.777 111.653)" fill="#fff"/><path d="M492.9-118.439c.293-.743.569-1.44.878-2.221.612.257,1.179.45,1.7.729a1.091,1.091,0,0,1,.548,1.4,1.149,1.149,0,0,1-1.317.749,1.864,1.864,0,0,1-.458-.1C493.819-118.051,493.391-118.234,492.9-118.439Z" transform="translate(-368.858 133.231)" fill="#fff"/><path d="M-61.222-2.378-63.751-.035c-.578-1.41-1.119-2.731-1.659-4.053l.114-.152C-63.968-3.668-62.667-3.034-61.222-2.378Z" transform="translate(100.994 35.256)" fill="#fff"/><path d="M564.235-74.76c-.2,1.42-.4,2.839-.623,4.419l-2.972-1.751c1.184-.952,2.294-1.846,3.406-2.738Z" transform="translate(-425.865 94.662)" fill="#fff"/><path d="M264.22,931.243a5,5,0,0,1-.444,1.166,1.029,1.029,0,0,1-1.813-.112,2.318,2.318,0,0,1-.03-2.129,1.114,1.114,0,0,1,2.129.136A7.966,7.966,0,0,1,264.22,931.243Z" transform="translate(-174.28 -750.492)" fill="#fff"/><path d="M267.106,901.941a6.489,6.489,0,0,1-.233.889.878.878,0,0,1-.9.627.911.911,0,0,1-.816-.643,2.195,2.195,0,0,1,.035-1.691.953.953,0,0,1,1.859.163A4.645,4.645,0,0,1,267.106,901.941Z" transform="translate(-177.066 -726.092)" fill="#fff"/><path d="M334.76,931.135c.062-.3.092-.54.16-.765a1.124,1.124,0,0,1,1.054-.914,1.108,1.108,0,0,1,1.095.754,2.438,2.438,0,0,1,.122,1.843,1.118,1.118,0,0,1-.954.833,1.044,1.044,0,0,1-1.1-.613A7.121,7.121,0,0,1,334.76,931.135Z" transform="translate(-235.773 -750.505)" fill="#fff"/><path d="M336.664,902.02c0,.1.008.211,0,.315-.06.634-.368,1.039-.827,1.1a1.007,1.007,0,0,1-1.1-.911,3.82,3.82,0,0,1-.038-1.245.941.941,0,0,1,1.858-.109,6.81,6.81,0,0,1,.147.848Z" transform="translate(-235.696 -726.07)" fill="#fff"/></g><g transform="translate(-253.478 -157.697)"><path d="M-14.309,274.76l-5.281,7.03s-8.149-2.961-8.922-9.88,8.789-13.566,18.767-14.679C1.239,256-.11,253.425-.11,253.425s-3.291-1.749-1.507-4.718,2.8-4.061,2.429-5.972,2.643-4.045,2.643-4.045a13.139,13.139,0,0,1-.352,1.83c-.22.8-.376,1.627-.04,1.963a2.35,2.35,0,0,0,.843-1.236,3.145,3.145,0,0,0,.876,2.019c.767.575,1.86,2.77,1.207,3.9-1.431,2.48,1.372,3.494.03,5.737a3.334,3.334,0,0,1-3.662,1.608,7.818,7.818,0,0,1-5.818,4.123c-2.088.285-12.521,1.678-16.975,5.968-2.739,2.892-3.669,5.53-2.348,8.56s8.012,1.624,8.473,1.6Z" transform="translate(33.456 -211.488)" fill="#32446e" fill-rule="evenodd"/><path d="M10.727,259.689h0Zm.089,2.679a3.432,3.432,0,0,1-.089-2.679c-1.614.12-.889,3.766-.889,3.766s-.962.228-.94-.751-.792-.951-.94-.753-.743.966-1.532.444-.517-2.2.3-2.746a1.949,1.949,0,0,0,.431,2.207,6.2,6.2,0,0,1,.127-2.488c.227-.661.6-1.5,1.409-1.283s.165,2.175.171,2.148c.217-.271,1.6-2.1,1.161-2.787-.428-.658.562-2.833.639-3a1.06,1.06,0,0,1-1.405.518c-1.02-.376-.8-1.985-.336-2.8-1.139.741-.623,3.5-.985,4.641s-2.1,2.632-2.781,4.178A1.785,1.785,0,0,0,6.3,263.483c.677.223.768,1,.887,1.6l0,0s.518,1.854-3.928,2.9c-4.6,1.084-13.341,1.4-19.383,6.345-6.016,4.929-4.176,10.091-3.422,11.889s1.725,1.971,2.136,1.654.261-1.353-.26-2.765c-1.467-3.953-1.253-6.32,3.071-10.18S-1.839,269.59.705,269.2c2.476-.385,6.664-1.366,6.769-3.676.119-1.4,2.1-.209,3.01-.675s.936-1.45.331-2.481Z" transform="translate(26.606 -222.832)" fill="#fff" fill-rule="evenodd"/><path d="M-12.976,103.009c-.179,1.028-4.316,3.277-7.775,7.38s-6.675,10.443-7.893,11.538a25.585,25.585,0,0,1-5.585,4.37,51.669,51.669,0,0,0-7.651,4.611c-2.424,1.824-1.819,3.768-2.792,4.5s-1.334,2.915-2.307,4.733a10.2,10.2,0,0,1-2.4,3.281c-.038.006.1.485-.759.608s-1.575.968-1.942,2.183-3.4,5.707-3.885,6.677a22.251,22.251,0,0,1-2.546,3.04c-1.1,1.334-.973,3.517-.973,5.1a2.458,2.458,0,0,0,2.183,2.551,4.607,4.607,0,0,0,1.865-.485,2.393,2.393,0,0,0,1.426.485,4.07,4.07,0,0,0,1.713-.485s.09.363,1.426.363,1.7-.49,1.7-.49a2.09,2.09,0,0,0,1.949.368,1.989,1.989,0,0,0,1.174-1.081,4.516,4.516,0,0,0,.29-1.191,2.145,2.145,0,0,0-1.464-2.215c-1.095-.49-.852-1.337-2.064-2.071s-1.459-.844,0-2.67,3.156-4.129,5.585-5.222,3.521-1.214,5.585-2.911a43.881,43.881,0,0,1,3.763-2.8,14.1,14.1,0,0,1,2.429-.244,19.162,19.162,0,0,0,2.671,0c1.7-.124,2.741-.883,3.482-.065a2.078,2.078,0,0,1,.4,1.887s1.242-.341,1.459.612c.3,1.3-.648,1.115-.675.879-.024.027-.42.894,1.084,1.741-.029.973-.951.553-.951,1.737.261-.236,1.161.054.057,1.222-1.337,1.7-2.185,1.944-2.917,2.066s-1.272,1.5-.334,3.17c.846,1.5,1.656,1.325,3.72,2.665s3.78,3.755,5.721,4.848,2.476,1.242,3.4,1.218a3.853,3.853,0,0,0,2.244-.794,2.353,2.353,0,0,0,2-.711c1.428.1,1.8-.791,1.779-.784a1.516,1.516,0,0,0,1.44-.328s.555-2.621-1.269-3.109-2.388-.26-3.215-.555a22.131,22.131,0,0,1-5.089-2.846c-1.218-.989-1.9-1.161-1.291-2.291,1.033-1.911,2.175-1.827,3.643-3.763a19.051,19.051,0,0,0,3.4-7.773c.242-2.307.242-4.129,2.673-6.195s6.921-4.126,10.443-5.463a70.066,70.066,0,0,1,8.255-2.793c3.169-.841,5.3-1.236,7.4-2.793,2.8-2.061,3.888-3.034,4.859-5.461.209-.631.3-1.591.848-1.578.669-.013.231,1.081.242,1.092,1.729,0,2.8-1.578,3.524-1.941s1.7-.854,1.822-.127l.122.732a6.317,6.317,0,0,1,2.911-1.7,2.972,2.972,0,0,1,2.064.485,8.22,8.22,0,0,1,2.549-1.941,6.819,6.819,0,0,1,3.4-.848,11.626,11.626,0,0,1,4.861-2.188c2.789-.485,3.224-1.239,5.312.06a6.471,6.471,0,0,0,3.665,1.15.455.455,0,0,1,.593-.466c.61.109,2.217,1.039,4.175.537,0-.033.83.054.407.868a3.253,3.253,0,0,0,2.346.249c1.641-.323,1.467.171,1.467.171s1.518-.455,2.152.16a.8.8,0,0,0,1.146.117s.77.135.195.705a2.89,2.89,0,0,0,3.208-2.123c.376-.963.865-5.4-.493-6.583s-3.31-4.311-4.771-4.4a16.831,16.831,0,0,0-4.3-.215c-1.575.269-3.148,1.337-4.609,1.123s-1.729-1.672-5.848-.989-4.893.173-7.691.661-7.771,1.09-9.709.485a60.683,60.683,0,0,1-6.076-2.676,2.237,2.237,0,0,0,1.217-2.915,8.212,8.212,0,0,1-.067-4.363s.825-.238,1.038.848a2.233,2.233,0,0,0-.124-2.429,1.9,1.9,0,0,1,.49-2.069,3.619,3.619,0,0,1-.4-1.66,6.437,6.437,0,0,0-.092-1.98,4.52,4.52,0,0,0-.623-1.618,4.729,4.729,0,0,0,.83-2.129,4.2,4.2,0,0,0-.692-1.96,1.17,1.17,0,0,1-1.822-.242,1.605,1.605,0,0,1,.125-2.064s-.49-.486-1.824-2.061-1-2.519-1.578-3.525a10.714,10.714,0,0,0-5.658-3.833c-2.429-.486-4.419-.173-5.393-.415A10.425,10.425,0,0,1,9.621,67a1.445,1.445,0,0,1-1.721.648,5.069,5.069,0,0,0-3.356.534c-.97.485-1.014,1.285-2.226,1.285s-2.793-.116-4.009.734c0,0,.944,1.095.215,1.578a4.724,4.724,0,0,1-2.277.851s.485,1.21-.363,1.575a6.862,6.862,0,0,0-2.678,2.307,8.48,8.48,0,0,1-2.18,2.171s.727.863,0,1.353a8.316,8.316,0,0,0-1.7,1.939s.851.122.12.848a4.051,4.051,0,0,0-.97,1.581s.608-.253.608.727a6.2,6.2,0,0,1-.356,1.927,12.981,12.981,0,0,1-.661,1.25c-.607,1.09-1.6,1.564-2.261,4.595-.482,2.188-.127,3.525-.729,4.493a2,2,0,0,0-.97,1.657s1.35-.428,1.546.848c-.195.54-1.024.818-.215,3.082,0,0,1.02-1.714,1.584.027Z" transform="translate(59.486 -67)" fill="#32446e" fill-rule="evenodd"/><path d="M179.241,629.492c.352.244.775.775-.19,1.359-.73-.143-1.727-.534-4.78-2.407-.74.925-3.8-1.554-3.8-1.554l4.035,3.662a12.339,12.339,0,0,0,3.532,2.006c-.051-.553.64-1.035,2.267-.684-.182-.848,1.028-1.344,2.164-1.177a15.85,15.85,0,0,0-3.227-1.2Z" transform="translate(-134.036 -538.181)" fill="#fff" fill-rule="evenodd"/><path d="M119.1,458.838a7.04,7.04,0,0,1-2.087,3.864c1.908-1.545.084.978,1.451-.727s1.931-2.248,3.41-3.956a21.268,21.268,0,0,0,2.335-3.135c.8-1.18,1.437-1.187,1.586-1.673a11.568,11.568,0,0,1-1.7.3c-1.136,1.025-.453.878-2.041,2.014.225-.364,1.3-2.674-.978-.29s-1.844,3.208-1.982,3.608Z" transform="translate(-89.046 -392.019)" fill="#fff" fill-rule="evenodd"/><path d="M43.608,300.733c.3-.467.84-1.253.567-1.86.261.583-.322-1.377-1.217.325l.325-1.7c-1.375-.567-.222-1.608-.806-2.026a51.025,51.025,0,0,0-10.208,11.115c-4.184,6.455-6.916,7.424-9.586,9.369s-9.47,7.041-10.807,8.256-1.456,3.156-2.551,4.98-1.557,4.026-3.04,6.295c-1.689,2.587-1.611,3.774-1.087,4.633A7.372,7.372,0,0,1,7.5,336.957a1.932,1.932,0,0,1-.848,2.674c.284.309,1.575.363,2.183-1.337a7.583,7.583,0,0,1,2.064-3.525,23.975,23.975,0,0,0,4.49-3.151c1.584-1.581,1.431-2.152,2.676-3.159s1.66-1.043,1.74-1.6a6.865,6.865,0,0,1-2.472.385,8.458,8.458,0,0,0,2.67-1.946c1.467-1.611,1.863-1.478,3.037-2.915s1.7-3.155,3.521-4.733,2.8,1.7,4.251,1.7,2.186-.605,3.156-.605S47.355,313.8,47.355,313.8c-2.093-6.265-1.372-2.366-1.478-4.161-.122-2.063-3.479,5.08-2.429-6.01.133-1.405-.417-1.979.16-2.893Z" transform="translate(5.331 -259.271)" fill="#fff" fill-rule="evenodd"/><path d="M-49.74,598.621s1.344,2.131-.29,3.056c.1.222,1.317,0,1.317-.5a1.585,1.585,0,0,1,.819,1.638c.45,0,1.264-.317.973-1.191,1,0,1.239,1.134,1.239,1.134a.987.987,0,0,0,.974-1.161,1.431,1.431,0,0,1,1.478,1.218,1.091,1.091,0,0,0,1.161-1.268c.894,0,1.21,1.077,1.21,1.077a1.853,1.853,0,0,1,1.952-.127c0-.423-.661-.688-.637-.718-1.512-.984-1.42-1.866-2.5-2.207a4.345,4.345,0,0,0-2.6.387c-2.828.692-3.643-.024-3.643-1.089s2.288-1.15,2.429-.366c1.095-.607,3-2.442,2.549-3.758s.027-1.559.87-1.927c-.234-.577-1.87-.317-2.665,1.448a1.076,1.076,0,0,1-1.971.352s-1,2.369-2.3,2.915c.374-.13,1.7.482-.361,1.088Z" transform="translate(51.528 -509.276)" fill="#fff" fill-rule="evenodd"/><path d="M233.076,491.38s0-.04-2.952,1.546a6.654,6.654,0,0,0-2.445,1.847s1.51-.9,1.51.578.781.84.781.84-.258-2.348,3.105-4.812Z" transform="translate(-182.182 -424.141)" fill="#fff" fill-rule="evenodd"/><path d="M506.372,304.7c-4.172,2.088-16.078,1.779-19.479,2.144s-5.221.12-6.312.363c-.044-.068.829,3.4,3.763,3.4s2.5,2.315-.325,2.621a2.169,2.169,0,0,0,1.542.414c2.112,0,6.068-2.635,6.068-2.635a27.621,27.621,0,0,1,5.133-1.87c2.693-.65,7.9-1.269,9-.559.043.041-.567-1-3.785-1.22,2.351-1,3.673-1.722,4.392-2.657Z" transform="translate(-395.012 -267.039)" fill="#fff" fill-rule="evenodd"/><path d="M671.907,296.224c-.027.032,1.451-2.316-.333-3.926-1.594-1.44-2.128-3.131-4.045-3.655-3.711-.844-5.7.868-9.869,1.263a4.921,4.921,0,0,0,2.825.564c1.944.087,5.046-.9,5.672.063a4.139,4.139,0,0,0-2.846.242c-.523.391-.545.656-.653,1.388a4.007,4.007,0,0,1,2.608-.562c1.48,0,2.654,1.437,3.181,2.892.6-1.5,1.511-.9,1.34-1.938,1.223,0,2.354,1.524,2.118,3.669Z" transform="translate(-544.036 -253.331)" fill="#fff" fill-rule="evenodd"/><path d="M638.54,308.438c1.505,0,2.288,1.773,3.766,1.773,0,.059-.675-2.25,1.445-2.25.122,0-.062-.77-1.527-.825-2.19-.081-2.091.917-3.684,1.3Z" transform="translate(-527.945 -269.085)" fill="#fff" fill-rule="evenodd"/><path d="M163.99,448.53a5.344,5.344,0,0,1,.206,4.452c1.128-.745,1.374,1.084,1.374,1.084s.589-.108.616-1c.04-1.3.749-1.074.749-1.074s.057-1.957.94-1.7c.135-.806-.1-2.3.922-2.3,1.689,0,1.946-2.348,2.752-2.348,1.488,0,1.022-1.584,1.941-1.984s-4.094,1.369-5.886,3.078-1.713,2.72-3.614,1.8Z" transform="translate(-128.583 -383.929)" fill="#fff" fill-rule="evenodd"/><path d="M254.6,172.892c-.49.838.084,1.724-.119,3.093a2.755,2.755,0,0,0,.707-1.9c-.057-1.619,1.86-2.516,1.849-2.508a2.821,2.821,0,0,0-2.437,1.312Z" transform="translate(-204.663 -155.01)" fill="#fff" fill-rule="evenodd"/><path d="M535.044,294.048A11.807,11.807,0,0,1,528.8,295.6c-6.25-1.391-11.487-.781-13.618-1.521,8.961,0,9.863-1.38,13.745-.65s4.216,1.3,6.119.621Z" transform="translate(-424.13 -257.373)" fill="#fff" fill-rule="evenodd"/><path d="M493.905,295.536c-4,0-7.77,1.039-12.143.55.181-1.247-1.942-3.156-1.942-3.156a31.37,31.37,0,0,1,5.209,1.255c2.7.916,6.569.222,8.876,1.352Z" transform="translate(-394.373 -257.134)" fill="#fff" fill-rule="evenodd"/><path d="M421.582,326.65c-.589,1.811,1.119,2.263.959,3.245-1.835,0-1.006,1-2.24,1.843a3.477,3.477,0,0,1,.778,2.575,2.218,2.218,0,0,1-2.069,1.908c.021,0,1.185-1.5.478-2.147a3.871,3.871,0,0,1-3.1,1.736s3.037-2.27,2.392-4.275c-1.713-2.175-.838-3.418-.841-3.429-.038,1.055.741,2.215,2.625,1.686,0,.024-.456-2.289,1.016-3.142Z" transform="translate(-340.992 -285.511)" fill="#fff" fill-rule="evenodd"/><path d="M379.093,326.363c0,.925.818,1.594.818,2.873s-1.616,1.776-.843,3.4a3.924,3.924,0,0,1,.567,3.074s.892-2.188.325-3.074a1.246,1.246,0,0,1,.323-1.608,1,1,0,0,0,.65.963,1.809,1.809,0,0,1,0-1.784,2.126,2.126,0,0,0,.13-2.186c-.585-1.046-1.344-1.046-1.344-1.7a1.364,1.364,0,0,1,.485-1.025s-1.108.146-1.108,1.063Z" transform="translate(-309.407 -284.375)" fill="#fff" fill-rule="evenodd"/><path d="M250.208,324.527a4.179,4.179,0,0,0-2.67,1.052c-1.054,1.052-.97.729-.97.729a1.989,1.989,0,0,0,.16-1.781c-.322-1.212-.566-.242-1.136.407s0-.65-.078-1.542-.486-.97-1.052-.485.567-.567.485-1.7.242-2.1-.242-2.59,2.188-1.7,3.883-.241a4.457,4.457,0,0,1,1.784,2.752.911.911,0,0,1,.325-1.134c.645-.485,1.294.645.887,1.214a1.627,1.627,0,0,0,.81,2.186c.974.567-.643-.727-.082-1.456s.9-.648.732.16.806,2.026.806,2.026l.407-1.136c.16-.323.325,1.784.082,2.754s.485,2.667,1.052,4.771-3.238-2.5-3.56-2.912-.165-2.589-1.624-3.074Z" transform="translate(-196.171 -277.964)" fill="#fff" fill-rule="evenodd"/><path d="M701.057,321.691s2.532-.336,3.243,1.112.309,1.069-1.05,1.1-3.655-2.082-2.193-2.209Z" transform="translate(-580.161 -281.309)" fill="#fff" fill-rule="evenodd"/><path d="M674.11,320.968c-.588-.019-2.18.873-2.18,1.992s.49,1.748,1.765,2.115c.41.187,2.28,1.012,2.41-.2.087-.391.74-.523.792-1.025-.052-.93-.764-.726-1.355-1.106s.738-1.7-1.432-1.771Z" transform="translate(-556.045 -280.73)" fill="#fff" fill-rule="evenodd"/><path d="M708.438,339.544s-2.659.154-1.868.7c.7.477,3.273,1.638,3.739.873.307-.515.087-1.657-1.871-1.569Z" transform="translate(-585.073 -296.358)" fill="#fff" fill-rule="evenodd"/><path d="M705.652,346.79A1.619,1.619,0,0,0,707,348.558c1.575.46,2.587.04,2.679-.57a5.95,5.95,0,0,1-4.023-1.2Z" transform="translate(-584.414 -302.46)" fill="#fff" fill-rule="evenodd"/><path d="M729.8,328.156c.054,1.746-1.069,1.339-1.069,1.683s1.179.738,2.053-.385c0,0,.673-1.691-.984-1.3Z" transform="translate(-603.846 -286.728)" fill="#fff" fill-rule="evenodd"/><path d="M734.656,340.555c-.011,1.388-.946,1.055-.946,1.424s1.412.3,1.943-.25c0,0,.555-1.413-1-1.174Z" transform="translate(-608.036 -297.19)" fill="#fff" fill-rule="evenodd"/><path d="M735.708,351.867c-.307,1.153-1.139,1.025-1.128,1.3.008.317,1.385.011,1.863-.485,0,0,.42-1.1-.735-.818Z" transform="translate(-608.768 -306.694)" fill="#fff" fill-rule="evenodd"/><path d="M338.234,83.189a10.05,10.05,0,0,0-3.02-1.066,1.375,1.375,0,0,1,.642.943,2.844,2.844,0,0,0-1.806-.618c.531,0,.594.881.594.881a3.272,3.272,0,0,0-1.456.146,2.994,2.994,0,0,1-2.476-.019s1.1,1.4-.8,1.518a16.27,16.27,0,0,0-1.9.116,3.526,3.526,0,0,1,.886,1.087,3.24,3.24,0,0,1,.246,1.085c-.737-.862-1.25-.146-1.25-.146a4.865,4.865,0,0,1,.493,1.911,9.173,9.173,0,0,1-.493,2.366s.94-2.358,2.1-2.646c1.008-.25,1.348.269,1.348.269s.022-1.545-.829-2.144c0,.019.68-.353,1.9.478,2.258,1.187,2.375.949,3.566.949s1.174.309,1.19.477a1.4,1.4,0,0,1-1.19.833c-.713,0-1.073.358-.713.478s1.19-.36,2.38,0,1.073-.36,2.5-.12,1.185-.358,1.185-.358a6.365,6.365,0,0,0-2.377-.12c-.829.238-1.139-.079-1.646-.055.187-.258.806.09.456-1.012-.369-1.187.238-2.022-.117-3.093s.832.12.832,1.9.594,1.664.594,1.664,1.429,0,1.306-.951.634.364,1.583-.586,2.817-1.675,3.533-1.437c0,0-1.191.239-1.191,1.073s.238.238.954.356a2.812,2.812,0,0,1,1.306.716,2.122,2.122,0,0,0-.479-1.551c.835.356,1.068,1.073,1.068,3.329s-.589,2.979.361,5.235.415,2.334-.234,2.139c.981,1.215-.271,1.768,1.02,2.648a.846.846,0,0,1-1.575-.448s-1.111.3-.277,2.083a6.379,6.379,0,0,1,.116,4.045s.117-2.261-1.784-2.377c0,0,1.44.471.575,2.288a1.315,1.315,0,0,0,.5,1.874s-.558-1.071,1.069-1.071c-.238-1.416.722-1.732,1.31-1.312.97-.414.949-2.017.355-3.09s.822-1.4,0-2.617c1.516,0,1.068,3.093,1.068,3.093s1.168-1.242.448-3.856-1.546-2.277-1.4-3.638a2.652,2.652,0,0,0,1.31,1.073c.9.393,1.578.024,2.177,1.21,0,0,.8-.856-1.111-1.927s-1.039-1.531-2.256-2.373a.982.982,0,0,1-.441-1.161.923.923,0,0,0,.878.347,7.476,7.476,0,0,1-1.031-2.757c-.176-1.561-1.261-1.871-.478-2.136-.252-.881.478-.478.478-.478a4.409,4.409,0,0,0-2.263-2.381c-1.843-.947-.7-1.787-.711-1.779a3.079,3.079,0,0,0,.873-3.528,2.591,2.591,0,0,0-1.7-1.467l.008,1.068a4.266,4.266,0,0,0-1.451-2.118c0,.021.838,1.5-.266,1.5a1.6,1.6,0,0,0-1.19-.553,2.339,2.339,0,0,1-1.943-1s.307,1.944,2.006,1.944c1.272,0,.955,1.5.955,1.5a1.033,1.033,0,0,0,.393-1.337,2.505,2.505,0,0,1,1.627,1.819,1.632,1.632,0,0,1-.434,1.437,2.7,2.7,0,0,1-1.325.933l-1.153.282-.322.475a3.04,3.04,0,0,0-1.22-.825,3.252,3.252,0,0,0-.634-.087s-1.1,0-1.239.678Z" transform="translate(-266.514 -74.885)" fill="#fff" fill-rule="evenodd"/><path d="M356.483,170.064s-.5-.507.71-.478c.478.013.951.478,1.784.478s.478.594.124,1.19-1.191.36-2.5.238-1.657-.586-2.378.122a2.283,2.283,0,0,0-.6,1.184,6.93,6.93,0,0,1,.011-2.3,4.847,4.847,0,0,1,2.133-2.456c.591-.239-.986,1.123.117,1.784.6.356.6.238.6.238Z" transform="translate(-288.091 -152.01)" fill="#fff" fill-rule="evenodd"/><path d="M403.5,170.051s.341-.478-.711-.478c-.478,0-.951.478-1.784.478s-.477.594-.12,1.19,1.191.36,2.5.238,1.665-.594,2.378.122.594,1.184.594,1.184a4.662,4.662,0,0,0-.117-2.378,4.452,4.452,0,0,0-2.022-2.377c-.593-.239.9.992-.116,1.784a.9.9,0,0,1-.6.238Z" transform="translate(-327.614 -151.996)" fill="#fff" fill-rule="evenodd"/><path d="M278.967,83.738s-1.719-1.008-1.025-1.87a.836.836,0,0,1,1.321-.071,5.446,5.446,0,0,0,.124-1.9c-.16-.746-.99-1.337-2.263-1.55s-1.686.426-3.449-.238c.257.187,1.337.442,1.562,1.321s0,1.249.928,2.175c-2.3,0-1.256-2.213-2.9-2.679.415.32.168,1.177-.662.848a9.243,9.243,0,0,0-4.273,0,7.592,7.592,0,0,1,2.253.835c.182.127,1.619,1.306-.357,1.306a10.6,10.6,0,0,0-4.344.833c1.638,0,1.949,1.1,1.949,1.1a5.953,5.953,0,0,0-2.8,1.046c-1.313.951-2.6,3.687-3.365,3.684.4.518,1.429.241,1.429.241s-1.405,1.67-2.261,1.447c0,.51,1.131.35,1.131.35a6.959,6.959,0,0,1-1.478.608A2.927,2.927,0,0,0,258.81,93.1a3.494,3.494,0,0,1,1.652-1.036,10.282,10.282,0,0,0,1.394-.285,1.51,1.51,0,0,0-.471.677c-.225.52.036.973-.4,1.313.93.567,1.99-.314,1.99-.314a1.082,1.082,0,0,0-.079,1.107c.33.551.77.234,1.022.922a1.593,1.593,0,0,1-.016,1.206,3.375,3.375,0,0,0,1.087-1.936c.212-1.247-.395-2.684.008-3.6-.482,0-.645.833-.645.833s-.369-1.6.09-2.285l-.639.78a9.708,9.708,0,0,1,.322-3.444,3.028,3.028,0,0,1,2.5-1.993,14.269,14.269,0,0,1,4.62.458c-1.657-.786-1.494-1.8-1.494-1.8a3.1,3.1,0,0,1,1.841-.434,4.729,4.729,0,0,1,2.129.426,1.666,1.666,0,0,0-.759-1.475,12.619,12.619,0,0,1,6,1.526Z" transform="translate(-208.379 -76.35)" fill="#fff" fill-rule="evenodd"/><path d="M231.737,196.956a5.635,5.635,0,0,0-1.841,2.789,6.365,6.365,0,0,0-.146,3.191s.271-1.372,1.128-1.206a1.683,1.683,0,0,1,.146,1.749,1.342,1.342,0,0,0,.832-1.306,2.446,2.446,0,0,1-.341,1.987,4.584,4.584,0,0,0-.97,2.768,5.33,5.33,0,0,1,1.191-1.784,4.048,4.048,0,0,0,1.413-1.738,1.812,1.812,0,0,1-.108,1.977,4.419,4.419,0,0,0,.951-1.068,2.565,2.565,0,0,0,.239-1.906s.783.2.545,1.385a3.219,3.219,0,0,0,.049,1.827,3.175,3.175,0,0,1,1.19-1.906c.955-.594,1.546.479,1.9-.238s1.307-.356,1.307-.356a2.1,2.1,0,0,0-.949,1.428,1.177,1.177,0,0,0,.261.97,1.094,1.094,0,0,1,1.122-.946,3.14,3.14,0,0,0,1.594-.379s.938.49-.6,1.306a3.638,3.638,0,0,0,1.393-.057,2.179,2.179,0,0,0,1.22-.775c.478-.475,1.833-.352,1.906-.119a1.258,1.258,0,0,0-1.317.984,3,3,0,0,1,2.7-.2,3.438,3.438,0,0,1-1.38-2.687,1.2,1.2,0,0,0-1.073-1.068c-.233,1.1-1.372.719-1.721,1.071a.724.724,0,0,1,.74-1.068.942.942,0,0,0-1.416-.057c-.833.711-1.51.922-2.087.574,1.233-.336.542-1.321,1.676-1.613a1.036,1.036,0,0,0-1.451,0c-.721.507-.556.973-1.333.973.041.027-.534-.423.225-.973s.615-1.152.612-1.168c-.474.361-.878.249-1.732.724a3.434,3.434,0,0,0-1.272,1.339l1.266-.406c.309.307-.019.757-.916,1.019-1.184.448-.925,1.35-1.025,1.171a2.683,2.683,0,0,1,.41-2.66c.8-1.025,1.511-.881,1.9-1.7a1.906,1.906,0,0,0-.06-1.624,2.592,2.592,0,0,1-2.744,1.933c.556-.553.946-1.432.475-1.96a2.358,2.358,0,0,1-1.662,1.428,1.711,1.711,0,0,0-1.127,1.451,1.691,1.691,0,0,1,.063-1.721c.507-.608,1.616-1.161,1.377-2.312-.825,1.218-.906.575-1.87,1.6-.071-.832.984-1.165.458-2.421a3.948,3.948,0,0,1-1.157,1.786Z" transform="translate(-183.812 -174.863)" fill="#fff" fill-rule="evenodd"/><path d="M271.829,182.929c-.361.778.464,1.535,0,3.091a2.493,2.493,0,0,0,.594-1.545c-.195-1.813.716-2.305.716-2.305a1.463,1.463,0,0,0-1.31.759Z" transform="translate(-219.256 -163.922)" fill="#fff" fill-rule="evenodd"/><path d="M259.285,177.68a1.793,1.793,0,0,0-.3,1.494c.347,1.044.008,1.182.008,1.182a2.2,2.2,0,0,0,.992-1.733,2.139,2.139,0,0,1,.669-1.291s-1.039-.108-1.367.349Z" transform="translate(-208.476 -159.841)" fill="#fff" fill-rule="evenodd"/><path d="M415.569,280.49s2.92,1.952,2.92,4.142-1.946,4.386-1.946,4.386,1.369-3.41-.678-3.41c-1,0-1.418.829-.786,1.458-1.22,0-.973-2.193-.973-2.193a1.053,1.053,0,0,0-.732,1.459c-1.008-.423-.485-2.1-.485-2.1s.437.96,2.19-.09c.49,1.464,2.2.49,1.95-.727s-.486-1.462-1.461-2.925Z" transform="translate(-337.933 -246.665)" fill="#fff" fill-rule="evenodd"/><path d="M447.272,263.075s-1.822-4.143,1.708-4.143a4.592,4.592,0,0,1-1.223-3.188c0-2,.249-2.166,1.223-4.118s-.974-3.406-.974-3.406.6,2.865-1.069,2.865c-1.9,0-1.852,1.031-1.852,1.031s1.7.255,1.7,2.679a3.022,3.022,0,0,0-2.437-1.215s2.926,2.025,1.952,4.622,0,3.41.97,4.874Z" transform="translate(-364.522 -219.508)" fill="#fff" fill-rule="evenodd"/><path d="M302.918,130.368a1.706,1.706,0,0,0-2.434-.485c-1.462.729-1.022,2.5-.806,3.454a19.823,19.823,0,0,0,.806,2.391s-.227-1.9.485-2.681c.272-.325-.551-.645-.333-1.146s.822-.314,1.548-.07a.7.7,0,0,0,.932-.692l-.2-.772Z" transform="translate(-242.575 -119.681)" fill="#fff" fill-rule="evenodd"/><path d="M450.5,122.608s1.3-.729,1.87.079a7.857,7.857,0,0,1,.974,3.411,13.345,13.345,0,0,1-.49,2.514s-.485-.892-.729-1.3-.246-.808,0-.727l-.082-2.437-.407.323a2.968,2.968,0,0,1-.648-1.462.5.5,0,0,0-.488-.4Z" transform="translate(-369.698 -113.543)" fill="#fff" fill-rule="evenodd"/><path d="M447.26,98.577s1.34-.74,2.237-.093c-.376-.989-1.153-.867-1.153-.867a4.545,4.545,0,0,0,0-1.6,2.465,2.465,0,0,0-.846-1.19s.5,2.378-.238,3.747Z" transform="translate(-366.971 -90.421)" fill="#fff" fill-rule="evenodd"/><path d="M348.743,153.31a11.132,11.132,0,0,1,1.545.059s-2.732-.086-3.655,1.413a2.128,2.128,0,0,1,1.334-1.5.932.932,0,0,1-.46-.773c.041-.6.688-.849.477-.719a.743.743,0,0,0,.054,1.165c.529.355,2.063-.063,2.066-.074a2.881,2.881,0,0,1-1.361.429Z" transform="translate(-282.286 -138.328)" fill="#fff" fill-rule="evenodd"/><path d="M420.436,153.31a8.627,8.627,0,0,0-1.35.059s2.535-.086,3.464,1.413a2.137,2.137,0,0,0-1.334-1.5.932.932,0,0,0,.458-.773c-.043-.6-.689-.849-.477-.719a.742.742,0,0,1-.055,1.165c-.531.355-2.057-.063-2.061-.074a2.843,2.843,0,0,0,1.356.429Z" transform="translate(-343.256 -138.328)" fill="#fff" fill-rule="evenodd"/><path d="M304.735,182.11s.035.933-1.456,1.505-2.358,1.165-2.358,2.907a1.813,1.813,0,0,1-.672,1.505,1.915,1.915,0,0,0,1.044-.825c.65-1.348.737-2.131,1.564-2.131a2.007,2.007,0,0,0-.176,1.9c.276,1.047.81.849.428,1.878a.986.986,0,0,0,.566-1.3c.032,0,.705.325.325,1.3,0,0,.87-.3.534-1.06a3.38,3.38,0,0,1,1.369,2.7,4.85,4.85,0,0,0,1.266,3.643s-.737-1.852-.325-2.841,1.174-2.389.486-3.736c.138.936-.035,1.689-.4,1.866s-1.139.082-.814-1.139.87-2.155.16-3.082c.26.548-.062,1.542-.486,1.542s-.57-.32-.323-.974a1.486,1.486,0,0,0-.9,1.057,1.457,1.457,0,0,1-.385-2.1,3.391,3.391,0,0,0,.553-2.613Z" transform="translate(-243.254 -163.872)" fill="#fff" fill-rule="evenodd"/><path d="M471.01,162.707a6.289,6.289,0,0,1,2.353,3.654,4.966,4.966,0,0,0-.9-3.273,2.344,2.344,0,0,0,1.131-2.007,2.5,2.5,0,0,1-.993,1.165,4.166,4.166,0,0,1-1.588.463Z" transform="translate(-386.959 -146.174)" fill="#fff" fill-rule="evenodd"/><path d="M376.43,196.88l.057.074c.19.2.892.735,3.012.735,2.613,0,3.071-.593,3.071-.593l-6.14-.217Z" transform="translate(-307.364 -176.302)" fill="#32446e" fill-rule="evenodd"/><path d="M370.18,200.051l.615,1.263c.219,0,.253-1.05.375-1.538,0,0-.721-.428-.99.276Z" transform="translate(-302.104 -178.63)" fill="#fff" fill-rule="evenodd"/><path d="M415.971,200.315l-.524,1.255-.317-1.594a.545.545,0,0,1,.841.339Z" transform="translate(-339.932 -178.827)" fill="#fff" fill-rule="evenodd"/><path d="M385.664,196.52l-.174.081.208.841.273-.775Z" transform="translate(-314.988 -175.999)" fill="#fff" fill-rule="evenodd"/><path d="M390.761,196.52l-.171.082c.052.407.1.864.209.864s.179-.418.268-.8l-.306-.147Z" transform="translate(-319.28 -175.999)" fill="#fff" fill-rule="evenodd"/><path d="M407.78,197.1h0l.073.3-.036.314-.029.185c.087.038.479-.309.49-.955l-.5.157Z" transform="translate(-333.747 -176.352)" fill="#fff" fill-rule="evenodd"/><path d="M401.75,196.659c.084.36.138.783.269.783s.157-.493.209-.849l-.173-.082-.306.149Z" transform="translate(-328.672 -175.99)" fill="#fff" fill-rule="evenodd"/><path d="M396.65,196.659l.274.775c.109,0,.149-.49.2-.841l-.17-.082-.309.149Z" transform="translate(-324.38 -175.99)" fill="#fff" fill-rule="evenodd"/><path d="M384.33,241.18c0-.176.138-2.091,1.71-.7.537.474.328-.562,1.5-.562s.759,1.294.417,1.968c-.36.7-.77.1-1.627-.013s-2,.887-2-.7Z" transform="translate(-314.012 -212.523)" fill="#fff" fill-rule="evenodd"/><path d="M384.749,263.768a5.79,5.79,0,0,0-2.445-.176c-2.327.3-1.58.578-2.076.748s.331.578.909.667,1,.577,1.412.577-.247-.412.333-.829.38-.493,1.209-.33,1.4-.326.658-.658Z" transform="translate(-310.432 -232.4)" fill="#fff" fill-rule="evenodd"/><path d="M375.583,248.622s-.482.57-.383.184.421-1.6.643-1.6-.068.448.122.832.06.488-.382.58Z" transform="translate(-306.317 -218.658)" fill="#fff" fill-rule="evenodd"/><path d="M412.139,249.778s.414.759.32.375-.143-1.8-.529-1.8.016.461-.177.849-.079.559.387.578Z" transform="translate(-337.014 -219.617)" fill="#fff" fill-rule="evenodd"/><path d="M223.478,370.1c-.678.317-.678,1.882-.607,1.944-1.028.025-.848-1.944-.848-1.944a9.121,9.121,0,0,0-1.264,2.578,1.509,1.509,0,0,1-1.169,1.184,3.546,3.546,0,0,0-.727-1.941,3.356,3.356,0,0,1-.648,3s-.087-.814-.686-.814-.509,1.313-.486,1.339c-.675,0-.851-1.374-.851-1.339a1.04,1.04,0,0,0-1.039,1.488c-1.222-.349-1.142-3.432-1.992-4.279a4.433,4.433,0,0,0-.124,2.429c-.626,0-1.25-.653-1.367-2.714s-1.062-2.144-1.062-2.144.366-1.729-1.069-1.729-4.229-1.725-4.229-.268c0,1.426-.512,4.416-11.56,12.186,1-.179-.032,2.03.708,1.928-1.543,1.017-1.19,1.952-4.039,3.319-3.033,1.454-3.153,2.551-3.4,2.911s-.206-1.827,1.253-3.042a25.983,25.983,0,0,0,3.026-2.847,19.37,19.37,0,0,0-4,2.239l-1.05.978c-.195.2-1.445,1.247-1.946.889-.49.854-.445,1.559-.748,1.971a5.68,5.68,0,0,1-1.843,1.5c3.4-.8,2.007,1.976,2.068,1.922,0,0,3.27-1.922,6.8-3.747a63.915,63.915,0,0,1,6.677-2.912c.586-.254,2.491-1.139,3.18-1.456,2.956-1.161,11.59-4.466,13.906-4.991a18.127,18.127,0,0,0,6.23-2.784,10.824,10.824,0,0,0,3.026-2.817c1.212-1.454.562-2.358-.114-2.036Z" transform="translate(-143.495 -318.877)" fill="#fff" fill-rule="evenodd"/><path d="M231.817,276.888a37.54,37.54,0,0,1,1,5.121c.507,3.728-.887,5.534-.887,5.534a18.138,18.138,0,0,0-1.283,2.038,2.057,2.057,0,0,0-.215,1.784c.215.612,1.168,1.084,1.168,1.084s1.348-.293.833,1.35-.658,3.425.867,4.788a4.074,4.074,0,0,0,4.8.124s1.531,0,1.748-.547-.867-1.619-.867-1.619.352-1.725.471-2.567c0,0,1.4.122,1.643-.285s-.165-1.283-.165-1.283,1.239-1.087,1-2.205a7.153,7.153,0,0,0,1.689-1.71l2.152.415-.407-2.007a6.389,6.389,0,0,0,.921-1.645,4.729,4.729,0,0,0,1.293-.154l1.752,1.229.239-2.047c.477-.562,1.516-1.849,1.351-2.73a4.335,4.335,0,0,0-3.136-3.359s-.764.124-.523-.759a2.148,2.148,0,0,1,1.318-1.244s3.234-4.3-.987-6.894-9.59-3.86-12.751-2.126-5.141,5.1-3.018,9.714Z" transform="translate(-184.396 -234.788)" fill="#32446e" fill-rule="evenodd"/><path d="M245.019,285.337c-.019.4-.082,1.29.7,5.254a20.076,20.076,0,0,1,.4,6.288,6.953,6.953,0,0,0,1.557-2.594c.512-1.64-.665-1.7-.482-5.13.132-2.318.959-2.434.959-2.434a11.112,11.112,0,0,0-.09,2.261c.369,2.285,1.179,2.039,1.179,2.039s-.849-4.79,2.117-5.943a1.1,1.1,0,0,1,1.621.77s1.656-.391.612-3.262c.84-.684,1.882-.767.957-1.531s-2.643.09-3.207.41-.165-2.083-1.285-1.833-.4,1.442-1.12,2.171c-2.915,2.96-2.305,7.307-3.917,3.533Z" transform="translate(-196.765 -245.928)" fill="#fff" fill-rule="evenodd"/><path d="M309.377,300.32c-.8-.444-.154,1.922-.507,3.245s-.995,3.411-.154,3.131.437-.686,1.2-2.011,3.238-2.3-.536-4.365Z" transform="translate(-250.028 -263.307)" fill="#fff" fill-rule="evenodd"/><path d="M251.49,436.093a3.22,3.22,0,0,1-1.738-1.044c-.846-.919-.729-1.814-.029-2.373,1.112-.889,2.7.713,2.7.713s.317-1.445-.767-1.884-1.963-.677-2.326-1.356-.4.806-1.236,1.89a3.01,3.01,0,0,0,.311,3.75,3.977,3.977,0,0,0,3.086.3Z" transform="translate(-198.931 -372.467)" fill="#fff" fill-rule="evenodd"/><path d="M256.15,396.337s-1.7.209-2.026-.754c-.173-1.649-.564-1.649-.556-1.717-.358.124-.814-.154-.833-.806a3.435,3.435,0,0,1,.466-1.878c.478-1.366,1.6-1.608,1.884-.368s.626,1.532,1.347,1.29,2.787.434,2.751,1.746c-.029.989-.551.944-.551.944s-1.3-1.614-2.461-.691-.019,2.234-.019,2.234Z" transform="translate(-203.263 -338.83)" fill="#fff" fill-rule="evenodd"/><path d="M291.281,372.025s-2.35-.209-2.524-1.594.265-1.952.173-2.706.844-.36,1.6-.458,2.426-.051,2.771.672a3.457,3.457,0,0,1,.292,1.519s-1.35-1.35-2.526-.52c-.734.512-.871,1.735.215,3.086Z" transform="translate(-233.547 -319.663)" fill="#fff" fill-rule="evenodd"/><path d="M314.572,350.523s-.911-1.423-1.592-1.459a9.022,9.022,0,0,1,4.21-1.017c1.361.079,2.413,1.084,2.21,2.2-.13.711-.349.626-.349.626s-.475-2-2.088-1.48a1.289,1.289,0,0,0-.913,1.871c-.477.523-1.478-.74-1.478-.74Z" transform="translate(-253.967 -303.512)" fill="#fff" fill-rule="evenodd"/><path d="M267.009,452.622s-2.229-3.167-3.223-1.873c-.978,1.275,3.223,1.873,3.223,1.873Z" transform="translate(-212.443 -389.686)" fill="#fff" fill-rule="evenodd"/><path d="M276.547,420.28c-1.1.783,2.67,2.538,2.67,2.538s-1.565-3.318-2.67-2.538Z" transform="translate(-223.136 -364.207)" fill="#fff" fill-rule="evenodd"/><path d="M306.048,381.957c-1.369.927,2.139,3.031,2.2,2.945s-.832-3.871-2.2-2.945Z" transform="translate(-247.866 -331.933)" fill="#fff" fill-rule="evenodd"/><path d="M337.177,362.188c-1.592.448,1.081,3.551,1.166,3.489s.425-3.937-1.166-3.489Z" transform="translate(-273.904 -315.388)" fill="#fff" fill-rule="evenodd"/><path d="M240.58,405.217a1.156,1.156,0,0,0-.089,1.329,1.621,1.621,0,0,1,0,1.781l-.266.618s-.532-1.242-1.068-1.421.8-2.392,1.423-2.307Z" transform="translate(-191.737 -351.628)" fill="#fff" fill-rule="evenodd"/><path d="M379.708,197.037h0l-.071.3.036.312.022.184c-.082.035-.474-.309-.485-.954l.5.157Z" transform="translate(-309.703 -176.302)" fill="#fff" fill-rule="evenodd"/><path d="M248.348,258.751l-.4.3-.534-.629-1,.1c-.011.008-.943.705-1.855,1.236a3.2,3.2,0,0,0-1.782,3.278.984.984,0,0,0,.954.909,1.006,1.006,0,0,0,1.009-.87l0,.027c.073-.418.528-.418.68-.418.057,0,.236,0,.81.574a5.021,5.021,0,0,0,3.864,1.5c.634,0,1.193.789,1.342,1.066a.991.991,0,0,0,1.134.494l.26-.122a4.178,4.178,0,0,0,1.025.838l.021.011a5.175,5.175,0,0,1,1.073,1.239.986.986,0,0,0,.989.431c.391,1.06,1.028,2.3,2.274,2.3a.988.988,0,0,0,.879-.547l.1-.444-.19-.589-.255-.605v-.017l.242-.157.721-.548a1.037,1.037,0,0,1,.437.944c0,2.139,2.09,3.026,3.193,3.2a.987.987,0,0,0,.562-1.873c-.219-.1-1.05-.605-1.05-1.161l.112-.665a3,3,0,0,0-.564-3.034,4.6,4.6,0,0,0-1.211-.83c-.635-.344-.876-.467-.936-1.166a.991.991,0,0,0-1.077-.886c-.677.06-.93.7-1.036,1.065l-.5.116-.1.071.176-.591a4.431,4.431,0,0,0,.322-1.47,2.554,2.554,0,0,0-.345-1.287.986.986,0,0,0-1.165-.459l-.639.645-.437-.529-.562-.223a.968.968,0,0,0-1.7-.49l-.35.1-.292.082-.03-.25c-.109-.407-.618-.469-1.041-.493l-.74-.187-.653.4c-.586-.26-1.258-.667-1.732-.388Zm-1.191,1.616-.055.241.055-.241Zm1.5.117-.044.223.044-.223Zm11.43,6.46,0,.265-.086.3.082-.569Z" transform="translate(-194.872 -228.092)" fill="#32446e" fill-rule="evenodd"/><path d="M252.241,263.956s-.974.73-1.949,1.3a2.233,2.233,0,0,0-1.3,2.354,1.521,1.521,0,0,1,1.657-1.266,2.181,2.181,0,0,1,1.507.862,4.051,4.051,0,0,0,3.169,1.217c1.391,0,2.213,1.591,2.213,1.591s-.1-2.115-1.729-2.321-1.218-.814-1.218-1.06c.092.723,1.416.735,1.884.875s1.09.439,1.043.917c.555,0,.482-.7.555-.7a1.167,1.167,0,0,1,.6,1.432c-.318.909.306,1.29.955,1.7a6.2,6.2,0,0,1,1.383,1.538s0-1.214-.4-1.619.894.566,1.134,1.218.741,2.673,1.708,2.673c-.009-.008-.745-.992-.325-1.7s1.214-.455,1.214-1.383a2.03,2.03,0,0,1,2.031,2.109c0,1.858,2.358,2.223,2.358,2.223s-1.627-.737-1.627-2.06c0-.906.732-2.109-.165-3s-2.261-.775-2.432-2.6a1.685,1.685,0,0,0,.407,2.274c-.021,0-2.011.054-1.546-1.218-.851.485-.054,1.48-.054,1.48s-1.57-.846-1.57-1.969.962-2.023.325-3.167a1.569,1.569,0,0,1-.639,1.643c-.726.57-1.18,1.388-.661,2.012.021.021-.922-.284-.9-1.008.011-.658.339-.7.58-1.428a1.305,1.305,0,0,0-.4-1.3,1.266,1.266,0,0,1-.325,1.38c-.65.485-1.624-.082-1.3-.814s.673-.567.754-1.38c-.177.307-.749.368-1.239.531s-1.1.036-1.383,1.014a1.224,1.224,0,0,1,.265-2s-1.89-.117-1.966,1.1c-.3-.1-.629-.892.333-1.459-.2-.09-1.738.208-1.851,1.388,0,.006-1-.055-1.087-1.382Z" transform="translate(-200.111 -232.733)" fill="#fff" fill-rule="evenodd"/></g></g></svg>