<svg xmlns="http://www.w3.org/2000/svg" width="600.639" height="435.815" viewBox="0 0 600.639 435.815"><path d="M275.436,272.275a58.334,58.334,0,0,1-85.765-1.872L59.514,393.6,242.54,586.964,417,421.83Z" transform="translate(-59.514 -152.288)" fill="#1cbac8" opacity="0.15"/><path d="M341.672,240.842a50.917,50.917,0,0,0,36.78-15.643l-36.294-38.343-38.777,36.7A50.942,50.942,0,0,0,341.672,240.842Z" transform="translate(-167.877 -115.163)" fill="#1cbac8" opacity="0.21"/><path d="M739.841,311.617A91.589,91.589,0,0,1,648.159,403.3q-.783,0-1.567-.017c-2.2-.033-4.373-.144-6.534-.333a91.686,91.686,0,1,1,99.783-91.332Z" transform="translate(-280.336 -129.862)" fill="#1cbac8"/><path d="M702.406,278.437a91.167,91.167,0,0,0,11.051-32.827,91.681,91.681,0,0,0-154.479,53.67A91.336,91.336,0,0,0,614.5,324.6c2.162.189,4.334.3,6.534.333q.783.017,1.567.017A91.547,91.547,0,0,0,702.406,278.437Z" transform="translate(-281.452 -129.861)" opacity="0.1"/><rect width="147.247" height="164.472" transform="translate(261.139 271.214)" fill="#44474c"/><path d="M735.7,409.307a91.79,91.79,0,0,1-64.238,53.564h20.414V627.343H556.066l76.218-132.016,17.464-30.249,1.272-2.206,57.8-100.117Z" transform="translate(-280.158 -193.325)" opacity="0.1"/><path d="M683.053,306.924,759.593,439.5l76.539,132.572H529.972L606.512,439.5Z" transform="translate(-235.494 -136.383)" fill="#44474c"/><rect width="580.096" height="1.111" transform="translate(20.544 434.574)" fill="#2f2e41"/><path d="M156.366,732.509l-1.014,8.451-5.747,2.7-6.423-2.029-4.395,2.029-1.352-7.775,7.775-8.79Z" transform="translate(-61.07 -323.089)" fill="#9f616a"/><path d="M204.193,801.833s5.241-6.11,5.325-3.055S221.1,812.313,221.1,812.313s17.917,5.409,4.057,8.789-44.285-6.423-45.3-8.451,8.451-17.579,9.465-16.227S195.4,802.509,204.193,801.833Z" transform="translate(-112.953 -385.99)" fill="#2f2e41"/><path d="M226.637,625.531s2.028,15.889,0,18.255-1.014,7.1,0,7.775-1.352,3.381-3.043,4.733-4.057,7.437-4.057,7.437-9.127,24-9.127,26.368-4.057,7.437-3.719,9.127-2.366,7.1-2.028,8.113-4.395,10.142-3.042,11.494,19.945,6.085,18.931,3.043-1.69-6.761-1.014-6.761,3.719-3.719,3.042-5.071S242.863,673.2,242.863,673.2Z" transform="translate(-122.551 -310.09)" fill="#2f2e41"/><path d="M204.193,801.833s5.241-6.11,5.325-3.055S221.1,812.313,221.1,812.313s17.917,5.409,4.057,8.789-44.285-6.423-45.3-8.451,8.451-17.579,9.465-16.227S195.4,802.509,204.193,801.833Z" transform="translate(-112.953 -385.99)" opacity="0.1"/><path d="M226.637,625.531s2.028,15.889,0,18.255-1.014,7.1,0,7.775-1.352,3.381-3.043,4.733-4.057,7.437-4.057,7.437-9.127,24-9.127,26.368-4.057,7.437-3.719,9.127-2.366,7.1-2.028,8.113-4.395,10.142-3.042,11.494,19.945,6.085,18.931,3.043-1.69-6.761-1.014-6.761,3.719-3.719,3.042-5.071S242.863,673.2,242.863,673.2Z" transform="translate(-122.551 -310.09)" opacity="0.1"/><path d="M237.485,729.282l3.718,9.466-1.69,13.184-10.818-.676-6.085-5.409V734.353Z" transform="translate(-98.917 -324.058)" fill="#9f616a"/><path d="M291.045,800.295s3.719-12.17,5.747-8.789a53.48,53.48,0,0,1,3.381,6.761s16.565,10.818,20.959,10.818,8.451,5.409,2.7,7.437-49.694,4.733-50.37,0,.676-19.945,2.7-18.255S288.678,803.675,291.045,800.295Z" transform="translate(-154.506 -383.578)" fill="#2f2e41"/><path d="M313.965,538.279s14.9,10.126,15.576,11.478,9.322,5.51,2.223,8.89-25.912-18-25.912-18Z" transform="translate(-168.975 -271.319)" fill="#9f616a"/><path d="M303.013,502.991s10.818,20.959,8.789,21.635-10.142,4.733-10.142,4.733l-3.719-21.3Z" transform="translate(-165.46 -255.639)" fill="#575a88"/><path d="M303.013,502.991s10.818,20.959,8.789,21.635-10.142,4.733-10.142,4.733l-3.719-21.3Z" transform="translate(-165.46 -255.639)" opacity="0.1"/><path d="M267.988,534.5s2.366,17.579,1.352,21.3.676,59.5-.676,62.54-2.366,22.65-2.366,25.016,2.7,21.636,3.381,23.326,2.7,7.437,1.69,10.142-14.874,9.465-16.9,7.1-.338-9.8-2.028-10.142-3.719-16.227-3.719-16.227l-11.156-62.2s-20.959-52.06-16.227-57.131S267.988,534.5,267.988,534.5Z" transform="translate(-131.111 -269.566)" fill="#2f2e41"/><circle cx="16.565" cy="16.565" r="16.565" transform="translate(107.804 111.793)" fill="#9f616a"/><path d="M277.773,305.17s-5.409,14.2-4.733,17.241S257.152,317,257.152,317s1.014-16.565,0-20.959S277.773,305.17,277.773,305.17Z" transform="translate(-147.32 -163.291)" fill="#9f616a"/><path d="M211.955,409.722c.074,2.836.122,4.527.122,4.527s-1.014,15.551.676,20.621,1.69,8.789,2.7,12.17c.3.984,4.344,1.511,10.027,1.744,5.213.213,11.8.183,18.126.037,10.473-.243,20.236-.8,21.879-1.105,3.719-.676-.676-6.423.676-9.465s-2.366-41.919-2.366-41.919.338-21.974-1.352-30.425-8.114-21.973-9.465-23.664-.338-2.7,2.7-4.733,0-9.8,0-9.8c-5.747-4.733-20.283-5.409-20.283-5.409s-22.312,22.988-23.664,27.72c-.818,2.86-.524,25.706-.166,43.345C211.712,400,211.857,405.9,211.955,409.722Z" transform="translate(-126.922 -175.348)" fill="#d0cde1"/><path d="M253.869,555.314s12.846,26.368,2.7,28.059-15.212-24-15.212-24Z" transform="translate(-140.318 -278.889)" fill="#9f616a"/><path d="M279.994,263.154c.586-2.841-1.585-5.5-3.872-7.282a28.3,28.3,0,0,0-17.41-5.937c-4.433.024-9.009,1.2-12.359,4.1-3.908,3.386-5.691,8.816-5.363,13.976a27.79,27.79,0,0,0,5.6,14.247c1.453,2.012,3.786,4.095,6.108,3.218a5.677,5.677,0,0,0,2.259-1.908,35.042,35.042,0,0,0,3.873-5.952,23.7,23.7,0,0,1,2.728-4.7,5.543,5.543,0,0,1,4.747-2.174c1.486.205,2.944,1.251,4.361.76,1.577-.547,1.958-2.563,2.083-4.227a28.68,28.68,0,0,1,.547-5.661C273.849,261.911,279.721,264.516,279.994,263.154Z" transform="translate(-140.136 -143.193)" fill="#44474c"/><path d="M211.15,430.454c3.786,13.654,12.471,36.665,12.968,37.656.125.254.321.75.561,1.406,5.213.213,11.8.183,18.126.037-.98-2.562-2.123-5.037-2.123-5.838,0-1.69-8.113-45.3-8.113-45.3s6.423-19.269,12.17-35.5-17.072-13.015-17.072-13.015c-12.17-3.042-14.367,2.2-14.367,2.2s-1.072,28.5-2.532,41.993c-.375,3.458-.774,5.929-1.187,6.687C209.04,421.773,209.771,425.5,211.15,430.454Z" transform="translate(-126.117 -196.08)" opacity="0.1"/><path d="M230.677,350.564s15.551,6.423,9.8,22.65-12.17,35.5-12.17,35.5,8.113,43.609,8.113,45.3,5.071,10.818,3.042,12.508-15.55,5.071-15.889,3.381A114.33,114.33,0,0,0,219.86,458.4c-.676-1.352-16.565-43.609-14.536-47.328,1.493-2.736,2.8-27.807,3.39-40.859A21.46,21.46,0,0,1,219.9,352.149,14.9,14.9,0,0,1,230.677,350.564Z" transform="translate(-124.225 -187.726)" fill="#d0cde1"/><rect width="20.003" height="20.003" transform="translate(148.898 261.768)" fill="#1cbac8"/><circle cx="6.112" cy="6.112" r="6.112" transform="translate(152.787 249.543)" fill="#44474c"/><circle cx="30.18" cy="30.18" r="30.18" transform="translate(364.951 0.945)" fill="#44474c"/><path d="M722.127,109.57c0,22.771-13.537,30.721-30.236,30.721s-30.235-7.951-30.235-30.721,30.235-51.739,30.235-51.739S722.127,86.8,722.127,109.57Z" transform="translate(-327.078 -57.831)" fill="#f2f2f2"/><path d="M644.857,78.977l.309-19.057,12.887-23.576L645.215,56.931l.139-8.569L654.236,31.3l-8.845,14.79h0l.25-15.411,9.511-13.58-9.472,11.156L645.837,0l-.983,37.41.081-1.544-9.67-14.8,9.515,17.763-.9,17.212-.027-.457L632.705,40.008,643.818,57.2l-.113,2.153-.02.032.009.177-2.286,43.668h3.054l.367-22.555,11.086-17.148Z" transform="translate(-281.144)" fill="#3f3d56"/><path d="M853.864,165.289c-7.225,21.594-22.585,24.839-38.421,19.541S789.292,167.7,796.517,146.1s45.089-39.472,45.089-39.472S861.089,143.7,853.864,165.289Z" transform="translate(-385.959 -79.515)" fill="#f2f2f2"/><path d="M764.285,123.316l6.34-17.974,19.7-18.27-18.707,15.45,2.851-8.082L788.3,81.082,775.224,92.3h0l5.128-14.536L793.679,67.9l-12.521,7.575,9.114-26.749L777.471,83.9l.566-1.438-4.474-17.1,3.387,19.864-6.315,16.037.12-.442-5.63-18.308,5.085,19.828-.79,2.005-.029.024-.047.171L753.32,145.22l2.9.969,7.5-21.274,15.954-12.744Z" transform="translate(-334.74 -21.653)" fill="#3f3d56"/><path d="M584.659,151.016c8.189,21.247-1.583,33.534-17.164,39.54s-31.072,3.455-39.261-17.792,9.6-59.151,9.6-59.151S576.469,129.769,584.659,151.016Z" transform="translate(-266.833 -82.618)" fill="#f2f2f2"/><path d="M513.184,129.906l-6.565-17.894,3.546-26.633-4.576,23.827-2.952-8.046,2.153-19.11L501.857,99.03h0l-5.309-14.47,3.991-16.092-4.825,13.816L485.7,55.86l12.536,35.261-.479-1.469L483.407,79.318l15.266,13.153,5.349,16.384-.189-.417-16-10.525,16.552,12.043.669,2.049-.007.037.072.162,13.572,41.569,2.85-1.1-7.77-21.178,4.178-19.987Z" transform="translate(-214.803 -24.822)" fill="#3f3d56"/><path d="M508.834,498.415c-1.873,2.988-4.3,2.918-6.5,1.544s-3.314-3.531-1.44-6.52,8.225-4.3,8.225-4.3S510.707,495.427,508.834,498.415Z" transform="translate(-255.222 -249.483)" fill="#1cbac8"/><path d="M910.6,338.633c.347,3.51-1.619,4.942-4.193,5.2s-4.782-.765-5.128-4.275,3.873-8.436,3.873-8.436S910.252,335.123,910.6,338.633Z" transform="translate(-433.545 -179.267)" fill="#1cbac8"/><path d="M490.9,383.868c-1.873,2.988-4.3,2.918-6.5,1.544s-3.314-3.531-1.44-6.52,8.225-4.3,8.225-4.3S492.771,380.88,490.9,383.868Z" transform="translate(-247.252 -198.584)" fill="#1cbac8"/></svg>