<svg xmlns="http://www.w3.org/2000/svg" width="201.011" height="105" viewBox="0 0 201.011 105"><g transform="translate(-67.548 -154.7)"><path d="M126.364,271.4a2.756,2.756,0,1,0,2.864,2.754A2.721,2.721,0,0,0,126.364,271.4Zm0,4.681a1.909,1.909,0,0,1-1.983-1.983,1.941,1.941,0,0,1,1.983-1.983,1.909,1.909,0,0,1,1.983,1.983A1.941,1.941,0,0,1,126.364,276.081Z" transform="translate(-25.136 -52.428)"/><path d="M151.146,209.469H137.268l1.6-24.123-9.032,24.123H117L137.433,155h13.714l-1.6,24.4,9.2-24.4h12.887Z" transform="translate(-22.216 -0.135)"/><path d="M182.1,209.469,202.533,155H215.42l-20.433,54.469Z" transform="translate(-51.463 -0.135)"/><path d="M93.3,217.183C75.287,238.332,58.324,266.475,73.3,279.418c14.54,12.557,32.714,5.122,45.106.165s149.308-64.437,149.308-64.437c1.322-.661,1.046-1.487-.551-1.046-.661.165-149.087,40.37-149.087,40.37C99.245,259.756,77.766,248.245,93.3,217.183Z" transform="translate(0 -26.629)"/><path d="M128.252,275.352a.681.681,0,0,0,.716-.771c0-.716-.441-.881-1.267-.881h-1.1v2.974h.771v-1.267h.11l.661,1.267h.881Zm-.5-.441h-.441v-.661h.386c.22,0,.5,0,.5.33A.385.385,0,0,1,127.757,274.912Z" transform="translate(-26.529 -53.461)"/><path d="M361.464,154.7a2.756,2.756,0,1,0,2.864,2.754A2.721,2.721,0,0,0,361.464,154.7Zm0,4.681a1.909,1.909,0,0,1-1.983-1.983,1.941,1.941,0,0,1,1.983-1.983,1.983,1.983,0,1,1,0,3.965Z" transform="translate(-130.756)"/><path d="M363.352,158.652a.681.681,0,0,0,.716-.771c0-.716-.441-.881-1.267-.881h-1.1v2.974h.771v-1.322h.11l.661,1.267h.881Zm-.441-.5h-.441V157.5h.386c.22,0,.5,0,.5.33C363.3,158.1,363.132,158.157,362.912,158.157Z" transform="translate(-132.148 -1.033)"/><path d="M286.044,163.987l3.47-9.087H250.19L236.7,171.257,242.92,154.9H229.867L209.6,209.424h12.888l8.647-22.8.606,22.8,39.544-.11,3.745-10.464H259.993l4.957-13.218h12.392l3.8-10.134H268.75l4.241-11.456h13.053Zm-41.526,41.8-.826-28.419L263.188,156Z" transform="translate(-63.817 -0.09)"/></g></svg>