<svg xmlns="http://www.w3.org/2000/svg" width="75" height="75" viewBox="0 0 75 75"><path d="M0,0H75V75H0Z" fill="none"/><path d="M33.25,15.5V3H2V59.25H64.5V15.5ZM14.5,53H8.25V46.75H14.5Zm0-12.5H8.25V34.25H14.5Zm0-12.5H8.25V21.75H14.5Zm0-12.5H8.25V9.25H14.5ZM27,53H20.75V46.75H27Zm0-12.5H20.75V34.25H27ZM27,28H20.75V21.75H27Zm0-12.5H20.75V9.25H27ZM58.25,53h-25V46.75H39.5V40.5H33.25V34.25H39.5V28H33.25V21.75h25ZM52,28H45.75v6.25H52Zm0,12.5H45.75v6.25H52Z" transform="translate(4.25 6.375)" fill="#0093dd"/></svg>