<svg xmlns="http://www.w3.org/2000/svg" width="193.17" height="96.27" viewBox="0 0 193.17 96.27"><path d="M390.515,703.043c-2.492,3.337-7.664,3.688-7.664,3.688s-1.132-5.059,1.359-8.4,7.664-3.688,7.664-3.688S393.007,699.706,390.515,703.043Z" transform="translate(-333.217 -612.267)" fill="#e6e6e6"/><path d="M349.87,723.973c1.644,2.2,5.057,2.434,5.057,2.434s.747-3.338-.9-5.54-5.057-2.434-5.057-2.434S348.226,721.771,349.87,723.973Z" transform="translate(-307.194 -631.942)" fill="#e6e6e6"/><path d="M44.538,639.027H0v-.364H44.6Z" transform="translate(0 -544.362)" fill="#3f3d56"/><rect width="29.664" height="44.281" transform="translate(163.506 10.318)" fill="#e6e6e6"/><rect width="26.496" height="39.551" transform="translate(165.09 12.682)" fill="#fff"/><rect width="1.282" height="4.439" transform="translate(182.426 34.748)" fill="#3f3d56"/><path d="M763.6,239.808,760.4,235.97h-6.215l-3.8,3.7.077.049h-.027v7.695H763.56v-7.695Z" transform="translate(-579.013 -201.686)" fill="#3f3d56"/><path d="M789.967,235.684l-3.9,4.569v6.924h7v-7.793Z" transform="translate(-608.527 -201.444)" fill="#0093dd"/><rect width="1.43" height="1.264" transform="translate(180.355 41.393)" fill="#3f3d56"/><rect width="1.43" height="1.244" transform="translate(180.355 39.522)" fill="#3f3d56"/><rect width="1.43" height="1.264" transform="translate(180.355 41.393)" fill="#fff"/><rect width="1.43" height="1.244" transform="translate(180.355 39.522)" fill="#fff"/><path d="M942.2,423.11a.577.577,0,0,1,.659-.568" transform="translate(-765.626 -378.506)" fill="#e6e6e6"/><circle cx="0.315" cy="0.315" r="0.315" transform="translate(176.079 43.455)" fill="#85c226"/><rect width="0.089" height="0.622" transform="translate(176.343 44.179)" fill="#e6e6e6"/><rect width="29.664" height="44.281" transform="translate(108.968 10.318)" fill="#e6e6e6"/><rect width="26.496" height="39.551" transform="translate(110.376 12.682)" fill="#fff"/><path d="M915.484,280.625l.763-.611a.809.809,0,0,0-.937.514,1.3,1.3,0,0,0-.968.06l1.528.555A1.157,1.157,0,0,0,915.484,280.625Z" transform="translate(-742.585 -257.085)" fill="#3f3d56"/><path d="M724.707,273.705l.763-.611a.809.809,0,0,0-.937.514,1.3,1.3,0,0,0-.968.06l1.528.555A1.156,1.156,0,0,0,724.707,273.705Z" transform="translate(-599.408 -251.188)" fill="#3f3d56"/><path d="M975.615,247.245l.763-.611a.809.809,0,0,0-.936.514,1.3,1.3,0,0,0-.968.06l1.528.555A1.157,1.157,0,0,0,975.615,247.245Z" transform="translate(-792.325 -225.603)" fill="#3f3d56"/><rect width="1.282" height="4.439" transform="translate(129.126 31.016)" fill="#3f3d56"/><rect width="1.282" height="4.439" transform="translate(129.126 30.638)" fill="#3f3d56"/><path d="M516.266,216.19l-4.377-5.2H503.3l-5.249,5.113.106.068h-.038v10.634h18.132V216.172Z" transform="translate(-385.047 -180.599)" fill="#3f3d56"/><path d="M552.745,210.6l-5.385,6.314v9.569h9.68v-10.77Z" transform="translate(-424.951 -180.266)" fill="#0093dd"/><rect width="1.977" height="1.914" transform="translate(124.2 40.006)" fill="#3f3d56"/><rect width="1.977" height="1.914" transform="translate(124.2 37.564)" fill="#3f3d56"/><rect width="1.977" height="1.914" transform="translate(124.2 40.006)" fill="#fff"/><rect width="1.977" height="1.914" transform="translate(124.2 37.564)" fill="#fff"/><rect width="1.977" height="1.914" transform="translate(127.898 40.006)" fill="#3f3d56"/><rect width="1.977" height="1.914" transform="translate(127.898 37.564)" fill="#3f3d56"/><rect width="1.977" height="1.914" transform="translate(127.898 40.006)" fill="#fff"/><rect width="1.977" height="1.914" transform="translate(127.898 37.564)" fill="#fff"/><circle cx="7.61" cy="7.61" r="7.61" transform="translate(78.86 0)" fill="#85c226"/><rect width="29.664" height="44.281" transform="translate(54.43 10.318)" fill="#e6e6e6"/><rect width="26.496" height="39.551" transform="translate(56.191 12.682)" fill="#fff"/><path d="M278.882,196.65l-5.342-6.362h-10.5l-6.418,6.252.13.083H256.7v13h22.172v-13Z" transform="translate(-197.959 -163.085)" fill="#3f3d56"/><path d="M504.444,270.438l.721-.577a.764.764,0,0,0-.884.485,1.228,1.228,0,0,0-.914.056l1.442.524A1.092,1.092,0,0,0,504.444,270.438Z" transform="translate(-427.884 -248.432)" fill="#3f3d56"/><rect width="1.211" height="4.192" transform="translate(79.444 27.491)" fill="#3f3d56"/><path d="M323.5,189.806l-6.585,7.72v11.7h11.836v-13.17Z" transform="translate(-245.793 -162.677)" fill="#0093dd"/><path d="M447.829,423.341a.545.545,0,0,1,.622-.536" transform="translate(-384.725 -378.728)" fill="#e6e6e6"/><circle cx="0.297" cy="0.297" r="0.297" transform="translate(62.509 43.528)" fill="#85c226"/><rect width="0.084" height="0.587" transform="translate(62.78 44.212)" fill="#e6e6e6"/><path d="M463.192,423.341a.545.545,0,0,1,.623-.536" transform="translate(-396.699 -378.728)" fill="#e6e6e6"/><circle cx="0.297" cy="0.297" r="0.297" transform="translate(65.897 43.528)" fill="#85c226"/><rect width="0.084" height="0.587" transform="translate(66.167 44.212)" fill="#e6e6e6"/><path d="M426.806,423.341a.545.545,0,0,1,.623-.536" transform="translate(-368.339 -378.728)" fill="#e6e6e6"/><circle cx="0.297" cy="0.297" r="0.297" transform="translate(57.872 43.528)" fill="#85c226"/><rect width="0.084" height="0.587" transform="translate(58.147 44.212)" fill="#e6e6e6"/><rect width="2.417" height="2.472" transform="translate(72.036 35.903)" fill="#3f3d56"/><rect width="2.417" height="2.472" transform="translate(72.036 38.775)" fill="#3f3d56"/><rect width="2.417" height="2.472" transform="translate(72.036 35.903)" fill="#fff"/><rect width="2.417" height="2.472" transform="translate(72.036 38.775)" fill="#fff"/><rect width="2.417" height="2.472" transform="translate(76.315 35.903)" fill="#3f3d56"/><rect width="2.417" height="2.472" transform="translate(76.315 38.775)" fill="#3f3d56"/><rect width="2.417" height="2.472" transform="translate(76.315 35.903)" fill="#fff"/><rect width="2.417" height="2.472" transform="translate(76.315 38.775)" fill="#fff"/><rect width="2.417" height="2.472" transform="translate(80.593 35.903)" fill="#3f3d56"/><rect width="2.417" height="2.472" transform="translate(80.593 38.775)" fill="#3f3d56"/><rect width="2.417" height="2.472" transform="translate(80.593 35.903)" fill="#fff"/><rect width="2.417" height="2.472" transform="translate(80.593 38.775)" fill="#fff"/><path d="M507.266,416.633H396.649s22.459-5.408,55.539-5.347l.557,0q.99,0,1.991.014.784.008,1.574.021l.684.011.272,0,.633.013q.6.012,1.2.027l1.058.029.408.012q.963.027,1.934.064l.451.017.623.024.824.034,1.071.048q1.121.051,2.256.113.843.044,1.691.1l.724.045q.555.034,1.112.071l.711.048.857.06.858.063.862.065c.289.022.576.045.865.069s.57.046.856.07q1.827.152,3.681.331l.713.069.739.074q.515.051,1.034.107l.89.095.809.088.084.01c.3.033.6.067.894.1l.9.1.9.108.9.111.7.088.351.045.758.1.909.12.1.014,1.413.194.193.027.74.105.741.108.031,0c.35.051.7.1,1.049.156l.523.079.716.11.47.074c.116.017.231.035.347.054q.366.056.734.116l.683.111.019,0,.163.026.5.083.518.087.455.077.013,0,.065.011c.176.029.351.059.526.09l.528.092.053.009.408.072h0l.233.041.622.111.4.073,1.12.2,1.123.21.674.129.633.122C506.635,416.509,506.951,416.571,507.266,416.633Z" transform="translate(-314.35 -369.238)" fill="#e6e6e6"/><path d="M396.649,442.231" transform="translate(-344.88 -395.247)" fill="none" stroke="#3f3d56" stroke-miterlimit="10" stroke-width="2"/><path d="M507.04,415.976l-.843-.165-.1-.02-.632-.122-.674-.129-1.122-.21-.981-.18-.139-.025-.343-.062-.059-.01-.565-.1-.088-.015v0l-.2-.037-.011,0-.02,0-.376-.066-.047-.008-.534-.093c-.167-.03-.334-.058-.5-.086l-.025,0-.061-.011-.419-.071-1.252-.208-.682-.111q-.368-.06-.732-.116c-.117-.019-.231-.037-.346-.054l-.473-.074-.714-.11-.522-.079c-.352-.053-.7-.105-1.049-.156l-.031,0-.476-.069-.265-.038-.739-.105-.193-.027q-.708-.1-1.412-.194l-.085-.011-2.737-.354-.9-.111-.9-.108-.9-.1c-.3-.034-.6-.069-.893-.1l-.085-.01-.807-.088-.832-.089-.057-.006-1.033-.107-.738-.074-.713-.069c-1.209-.117-2.447-.228-3.679-.33-.291-.024-.573-.048-.855-.07s-.576-.046-.865-.069l-.862-.065-.769-.056-.089-.006-.856-.06-.711-.048q-.556-.037-1.111-.071l-.064,0-.659-.041q-.848-.05-1.69-.1-1.133-.062-2.255-.113l-1.07-.048-.747-.031-.286-.011-.412-.016-.452-.017q-.97-.036-1.932-.064l-.407-.012-1.058-.029-1.2-.027-.9-.017-.683-.011c-.528-.009-1.051-.015-1.574-.021q-1-.011-1.99-.014h-1.108c-32.385,0-54.724,5.289-54.947,5.343l-.081-.336c.223-.054,22.606-5.352,55.028-5.352h1.109q.99,0,1.992.014c.523.006,1.047.012,1.575.021l.684.011.906.017q.6.012,1.2.027l1.059.029.409.012q.962.027,1.934.064l.451.017.413.016.287.011.748.031,1.071.048q1.122.051,2.257.113.843.044,1.692.1l.66.041.064,0q.555.034,1.113.071l.711.048.858.06.089.007.77.057.862.065c.289.022.577.045.866.069l.848.07c1.242.1,2.481.214,3.691.332l.714.069.739.074q.515.051,1.034.107l.057.006.833.089.809.089.084.01.894.1.9.1.9.108.9.111,2.742.355.08.011c.474.064.945.129,1.417.195l.192.027.742.105.265.038.477.069.032,0q.522.076,1.048.156l.523.079.716.11.47.074c.115.017.232.035.349.055q.364.056.733.116l.683.111.033.006,1.221.2.389.066.032.005.062.011.022,0,.5.086.527.092.052.008.349.061.036-.02.058.036.12.021.138.024.566.1.058.01.344.062.138.025.982.18,1.123.211.675.129.634.122.1.02c.281.055.563.11.844.166Z" transform="translate(-314.157 -368.409)" fill="#3f3d56"/><circle cx="13.029" cy="13.029" r="13.029" transform="translate(145.354 2.865)" fill="#0093dd"/><path d="M789.1,166.586a13.03,13.03,0,0,1-21.709,13.789A13.03,13.03,0,1,0,789.1,166.586Z" transform="translate(-621.025 -159.395)" opacity="0.2"/><path d="M672.139,91.974h.036l.644,36.938h-1.36Z" transform="translate(-523.188 -76.081)" fill="#3f3d56"/><rect width="0.644" height="2.434" transform="translate(151.427 30.297) rotate(62.234)" fill="#3f3d56"/><path d="M656.934,427.583a1.036,1.036,0,0,1,1.183-1.019" transform="translate(-547.616 -381.96)" fill="#85c226"/><circle cx="0.565" cy="0.565" r="0.565" transform="translate(108.181 43.563)" fill="#85c226"/><rect width="0.159" height="1.116" transform="translate(108.633 44.861)" fill="#3f3d56"/><path d="M775.907,428.966a1.036,1.036,0,0,1,1.183-1.019" transform="translate(-640.324 -383.138)" fill="#85c226"/><circle cx="0.565" cy="0.565" r="0.565" transform="translate(134.444 43.768)" fill="#85c226"/><rect width="0.159" height="1.116" transform="translate(134.859 45.065)" fill="#3f3d56"/><path d="M579.924,417.438a1.036,1.036,0,0,1,1.183-1.019" transform="translate(-487.607 -373.315)" fill="#0093dd"/><circle cx="0.565" cy="0.565" r="0.565" transform="translate(91.181 42.063)" fill="#0093dd"/><rect width="0.159" height="1.116" transform="translate(91.658 43.361)" fill="#3f3d56"/><path d="M630.188,408.676a1.036,1.036,0,0,1,1.183-1.019" transform="translate(-526.775 -365.848)" fill="#85c226"/><path d="M.565,0A.565.565,0,1,1,0,.565.565.565,0,0,1,.565,0Z" transform="translate(102.277 40.768)" fill="#85c226"/><rect width="0.159" height="1.116" transform="translate(102.738 42.065)" fill="#3f3d56"/><path d="M756.078,421.127a1.036,1.036,0,0,1,1.183-1.019" transform="translate(-624.873 -376.458)" fill="#85c226"/><circle cx="0.565" cy="0.565" r="0.565" transform="translate(130.067 42.609)" fill="#85c226"/><rect width="0.159" height="1.116" transform="translate(130.488 43.906)" fill="#3f3d56"/><path d="M659.361,140.322l.734-.587a.777.777,0,0,0-.9.494,1.249,1.249,0,0,0-.93.057l1.468.533A1.11,1.11,0,0,0,659.361,140.322Z" transform="translate(-548.55 -137.177)" fill="#3f3d56"/><path d="M723.92,174.907l.734-.587a.777.777,0,0,0-.9.494,1.25,1.25,0,0,0-.93.057l1.468.533A1.111,1.111,0,0,0,723.92,174.907Z" transform="translate(-598.844 -165.786)" fill="#3f3d56"/><path d="M654.288,204.419l.734-.587a.777.777,0,0,0-.9.494,1.249,1.249,0,0,0-.93.057l1.468.533A1.11,1.11,0,0,0,654.288,204.419Z" transform="translate(-544.598 -190.198)" fill="#3f3d56"/><ellipse cx="1.428" cy="2.143" rx="1.428" ry="2.143" transform="translate(23.145 45.26) rotate(-17.267)" fill="#2f2e41"/><path d="M213.752,388.154a90.483,90.483,0,0,0,.429,14.285c.857,5.714,1.857,11.142,1.857,11.142s2.428-1.857,3.857-1.286l-2.571-19.856Z" transform="translate(-204.677 -351.081)" fill="#0093dd"/><circle cx="4.714" cy="4.714" r="4.714" transform="translate(13.432 22.528)" fill="#ffb8b8"/><path d="M77.662,188.784l-2,5.143,2.857,1.286,2.857-5.143Z" transform="translate(-62.587 -161.109)" fill="#ffb8b8"/><path d="M192.57,335.655h0s-2.853-1.893-4.139-1.179l-1.143,2.714s-4,5-2.428,8.714a39.749,39.749,0,0,0,5.143,8l.429,2s-5.571,7.285-5,12.714L178.718,386.9s3.714,1.571,16.142,2.143,12.428,0,12.428,0-1.571-30.427-6.428-35.284l-.714-2.286s1-6.428-1.286-9.142l-.772-1.545A10.76,10.76,0,0,0,192.57,335.655Z" transform="translate(-175.786 -308.272)" fill="#2f2e41"/><path d="M300.237,517.541l.286,3.857s-.429,5,2.428,4,.571-6.571.571-6.571l-.429-1.714Z" transform="translate(-276.306 -459.823)" fill="#ffb8b8"/><path d="M171.683,634.5l-1.571,15.285s-2,1.143-1,4.285a10.956,10.956,0,0,1,.714,4.714l1-.286.429-3.857s1.678,2.143,3.143,2.571c1.017.3,2.068.526,2.759-.271a1.864,1.864,0,0,0-.7-2.883,2.339,2.339,0,0,0-.349-.132c-1-.286-2-4.143-2-4.143l1.714-7,2.571-7.714Z" transform="translate(-167.607 -562.512)" fill="#2f2e41"/><path d="M284.108,634.5l-1.571,15.285s-2,1.143-1,4.285a10.956,10.956,0,0,1,.714,4.714l1-.286.429-3.857s1.678,2.143,3.143,2.571c1.017.3,2.068.526,2.759-.271a1.864,1.864,0,0,0-.7-2.883,2.337,2.337,0,0,0-.349-.132c-1-.286-2-4.143-2-4.143l1.714-7,2.571-7.714Z" transform="translate(-260.606 -562.512)" fill="#2f2e41"/><path d="M250.537,357.264a5.989,5.989,0,0,0-2.428,6.571c1,4.571,8,24.142,8,24.142a4.763,4.763,0,0,1,4.714-1.143l-6.428-24.713S254.823,356.55,250.537,357.264Z" transform="translate(-233.034 -324.974)" opacity="0.4"/><path d="M253.844,352.305a5.989,5.989,0,0,0-2.428,6.571c1,4.571,8,24.141,8,24.141a4.763,4.763,0,0,1,4.714-1.143L257.7,357.162S258.13,351.591,253.844,352.305Z" transform="translate(-235.77 -320.703)" fill="#0093dd"/><path d="M233.461,276.18s.726-5.652-5.2-3.8c0,0-4.232-.776-5.62,4.517l-1.405,5.549.685-.373.319.7,1.11.281.475-.943.23,1.145,9.09.906s-4.071-2.408-4.136-6.723l.775.819Z" transform="translate(-210.958 -250.674)" fill="#2f2e41"/><circle cx="2.286" cy="2.286" r="2.286" transform="translate(10.146 20.041)" fill="#2f2e41"/><path d="M236.384,260.923a2.284,2.284,0,0,0-2.285-2.136c.047-.006.094-.013.142-.016a2.286,2.286,0,0,1,.293,4.562c-.048,0-.1,0-.143,0A2.284,2.284,0,0,0,236.384,260.923Z" transform="translate(-221.597 -239.091)" fill="#2f2e41"/><ellipse cx="0.714" cy="1" rx="0.714" ry="1" transform="translate(17.431 26.348)" fill="#ffb8b8"/></svg>