<svg xmlns="http://www.w3.org/2000/svg" width="577.918" height="298.612" viewBox="0 0 577.918 298.612"><g transform="translate(-54.021 0.015)"><path d="M203.207,644.663c-.858-6.251-1.741-12.582-1.139-18.9a29.724,29.724,0,0,1,5.732-15.585,25.926,25.926,0,0,1,6.652-6.028c.665-.419,1.277.635.615,1.052a24.647,24.647,0,0,0-9.749,11.763c-2.123,5.4-2.463,11.284-2.095,17.018.221,3.468.69,6.912,1.163,10.354a.628.628,0,0,1-.426.75.613.613,0,0,1-.75-.426Z" transform="translate(-147.849 -347.079)" fill="#f2f2f2"/><path d="M1014.92,651.3c-5.474-9.685-11.822-20.449-23.167-23.89a25.851,25.851,0,0,0-9.744-1.006c-1.035.089-.776,1.684.256,1.6a24.017,24.017,0,0,1,15.55,4.114,40.416,40.416,0,0,1,10.688,11.534c1.77,2.7,3.355,5.505,4.941,8.311C1013.95,652.859,1015.43,652.211,1014.92,651.3Z" transform="translate(-383.087 -353.795)" fill="#f2f2f2"/><path d="M688.3,468.918H413.9v-58.65H688.3Z" transform="translate(-211.838 -288.596)" fill="#fff"/><circle cx="14.899" cy="14.899" r="14.899" transform="translate(222.721 136.098)" fill="#6c63ff"/><path d="M513.034,438.042a2.483,2.483,0,1,0,0,4.966h181.3a2.483,2.483,0,1,0,0-4.966Z" transform="translate(-241.005 -296.978)" fill="#6c63ff"/><path d="M513.031,459.38a2.483,2.483,0,1,0-.01,4.966H627.64a2.483,2.483,0,0,0,0-4.966Z" transform="translate(-241.003 -303.418)" fill="#6c63ff"/><path d="M688.3,468.918H413.9v-58.65H688.3Zm-270.208-4.189H684.11V414.457H418.091Z" transform="translate(-211.838 -288.596)" fill="#ccc"/><path d="M917.443,464.762a5.665,5.665,0,0,1,4.512-7.423l3.106-12.568,8.1.025-4.635,17.687a5.7,5.7,0,0,1-11.08,2.28Z" transform="translate(-363.709 -299.009)" fill="#ffb7b7"/><path d="M931.794,426.653l-12.4-.859L925.4,390l-3.823-39.414,12.537-5.14,8.361,43.771-.023.08Z" transform="translate(-364.389 -269.033)" fill="#0093dd"/><path d="M799.808,448.522a5.665,5.665,0,0,1,6.562-5.692l6.793-11.02,7.7,2.495-9.812,15.428a5.7,5.7,0,0,1-11.247-1.211Z" transform="translate(-328.299 -295.097)" fill="#ffb7b7"/><path d="M725.878,406.1h-6.6l-3.138-25.448h9.737Z" transform="translate(-216.123 -114.882)" fill="#ffb7b7"/><path d="M847.8,658.568H826.528V658.3a8.28,8.28,0,0,1,8.28-8.28H847.8Z" transform="translate(-336.363 -360.95)"/><path d="M791.8,406.1h-6.6l-3.138-25.448H791.8Z" transform="translate(-236.017 -114.882)" fill="#ffb7b7"/><path d="M913.721,658.568H892.448V658.3a8.28,8.28,0,0,1,8.28-8.28h12.994Z" transform="translate(-356.257 -360.95)"/><circle cx="15.674" cy="15.674" r="15.674" transform="translate(533.833 20.912)" fill="#ffb8b8"/><path d="M897.818,278.714a10.216,10.216,0,0,1-9.624-17.915c4.172-2.792,10.4-1.868,14.446,1.37a14.112,14.112,0,0,1,16.314,3.386c3.9,4.516,4.331,11.685,1.486,16.95a18.427,18.427,0,0,0,1.081,17.251c-1.224-.05-3.919-.277-7.29-.568-.976-.084-1.4-2.95-2.467-3.042-.943-.081-2.526,2.611-3.515,2.528-7.322-.619-15.519-1.247-19.234-1.124A201.35,201.35,0,0,1,897.818,278.714Z" transform="translate(-353.604 -242.989)" fill="#2f2e41"/><path d="M901.148,446.55s5.094,5.252,1.984,32.371L900.983,536.5l-3.8,50.988-12.232-.813L874.2,469.324l-15.042,42.944-8.1,71-11.736-.813-2-70.6,5.145-54.563Z" transform="translate(-339.62 -299.546)"/><path d="M852.528,421.465c-6.258,0-8.779-.752-8.963-.81l-.29-.091.051-.3c.042-.246,4.246-24.762,10.016-37.632l4.057-52.2a6.883,6.883,0,0,1,5.814-6.288l.054.345-.054-.345,10.32-1.62,6.313-5.558,15.122.836,1.334,6.4c1.809.506,13.744,4.163,14.925,12.922l.015.11-.051.1L889.323,379.4c1.848,1.824,16.45,16.824,17.441,36l.024.461-.45-.1c-.042-.009-4.715-.9-29.288,3.258A149.885,149.885,0,0,1,852.528,421.465Z" transform="translate(-341.417 -260.44)" fill="#0093dd"/><path d="M817.959,417.623l-8.912-6.863,19.892-39.8,18.5-39.006a2.956,2.956,0,0,1,5.521.481l4.58,16.613-14.321,37.258Z" transform="translate(-331.088 -264.452)" fill="#0093dd"/><path d="M494.546,109.7h-37.7V72h18.852v1.4H458.238v34.911h34.911V90.852h1.4Z" transform="translate(-137.869 -21.733)" fill="#3f3d56"/><path d="M478.87,98.566l-9.159-10.517,1.579-1.375,7.6,8.724L499.742,72l1.563,1.394Z" transform="translate(-141.753 -21.734)" fill="#6c63ff"/><path d="M300.2,300.859l.882-4.408s12.966-4.408,14.416,4.408Z" transform="translate(-177.525 -253.915)" fill="#e6e6e6"/><path d="M211.341,400.651h8.5l4.044-32.787H211.34Z" transform="translate(-63.78 -111.021)" fill="#9f616a"/><path d="M332.736,646.847h16.741a10.669,10.669,0,0,1,10.668,10.667v.347H332.737Z" transform="translate(-187.343 -359.993)"/><path d="M152.653,400.651h8.5l4.044-32.787H152.652Z" transform="translate(-46.068 -111.021)" fill="#9f616a"/><path d="M274.048,646.847h16.741a10.669,10.669,0,0,1,10.668,10.667v.347H274.049Z" transform="translate(-169.632 -359.993)"/><path d="M151.169,93.372l-9.7-.882-6.17,29.09.881,26.446,9.7,35.26,13.223-7.934-7.052-36.142Z" transform="translate(-40.832 -27.917)" fill="#0093dd"/><path d="M149.032,216.587,151.2,235.1l2.038,43.194-4.683,64.367,16.749-.9,8.209-66.995,5.014-30.853,7.052,35.26,4.408,66.113,17.189-1.378V278.942l.441-47.369-6.17-18.512Z" transform="translate(-44.833 -64.304)"/><path d="M307.926,302.411s-6.171-8.815-17.63-2.645l-5.289,7.052L268.259,319.16l3.526,41.431L267.377,412.6l62.587-.881L319.386,359.71V304.174Z" transform="translate(-167.619 -254.587)" fill="#0093dd"/><path d="M150.161,113.446l-5.054,60.434,6.377-32.753Z" transform="translate(-43.792 -34.241)" opacity="0.25"/><path d="M417.612,414.221a6.5,6.5,0,0,1-8.519-5.178l-14.423-3.564.028-9.293,20.3,5.32a6.537,6.537,0,0,1,2.616,12.716Z" transform="translate(-206.034 -284.347)" fill="#9f616a"/><rect width="14.104" height="6.171" transform="matrix(0.172, -0.985, 0.985, 0.172, 194.071, 125.625)" fill="#e6e6e6"/><circle cx="17.701" cy="17.701" r="17.701" transform="translate(112.797 2.24)" fill="#9f616a"/><path d="M303.723,271.556a17.956,17.956,0,0,1-11.747-33.748,21,21,0,0,1,9.914-1.779c5.294.278,10.439,2.235,15.739,2.091l.768,1.235,2.895-.7.62,2.3.763-.026a4.389,4.389,0,0,1-3.714,6.141,17.152,17.152,0,0,1-3.336-.727,3.36,3.36,0,0,0-3.2.663c-1,1.1-.565,2.8-.356,4.273s-.312,3.446-1.795,3.494c-.757.024-1.477-.519-2.221-.376a1.8,1.8,0,0,0-1.178,2.086,8.3,8.3,0,0,0,1.037,2.421,9.751,9.751,0,0,1-3.868,12.438" transform="translate(-171.903 -236)" fill="#2f2e41"/><path d="M332.847,310.429l4.207-3.406s8.491-.59,8.338,8.412l13.587,42.5,26.066,9.234-3.512,18.147-36.879-14.049-18.732-31.048Z" transform="translate(-185.286 -257.436)" fill="#0093dd"/></g></svg>