<svg id="Property_Svg" data-name="Property Svg" xmlns="http://www.w3.org/2000/svg" width="329.033" height="243.301" viewBox="0 0 329.033 243.301">
  <path id="Path_1306" data-name="Path 1306" d="M515.466,532.737s43.7-5.244,58.99-13.546,128.9-12.235,128.9,13.546S572.708,569.88,572.708,569.88l-68.6-3.933Z" transform="translate(-375.201 -367.652)" fill="#a0616a"/>
  <path id="Path_1307" data-name="Path 1307" d="M515.466,532.737s43.7-5.244,58.99-13.546,128.9-12.235,128.9,13.546S572.708,569.88,572.708,569.88l-68.6-3.933Z" transform="translate(-375.201 -367.652)" fill="#a0616a" opacity="0.1"/>
  <path id="Path_1308" data-name="Path 1308" d="M309.937,529.839l-9.176,26.655L157,558.241V518.915s55.057-12.672,98.754,14.42C255.754,533.335,307.315,527.217,309.937,529.839Z" transform="translate(-157 -369.561)" fill="#0093dd"/>
  <path id="Path_1309" data-name="Path 1309" d="M309.937,529.723l-9.176,26.655L157,558.125V518.8s55.057-12.672,98.754,14.42C255.754,533.219,307.315,527.1,309.937,529.723Z" transform="translate(-157 -369.488)" opacity="0.1"/>
  <path id="Path_1310" data-name="Path 1310" d="M818.264,465.685c0,1.489-3.34,2.595-3.668,4.031s1.659,3.592,1.031,4.953a26.956,26.956,0,0,1-2.292,3.986c-.823,1.178-3.363,1.006-4.405,2.11a35.013,35.013,0,0,1-3.235,2.814c-1.106.919-2.6,1.112-3.86,1.959-1.2.8-1.051,3.757-2.373,4.489-1.263.7-3.2.137-4.568.766-1.315.6-2.009,2.789-3.416,3.324-1.356.515-3.035.294-4.469.74-1.388.432-2.941.362-4.395.726-1.412.353-2.491,2.47-3.96,2.755-1.431.278-3.109-.464-4.589-.253-1.445.206-3.126-1.623-4.613-1.485-1.455.136-2.826.982-4.317,1.051-1.461.067-2.906.711-4.4.711s-3.029,1.4-4.489,1.331c-1.49-.068-2.839-2.188-4.295-2.323-1.487-.138-3.26,2.075-4.706,1.87-1.48-.211-2.652-2.378-4.083-2.656-1.469-.285-3.367,1.263-4.78.91-1.454-.364-2.318-2.885-3.706-3.317-1.434-.446-3.211.158-4.568-.357-1.407-.534-3.12-.449-4.436-1.053-1.371-.629-2.354-2.119-3.618-2.819-1.322-.733-1.932-2.55-3.127-3.355-1.257-.846-3.173-.738-4.278-1.658-1.167-.971-3.354-1.021-4.339-2.066-1.042-1.1-1.463-2.959-2.286-4.137-.866-1.241.834-3.863.229-5.174-.628-1.361-3.252-1.913-3.577-3.338a20.957,20.957,0,0,1-.514-4.533c0-1.489,2.244-2.627,2.572-4.064s-1.326-3.471-.7-4.832c.6-1.311.528-3.327,1.394-4.568.823-1.178,2.875-1.639,3.917-2.744.985-1.044,2.748-1.336,3.915-2.306,1.106-.919.965-3.692,2.222-4.538,1.2-.8,2.864-1.172,4.186-1.9,1.263-.7,3.051-.582,4.422-1.212,1.315-.6,3.376.586,4.782.052,1.356-.515,2.456-1.642,3.89-2.088,1.388-.432,2.04-3.727,3.494-4.09,1.412-.353,3.15.233,4.619-.052,1.431-.278,3.357,2.321,4.837,2.111,1.445-.206,2.526-3.676,4.013-3.814,1.455-.135,3.1,1.662,4.586,1.593,1.461-.067,2.929.986,4.419.986s2.975-1.445,4.436-1.378c1.49.068,2.8,1.978,4.259,2.114,1.487.138,3.312-2.767,4.758-2.561,1.48.211,2.623,2.456,4.055,2.734,1.469.285,3.31-1.109,4.722-.756,1.454.364,2.329,2.751,3.717,3.183,1.434.446,2.317,2.13,3.674,2.646,1.407.534,4.019-1.966,5.335-1.362,1.371.629,2.554,1.719,3.818,2.419,1.322.733,3.424.364,4.619,1.169,1.257.846,1.566,3.119,2.672,4.038,1.167.971,3.092,1.263,4.078,2.307,1.042,1.1,1.187,3.084,2.009,4.262.866,1.241.839,2.959,1.444,4.271.628,1.361,2.3,2.39,2.629,3.814S818.264,464.2,818.264,465.685Z" transform="translate(-500.967 -316.549)" fill="#3f3d56"/>
  <path id="Path_1311" data-name="Path 1311" d="M580.988,565.971s49.377-25.344,81.275-15.731,76.469-6.991,81.712-1.311,12.672,66.855-50.251,70.351-116.669-10.487-116.669-10.487Z" transform="translate(-421.06 -389.525)" fill="#a0616a"/>
  <path id="Path_1312" data-name="Path 1312" d="M305.3,564.828s19.494-1.234,18.619,5.758-1.748,61.175-6.991,62.486-46.755,1.311-63.8,1.311H157V550.611s68.166-4.058,102.249,12.983C259.249,563.594,300.227,563,305.3,564.828Z" transform="translate(-157 -391.081)" fill="#0093dd"/>
  <path id="Path_1313" data-name="Path 1313" d="M786.313,236.779a10.042,10.042,0,0,0-8.656,6.052c-2.165,5.232.622,11.378,4.806,15.193s9.558,6,14.441,8.863c6.559,3.85,12.452,9.195,15.734,16.056s3.631,15.359-.227,21.914c-3.58,6.084-10.091,9.725-16.3,13.083" transform="translate(-546.692 -194.062)" fill="none" stroke="#3f3d56" stroke-miterlimit="10" stroke-width="1"/>
  <path id="Path_1314" data-name="Path 1314" d="M833.378,150.885a10.042,10.042,0,0,0-8.656,6.052c-2.165,5.232.622,11.378,4.806,15.193s9.558,6,14.441,8.863c6.559,3.85,12.452,9.195,15.734,16.056s3.631,15.359-.227,21.914c-3.58,6.084-10.091,9.725-16.3,13.083" transform="translate(-576.278 -140.066)" fill="none" stroke="#3f3d56" stroke-miterlimit="10" stroke-width="1"/>
  <path id="Path_1315" data-name="Path 1315" d="M933.062,167.648a10.042,10.042,0,0,0-10.55-.513c-4.915,2.812-6.473,9.378-5.5,14.956S920.9,192.683,923,197.939c2.829,7.059,4.217,14.893,2.612,22.327s-6.532,14.368-13.594,17.189c-6.555,2.619-13.932,1.512-20.9.366" transform="translate(-618.494 -149.493)" fill="none" stroke="#3f3d56" stroke-miterlimit="10" stroke-width="1"/>
  <ellipse id="Ellipse_38" data-name="Ellipse 38" cx="10.487" cy="5.094" rx="10.487" ry="5.094" transform="translate(253.438 73.91)" fill="#57b894"/>
  <ellipse id="Ellipse_39" data-name="Ellipse 39" cx="10.487" cy="5.094" rx="10.487" ry="5.094" transform="translate(252.127 73.036)" fill="none" stroke="#3f3d56" stroke-miterlimit="10" stroke-width="1"/>
  <ellipse id="Ellipse_40" data-name="Ellipse 40" cx="10.487" cy="5.094" rx="10.487" ry="5.094" transform="translate(276.16 69.54)" fill="#57b894"/>
  <ellipse id="Ellipse_41" data-name="Ellipse 41" cx="10.487" cy="5.094" rx="10.487" ry="5.094" transform="translate(274.849 68.666)" fill="none" stroke="#3f3d56" stroke-miterlimit="10" stroke-width="1"/>
  <ellipse id="Ellipse_42" data-name="Ellipse 42" cx="10.487" cy="5.094" rx="10.487" ry="5.094" transform="translate(279.656 88.767)" fill="#57b894"/>
  <ellipse id="Ellipse_43" data-name="Ellipse 43" cx="10.487" cy="5.094" rx="10.487" ry="5.094" transform="translate(278.345 87.892)" fill="none" stroke="#3f3d56" stroke-miterlimit="10" stroke-width="1"/>
  <ellipse id="Ellipse_44" data-name="Ellipse 44" cx="10.487" cy="5.094" rx="10.487" ry="5.094" transform="translate(277.471 40.701)" fill="#57b894"/>
  <ellipse id="Ellipse_45" data-name="Ellipse 45" cx="10.487" cy="5.094" rx="10.487" ry="5.094" transform="translate(276.16 39.827)" fill="none" stroke="#3f3d56" stroke-miterlimit="10" stroke-width="1"/>
  <ellipse id="Ellipse_46" data-name="Ellipse 46" cx="10.487" cy="5.094" rx="10.487" ry="5.094" transform="translate(251.253 37.642)" fill="#57b894"/>
  <ellipse id="Ellipse_47" data-name="Ellipse 47" cx="10.487" cy="5.094" rx="10.487" ry="5.094" transform="translate(249.943 36.768)" fill="none" stroke="#3f3d56" stroke-miterlimit="10" stroke-width="1"/>
  <ellipse id="Ellipse_48" data-name="Ellipse 48" cx="10.487" cy="5.094" rx="10.487" ry="5.094" transform="translate(263.051 26.718)" fill="#57b894"/>
  <ellipse id="Ellipse_49" data-name="Ellipse 49" cx="10.487" cy="5.094" rx="10.487" ry="5.094" transform="translate(261.741 25.844)" fill="none" stroke="#3f3d56" stroke-miterlimit="10" stroke-width="1"/>
  <ellipse id="Ellipse_50" data-name="Ellipse 50" cx="10.487" cy="5.094" rx="10.487" ry="5.094" transform="translate(288.832 28.903)" fill="#57b894"/>
  <ellipse id="Ellipse_51" data-name="Ellipse 51" cx="10.487" cy="5.094" rx="10.487" ry="5.094" transform="translate(287.521 28.029)" fill="none" stroke="#3f3d56" stroke-miterlimit="10" stroke-width="1"/>
  <ellipse id="Ellipse_52" data-name="Ellipse 52" cx="10.487" cy="5.094" rx="10.487" ry="5.094" transform="translate(308.059 43.322)" fill="#57b894"/>
  <ellipse id="Ellipse_53" data-name="Ellipse 53" cx="10.487" cy="5.094" rx="10.487" ry="5.094" transform="translate(306.748 42.448)" fill="none" stroke="#3f3d56" stroke-miterlimit="10" stroke-width="1"/>
  <ellipse id="Ellipse_54" data-name="Ellipse 54" cx="10.487" cy="5.094" rx="10.487" ry="5.094" transform="translate(240.329 17.979)" fill="#57b894"/>
  <ellipse id="Ellipse_55" data-name="Ellipse 55" cx="10.487" cy="5.094" rx="10.487" ry="5.094" transform="translate(239.019 17.105)" fill="none" stroke="#3f3d56" stroke-miterlimit="10" stroke-width="1"/>
  <ellipse id="Ellipse_56" data-name="Ellipse 56" cx="10.487" cy="5.094" rx="10.487" ry="5.094" transform="translate(246.884 1.374)" fill="#57b894"/>
  <ellipse id="Ellipse_57" data-name="Ellipse 57" cx="10.487" cy="5.094" rx="10.487" ry="5.094" transform="translate(245.573 0.5)" fill="none" stroke="#3f3d56" stroke-miterlimit="10" stroke-width="1"/>
  <ellipse id="Ellipse_58" data-name="Ellipse 58" cx="10.487" cy="5.094" rx="10.487" ry="5.094" transform="translate(307.621 13.609)" fill="#57b894"/>
  <ellipse id="Ellipse_59" data-name="Ellipse 59" cx="10.487" cy="5.094" rx="10.487" ry="5.094" transform="translate(306.311 12.735)" fill="none" stroke="#3f3d56" stroke-miterlimit="10" stroke-width="1"/>
  <ellipse id="Ellipse_60" data-name="Ellipse 60" cx="10.487" cy="5.094" rx="10.487" ry="5.094" transform="translate(211.053 53.81)" fill="#57b894"/>
  <ellipse id="Ellipse_61" data-name="Ellipse 61" cx="10.487" cy="5.094" rx="10.487" ry="5.094" transform="translate(209.742 52.935)" fill="none" stroke="#3f3d56" stroke-miterlimit="10" stroke-width="1"/>
  <ellipse id="Ellipse_62" data-name="Ellipse 62" cx="10.487" cy="5.094" rx="10.487" ry="5.094" transform="translate(247.321 51.188)" fill="#57b894"/>
  <ellipse id="Ellipse_63" data-name="Ellipse 63" cx="10.487" cy="5.094" rx="10.487" ry="5.094" transform="translate(246.01 50.314)" fill="none" stroke="#3f3d56" stroke-miterlimit="10" stroke-width="1"/>
  <ellipse id="Ellipse_64" data-name="Ellipse 64" cx="10.487" cy="5.094" rx="10.487" ry="5.094" transform="translate(294.95 55.12)" fill="#57b894"/>
  <ellipse id="Ellipse_65" data-name="Ellipse 65" cx="10.487" cy="5.094" rx="10.487" ry="5.094" transform="translate(293.639 54.246)" fill="none" stroke="#3f3d56" stroke-miterlimit="10" stroke-width="1"/>
  <ellipse id="Ellipse_66" data-name="Ellipse 66" cx="10.487" cy="5.094" rx="10.487" ry="5.094" transform="translate(269.606 56.868)" fill="#57b894"/>
  <ellipse id="Ellipse_67" data-name="Ellipse 67" cx="10.487" cy="5.094" rx="10.487" ry="5.094" transform="translate(268.295 55.994)" fill="none" stroke="#3f3d56" stroke-miterlimit="10" stroke-width="1"/>
  <ellipse id="Ellipse_68" data-name="Ellipse 68" cx="10.487" cy="5.094" rx="10.487" ry="5.094" transform="translate(271.354 13.172)" fill="#57b894"/>
  <ellipse id="Ellipse_69" data-name="Ellipse 69" cx="10.487" cy="5.094" rx="10.487" ry="5.094" transform="translate(270.043 12.298)" fill="none" stroke="#3f3d56" stroke-miterlimit="10" stroke-width="1"/>
  <ellipse id="Ellipse_70" data-name="Ellipse 70" cx="10.487" cy="5.094" rx="10.487" ry="5.094" transform="translate(226.347 40.264)" fill="#57b894"/>
  <ellipse id="Ellipse_71" data-name="Ellipse 71" cx="10.487" cy="5.094" rx="10.487" ry="5.094" transform="translate(225.036 39.39)" fill="none" stroke="#3f3d56" stroke-miterlimit="10" stroke-width="1"/>
  <ellipse id="Ellipse_72" data-name="Ellipse 72" cx="10.487" cy="5.094" rx="10.487" ry="5.094" transform="translate(232.464 59.927)" fill="#57b894"/>
  <ellipse id="Ellipse_73" data-name="Ellipse 73" cx="10.487" cy="5.094" rx="10.487" ry="5.094" transform="translate(231.153 59.053)" fill="none" stroke="#3f3d56" stroke-miterlimit="10" stroke-width="1"/>
  <g id="Group_140" data-name="Group 140" transform="translate(235.67 92.683)" opacity="0.3">
    <ellipse id="Ellipse_74" data-name="Ellipse 74" cx="5.494" cy="2.379" rx="5.494" ry="2.379" transform="translate(0.691 9.592) rotate(-60.799)" fill="#57b894"/>
    <ellipse id="Ellipse_75" data-name="Ellipse 75" cx="5.494" cy="2.379" rx="5.494" ry="2.379" transform="translate(0 9.992) rotate(-60.799)" fill="none" stroke="#3f3d56" stroke-miterlimit="10" stroke-width="1"/>
  </g>
  <g id="Group_141" data-name="Group 141" transform="translate(287.843 102.636)" opacity="0.3">
    <ellipse id="Ellipse_76" data-name="Ellipse 76" cx="2.379" cy="5.494" rx="2.379" ry="5.494" transform="matrix(0.667, -0.745, 0.745, 0.667, 0.239, 4.308)" fill="#57b894"/>
    <ellipse id="Ellipse_77" data-name="Ellipse 77" cx="2.379" cy="5.494" rx="2.379" ry="5.494" transform="matrix(0.667, -0.745, 0.745, 0.667, 0, 3.546)" fill="none" stroke="#3f3d56" stroke-miterlimit="10" stroke-width="1"/>
  </g>
  <g id="Group_142" data-name="Group 142" transform="translate(238.903 75.107)" opacity="0.3">
    <ellipse id="Ellipse_78" data-name="Ellipse 78" cx="2.379" cy="5.494" rx="2.379" ry="5.494" transform="matrix(0.667, -0.745, 0.745, 0.667, 0.24, 4.308)" fill="#57b894"/>
    <ellipse id="Ellipse_79" data-name="Ellipse 79" cx="2.379" cy="5.494" rx="2.379" ry="5.494" transform="matrix(0.667, -0.745, 0.745, 0.667, 0, 3.546)" fill="none" stroke="#3f3d56" stroke-miterlimit="10" stroke-width="1"/>
  </g>
</svg>
