<svg xmlns="http://www.w3.org/2000/svg" width="285.146" height="142.108" viewBox="0 0 285.146 142.108"><path d="M394.286,707.041c-3.678,4.926-11.313,5.444-11.313,5.444s-1.672-7.468,2.006-12.394,11.313-5.444,11.313-5.444S397.965,702.115,394.286,707.041Z" transform="translate(-309.706 -573.043)" fill="#e6e6e6"/><path d="M350.378,726.611c2.427,3.25,7.465,3.593,7.465,3.593s1.1-4.928-1.324-8.178-7.465-3.593-7.465-3.593S347.951,723.361,350.378,726.611Z" transform="translate(-287.381 -590.761)" fill="#e6e6e6"/><path d="M65.744,639.2H0v-.537H65.841Z" transform="translate(0 -499.462)" fill="#3f3d56"/><rect width="43.788" height="65.364" transform="translate(241.358 15.23)" fill="#e6e6e6"/><rect width="39.111" height="58.383" transform="translate(243.696 18.721)" fill="#fff"/><rect width="1.893" height="6.553" transform="translate(269.286 51.293)" fill="#3f3d56"/><path d="M769.883,241.635l-4.712-5.665H756l-5.606,5.461.113.073h-.041v11.359h19.368V241.5Z" transform="translate(-497.413 -185.361)" fill="#3f3d56"/><path d="M791.822,235.684l-5.752,6.744v10.221h10.339v-11.5Z" transform="translate(-523.992 -185.141)" fill="#0093dd"/><rect width="2.112" height="1.866" transform="translate(266.228 61.101)" fill="#3f3d56"/><rect width="2.112" height="1.837" transform="translate(266.228 58.339)" fill="#3f3d56"/><rect width="2.112" height="1.866" transform="translate(266.228 61.101)" fill="#fff"/><rect width="2.112" height="1.837" transform="translate(266.228 58.339)" fill="#fff"/><path d="M942.2,423.383a.852.852,0,0,1,.973-.838" transform="translate(-681.554 -357.542)" fill="#e6e6e6"/><circle cx="0.464" cy="0.464" r="0.464" transform="translate(259.918 64.146)" fill="#85c226"/><rect width="0.131" height="0.918" transform="translate(260.306 65.214)" fill="#e6e6e6"/><rect width="43.788" height="65.364" transform="translate(160.852 15.23)" fill="#e6e6e6"/><rect width="39.111" height="58.383" transform="translate(162.93 18.721)" fill="#fff"/><path d="M916.027,280.92l1.127-.9a1.194,1.194,0,0,0-1.382.759,1.919,1.919,0,0,0-1.429.088l2.255.819A1.709,1.709,0,0,0,916.027,280.92Z" transform="translate(-660.804 -246.172)" fill="#3f3d56"/><path d="M725.25,274l1.127-.9a1.194,1.194,0,0,0-1.382.759,1.92,1.92,0,0,0-1.429.088l2.255.819A1.706,1.706,0,0,0,725.25,274Z" transform="translate(-540.292 -240.762)" fill="#3f3d56"/><path d="M976.158,247.54l1.127-.9a1.194,1.194,0,0,0-1.382.759,1.92,1.92,0,0,0-1.429.088l2.255.819A1.709,1.709,0,0,0,976.158,247.54Z" transform="translate(-705.597 -215.594)" fill="#3f3d56"/><rect width="1.893" height="6.553" transform="translate(190.607 45.784)" fill="#3f3d56"/><rect width="1.893" height="6.553" transform="translate(190.607 45.226)" fill="#3f3d56"/><path d="M524.939,218.666l-6.462-7.675H505.8l-7.748,7.547.156.1h-.056v15.7h26.766v-15.7Z" transform="translate(-331.242 -166.128)" fill="#3f3d56"/><path d="M555.309,210.6l-7.949,9.32v14.125h14.288v-15.9Z" transform="translate(-366.667 -165.824)" fill="#0093dd"/><rect width="2.918" height="2.825" transform="translate(183.336 59.054)" fill="#3f3d56"/><rect width="2.918" height="2.825" transform="translate(183.336 55.449)" fill="#3f3d56"/><rect width="2.918" height="2.825" transform="translate(183.336 59.054)" fill="#fff"/><rect width="2.918" height="2.825" transform="translate(183.336 55.449)" fill="#fff"/><rect width="2.918" height="2.825" transform="translate(188.795 59.054)" fill="#3f3d56"/><rect width="2.918" height="2.825" transform="translate(188.795 55.449)" fill="#3f3d56"/><rect width="2.918" height="2.825" transform="translate(188.795 59.054)" fill="#fff"/><rect width="2.918" height="2.825" transform="translate(188.795 55.449)" fill="#fff"/><circle cx="11.233" cy="11.233" r="11.233" transform="translate(116.408 0)" fill="#85c226"/><rect width="43.788" height="65.364" transform="translate(80.346 15.23)" fill="#e6e6e6"/><rect width="39.111" height="58.383" transform="translate(82.945 18.721)" fill="#fff"/><path d="M289.482,199.679l-7.886-9.391h-15.5l-9.474,9.228.192.123h-.068v19.195h32.729V199.639Z" transform="translate(-170.029 -150.133)" fill="#3f3d56"/><path d="M504.957,270.717l1.064-.851a1.128,1.128,0,0,0-1.305.717,1.813,1.813,0,0,0-1.349.083l2.129.773A1.612,1.612,0,0,0,504.957,270.717Z" transform="translate(-391.943 -238.232)" fill="#3f3d56"/><rect width="1.788" height="6.188" transform="translate(117.27 40.581)" fill="#3f3d56"/><path d="M326.635,189.806l-9.72,11.4v17.273h17.472V199.034Z" transform="translate(-211.928 -149.76)" fill="#0093dd"/><path d="M447.829,423.6a.8.8,0,0,1,.919-.791" transform="translate(-354.678 -357.744)" fill="#e6e6e6"/><circle cx="0.439" cy="0.439" r="0.439" transform="translate(92.271 64.254)" fill="#85c226"/><rect width="0.124" height="0.867" transform="translate(92.673 65.263)" fill="#e6e6e6"/><path d="M463.192,423.6a.8.8,0,0,1,.919-.791" transform="translate(-365.039 -357.744)" fill="#e6e6e6"/><circle cx="0.439" cy="0.439" r="0.439" transform="translate(97.274 64.254)" fill="#85c226"/><rect width="0.124" height="0.867" transform="translate(97.671 65.263)" fill="#e6e6e6"/><path d="M426.806,423.6a.8.8,0,0,1,.919-.791" transform="translate(-340.5 -357.744)" fill="#e6e6e6"/><circle cx="0.439" cy="0.439" r="0.439" transform="translate(85.427 64.254)" fill="#85c226"/><rect width="0.124" height="0.867" transform="translate(85.833 65.263)" fill="#e6e6e6"/><rect width="3.568" height="3.649" transform="translate(106.335 52.998)" fill="#3f3d56"/><rect width="3.568" height="3.649" transform="translate(106.335 57.237)" fill="#3f3d56"/><rect width="3.568" height="3.649" transform="translate(106.335 52.998)" fill="#fff"/><rect width="3.568" height="3.649" transform="translate(106.335 57.237)" fill="#fff"/><rect width="3.568" height="3.649" transform="translate(112.651 52.998)" fill="#3f3d56"/><rect width="3.568" height="3.649" transform="translate(112.651 57.237)" fill="#3f3d56"/><rect width="3.568" height="3.649" transform="translate(112.651 52.998)" fill="#fff"/><rect width="3.568" height="3.649" transform="translate(112.651 57.237)" fill="#fff"/><rect width="3.568" height="3.649" transform="translate(118.967 52.998)" fill="#3f3d56"/><rect width="3.568" height="3.649" transform="translate(118.967 57.237)" fill="#3f3d56"/><rect width="3.568" height="3.649" transform="translate(118.967 52.998)" fill="#fff"/><rect width="3.568" height="3.649" transform="translate(118.967 57.237)" fill="#fff"/><path d="M559.934,419.18H396.649s33.153-7.983,81.983-7.893l.822,0q1.461.005,2.939.02,1.157.012,2.323.031l1.01.016.4.007.935.019q.881.018,1.768.04.777.019,1.562.042c.2,0,.4.011.6.018q1.422.041,2.855.094l.666.025c.306.011.614.024.92.035l1.216.051c.527.022,1.053.046,1.58.071q1.655.076,3.33.167,1.244.065,2.5.141l1.068.066q.819.049,1.642.1l1.049.071c.422.028.843.058,1.265.088l1.267.093,1.272.1c.426.033.85.066,1.276.1s.841.068,1.263.1q2.7.224,5.434.488c.349.033.7.067,1.053.1s.726.072,1.09.109q.76.076,1.526.158l1.314.14c.4.042.8.086,1.194.131l.124.014c.439.048.88.1,1.319.149l1.325.154q.664.078,1.329.159l1.333.164,1.04.131.518.066,1.119.146,1.342.178.15.02q1.042.141,2.085.287l.285.04q.546.076,1.092.155l1.094.159.045.006c.516.075,1.03.152,1.548.231q.386.056.771.116c.353.053.7.107,1.057.162l.694.109c.171.025.342.052.512.08q.541.083,1.083.172l1.008.163.028,0,.24.039.74.122.764.128.672.114.019,0,.1.016c.259.044.518.087.777.133l.779.135.079.013q.3.051.6.106s0,0,0,0c.114.019.229.04.344.06l.918.164.593.107,1.654.3c.552.1,1.105.206,1.657.311.332.062.663.126.995.191q.467.088.935.18C559,419,559.47,419.087,559.934,419.18Z" transform="translate(-275.164 -349.217)" fill="#e6e6e6"/><path d="M396.649,442.231" transform="translate(-320.231 -372.875)" fill="none" stroke="#3f3d56" stroke-miterlimit="10" stroke-width="2"/><path d="M559.712,418.685c-.414-.083-.83-.163-1.244-.244l-.153-.03q-.467-.092-.933-.18c-.333-.065-.663-.128-.994-.191q-.828-.157-1.657-.31-.724-.134-1.448-.265l-.2-.037-.506-.091-.086-.016-.834-.149-.129-.023v0l-.3-.055-.016,0-.029-.005-.554-.1-.069-.012-.789-.137c-.247-.044-.493-.085-.739-.127l-.037-.006-.091-.016-.618-.1-1.848-.307-1.007-.163q-.543-.088-1.081-.172c-.172-.028-.341-.055-.51-.08l-.7-.11c-.352-.055-.7-.109-1.055-.162q-.386-.06-.771-.116c-.519-.079-1.033-.155-1.548-.23l-.045-.006-.7-.1-.392-.056q-.545-.079-1.091-.155l-.285-.04q-1.045-.146-2.084-.287l-.126-.017-4.04-.523-1.332-.163q-.664-.081-1.327-.159l-1.325-.154c-.439-.051-.88-.1-1.318-.149l-.125-.014c-.4-.044-.8-.088-1.192-.13q-.617-.068-1.229-.131l-.085-.009q-.766-.081-1.525-.157l-1.09-.109c-.351-.035-.7-.069-1.052-.1-1.785-.173-3.612-.337-5.431-.488-.43-.036-.846-.071-1.262-.1s-.85-.068-1.276-.1l-1.272-.1-1.135-.083-.131-.009c-.422-.031-.842-.06-1.263-.088l-1.049-.071q-.821-.055-1.641-.1l-.1-.006-.972-.06q-1.251-.074-2.494-.141-1.672-.092-3.328-.167c-.527-.025-1.052-.048-1.579-.071l-1.1-.046-.423-.017-.608-.023-.667-.025q-1.432-.053-2.852-.094c-.2-.007-.4-.013-.6-.018-.525-.015-1.044-.03-1.562-.042l-1.767-.04-1.336-.026-1.009-.017c-.779-.013-1.552-.022-2.323-.031q-1.477-.016-2.937-.02h-.075l-.746,0h-.814c-47.8,0-80.78,7.807-81.109,7.886l-.119-.5c.33-.079,33.369-7.9,81.229-7.9h.815l.748,0h.075q1.462.005,2.941.02,1.158.012,2.325.031l1.01.017,1.338.026q.881.018,1.768.04.778.019,1.563.042c.2,0,.4.011.6.018q1.42.041,2.855.094l.666.025.61.023.423.017,1.1.046c.528.022,1.053.046,1.581.071q1.656.076,3.332.167,1.244.065,2.5.141l.974.06.095.006q.819.05,1.643.1l1.049.071c.422.028.844.058,1.266.088l.131.01,1.137.083,1.273.1c.427.033.851.066,1.278.1s.833.067,1.251.1c1.833.152,3.662.317,5.449.489.349.033.7.067,1.054.1s.726.072,1.091.11q.76.076,1.527.157l.084.009,1.23.131c.4.042.8.086,1.194.131l.124.014c.438.048.88.1,1.32.149l1.326.154q.665.078,1.33.159l1.333.164,4.048.524.118.016c.7.095,1.395.19,2.091.288l.284.04q.548.076,1.095.156l.391.057.7.1c.006,0,.026,0,.047.006q.771.112,1.547.23.385.056.772.117c.352.053.7.107,1.057.162l.695.109c.169.024.342.052.515.08q.537.082,1.082.172l1.008.163a.394.394,0,0,1,.048.009l1.8.3.574.1.047.007.091.016.033.005c.248.042.495.083.742.127l.779.135.077.013.515.09.053-.029.086.053.177.031.2.036.835.149.086.015.508.092.2.037,1.45.265c.552.1,1.106.206,1.658.311q.5.093,1,.191c.311.059.623.119.935.18l.152.03c.415.081.832.162,1.246.245Z" transform="translate(-274.991 -348.469)" fill="#3f3d56"/><circle cx="19.232" cy="19.232" r="19.232" transform="translate(214.562 4.229)" fill="#0093dd"/><path d="M799.435,166.586a19.233,19.233,0,0,1-32.046,20.355,19.234,19.234,0,1,0,32.046-20.355Z" transform="translate(-551.335 -155.971)" opacity="0.2"/><path d="M672.463,91.974h.053l.951,54.526h-2.008Z" transform="translate(-452.591 -68.513)" fill="#3f3d56"/><rect width="0.951" height="3.593" transform="translate(223.527 44.723) rotate(62.234)" fill="#3f3d56"/><path d="M656.934,428.073a1.53,1.53,0,0,1,1.746-1.5" transform="translate(-495.566 -360.727)" fill="#85c226"/><circle cx="0.833" cy="0.833" r="0.833" transform="translate(159.69 64.305)" fill="#85c226"/><rect width="0.235" height="1.647" transform="translate(160.358 66.22)" fill="#3f3d56"/><path d="M775.907,429.457a1.53,1.53,0,0,1,1.746-1.5" transform="translate(-575.768 -361.808)" fill="#85c226"/><circle cx="0.833" cy="0.833" r="0.833" transform="translate(198.457 64.607)" fill="#85c226"/><rect width="0.235" height="1.647" transform="translate(199.071 66.522)" fill="#3f3d56"/><path d="M579.924,417.928a1.53,1.53,0,0,1,1.746-1.5" transform="translate(-443.651 -352.796)" fill="#0093dd"/><circle cx="0.833" cy="0.833" r="0.833" transform="translate(134.596 62.091)" fill="#0093dd"/><rect width="0.235" height="1.647" transform="translate(135.299 64.006)" fill="#3f3d56"/><path d="M630.188,409.167a1.53,1.53,0,0,1,1.746-1.5" transform="translate(-477.535 -345.947)" fill="#85c226"/><path d="M.833,0A.833.833,0,1,1,0,.833.833.833,0,0,1,.833,0Z" transform="translate(150.975 60.179)" fill="#85c226"/><rect width="0.235" height="1.647" transform="translate(151.655 62.094)" fill="#3f3d56"/><path d="M756.078,421.617a1.53,1.53,0,0,1,1.746-1.5" transform="translate(-562.401 -355.68)" fill="#85c226"/><circle cx="0.833" cy="0.833" r="0.833" transform="translate(191.996 62.896)" fill="#85c226"/><rect width="0.235" height="1.647" transform="translate(192.619 64.811)" fill="#3f3d56"/><path d="M659.883,140.605l1.083-.866a1.148,1.148,0,0,0-1.328.729,1.844,1.844,0,0,0-1.373.085l2.167.787A1.637,1.637,0,0,0,659.883,140.605Z" transform="translate(-496.311 -135.963)" fill="#3f3d56"/><path d="M724.442,175.19l1.083-.866a1.147,1.147,0,0,0-1.328.729,1.845,1.845,0,0,0-1.373.085l2.167.787A1.639,1.639,0,0,0,724.442,175.19Z" transform="translate(-539.812 -161.726)" fill="#3f3d56"/><path d="M654.81,204.7l1.083-.866a1.147,1.147,0,0,0-1.328.729,1.844,1.844,0,0,0-1.373.085l2.167.787A1.638,1.638,0,0,0,654.81,204.7Z" transform="translate(-492.893 -183.71)" fill="#3f3d56"/><ellipse cx="2.109" cy="3.163" rx="2.109" ry="3.163" transform="translate(34.165 66.81) rotate(-17.267)" fill="#2f2e41"/><path d="M213.8,388.154s-.633,12.652.633,21.086,2.741,16.447,2.741,16.447,3.585-2.741,5.693-1.9l-3.8-29.31Z" transform="translate(-200.407 -333.429)" fill="#0093dd"/><circle cx="6.959" cy="6.959" r="6.959" transform="translate(19.827 33.254)" fill="#ffb8b8"/><path d="M78.614,188.784l-2.952,7.591,4.217,1.9,4.217-7.591Z" transform="translate(-56.362 -147.932)" fill="#ffb8b8"/><path d="M199.166,336.293h0s-4.211-2.794-6.109-1.74l-1.687,4.006s-5.9,7.38-3.585,12.863,7.591,11.808,7.591,11.808l.633,2.952s-8.224,10.754-7.38,18.767l-9.911,26.991s5.482,2.32,23.828,3.163,18.345,0,18.345,0-2.319-44.914-9.489-52.083l-1.054-3.374s1.476-9.489-1.9-13.5l-1.14-2.28A15.883,15.883,0,0,0,199.166,336.293Z" transform="translate(-174.39 -295.872)" fill="#2f2e41"/><path d="M300.237,517.745l.422,5.693s-.633,7.38,3.585,5.9.843-9.7.843-9.7l-.633-2.53Z" transform="translate(-264.911 -432.546)" fill="#ffb8b8"/><path d="M173.04,634.5l-2.32,22.562s-2.952,1.687-1.476,6.326,1.054,6.959,1.054,6.959l1.476-.422.633-5.693s2.478,3.163,4.639,3.8c1.5.439,3.053.777,4.073-.4a2.751,2.751,0,0,0-1.028-4.256,3.458,3.458,0,0,0-.515-.194c-1.476-.422-2.952-6.115-2.952-6.115l2.53-10.332,3.8-11.387Z" transform="translate(-167.025 -528.237)" fill="#2f2e41"/><path d="M285.466,634.5l-2.319,22.562s-2.952,1.687-1.476,6.326,1.054,6.959,1.054,6.959l1.476-.422.633-5.693s2.478,3.163,4.639,3.8c1.5.439,3.053.777,4.073-.4a2.751,2.751,0,0,0-1.028-4.256,3.455,3.455,0,0,0-.515-.194c-1.476-.422-2.952-6.115-2.952-6.115l2.53-10.332,3.8-11.387Z" transform="translate(-250.773 -528.237)" fill="#2f2e41"/><path d="M251.78,357.294s-5.061,2.952-3.585,9.7S260,402.63,260,402.63a7.031,7.031,0,0,1,6.959-1.687l-9.489-36.48S258.107,356.24,251.78,357.294Z" transform="translate(-225.944 -309.63)" opacity="0.4"/><path d="M255.088,352.335s-5.061,2.952-3.585,9.7,11.808,35.636,11.808,35.636a7.032,7.032,0,0,1,6.959-1.687l-9.489-36.48S261.414,351.281,255.088,352.335Z" transform="translate(-228.407 -305.687)" fill="#0093dd"/><path d="M239.282,278.166s1.072-8.343-7.675-5.607c0,0-6.247-1.146-8.3,6.668l-2.074,8.191,1.011-.55.471,1.03,1.638.415.7-1.391.339,1.69,13.417,1.338s-6.009-3.554-6.1-9.923l1.145,1.21Z" transform="translate(-206.063 -240.516)" fill="#2f2e41"/><circle cx="3.374" cy="3.374" r="3.374" transform="translate(14.977 29.584)" fill="#2f2e41"/><path d="M237.472,261.95A3.371,3.371,0,0,0,234.1,258.8c.07-.009.139-.02.21-.024a3.374,3.374,0,0,1,.433,6.734c-.071,0-.141,0-.211,0A3.371,3.371,0,0,0,237.472,261.95Z" transform="translate(-215.644 -229.724)" fill="#2f2e41"/><ellipse cx="1.054" cy="1.476" rx="1.054" ry="1.476" transform="translate(25.731 38.893)" fill="#ffb8b8"/></svg>