<svg xmlns="http://www.w3.org/2000/svg" width="286.17" height="142.619" viewBox="0 0 286.17 142.619"><g transform="translate(0 0)"><path d="M720.009,383.491H594.715a6.466,6.466,0,0,1-6.181-6.705v-91.37a3.754,3.754,0,0,1,2.041-3.4l47.346-28.107a19.158,19.158,0,0,1,16.7-.017l69.508,28.121a3.754,3.754,0,0,1,2.054,3.409v91.367A6.465,6.465,0,0,1,720.009,383.491Z" transform="translate(-461.493 -241.151)" fill="#f2f2f2"/><path d="M701.622,474.574H594.03a5.1,5.1,0,0,1-5.329-4.826v-65.13a2.706,2.706,0,0,1,1.776-2.473l50.1-20.039a19.5,19.5,0,0,1,14.332-.007l50.267,20.048a2.706,2.706,0,0,1,1.779,2.474v65.128A5.1,5.1,0,0,1,701.622,474.574Z" transform="translate(-461.607 -332.336)" fill="#0093dd"/><circle cx="15.765" cy="15.765" r="15.765" transform="translate(70.515 43.884)" fill="#85c226"/><ellipse cx="19.967" cy="24.993" rx="19.967" ry="24.993" transform="translate(72.47 66.23)" fill="#f2f2f2"/><path d="M317.688,282.238h.055l.987,56.61h-2.084Z" transform="translate(-225.828 -196.782)" fill="#ccc"/><path d="M424.529,619.053h0a.494.494,0,0,1-.207.667l-2.864,1.508-.46-.874,2.864-1.508A.494.494,0,0,1,424.529,619.053Z" transform="translate(-329.377 -496.119)" fill="#ccc"/><ellipse cx="19.967" cy="24.993" rx="19.967" ry="24.993" transform="translate(22.403 66.23)" fill="#f2f2f2"/><path d="M238.506,537.922h0a.494.494,0,0,0-.667-.207l-2,1.052-.685-39.259H235.1l-1.042,56.61h2.084l-.283-16.245,2.44-1.284A.494.494,0,0,0,238.506,537.922Z" transform="translate(-192.675 -414.052)" fill="#ccc"/><path d="M273.271,331c13.973,0,25.331,25.423,25.331,42.311s-11.328,30.579-25.3,30.579S248,390.2,248,373.311,259.3,331,273.271,331Z" transform="translate(-202.267 -295.518)" fill="#0093dd"/><path d="M330.722,499.715a.626.626,0,0,0-.845-.262l-2.533,1.334-.867-49.746h-.069l-1.321,71.732h2.641l-.359-20.584,3.092-1.628A.625.625,0,0,0,330.722,499.715Z" transform="translate(-261.001 -380.706)" fill="#3f3d56"/><path d="M645.6,515.889v-6.736a3.313,3.313,0,0,0-3.313-3.313h-17a3.313,3.313,0,0,0-3.312,3.313v6.736Z" transform="translate(-473.653 -417.541)" fill="#fff"/><path d="M621.974,541.439v10.438a3.312,3.312,0,0,0,3.313,3.313h17a3.312,3.312,0,0,0,3.313-3.313V541.439Z" transform="translate(-473.653 -442.302)" fill="#fff"/><path d="M687.241,402.215l-51.033-18.708a13.959,13.959,0,0,0-9.608,0l-51.033,18.708A7.117,7.117,0,0,1,566,395.532h0a7.118,7.118,0,0,1,4.668-6.683l55.933-20.5a13.958,13.958,0,0,1,9.608,0l55.933,20.5a7.118,7.118,0,0,1,4.668,6.683h0a7.117,7.117,0,0,1-9.568,6.682Z" transform="translate(-445.989 -321.732)" fill="#3f3d56"/><path d="M759.932,585.585h-13.64a5.466,5.466,0,0,1-5.46-5.46V547.094a5.466,5.466,0,0,1,5.46-5.46h13.64a5.466,5.466,0,0,1,5.46,5.46v33.032A5.466,5.466,0,0,1,759.932,585.585Zm-13.64-43.015a4.529,4.529,0,0,0-4.524,4.524v33.032a4.529,4.529,0,0,0,4.524,4.524h13.64a4.529,4.529,0,0,0,4.524-4.524V547.094a4.529,4.529,0,0,0-4.524-4.524Z" transform="translate(-558.702 -443.035)" fill="#3f3d56"/><path d="M762.931,296.625a9.87,9.87,0,0,0-19.662,0Z" transform="translate(-560.151 -266.1)" fill="#fff"/><path d="M743.151,319.842a9.869,9.869,0,1,0,19.737,0Z" transform="translate(-560.071 -288.455)" fill="#fff"/><path d="M758.23,341.682H741.659a2.977,2.977,0,1,1,0-5.953H758.23a2.977,2.977,0,1,1,0,5.953Z" transform="translate(-557.042 -299.461)" fill="#ccc"/><path d="M616.663,574.713a2.665,2.665,0,0,0,0,5.329h23.271a2.665,2.665,0,0,0,0-5.329Z" transform="translate(-468.193 -465.267)" fill="#ccc"/><path d="M854.216,541.439v10.438a3.313,3.313,0,0,0,3.313,3.313h17a3.312,3.312,0,0,0,3.313-3.313V541.439Z" transform="translate(-639.723 -442.302)" fill="#fff"/><path d="M877.839,515.889v-6.736a3.313,3.313,0,0,0-3.312-3.313h-17a3.313,3.313,0,0,0-3.312,3.313v6.736Z" transform="translate(-639.722 -417.541)" fill="#fff"/><circle cx="1.939" cy="1.939" r="1.939" transform="translate(200.252 117.754)" fill="#3f3d56"/><path d="M479.141,369.273,471.5,357.391l.353-.227,7.248,11.275,5.906-11.259.372.195Z" transform="translate(-336.741 -248.332)" fill="#3f3d56"/><path d="M547.615,553.414H529.445V553.1a3.886,3.886,0,0,0-3.886-3.886h0a3.886,3.886,0,0,0-3.886,3.886v.315h-1.786a3.886,3.886,0,1,0,0,7.772h1.786v29.369c7.744-.155-.056.157,7.772,0V561.186h18.171a3.886,3.886,0,0,0,0-7.772Z" transform="translate(-398.357 -448.249)" fill="#3f3d56"/><circle cx="1.47" cy="1.47" r="1.47" transform="translate(126.216 108.063)" fill="#fff"/><path d="M581.081,612h-16.8a3,3,0,0,1-2.993-2.993v-5.458a3,3,0,0,1,2.993-2.993h16.8a3,3,0,0,1,2.993,2.993v5.459A3,3,0,0,1,581.081,612Z" transform="translate(-430.22 -483.576)" fill="#ccc"/><rect width="13.024" height="2.311" rx="1.155" transform="translate(135.85 121.34)" fill="#0093dd"/><path d="M387.359,681.666H101.634a.242.242,0,0,1,0-.482H387.36a.242.242,0,0,1,0,.482Z" transform="translate(-101.412 -539.047)" fill="#ccc"/><path d="M870.922,579.666h-23.27a2.977,2.977,0,1,1,0-5.953h23.27a2.977,2.977,0,1,1,0,5.953Z" transform="translate(-633.3 -464.582)" fill="#ccc"/><path d="M862.5,265.3s-5.643-.4-17.159-.936C831.612,240.345,787,234.555,787,217.271h54.836a20.687,20.687,0,0,1,20.687,20.687Z" transform="translate(-598.039 -217.271)" fill="#ccc"/><path d="M875.523,237.514a.469.469,0,0,0-.468.468v15.624a.469.469,0,0,0,.468.468h9.732a.468.468,0,0,0,.468-.468V237.982a.468.468,0,0,0-.468-.468Z" transform="translate(-653.721 -231.198)" fill="#f2f2f2"/><path d="M695.825,264.044l-51.033-30.759a13.958,13.958,0,0,0-9.608,0l-51.033,30.759a7.117,7.117,0,0,1-9.567-6.683h0a7.117,7.117,0,0,1,4.668-6.683l55.932-32.555a13.958,13.958,0,0,1,9.608,0l55.932,32.555a7.117,7.117,0,0,1,4.668,6.682h0a7.117,7.117,0,0,1-9.567,6.683Z" transform="translate(-451.895 -217.27)" fill="#ccc"/></g></svg>