<svg xmlns="http://www.w3.org/2000/svg" width="260" height="68.637" viewBox="0 0 260 68.637"><g transform="translate(-67.5 -201.855)"><g transform="translate(77.507 210.749)"><path d="M111.347,214.454a7.707,7.707,0,0,1,8.905,8.976,7.546,7.546,0,0,1-5.129,5.842,7.671,7.671,0,0,1-9.974-8.691A7.489,7.489,0,0,1,111.347,214.454Z" transform="translate(-88.298 -214.339)" fill="#fff"/><path d="M86.974,233.372A21.814,21.814,0,0,1,97.945,222.9a30.989,30.989,0,0,0-5.557,8.549,25.481,25.481,0,0,0-1.639,13.037,9.957,9.957,0,0,0-5.842,1.639A21.333,21.333,0,0,1,86.974,233.372Z" transform="translate(-82.448 -216.801)" fill="#fff"/><path d="M127.994,222.9a22.136,22.136,0,0,1,10.757,10.259,22.666,22.666,0,0,1,2.208,12.966,27.973,27.973,0,0,0-6.127-11.114A27.478,27.478,0,0,0,127,229.169c-.071-.5.356-.926.5-1.425A9.3,9.3,0,0,0,127.994,222.9Z" transform="translate(-94.616 -216.801)" fill="#fff"/><path d="M87.284,255.407a7.652,7.652,0,0,1,6.625,1.425,7.658,7.658,0,0,1-8.976,12.4,7.625,7.625,0,0,1-3.348-7.053A7.757,7.757,0,0,1,87.284,255.407Z" transform="translate(-81.547 -226.084)" fill="#fff"/><path d="M134.83,255.344a7.873,7.873,0,0,1,6.483,1.639,7.648,7.648,0,0,1-2.422,13.037,7.919,7.919,0,0,1-6.91-.926,7.62,7.62,0,0,1-3.135-7.623A7.5,7.5,0,0,1,134.83,255.344Z" transform="translate(-95.111 -226.092)" fill="#fff"/><path d="M98.4,275.388a25.922,25.922,0,0,0,20.731-4.488,10.138,10.138,0,0,0,3.99,4.488A22.294,22.294,0,0,1,98.4,275.388Z" transform="translate(-86.394 -230.605)" fill="#fff"/></g><g transform="translate(67.5 201.856)"><path d="M81.535,201.887c13.393-.071,26.787,0,40.109,0a15.164,15.164,0,0,1,14.533,14.391c0,13.322.071,26.644,0,39.966a15.265,15.265,0,0,1-14.248,14.248H81.321A15.307,15.307,0,0,1,67.5,255.959V217.418a15.96,15.96,0,0,1,.712-4.844,15.285,15.285,0,0,1,13.322-10.686m19.021,8.976a7.749,7.749,0,0,0-6.2,6.127A7.685,7.685,0,1,0,107.324,213a7.537,7.537,0,0,0-6.768-2.137M82.033,227.32A22.322,22.322,0,0,0,79.967,240a10.1,10.1,0,0,1,5.842-1.639,26.262,26.262,0,0,1,1.639-13.037A28.059,28.059,0,0,1,93,216.777,21.963,21.963,0,0,0,82.033,227.32m28.853-10.473a9.3,9.3,0,0,1-.5,4.844c-.142.5-.57.926-.5,1.425a27.477,27.477,0,0,1,7.837,5.842,27.126,27.126,0,0,1,6.127,11.114,22.666,22.666,0,0,0-2.208-12.966,22.136,22.136,0,0,0-10.757-10.259M83.244,240.073a7.6,7.6,0,0,0-5.7,6.768A7.629,7.629,0,0,0,88.8,254.25a7.677,7.677,0,0,0-5.557-14.177M117.227,240a7.646,7.646,0,0,0-2.85,13.75,7.484,7.484,0,0,0,6.91.926,7.648,7.648,0,0,0,2.422-13.037A7.936,7.936,0,0,0,117.227,240M89.514,255.532a22.294,22.294,0,0,0,24.721,0,9.775,9.775,0,0,1-3.99-4.488A25.863,25.863,0,0,1,89.514,255.532Z" transform="translate(-67.5 -201.856)" fill="#2b9bff"/></g><g transform="translate(297.531 219.102)"><path d="M393.389,226.232a4.12,4.12,0,1,1,1.639,8.05,4.12,4.12,0,0,1-1.639-8.05Z" transform="translate(-390.389 -226.064)" fill="red"/></g><g transform="translate(144.227 219.484)"><path d="M417.676,226.6h1.14v8.406h5.842a15.925,15.925,0,0,1,0,5.2h-5.842v10.33c.071,1.354.285,3.063,1.567,3.776a8.133,8.133,0,0,0,4.7.071,10.517,10.517,0,0,1,.356,5.343c-3.348.712-7.2.926-10.259-.926-2.28-1.354-3.063-4.061-3.135-6.554-.071-3.99,0-7.979,0-12.04h-3.135c-.071-.356-.143-.641-.214-1Z" transform="translate(-242.351 -226.6)" fill="#191919"/><path d="M180.044,230.761a15.316,15.316,0,0,1,11.042-2.992,13.031,13.031,0,0,1,8.905,4.488,17.355,17.355,0,0,1-4.417,4.417c-2.28-2.707-6.412-3.206-9.618-2.066-1.852.57-3.063,3.348-1.425,4.773,2.422,1.924,5.771,1.5,8.62,2.565,2.565.926,5.272,2.351,6.412,4.916a9.318,9.318,0,0,1-.641,9.048,12.874,12.874,0,0,1-7.837,4.844c-5.628.926-11.826-.5-15.887-4.631a14.514,14.514,0,0,1,4.417-4.417c1.924,2.137,4.916,2.921,7.694,3.063a7.517,7.517,0,0,0,4.773-1.211,3.411,3.411,0,0,0,0-5.058,8.947,8.947,0,0,0-4.773-1.639,17.67,17.67,0,0,1-8.122-2.85c-1.995-1.425-2.707-3.99-2.707-6.269A9.012,9.012,0,0,1,180.044,230.761Z" transform="translate(-175.2 -226.914)" fill="#191919"/><path d="M218.5,228.292a23.881,23.881,0,0,1,7.124,0v12.538h11.612V228.292a23.881,23.881,0,0,1,7.124,0v32.059a23.879,23.879,0,0,1-7.124,0V246.459H225.624v13.892a23.879,23.879,0,0,1-7.124,0Z" transform="translate(-187.652 -227.01)" fill="#191919"/><path d="M277.732,228.071a30.094,30.094,0,0,1,6.2.214c3.562,10.686,7.267,21.372,10.829,32.059a26.315,26.315,0,0,1-7.48,0c-.356-.855-.641-1.639-.926-2.493H273.6c.5-1.781,1.069-3.633,1.567-5.414h9.475C282.363,244.314,280.012,236.193,277.732,228.071Z" transform="translate(-203.498 -227.003)" fill="#191919"/><path d="M310.3,228.374a56.723,56.723,0,0,1,13.892-.214c2.921.427,5.984,1.5,7.979,3.776a9.5,9.5,0,0,1,1.5,9.119,10.983,10.983,0,0,1-5.272,5.771c2.85,4.488,5.628,9.048,8.406,13.536a28.867,28.867,0,0,1-7.837,0c-3.063-4.987-6.056-9.9-9.048-14.889,1.995-.926,4.2-1.781,5.628-3.562,1.852-2.208,1.5-6.2-1.14-7.694-2.137-1.282-4.7-.926-7.053-.855v27.072a29.2,29.2,0,0,1-7.053,0Z" transform="translate(-214.053 -226.949)" fill="#191919"/><path d="M272.542,228.371c.285,0,.784-.071,1-.071.712,2.636,1.5,5.272,2.208,7.908-2.351,8.122-4.916,16.172-7.338,24.293a22.478,22.478,0,0,1-6.91,0C265.2,249.744,268.838,239.057,272.542,228.371Z" transform="translate(-200.019 -227.089)" fill="#191919"/><path d="M354.4,228.4h19.734a14.583,14.583,0,0,1,0,5.557H361.453v6.91H371.5a14.953,14.953,0,0,1,0,5.628H361.453V254.9H374.49a14.58,14.58,0,0,1,0,5.557H354.471C354.4,249.772,354.4,239.086,354.4,228.4Z" transform="translate(-226.735 -227.118)" fill="#191919"/><path d="M387.9,241.7h9.974v22.584a21.115,21.115,0,0,1-6.7,0V246.972h-3.206A11.955,11.955,0,0,1,387.9,241.7Z" transform="translate(-236.294 -230.943)" fill="#191919"/></g></g></svg>