<svg xmlns="http://www.w3.org/2000/svg" xmlns:xlink="http://www.w3.org/1999/xlink" width="696" height="738" viewBox="0 0 696 738"><defs><clipPath id="a"><rect width="696" height="738" fill="none"/></clipPath></defs><g clip-path="url(#a)"><g transform="translate(0.239)"><g transform="translate(0 34.495)"><path d="M193.839,646.259c37.18-32.122,40.909-85.02,34.507-131.547-1.072-7.779-1.072-16.005-5.474-22.535s-13.556-10.243-20.2-6.242c-5.506,3.329-7.33,10.323-10,16.229a45.871,45.871,0,0,1-16.469,19.35c-4.706,3.089-10.675,5.3-15.861,3.089-7.106-3.009-8.851-12.212-9.6-19.975q-2.113-21.7-4.209-43.374c-.752-7.763-1.6-15.685-4.8-22.791s-9.2-13.4-16.789-14.693-16.1,3.873-16.966,11.572c-.32,3.2.656,6.4.784,9.6s-1.024,6.962-3.985,8.179-6.322-.656-8.883-2.689c-8.8-6.994-15.285-16.517-21.383-26.025S62.4,405.2,54.258,397.346s-18.87-13.508-30.042-13S1.921,393.072.24,404.26s5.826,21.655,13.684,29.786A174.457,174.457,0,0,0,53.506,464.68c2.625,1.473,5.458,3.073,6.69,5.858,2.225,4.994-2.145,10.627-7.074,12.8-5.586,2.529-11.908,2.577-17.894,3.905s-12.244,4.674-13.941,10.628c-2.353,8.243,5.138,15.877,12.212,20.647a148.944,148.944,0,0,0,46.527,20.855c5.906,1.5,12.1,2.721,17.11,6.242s8.515,10.227,6.306,16.005-9.171,8.227-15.269,7.73-11.764-3.2-17.606-4.8c-11.06-2.913-24.744-.768-30.618,9.139-3.857,6.53-3.393,15-.368,21.975s8.243,12.724,13.716,17.942c19.206,18.278,42.67,32.154,68.278,38.172s48.736,5.97,72.376-5.538" transform="translate(-0.002 17.505)" fill="#f5f5f5"/><path d="M198.017,680.814a342.514,342.514,0,0,0-19.206-62.6c-9.3-22.855-21.575-47.055-35.211-71.943l-10.227-18.39c-3.361-6.018-6.706-12-10.323-17.606a351.754,351.754,0,0,0-22.711-31.242c-7.7-9.6-15.365-18.406-22.583-26.585S63.621,436.767,57.043,430.2a277.518,277.518,0,0,0-33.291-28.633c-4.177-3.057-7.506-5.33-9.779-6.834L11.2,393.008a5.876,5.876,0,0,0-.912-.544,4.274,4.274,0,0,0,.832.656l2.513,1.825c2.225,1.6,5.49,3.921,9.6,7.042a293.652,293.652,0,0,1,32.923,28.921c6.5,6.578,13.332,14.1,20.535,22.311S91.486,470.266,99.1,479.853a350.022,350.022,0,0,1,22.551,31.162c3.6,5.618,6.9,11.54,10.275,17.606l10.211,18.374c13.7,24.856,25.976,48.992,35.324,71.751a348.389,348.389,0,0,1,19.558,62.276" transform="translate(-0.002 17.505)" fill="#e0e0e0"/><path d="M122.5,510.231a16.005,16.005,0,0,0,.416-3.393c.176-2.177.352-5.346.5-9.267.3-7.827.336-18.662.352-30.6s.192-22.743.608-30.554c.208-3.905.4-7.058.56-9.235a15.813,15.813,0,0,0,0-3.409,15.479,15.479,0,0,0-.64,3.345c-.32,2.161-.672,5.314-.992,9.235-.688,7.811-1.056,18.646-1.056,30.6v39.869A15.892,15.892,0,0,0,122.5,510.231Z" transform="translate(-0.002 1.329)" fill="#e0e0e0"/><path d="M20.9,501.876a19.651,19.651,0,0,0,4.017.08c2.593,0,6.322-.112,10.932,0,9.235,0,21.991.56,36.028,1.729s26.713,2.833,35.836,4.273c4.561.688,8.243,1.344,10.8,1.777a22.082,22.082,0,0,0,3.985.56,20.81,20.81,0,0,0-3.889-1.1c-2.513-.608-6.178-1.424-10.74-2.241-9.107-1.713-21.8-3.505-35.884-4.706a355.011,355.011,0,0,0-36.14-1.313c-4.642.08-8.371.3-10.964.512a21.364,21.364,0,0,0-3.985.432Z" transform="translate(-0.002 3.275)" fill="#e0e0e0"/><path d="M177.354,616.521a5.139,5.139,0,0,0,.56-1.3c.352-1.024.8-2.257,1.328-3.777,1.136-3.2,2.673-8.1,4.481-14.053,3.633-11.908,8.131-28.521,12.8-46.927s9.059-35.051,12.436-47.023c1.6-5.826,3.025-10.611,4.049-14.181.432-1.6.784-2.817,1.072-3.857a4.8,4.8,0,0,0,.288-1.376,5.169,5.169,0,0,0-.56,1.28c-.368,1.024-.8,2.273-1.328,3.793-1.152,3.281-2.673,8.083-4.5,14.053-3.617,11.908-8.115,28.521-12.8,46.927s-9.059,35.051-12.436,47.023c-1.6,5.826-3.025,10.611-4.033,14.165-.432,1.6-.784,2.817-1.088,3.873a5.106,5.106,0,0,0-.272,1.376Z" transform="translate(-0.002 17.505)" fill="#e0e0e0"/><path d="M40.493,587.488a5.249,5.249,0,0,0,1.36.416l3.985.88,14.661,3.2c12.372,2.657,29.418,6.5,48.256,10.788s35.948,8,48.384,10.387c6.226,1.2,11.2,2.113,14.757,2.673l4.033.624a5.6,5.6,0,0,0,1.424.128,5.567,5.567,0,0,0-1.376-.416l-3.985-.88-14.645-3.2c-12.388-2.657-29.434-6.5-48.272-10.788s-35.948-8-48.384-10.387c-6.21-1.2-11.2-2.113-14.757-2.673l-4.033-.624a5.492,5.492,0,0,0-1.408-.128Z" transform="translate(-0.002 17.505)" fill="#e0e0e0"/><path d="M155.795,292.544a3.2,3.2,0,0,1-2.913-1.841l-6.93-14.4a3.2,3.2,0,0,1,2.337-4.561,10.083,10.083,0,0,0,6.562-4.482,9.059,9.059,0,0,0,1.376-7.01,9.235,9.235,0,0,0-4.513-5.6,10.211,10.211,0,0,0-7.859-1.088,12.052,12.052,0,0,0-7.827,12.8,3.232,3.232,0,1,1-6.4.9A18.566,18.566,0,0,1,142,247.377a16.725,16.725,0,0,1,12.9,1.6,15.7,15.7,0,0,1,7.554,9.6,15.445,15.445,0,0,1-2.225,12.068,16.965,16.965,0,0,1-6.9,6.066l5.346,11.124a3.2,3.2,0,0,1-1.5,4.305A3.393,3.393,0,0,1,155.795,292.544Z" transform="translate(-0.002 -16.274)" fill="#e0e0e0"/><path d="M162.709,296.689a2.641,2.641,0,1,1-3.463-.983A2.641,2.641,0,0,1,162.709,296.689Z" transform="translate(-0.002 -13.5)" fill="#e0e0e0"/><path d="M67.83,244.128a2.241,2.241,0,0,1-2.033-1.264l-4.8-10.1a2.257,2.257,0,0,1,1.6-3.2,6.962,6.962,0,0,0,4.561-3.2,6.274,6.274,0,0,0,.976-4.8,6.5,6.5,0,0,0-3.2-3.921,7.218,7.218,0,0,0-5.49-.752,8.419,8.419,0,0,0-5.474,8.947,2.247,2.247,0,1,1-4.449.624,12.948,12.948,0,0,1,8.643-13.877,11.62,11.62,0,0,1,8.995,1.152,10.931,10.931,0,0,1,5.282,6.738,10.8,10.8,0,0,1-1.6,8.435,11.764,11.764,0,0,1-4.8,4.225l3.729,7.779A2.225,2.225,0,0,1,68.71,243.9a2.065,2.065,0,0,1-.88.224Z" transform="translate(-0.002 -19.584)" fill="#f5f5f5"/><path d="M72.648,247.041a1.825,1.825,0,1,1-1.066-.914A1.825,1.825,0,0,1,72.648,247.041Z" transform="translate(-0.002 -17.516)" fill="#f5f5f5"/><path d="M467.193,249.569a2.273,2.273,0,0,1-.288,2.385l-7.042,8.691a2.241,2.241,0,0,1-1.825.832,2.209,2.209,0,0,1-1.761-.944,7.042,7.042,0,0,0-4.8-2.8,6.242,6.242,0,0,0-4.8,1.232,6.4,6.4,0,0,0-2.193,4.513,7.106,7.106,0,0,0,1.6,5.282,8.4,8.4,0,0,0,10.419,1.12,2.286,2.286,0,0,1,2.529,3.809,12.948,12.948,0,0,1-16.245-1.873,11.556,11.556,0,0,1-2.8-8.643,10.948,10.948,0,0,1,3.825-7.65,10.8,10.8,0,0,1,8.291-2.193,11.876,11.876,0,0,1,5.89,2.545l5.426-6.706a2.241,2.241,0,0,1,3.2-.336A2.417,2.417,0,0,1,467.193,249.569Z" transform="translate(-0.002 -16.68)" fill="#f5f5f5"/><path d="M467.753,243.968a1.841,1.841,0,1,1,.336,2.577A1.841,1.841,0,0,1,467.753,243.968Z" transform="translate(-0.002 -17.739)" fill="#f5f5f5"/><path d="M443.729,40.8a2.257,2.257,0,0,1-.288,2.369L436.4,51.873a2.242,2.242,0,0,1-3.585-.128,6.962,6.962,0,0,0-4.8-2.785,6.242,6.242,0,0,0-4.8,1.216,6.4,6.4,0,0,0-2.273,4.513,7.154,7.154,0,0,0,1.6,5.3,8.419,8.419,0,0,0,10.419,1.1,2.273,2.273,0,0,1,3.2.656,2.225,2.225,0,0,1-.656,3.105,12.932,12.932,0,0,1-16.165-1.873,11.524,11.524,0,0,1-2.817-8.563,11.011,11.011,0,0,1,3.825-7.667,10.787,10.787,0,0,1,8.291-2.193A11.828,11.828,0,0,1,434.51,47.1l5.442-6.706a2.257,2.257,0,0,1,3.777.464Z" transform="translate(-0.002 -34.495)" fill="#f5f5f5"/><path d="M444.289,35.211a1.841,1.841,0,1,1-.372,1.366A1.841,1.841,0,0,1,444.289,35.211Z" transform="translate(-0.002 -34.495)" fill="#f5f5f5"/><path d="M266.039,72.888a2.9,2.9,0,0,1,2.625,1.6l6.306,13.124a2.913,2.913,0,0,1-2.129,4.129,9.107,9.107,0,0,0-5.954,4.081,8.146,8.146,0,0,0-1.248,6.4,8.419,8.419,0,0,0,4.1,5.09,9.267,9.267,0,0,0,7.122.976,10.948,10.948,0,0,0,7.122-11.62,2.918,2.918,0,1,1,5.778-.816,16.822,16.822,0,0,1-11.2,18.038,15.061,15.061,0,0,1-11.7-1.6,14.2,14.2,0,0,1-6.866-8.739,14,14,0,0,1,2.033-10.964,15.189,15.189,0,0,1,6.258-5.49l-4.8-10.115a2.929,2.929,0,0,1,2.641-4.177Z" transform="translate(-0.002 -34.495)" fill="#85c226"/><path d="M259.765,69.111a2.369,2.369,0,1,1,1.386,1.2A2.385,2.385,0,0,1,259.765,69.111Z" transform="translate(-0.002 -34.495)" fill="#e0e0e0"/><path d="M483.166,331.852a2.9,2.9,0,0,1,2.625,1.6l6.306,13.124a2.913,2.913,0,0,1-2.129,4.129,9.139,9.139,0,0,0-5.954,4.065,8.2,8.2,0,0,0-1.248,6.4,8.355,8.355,0,0,0,4.1,5.074,9.2,9.2,0,0,0,7.122.992,10.948,10.948,0,0,0,7.122-11.62,2.918,2.918,0,1,1,5.778-.816,16.838,16.838,0,0,1-11.2,18.038,15.061,15.061,0,0,1-11.7-1.6,14.2,14.2,0,0,1-6.866-8.739,14,14,0,0,1,2.033-10.964,15.189,15.189,0,0,1,6.258-5.49l-4.8-10.115a2.929,2.929,0,0,1,2.641-4.177Z" transform="translate(-0.002 -9.15)" fill="#e0e0e0"/><path d="M476.956,328.107a2.369,2.369,0,1,1,1.386,1.2A2.385,2.385,0,0,1,476.956,328.107Z" transform="translate(-0.002 -11.166)" fill="#e0e0e0"/><path d="M526.844,416.584s-12.292-9.475-30.25,20.295-25.176,47.151-25.176,47.151-4.626,6.178-8.771,1.6-9.379-16.982-17.078-15.365c-8,1.681-11.2,10.243-10.627,23.208s.8,41.39.8,43.966-1.681,6.114-5.01,3.473-21.8-26.441-32.571-17-3.2,45.295-2.465,49.216-.128,5.538-2.033,6.4-7.362-7.747-12.884-14.309-13.108-13.172-18.854-7.2-9.331,32.2,12.692,76.825l11.556,19.991,23.192.368c49.616-2.241,70.919-18.038,73.384-25.96s-7.01-11.444-15.4-13.044-18.55-2.321-18.758-4.385.784-3.6,4.593-4.8,38.829-11.94,41.9-25.928-26.681-18.694-30.6-20.327-1.6-4.8.624-6.066S492.321,539.936,504,534.174s17.606-12.676,15.189-20.5c-2.289-7.538-15.717-6.114-21.687-7.538s-2.817-8.467-2.817-8.467,11.732-14.741,29.145-44.815,2.737-36.444,2.737-36.444" transform="translate(-0.002 17.505)" fill="#ebebeb"/><path d="M510.727,443.2s-.1.224-.32.656-.608,1.056-1.04,1.873c-.944,1.6-2.321,4.049-4.065,7.138-3.537,6.21-8.707,15.141-15.157,26.169-12.8,22.039-30.89,52.337-50.913,85.74s-38.124,63.685-51.1,85.66l-15.349,26.041-4.177,7.09q-.7,1.184-1.1,1.825a6.717,6.717,0,0,1-.384.608s.1-.224.32-.64l1.04-1.873,4.065-7.138c3.537-6.21,8.707-15.141,15.141-26.169,12.8-22.039,30.906-52.353,50.929-85.772s38.124-63.653,51.1-85.628c6.4-10.98,11.7-19.879,15.349-26.057,1.793-3.057,3.2-5.426,4.177-7.074q.688-1.184,1.1-1.825A2.111,2.111,0,0,1,510.727,443.2Z" transform="translate(-0.002 17.505)" fill="#e0e0e0"/><path d="M452.18,488a7.552,7.552,0,0,1,.464,1.6c.272,1.04.608,2.561.992,4.433.784,3.761,1.729,8.979,2.673,14.757s1.729,10.852,2.353,14.789c.288,1.777.528,3.2.736,4.481a7.731,7.731,0,0,1,.208,1.6,6.9,6.9,0,0,1-.48-1.6c-.256-1.04-.592-2.561-.96-4.449-.752-3.761-1.6-8.979-2.561-14.757s-1.809-10.836-2.465-14.773l-.768-4.481A8.34,8.34,0,0,1,452.18,488Z" transform="translate(-0.002 4.174)" fill="#e0e0e0"/><path d="M461.687,530.269c0-.192,10.628-2.609,23.832-5.41s24.008-4.914,24.008-4.706-10.628,2.609-23.832,5.41S461.735,530.461,461.687,530.269Z" transform="translate(-0.002 4.879)" fill="#e0e0e0"/><path d="M428.62,580.189a7.814,7.814,0,0,1,1.713,0l4.626.336c3.889.288,9.283.672,15.253.864s11.364.208,15.269.176h4.642a7.482,7.482,0,0,1,1.7.08,8.293,8.293,0,0,1-1.681.208c-1.1,0-2.689.176-4.642.256-3.905.16-9.331.24-15.317,0s-11.38-.64-15.269-1.056c-1.953-.224-3.521-.416-4.61-.576a8,8,0,0,1-1.681-.288Z" transform="translate(-0.002 17.505)" fill="#e0e0e0"/><path d="M411.606,543.842a6.612,6.612,0,0,1,.816,1.36c.528,1.024,1.184,2.3,1.969,3.793,1.6,3.2,3.841,7.715,6.242,12.676s4.545,9.491,6.066,12.8l1.761,3.905a6.754,6.754,0,0,1,.56,1.473,5.364,5.364,0,0,1-.8-1.344c-.544-1.04-1.2-2.3-1.969-3.809-1.6-3.2-3.857-7.715-6.258-12.676s-4.545-9.491-6.066-12.8l-1.761-3.905A6.756,6.756,0,0,1,411.606,543.842Z" transform="translate(-0.002 8.537)" fill="#e0e0e0"/><path d="M376.827,584.191a11.007,11.007,0,0,1,1.008,1.745c.672,1.264,1.6,2.9,2.545,4.8,2.113,4.129,4.994,9.843,8.147,16.181s5.938,12.1,8,16.277l2.337,4.978a9.733,9.733,0,0,1,.768,1.857,12.1,12.1,0,0,1-1.008-1.745c-.672-1.264-1.6-2.9-2.545-4.8-2.113-4.129-4.994-9.843-8.147-16.181s-5.938-12.1-8-16.277l-2.337-4.978a9.731,9.731,0,0,1-.768-1.857Z" transform="translate(-0.002 17.505)" fill="#e0e0e0"/><path d="M399.346,628.861a12.461,12.461,0,0,1,2.161,0l5.874.224c4.962.192,11.812.416,19.382.464s14.4,0,19.4-.208l5.874-.16a11.9,11.9,0,0,1,2.161,0,12.078,12.078,0,0,1-2.145.256c-1.392.112-3.393.256-5.874.368-4.962.272-11.828.48-19.414.432s-14.4-.352-19.414-.672c-2.481-.16-4.481-.32-5.858-.464A12.511,12.511,0,0,1,399.346,628.861Z" transform="translate(-0.002 17.505)" fill="#e0e0e0"/></g><g transform="translate(0.258 199.034)"><path d="M646.025,493.777c-58.464,81.1-170.033,129.642-276.259,130.459S164.36,582.3,94.04,517.945C43.846,471.994,6.272,413.191,1.356,347.874S6.184,210.9,69.831,170.52c24.05-15.269,75.681-26.057,103.741-22.951,44.887,4.962,72.06,41.614,93.8,75.065S316.147,292.784,361,297.857c34.468,3.937,69.06-12.308,103.812-19.686,59.1-12.564,122.466,2.273,162.614,38.028a137.528,137.528,0,0,1,27.333,33.483c24.121,41.518,22.789,91.326-1.864,132.571Z" transform="translate(-0.261 -147.034)" fill="rgba(0,147,221,0.15)"/></g><g transform="translate(22.821 732.318)"><path d="M668.469,680.734c0,.224-144.546.416-322.8.416s-322.84-.192-322.84-.416,144.511-.416,322.84-.416S668.469,680.494,668.469,680.734Z" transform="translate(-22.823 -680.318)" fill="#263238"/></g><g transform="translate(134.194 248.013)"><path d="M461.975,581.79,437.6,465.528s-14.277-56.018-63.477-75.337l-3.393-1.056-4.8-1.456c-1.985-.768-10.051-3.329-12.18-3.985-66.326-23-83.931-17.014-153.058,6.578,0,0-30.7,8.259-45.583,48.32s-43.374,102.69-43.374,102.69l68.967,24.36L193.919,546V680.334h189.71l-5.218-61.844-.928-76.153" transform="translate(-108.286 -196.013)" fill="#0093dd"/><path d="M268.888,397.41a10.1,10.1,0,0,1-1.6,1.472,21.034,21.034,0,0,1-1.985,1.6c-.8.56-1.7,1.264-2.769,1.889a50.977,50.977,0,0,1-7.763,4.033,53.378,53.378,0,0,1-20.935,4.1,50.091,50.091,0,0,1-8.723-.816c-1.232-.176-2.321-.48-3.281-.7a25.116,25.116,0,0,1-2.433-.7,12.084,12.084,0,0,1-2.017-.768c0-.176,2.961.848,7.827,1.6a56.021,56.021,0,0,0,8.627.624,61.155,61.155,0,0,0,10.515-1.04,64.118,64.118,0,0,0,10.131-2.993,56.389,56.389,0,0,0,7.747-3.825C266.519,399.314,268.888,397.266,268.888,397.41Z" transform="translate(-108.286 -196.013)" fill="#fafafa"/><g transform="translate(85.697 399.285)" opacity="0.3"><path d="M193.983,597.123l15.541,17.958h15.285v19.542l158.052,36.556-1.28-15.221L232.876,604.9h-24.92l-12.02-9.6Z" transform="translate(-193.983 -595.298)"/></g><path d="M240.527,581.134,227.274,578.7s-31.242-34.187-37.116-34.667c-4.8-.4-31.4-.144-40.653,0a3.2,3.2,0,0,0-3.2,3.2h0a3.2,3.2,0,0,0,3.105,3.2l31.4,1.216.144,2.529-31.45.416c-3.2.256-5.25,5.314,4.994,6.242l26.361.944v1.6l-26.681,3.729c-1.344.192-4.8.88-4.93,2.241,0,0-1.6,3.345,5.986,4.289,2.609.336,25.768-.432,25.768-.432l-.9,2.081-24.008,5.17a3.393,3.393,0,0,0-2.657,3.793h0a3.409,3.409,0,0,0,3.681,2.929l25.608-2.385,25.128,20.087h33.611Z" transform="translate(-108.286 -196.013)" fill="#ffbe9d"/><path d="M461.975,581.79l-76.7,15.093-7.795-54.546" transform="translate(-108.286 -196.013)" fill="#0093dd"/><path d="M375.05,583.871l-142.174-4.594v49.152l94.335,18.726,66.262,10.659c41.165,0,74.088-37.788,67.718-78.426h-.176Z" transform="translate(-108.286 -196.013)" fill="#0093dd"/><path d="M414.2,582.974a12.808,12.808,0,0,1-1.841.128l-5.282.144-19.446.352c-16.421.24-39.1.528-64.149.288s-47.744-1.152-64.133-2.273c-8.195-.544-14.821-1.072-19.382-1.6l-5.266-.528a10.537,10.537,0,0,1-1.825-.272,13.3,13.3,0,0,1,1.841,0l5.282.32c4.577.336,11.2.736,19.4,1.184,16.389.912,39.053,1.681,64.1,1.937s47.712.08,64.133,0h24.728a9.171,9.171,0,0,1,1.841.32Z" transform="translate(-108.286 -196.013)" fill="#263238"/><path d="M232.876,579.725a4.8,4.8,0,0,1,0,.88v2.545c0,2.289,0,5.538.1,9.6,0,8.4.1,20.359.16,34.731l-.272-.336c16.005,3.441,35.308,7.7,56.018,12.052,28.409,6,54.274,10.755,73.064,13.652,9.411,1.44,17.03,2.5,22.3,3.2l6.082.8,1.6.224a2.844,2.844,0,0,1,.544.112h-.544l-1.6-.16-6.1-.64c-5.282-.592-12.932-1.6-22.407-2.929-18.838-2.769-44.735-7.426-73.144-13.428-20.807-4.353-40.013-8.659-56.018-12.2h-.272v-.272c0-14.4.1-26.329.128-34.731,0-4.145,0-7.394.1-9.6v-2.545a6.287,6.287,0,0,1,.272-.96Z" transform="translate(-108.286 -196.013)" fill="#263238"/><path d="M220.744,445.313a12.8,12.8,0,0,1,.1-2.385c.1-1.6.256-3.777.32-6.514A113.747,113.747,0,0,0,219.672,415c-1.473-8.227-3.313-15.733-6.162-20.407a16.613,16.613,0,0,0-4.257-4.8c-1.232-.88-2.033-1.2-2-1.28s.224,0,.592.192a10.448,10.448,0,0,1,1.6.832,15.413,15.413,0,0,1,4.562,4.8,34.6,34.6,0,0,1,3.841,8.963,103.392,103.392,0,0,1,2.641,11.62,98.752,98.752,0,0,1,1.248,21.559c-.128,2.769-.368,4.994-.576,6.53a13.283,13.283,0,0,1-.416,2.3Z" transform="translate(-108.286 -196.013)" fill="#263238"/><path d="M377.1,402.131c.224,0,.416,32.667.416,72.952s-.192,72.968-.416,72.968-.416-32.667-.416-72.968S376.875,402.131,377.1,402.131Z" transform="translate(-108.286 -196.013)" fill="#263238"/><path d="M426.171,566.233c0,.16-2.417.08-6.274.56a50.7,50.7,0,0,0-6.658,1.3,55.148,55.148,0,0,0-7.827,2.785,55.893,55.893,0,0,0-7.25,4.033,51.684,51.684,0,0,0-5.378,4.145c-2.881,2.577-4.433,4.449-4.545,4.337a6.177,6.177,0,0,1,.992-1.376,33.4,33.4,0,0,1,3.2-3.393,45.713,45.713,0,0,1,5.33-4.353,51.119,51.119,0,0,1,7.346-4.161,52.119,52.119,0,0,1,8-2.769A45.334,45.334,0,0,1,419.9,566.2a32.656,32.656,0,0,1,4.642-.128A6.4,6.4,0,0,1,426.171,566.233Z" transform="translate(-108.286 -196.013)" fill="#263238"/><g transform="translate(101.542 218.746)" opacity="0.3"><path d="M222.072,572.987c24.008-14.293,38.909-38,53.537-61.78s28.217-48.656,48.5-67.862c9.3-8.819,20.183-16.245,23.624-28.585L311.3,443.7,209.829,560.391Z" transform="translate(-209.829 -414.759)"/></g><path d="M156.291,510.423c0,.32-5.73.1-12.276,2.321a59.987,59.987,0,0,0-8.1,3.585,18.166,18.166,0,0,1-3.345,1.6,15.285,15.285,0,0,1,3.057-2.113,44.171,44.171,0,0,1,8.115-3.841,33.032,33.032,0,0,1,8.819-1.681A13.093,13.093,0,0,1,156.291,510.423Z" transform="translate(-108.286 -196.013)" fill="#263238"/><path d="M156.291,510.423c0,.32-5.73.1-12.276,2.321a59.987,59.987,0,0,0-8.1,3.585,18.166,18.166,0,0,1-3.345,1.6,15.285,15.285,0,0,1,3.057-2.113,44.171,44.171,0,0,1,8.115-3.841,33.032,33.032,0,0,1,8.819-1.681A13.093,13.093,0,0,1,156.291,510.423Z" transform="translate(-108.286 -196.013)" fill="#263238"/><path d="M376.491,562.728a21.912,21.912,0,0,0-5.538-2.545c-3.745-1.168-9.6-1.152-16.357,1.024s-13.812,6.8-22.519,10.419a32.73,32.73,0,0,1-14.4,2.769,39.068,39.068,0,0,1-15.173-4.61c-4.8-2.417-9.379-5.154-13.973-7.282a42.317,42.317,0,0,0-13.925-3.937,45.391,45.391,0,0,0-24.008,4.337,43.4,43.4,0,0,0-13.348,9.811l-1.7,1.873-1.152,1.6-.736.944a1.409,1.409,0,0,1-.272.3,2.418,2.418,0,0,1,.208-.352l.656-.992,1.1-1.6,1.6-2.017a42.51,42.51,0,0,1,13.332-10.115,45.823,45.823,0,0,1,24.312-4.577,43.088,43.088,0,0,1,14.2,3.969c4.642,2.145,9.187,4.8,13.989,7.266a38.413,38.413,0,0,0,14.789,4.577,32.236,32.236,0,0,0,14.133-2.657c8.595-3.521,15.733-8.307,22.631-10.275s12.8-2.065,16.629-.784a17.156,17.156,0,0,1,4.161,1.921l.96.688a1.6,1.6,0,0,1,.4.24Z" transform="translate(-108.286 -196.013)" fill="#fafafa"/><path d="M446.018,503.54a12.165,12.165,0,0,0-2.881-.544,13.813,13.813,0,0,0-7.522,2.3c-2.961,1.6-5.81,4.657-9.843,6.914a12.709,12.709,0,0,1-7.01,1.761,18.887,18.887,0,0,1-7.362-2.337c-2.353-1.184-4.529-2.513-6.786-3.409a30.154,30.154,0,0,0-6.738-1.873,29.785,29.785,0,0,0-6.4-.352,30.84,30.84,0,0,0-5.474.72,31.655,31.655,0,0,0-7.57,2.7c-1.7.848-2.577,1.456-2.625,1.376a2.818,2.818,0,0,1,.608-.48,19.435,19.435,0,0,1,1.873-1.184,28.81,28.81,0,0,1,7.57-2.993,30.986,30.986,0,0,1,19,1.328c2.337.912,4.53,2.257,6.85,3.409a18.438,18.438,0,0,0,7.042,2.273,12.069,12.069,0,0,0,6.594-1.6c3.905-2.129,6.834-5.106,9.907-6.754a13.7,13.7,0,0,1,7.842-2.113,8,8,0,0,1,2.177.5,2.5,2.5,0,0,1,.752.352Z" transform="translate(-108.286 -196.013)" fill="#fafafa"/><path d="M375.627,481.629a4.691,4.691,0,0,1-1.1-.192l-1.3-.272-1.793-.24a30.889,30.889,0,0,0-11.412,1.168,70.518,70.518,0,0,0-15.589,7.042c-5.6,3.2-11.588,7.218-18.582,10.083a39.165,39.165,0,0,1-10.611,2.913,27.21,27.21,0,0,1-10.243-.7,46.216,46.216,0,0,1-8.611-3.441c-2.593-1.28-4.962-2.545-7.17-3.585a30.634,30.634,0,0,0-10.98-3.313,17.891,17.891,0,0,0-3.2.1,5.7,5.7,0,0,1-1.1,0,6.9,6.9,0,0,1,1.088-.24,16.808,16.808,0,0,1,3.2-.24,29.623,29.623,0,0,1,11.2,3.105c2.241,1.008,4.642,2.241,7.234,3.489a47.218,47.218,0,0,0,8.5,3.329,26.7,26.7,0,0,0,9.955.624,39.037,39.037,0,0,0,10.387-2.865c6.9-2.833,12.8-6.77,18.518-9.987a67.894,67.894,0,0,1,15.813-6.93,29.611,29.611,0,0,1,11.6-.928l1.809.32c.512.112.944.256,1.3.352a5.685,5.685,0,0,1,1.088.416Z" transform="translate(-108.286 -196.013)" fill="#fafafa"/><path d="M425.179,432.4a8.819,8.819,0,0,1-1.7.992c-1.136.576-2.785,1.408-4.8,2.321a45.2,45.2,0,0,1-7.586,2.625,27.8,27.8,0,0,1-9.827.672c-3.489-.368-6.722-1.1-9.6-1.5a27.88,27.88,0,0,0-7.859-.144,16.9,16.9,0,0,0-6.754,2.5,2.163,2.163,0,0,1,.352-.368,7.9,7.9,0,0,1,1.2-.864,14.133,14.133,0,0,1,5.106-1.841,26.875,26.875,0,0,1,8,0c3.009.368,6.242,1.088,9.6,1.44,6.866.816,12.948-1.376,17.11-3.009,2.1-.832,3.777-1.6,4.946-2.081a8.145,8.145,0,0,1,1.809-.736Z" transform="translate(-108.286 -196.013)" fill="#fafafa"/><path d="M218.231,459.046a8.129,8.129,0,0,0-2.833-.688,11.956,11.956,0,0,0-7.33,2.721c-1.392.976-2.817,2.193-4.529,3.313a16.949,16.949,0,0,1-6.066,2.433,28.538,28.538,0,0,1-14.677-1.761c-4.962-1.777-9.411-4.065-13.652-5.554a35.994,35.994,0,0,0-6.13-1.681,26.679,26.679,0,0,0-5.522-.336,17.782,17.782,0,0,0-7.667,2.049c-1.6.928-2.417,1.68-2.481,1.6a3.759,3.759,0,0,1,.544-.56,9.874,9.874,0,0,1,1.777-1.328,17.109,17.109,0,0,1,7.795-2.369,25.608,25.608,0,0,1,5.666.24,36.348,36.348,0,0,1,6.274,1.6c4.321,1.488,8.787,3.745,13.668,5.506a28.169,28.169,0,0,0,14.261,1.793,16.471,16.471,0,0,0,5.826-2.257c1.6-1.072,3.2-2.257,4.577-3.2a11.955,11.955,0,0,1,7.7-2.561,6.049,6.049,0,0,1,2.161.576A2.048,2.048,0,0,1,218.231,459.046Z" transform="translate(-108.286 -196.013)" fill="#fafafa"/><path d="M308.4,581.63a3.863,3.863,0,0,1,.512.448,10.518,10.518,0,0,1,1.264,1.473,15.253,15.253,0,0,1,2.609,6.626,15.029,15.029,0,0,1-2.129,10.307c-2.113,3.457-5.746,6.178-7.778,10.147a9.6,9.6,0,0,0-.8,6.226A24.008,24.008,0,0,0,304.1,622.6c1.745,3.489,3.361,6.882,3.3,10.019a8.1,8.1,0,0,1-2.993,6.4,5.17,5.17,0,0,1-1.761.848,2.784,2.784,0,0,1-.688.08,7.509,7.509,0,0,0,2.257-1.184,8,8,0,0,0,2.593-6.13c0-2.945-1.6-6.178-3.393-9.683a23.511,23.511,0,0,1-2.193-5.906,10.323,10.323,0,0,1,.848-6.738,25.047,25.047,0,0,1,4-5.442,38.139,38.139,0,0,0,3.889-4.8,14.82,14.82,0,0,0,2.193-9.811,16.2,16.2,0,0,0-2.3-6.53C309.013,582.35,308.341,581.694,308.4,581.63Z" transform="translate(-108.286 -196.013)" fill="#fafafa"/><path d="M375.5,651.893a7.312,7.312,0,0,1-.608-.512,6.85,6.85,0,0,1-1.232-1.937,10.868,10.868,0,0,1,.4-8.259,16.821,16.821,0,0,1,3.1-4.914c1.361-1.6,2.977-3.089,4.594-4.8a25.991,25.991,0,0,0,4.449-5.586,18.79,18.79,0,0,0,2.145-7.282c.528-5.282-.416-10.339-.688-14.981a25.928,25.928,0,0,1,1.6-12.26,14.052,14.052,0,0,1,5.266-6.4,10.147,10.147,0,0,1,2.065-.976,2.58,2.58,0,0,1,.768-.176,22.781,22.781,0,0,0-2.657,1.424,14.148,14.148,0,0,0-4.9,6.4,26.088,26.088,0,0,0-1.328,11.988c.3,4.577,1.3,9.6.752,15.109a19.446,19.446,0,0,1-2.257,7.6,26.663,26.663,0,0,1-4.625,5.73c-3.313,3.2-6.4,6.082-7.7,9.331a10.8,10.8,0,0,0-.64,7.923,9.713,9.713,0,0,0,1.488,2.577Z" transform="translate(-108.286 -196.013)" fill="#fafafa"/><path d="M383.709,673.132a9.6,9.6,0,0,1-1.777,1.12,15.442,15.442,0,0,1-5.81,1.6,25.24,25.24,0,0,1-9.507-1.072,51.456,51.456,0,0,1-11.492-5.314,77.232,77.232,0,0,0-13.62-6.818,32.635,32.635,0,0,0-17.174-.576,104.161,104.161,0,0,0-18.278,6.306,107.242,107.242,0,0,1-19.766,6.834,34.685,34.685,0,0,1-10.659.592,28.17,28.17,0,0,1-9.939-2.945c-6.13-3.057-11.012-7.49-16.005-11.092a50.352,50.352,0,0,0-7.6-4.8l-2-.752c-.656-.288-1.344-.5-2-.752a32.431,32.431,0,0,0-3.985-1.184A39.87,39.87,0,0,0,219,653.669a41.612,41.612,0,0,0-11.988,3.569c-.848.384-1.6.848-2.385,1.232a18.287,18.287,0,0,0-2.129,1.28c-.656.432-1.312.832-1.9,1.248l-1.6,1.28a26.19,26.19,0,0,0-2.593,2.289,18.273,18.273,0,0,0-1.777,1.825c-.432.48-.784.864-1.04,1.168l-.384.384a5.11,5.11,0,0,1,.32-.448l.976-1.216a15.618,15.618,0,0,1,1.729-1.889,23.872,23.872,0,0,1,2.561-2.369l1.6-1.312c.592-.432,1.232-.848,1.9-1.3a17.137,17.137,0,0,1,2.129-1.312c.768-.4,1.6-.9,2.385-1.28a42.155,42.155,0,0,1,12.116-3.745,40.4,40.4,0,0,1,15.333.528,34.506,34.506,0,0,1,4.065,1.184c.672.256,1.376.48,2.033.752l2,.944a50.712,50.712,0,0,1,7.747,4.8c5.026,3.617,9.907,8,15.909,10.98a27.737,27.737,0,0,0,9.6,2.865,34.638,34.638,0,0,0,10.4-.592,108.263,108.263,0,0,0,19.686-6.85,104.14,104.14,0,0,1,18.422-6.306,33.178,33.178,0,0,1,17.606.672,75.472,75.472,0,0,1,13.7,6.962,52.082,52.082,0,0,0,11.348,5.378,25.387,25.387,0,0,0,9.331,1.2,16.118,16.118,0,0,0,5.762-1.488C383.1,673.516,383.693,673.084,383.709,673.132Z" transform="translate(-108.286 -196.013)" fill="#fafafa"/><path d="M294.672,406.149h0a33.291,33.291,0,0,0,34.8-30.33c.928-10.563,1.6-19.574,1.6-19.574s27.209-.7,31.066-27.385,7.122-88.653,7.122-88.653h0a93.663,93.663,0,0,0-94.863-.368l-4.353,2.529L263.014,371.1a33.291,33.291,0,0,0,31.658,35.051Z" transform="translate(-108.286 -196.013)" fill="#ffbe9d"/><path d="M334.893,310.5c0-.288,2.353-.464,6.114-.5.976,0,1.761-.1,1.9-.608a5.283,5.283,0,0,0-.336-2.849c-.624-2.545-1.264-5.138-1.937-7.843-2.641-11.2-4.321-20.359-3.745-20.487s3.2,8.819,5.794,19.991c.624,2.721,1.2,5.33,1.793,7.907a6.178,6.178,0,0,1,0,4.065,2.545,2.545,0,0,1-1.857,1.312,6.4,6.4,0,0,1-1.6,0C337.2,311.078,334.893,310.709,334.893,310.5Z" transform="translate(-108.286 -196.013)" fill="#263238"/><path d="M331.212,355.86a62.645,62.645,0,0,1-33.611-14.4s5.73,20.295,32.715,21.351Z" transform="translate(-108.286 -196.013)" fill="#eb996e"/><path d="M369,247.009s-16.821,7.01-37.532-4.8c-13.6-7.747-29.722-12.052-33.467-9.443s-5.3,16.982-19.382,20.423c0,0-.56,27.545-11.476,25.96s-1.713-43.79-1.713-43.79l27.545-11.62,29.562-3.905,27.353,5.41,21.015,7.01Z" transform="translate(-108.286 -196.013)" fill="#263238"/><path d="M269.8,270.488c-.432-.256-17.606-7.811-19.446,10.547s17.014,16.357,17.094,15.829S269.8,270.488,269.8,270.488Z" transform="translate(-108.286 -196.013)" fill="#ffbe9d"/><path d="M262.486,289.342c-.08,0-.336.192-.912.4a3.2,3.2,0,0,1-2.385-.192c-1.873-.9-3.2-4.129-2.977-7.442a10.819,10.819,0,0,1,1.344-4.5,3.729,3.729,0,0,1,2.641-2.225,1.6,1.6,0,0,1,1.809,1.072c.192.528,0,.88.128.928s.432-.272.352-1.04a1.953,1.953,0,0,0-.608-1.216,2.4,2.4,0,0,0-1.729-.64,4.465,4.465,0,0,0-3.6,2.513,10.723,10.723,0,0,0-1.6,5.01c-.24,3.713,1.312,7.346,3.889,8.371a3.425,3.425,0,0,0,2.977-.192C262.486,289.791,262.582,289.39,262.486,289.342Z" transform="translate(-108.286 -196.013)" fill="#eb996e"/><path d="M290.8,235.709a62.82,62.82,0,0,1-12.212,10.932,21.3,21.3,0,0,1-15.669,3.329c-5.346-1.232-10.051-5.858-10.275-11.332s5.138-10.82,10.483-9.6a5.714,5.714,0,1,1,3.361-10.259c-4.642-.864-5.17-8.243-1.456-11.2s9.123-2.3,13.508-.528,8.419,4.529,13.044,5.538c7.25,1.6,14.693-1.472,21.095-5.186s12.516-8.291,19.67-10.259C341.119,194.7,350.594,196.48,359,200a43.054,43.054,0,0,1,18.1,13.2c4.529,6.05,6.77,14.085,4.8,21.367s-8.8,13.332-16.357,13.364c0,0-16.982,1.713-30.81-8.547s-43.022-8.915-43.022-8.915Z" transform="translate(-108.286 -196.013)" fill="#263238"/><path d="M265.239,214.342a6.3,6.3,0,0,0,1.056.848,38.418,38.418,0,0,0,3.3,2.033,60.212,60.212,0,0,0,13.236,5.25,63.733,63.733,0,0,0,21.047,2c8-.528,16.469-3.121,25.256-5.266s17.446-3.2,24.952-1.376,13.428,6.274,16.005,11.412a18.166,18.166,0,0,1,1.376,13.316,29.628,29.628,0,0,1-2.113,4.658,6.634,6.634,0,0,0,.96-.976,13.333,13.333,0,0,0,1.873-3.425,18.39,18.39,0,0,0-.864-14.181c-2.641-5.65-8.931-10.627-16.822-12.564s-17.014-.944-25.864,1.232-17.158,4.8-24.936,5.378a65.156,65.156,0,0,1-20.567-1.6C271.625,218.327,265.415,213.958,265.239,214.342Z" transform="translate(-108.286 -196.013)" fill="#455a64"/><path d="M257,242.7c-.208.112.4,1.9,2.369,4.177a18.758,18.758,0,0,0,21.607,4.674c2.737-1.264,4.033-2.641,3.889-2.833s-1.713.688-4.385,1.6a20.2,20.2,0,0,1-20.119-4.353C258.276,244.032,257.268,242.543,257,242.7Z" transform="translate(-108.286 -196.013)" fill="#455a64"/><path d="M262.726,233.676c-.48.208.928,3.553,4.481,5.986s7.154,2.609,7.2,2.1-2.945-1.5-6.082-3.713S263.206,233.34,262.726,233.676Z" transform="translate(-108.286 -196.013)" fill="#455a64"/><path d="M378.011,259.285c.24,0,.752-.848.9-2.5a10.131,10.131,0,0,0-6.61-10.147c-1.6-.528-2.593-.432-2.625-.176-.16.528,3.6,1.6,5.97,5.234S377.467,259.157,378.011,259.285Z" transform="translate(-108.286 -196.013)" fill="#263238"/><path d="M387.518,232.924c-.544-.224-2.561,4.642-7.362,8.643s-9.843,5.314-9.7,5.874,5.762.1,10.964-4.385S388.031,232.988,387.518,232.924Z" transform="translate(-108.286 -196.013)" fill="#455a64"/><path d="M359.7,280.876a4.145,4.145,0,0,1-4.481,3.617,3.969,3.969,0,0,1-3.745-4.257,4.145,4.145,0,0,1,4.481-3.617,3.969,3.969,0,0,1,3.745,4.257Z" transform="translate(-108.286 -196.013)" fill="#263238"/><path d="M362.951,280.508c-.576.464-3.377-2.225-7.779-2.8s-7.923,1.216-8.339.624c-.208-.272.448-1.168,1.985-2.017a11.412,11.412,0,0,1,6.754-1.152,11.059,11.059,0,0,1,6.114,2.9C362.9,279.275,363.319,280.3,362.951,280.508Z" transform="translate(-108.286 -196.013)" fill="#263238"/><path d="M319.608,275.29a4.145,4.145,0,0,1-4.481,3.617,3.953,3.953,0,0,1-3.745-4.241,4.161,4.161,0,0,1,4.481-3.633,3.969,3.969,0,0,1,3.745,4.257Z" transform="translate(-108.286 -196.013)" fill="#263238"/><path d="M322.473,275.178c-.576.48-3.377-2.225-7.779-2.785s-8,1.216-8.339.608c-.192-.272.432-1.168,1.985-2a11.284,11.284,0,0,1,6.754-1.152,10.851,10.851,0,0,1,6.114,2.9C322.425,273.945,322.761,274.986,322.473,275.178Z" transform="translate(-108.286 -196.013)" fill="#263238"/><path d="M320.777,263.062c-.864.784-4.161-1.6-8.627-2.049s-8.179,1.136-8.867.192c-.32-.448.272-1.6,1.9-2.673a11.812,11.812,0,0,1,14.293,1.52C320.841,261.461,321.193,262.694,320.777,263.062Z" transform="translate(-108.286 -196.013)" fill="#263238"/><path d="M362.662,270.376c.192.512-.56,1.392-2.161,2.081a13.028,13.028,0,0,1-12.8-2c-1.312-1.152-1.777-2.225-1.424-2.657.768-.912,4.033.64,8.211,1.248S362.214,269.272,362.662,270.376Z" transform="translate(-108.286 -196.013)" fill="#263238"/><path d="M331.516,317.752c.464,0,.784.848.72,1.857s-.48,1.777-.928,1.745-.784-.864-.736-1.857S331.068,317.72,331.516,317.752Z" transform="translate(-108.286 -196.013)" fill="#263238"/><path d="M266.535,303.827a2.257,2.257,0,0,1-.4,1.072,5.522,5.522,0,0,1-2.321,2.113,5.794,5.794,0,0,1-4.674.288,6.754,6.754,0,0,1-4-4.1,7.218,7.218,0,0,1,4.033-8.835,7.474,7.474,0,0,1,3.057-.64,2.416,2.416,0,0,1,1.136.176,12.212,12.212,0,0,0-3.953,1.008,6.994,6.994,0,0,0-3.041,2.961,6.642,6.642,0,0,0-.448,5.074,6.114,6.114,0,0,0,3.489,3.633,5.378,5.378,0,0,0,4.161-.1A7.091,7.091,0,0,0,266.535,303.827Z" transform="translate(-108.286 -196.013)" fill="#455a64"/><path d="M284.253,413.447s8.931-12.628,14.549-19.7c6.786-8.595,10.852-16.005,10.852-20.007V352.483s8.451-2,9.6,7.618,0,12.036,0,12.036,35.532-24.008,37.948-22.2c4.225,3.057-3.793,9.443-3.793,9.443l-21.655,19.574,12.324-3.905a5.778,5.778,0,0,1,7.218,3.633h0a5.73,5.73,0,0,1-2.193,6.578l-7.314,6.322,3.681-1.473a5.65,5.65,0,0,1,7.138,2.689h0a5.57,5.57,0,0,1-.912,6.4l-6.642,7.09,3.105-1.6a4.049,4.049,0,0,1,5.522,1.745h0a4,4,0,0,1-1.088,4.946L312.87,442.7Z" transform="translate(-108.286 -196.013)" fill="#ffbe9d"/><path d="M312.87,442.7l-.5-.464-1.456-1.44-5.65-5.7-21.207-21.479-.144-.16.128-.176c2.593-3.681,5.426-7.634,8.5-11.812,1.6-2.081,3.121-4.225,4.8-6.4s3.425-4.369,5.074-6.738a66.337,66.337,0,0,0,4.593-7.522,16.165,16.165,0,0,0,2.273-8.691c0-6.306,0-12.8,0-19.638v-.368h.3a8.867,8.867,0,0,1,6.4,1.056,8,8,0,0,1,2.337,2.449,11.459,11.459,0,0,1,1.168,3.2,51.691,51.691,0,0,1,.72,6.642c0,1.12.08,2.257,0,3.393a11.972,11.972,0,0,1-.544,3.489l-.592-.512c5.49-3.681,11.2-7.41,17.046-11.2q4.417-2.785,8.979-5.506a91.08,91.08,0,0,1,9.491-5.09,12.806,12.806,0,0,1,1.376-.5,3.634,3.634,0,0,1,.768-.144,1.281,1.281,0,0,1,.48,0,1.072,1.072,0,0,1,.448.272,3.057,3.057,0,0,1,1.2,2.817,9.7,9.7,0,0,1-2.849,4.978c-1.3,1.392-2.769,2.529-4.1,3.777l-4.033,3.681-15.813,14.4-.384-.688,7.218-2.289,3.553-1.12c.608-.176,1.168-.384,1.793-.544a5.633,5.633,0,0,1,1.937-.224,6.13,6.13,0,0,1,3.2,11.2h0l-7.3,6.4-.384-.624,3.569-1.44a6.05,6.05,0,0,1,3.937-.24,5.938,5.938,0,0,1,3.2,9.331c-.8.96-1.6,1.729-2.4,2.593l-4.658,4.946-.384-.5,3.345-1.761a4.327,4.327,0,0,1,5.266,6.562,7.571,7.571,0,0,1-1.312,1.2l-1.328,1.04-2.609,2.049-4.962,3.889L326.939,432l-10.419,8.131-2.7,2.1-.928.672.928-.768,2.7-2.193,10.355-8.291,16.261-12.98,4.9-3.905,2.561-2.033,1.312-1.056a6.2,6.2,0,0,0,1.216-1.088,3.761,3.761,0,0,0,.688-3.057,3.713,3.713,0,0,0-5.218-2.577l-3.329,1.585-1.713.912,1.328-1.408,4.642-4.962c.768-.848,1.6-1.713,2.337-2.561a5.33,5.33,0,0,0,1.072-3.121,5.266,5.266,0,0,0-3.873-5.106,5.346,5.346,0,0,0-3.489.24L342,391.968l-2.049.816,1.6-1.44,7.3-6.4h0a5.346,5.346,0,0,0-2.785-9.763,9.875,9.875,0,0,0-3.457.736l-3.553,1.136-7.122,2.273-1.777.56,1.392-1.248,15.8-14.293,4.065-3.665c1.328-1.264,2.785-2.385,4.017-3.713a9.156,9.156,0,0,0,2.625-4.5,2.129,2.129,0,0,0-.9-2.081c-.1-.24-.528-.112-.944,0a12.227,12.227,0,0,0-1.28.464,92.435,92.435,0,0,0-9.379,5.026q-4.561,2.7-8.963,5.506c-5.874,3.7-11.556,7.426-17.046,11.092l-1.008.672.416-1.184a12.292,12.292,0,0,0,.48-3.2v-3.313a50.707,50.707,0,0,0-.688-6.514,10.788,10.788,0,0,0-1.072-2.945,7.171,7.171,0,0,0-2.081-2.193,8.163,8.163,0,0,0-5.826-.96l.3-.384v22.023a12.657,12.657,0,0,1-.512,2.337,29.016,29.016,0,0,1-1.809,4.273,65.155,65.155,0,0,1-4.673,7.6c-1.6,2.369-3.425,4.593-5.106,6.738s-3.2,4.305-4.8,6.4c-3.089,4.161-5.938,8.1-8.547,11.764v-.336l20.887,21.575,5.6,5.826c.624.64,1.1,1.152,1.44,1.521S312.87,442.7,312.87,442.7Z" transform="translate(-108.286 -196.013)" fill="#eb996e"/><path d="M312.87,442.7,203.811,586.752c-16.549,21.863-46.415,29.85-71.159,17.99C114.533,596,101.233,577.789,112.357,540.3l104.466-71.479,63.493-61.284Z" transform="translate(-108.286 -196.013)" fill="#0093dd"/><path d="M132.651,604.677l1.168.592,3.409,1.809a46.417,46.417,0,0,0,14.261,3.825,48.263,48.263,0,0,0,10.675-.192,57.617,57.617,0,0,0,6.034-1.056c1.024-.24,2.065-.576,3.2-.864a31.168,31.168,0,0,0,3.2-1.056,63.14,63.14,0,0,0,13.108-6.4A52.064,52.064,0,0,0,200,590.593c7.442-8.819,15.141-18.87,23.448-29.594s16.982-22.343,26.233-34.427c18.39-24.376,38.509-51.217,59.539-79.514l3.345-4.513v.528l-32.475-35.259h.56c-22.231,18.342-42.814,35.868-61.46,51.457s-35.4,29.386-49.536,40.573-25.608,19.879-33.611,25.72c-3.969,2.961-7.106,5.138-9.2,6.658l-2.4,1.7c-.544.384-.832.56-.832.56s.256-.224.784-.624l2.353-1.745c2.081-1.6,5.186-3.777,9.139-6.77,8-5.906,19.366-14.677,33.435-25.912s30.73-24.984,49.328-40.653,39.2-33.179,61.444-51.553l.3-.24.256.288c10.5,11.332,21.4,23.1,32.555,35.211l.24.256-.208.272-3.345,4.513C288.862,475.8,268.728,502.66,250.29,527c-9.235,12.148-18.022,23.7-26.345,34.427S207.94,582.238,200.4,590.993a52.627,52.627,0,0,1-12.452,10.8,63.509,63.509,0,0,1-13.236,6.4,27.094,27.094,0,0,1-3.2,1.04c-1.072.288-2.113.624-3.2.864a58.316,58.316,0,0,1-6.082,1.04,48.656,48.656,0,0,1-10.756.112,45.489,45.489,0,0,1-14.293-3.985c-1.5-.8-2.625-1.473-3.393-1.889A8.884,8.884,0,0,1,132.651,604.677Z" transform="translate(-108.286 -196.013)" fill="#263238"/><path d="M215.334,567.177a26.886,26.886,0,0,0-3.809-2.193,23.127,23.127,0,0,0-11.732-1.472,41.88,41.88,0,0,0-8,1.681c-2.849.864-5.81,2.081-8.947,3.313a92.841,92.841,0,0,1-10.019,3.505,31.577,31.577,0,0,1-11.38,1.1,39.164,39.164,0,0,1-11.012-3.057c-3.409-1.409-6.578-3.009-9.6-4.4-6.066-2.833-11.956-4.658-17.014-4.369a16.454,16.454,0,0,0-13.925,7.266,6.9,6.9,0,0,1,.544-1.008,12.886,12.886,0,0,1,2.049-2.561,18.294,18.294,0,0,1,11.2-4.337c5.2-.368,11.2,1.456,17.366,4.257,3.089,1.376,6.242,2.977,9.6,4.353a38.606,38.606,0,0,0,10.788,2.977,30.843,30.843,0,0,0,11.092-1.072,89.625,89.625,0,0,0,9.955-3.425c3.2-1.216,6.114-2.4,9.011-3.2a40.432,40.432,0,0,1,8.243-1.6,22.6,22.6,0,0,1,11.908,1.777A12.709,12.709,0,0,1,215.334,567.177Z" transform="translate(-108.286 -196.013)" fill="#fafafa"/><path d="M253.875,518.889a6,6,0,0,0,.416-2.849,8,8,0,0,0-4.8-5.858,27.2,27.2,0,0,0-5.3-1.6A28.582,28.582,0,0,1,238,506.6a40.013,40.013,0,0,1-11.668-9.139c-3.6-3.825-6.8-7.65-10.227-10.6a26.921,26.921,0,0,0-10.243-5.858,17.462,17.462,0,0,0-8-.528c-1.873.336-2.849.784-2.881.7a3.781,3.781,0,0,1,.688-.352,10.18,10.18,0,0,1,2.129-.672,17.061,17.061,0,0,1,8.147.288,26.552,26.552,0,0,1,10.6,5.842,133.549,133.549,0,0,1,10.339,10.6,40.446,40.446,0,0,0,11.4,9.027c4,1.985,8.259,2.129,11.412,3.761a8.275,8.275,0,0,1,4.882,6.4,4.8,4.8,0,0,1-.336,2.209,2.032,2.032,0,0,1-.352.608Z" transform="translate(-108.286 -196.013)" fill="#fafafa"/></g><g transform="translate(22.981)"><path d="M560.183,139.694l-4.8.32-9.443,15.237.64,9.507s-7.346.944-7.3-11.572-.688-9.283-.688-9.283-15.653.976-17.046-.288c-1.008-.928-2.465-16.437-3.2-24.856a9.187,9.187,0,0,1,5.858-9.6,7.826,7.826,0,0,1,1.68-.336c3.889-.256,24.008,1.6,24.008,1.6l8.243-.56Z" transform="translate(43.016)" fill="#0093dd"/><path d="M573.979,141.39l-5.106-32.411-8.163.544,2.129,31.946Z" transform="translate(43.016)" fill="#0093dd"/><path d="M448.482,168.807a2.705,2.705,0,0,1,.688.176,3.955,3.955,0,0,1,.8.3,5.955,5.955,0,0,1,1.04.544,11.78,11.78,0,0,1,4.8,5.666,11.619,11.619,0,0,1,.848,5.122,10.275,10.275,0,0,1-2.113,5.57,12.036,12.036,0,0,1-5.234,3.985,10.772,10.772,0,0,1-12.932-3.409,12.373,12.373,0,0,1-2.641-6.066,10.355,10.355,0,0,1,.928-5.89,11.331,11.331,0,0,1,3.281-4.017,11.619,11.619,0,0,1,6.994-2.577,6.769,6.769,0,0,1,1.168,0,3.649,3.649,0,0,1,.848.128,2.081,2.081,0,0,1,.688.192c0,.1-.976-.16-2.689,0a11.8,11.8,0,0,0-6.562,2.7,11.075,11.075,0,0,0-3.025,3.873,9.6,9.6,0,0,0-.784,5.49,10.692,10.692,0,0,0,19.382,5.122,9.7,9.7,0,0,0,2.033-5.17,10.867,10.867,0,0,0-.72-4.8,11.78,11.78,0,0,0-4.369-5.6C449.411,169.143,448.45,168.9,448.482,168.807Z" transform="translate(23.466)" fill="#263238"/><path d="M415.176,197.328a3.313,3.313,0,0,1,1.6.576,7.314,7.314,0,0,1,3.057,3.585,7.538,7.538,0,0,1,.576,3.2,6.738,6.738,0,0,1-1.344,3.585,7.33,7.33,0,0,1-13.332-3.505,6.658,6.658,0,0,1,.608-3.793,7.618,7.618,0,0,1,6.594-4.113,3.569,3.569,0,0,1,1.713.288h-1.7a7.523,7.523,0,0,0-4.065,1.729,6.4,6.4,0,0,0-2.321,5.794,6.594,6.594,0,0,0,11.94,3.2,6.306,6.306,0,0,0,.832-6.21,7.507,7.507,0,0,0-2.689-3.521C415.736,197.568,415.144,197.392,415.176,197.328Z" transform="translate(19.696)" fill="#263238"/><path d="M463.687,119.911a7.631,7.631,0,0,1,.176-1.328c.176-.88.368-2.209.64-3.905l.48-2.881c.224-1.04.576-2.177.9-3.393l1.088-3.969a16.012,16.012,0,0,1,.72-2.145q.432-1.1.864-2.257a79.259,79.259,0,0,1,11.732-20.951,82.619,82.619,0,0,1,23.88-21l3.889-2.241c1.36-.688,2.769-1.28,4.177-1.937a35.83,35.83,0,0,1,4.321-1.857l4.545-1.6c.768-.256,1.6-.528,2.3-.768l2.4-.56,4.8-1.152c1.6-.336,3.345-.464,5.026-.72a46.1,46.1,0,0,1,5.154-.544,75.816,75.816,0,0,1,10.612,0c1.793.144,3.617.192,5.426.432l5.458.944c.912.176,1.841.272,2.737.512l2.721.752c1.809.528,3.649.976,5.458,1.6a87.12,87.12,0,0,1,10.659,4.562l2.625,1.344c.448.224.88.432,1.312.672l1.264.8,5.042,3.2c1.6,1.152,3.2,2.465,4.8,3.7.784.656,1.6,1.232,2.369,1.937l2.129,2.225a91.72,91.72,0,0,1,8.435,9.139q1.825,2.545,3.649,5.138l.928,1.3.8,1.376,1.6,2.769,1.6,2.785,1.344,2.929,1.328,2.945.672,1.472c.192.512.352,1.024.528,1.6.7,2.049,1.392,4.113,2.1,6.194s1.008,4.257,1.5,6.4a89.017,89.017,0,0,1,1.12,26.617,89.26,89.26,0,0,1-7.458,25.608l-3.009,5.874-3.521,5.506-.88,1.36-1.008,1.264-2,2.545-2,2.529-2.225,2.321-2.209,2.3-1.1,1.136-1.2,1.04-4.8,4.113a93.588,93.588,0,0,1-10.371,6.85l-2.673,1.6c-.88.512-1.841.864-2.753,1.3-1.857.816-3.681,1.713-5.538,2.449l-5.65,1.825-1.408.464c-.464.144-.96.24-1.44.352l-2.865.672a89.233,89.233,0,0,1-11.444,1.873c-1.9.16-3.809.144-5.682.224h-2.817c-.944,0-1.873-.112-2.785-.16l-5.522-.4c-1.809-.192-3.6-.592-5.378-.88a77.5,77.5,0,0,1-10.307-2.513,40.783,40.783,0,0,1-4.8-1.745c-1.6-.656-3.2-1.2-4.722-1.921l-4.449-2.273-2.193-1.12-2.049-1.312-4.113-2.465c-1.344-.832-2.5-1.921-3.729-2.849s-2.449-1.889-3.6-2.865l-3.2-3.2a82.587,82.587,0,0,1-18.07-26.089,78.762,78.762,0,0,1-6.4-23.16c-.1-.816-.192-1.6-.3-2.385a13.989,13.989,0,0,1-.176-2.273c0-1.456-.08-2.833-.112-4.1s-.08-2.449,0-3.521.16-2.033.224-2.913c.144-1.713.24-3.025.32-3.937s.144-1.344.144-1.344v1.344c0,.88-.128,2.241-.24,3.953,0,.864-.112,1.841-.176,2.9a26.545,26.545,0,0,0,.1,3.505c.1,1.264.1,2.641.144,4.1a15.721,15.721,0,0,0,.192,2.257c.112.768.224,1.6.336,2.369a78.6,78.6,0,0,0,6.4,23.016,82.555,82.555,0,0,0,18.038,25.864l3.2,3.073c1.152.976,2.369,1.889,3.569,2.849a35.988,35.988,0,0,0,3.729,2.8l4.017,2.577,2.033,1.28,2.177,1.12,4.417,2.241c1.521.72,3.121,1.248,4.69,1.889a41.25,41.25,0,0,0,4.8,1.729,75.655,75.655,0,0,0,10.227,2.577c1.776.288,3.537.672,5.33.864l5.474.384c.912,0,1.841.16,2.769.16l2.785-.1c1.857-.08,3.745,0,5.634-.224a87.113,87.113,0,0,0,11.332-1.873l2.849-.672c.48-.112.96-.208,1.424-.336l1.392-.48,5.618-1.9c1.841-.736,3.649-1.6,5.49-2.433.9-.432,1.857-.784,2.721-1.3l2.641-1.6a91.705,91.705,0,0,0,10.275-6.77l4.8-4.1,1.184-1.024,1.088-1.136,2.193-2.273,2.193-2.3,1.985-2.5,1.985-2.513.992-1.264.864-1.36,3.505-5.442c.976-1.937,1.969-3.857,2.961-5.81a88.031,88.031,0,0,0,7.378-25.384,88.156,88.156,0,0,0-1.072-26.393l-1.488-6.4c-.7-2.049-1.392-4.1-2.081-6.13-.176-.5-.336-1.024-.528-1.6L622.4,97.9,621,95.151l-1.328-2.9-1.6-2.753-1.6-2.737-.784-1.36-.912-1.3-3.6-5.09a93.827,93.827,0,0,0-8.355-9.059l-2.193-2.1c-.736-.7-1.6-1.264-2.337-1.9-1.6-1.232-3.121-2.529-4.8-3.681l-4.978-3.2-1.248-.8c-.416-.24-.864-.448-1.3-.672l-2.609-1.328a86.945,86.945,0,0,0-10.371-4.545c-1.793-.608-3.617-1.04-5.41-1.6l-2.689-.752c-.9-.24-1.825-.336-2.721-.512l-5.458-.848c-1.793-.24-3.585-.288-5.362-.448a79.865,79.865,0,0,0-10.531,0,41.164,41.164,0,0,0-5.106.528c-1.6.24-3.377.384-5.01.7l-4.8,1.12-2.385.56c-.768.24-1.6.512-2.289.768l-4.513,1.52c-1.5.48-2.865,1.232-4.289,1.825s-2.8,1.232-4.145,1.9L504.4,58.723A82.443,82.443,0,0,0,480.669,79.53a78.761,78.761,0,0,0-11.8,20.807c-.3.752-.592,1.5-.88,2.225a14.626,14.626,0,0,0-.736,2.129l-1.12,3.953c-.336,1.216-.7,2.337-.928,3.377l-.528,2.865c-.3,1.7-.544,2.993-.7,3.889Z" transform="translate(43.016)" fill="#0093dd"/><path d="M212.309,147.248a25.61,25.61,0,0,0-2.481.992,11.86,11.86,0,0,0-4.962,5.09,11.348,11.348,0,0,0-1.3,4.8,9.843,9.843,0,0,0,1.392,5.378,10.691,10.691,0,0,0,19.862-2.753,9.747,9.747,0,0,0-.112-5.554,11.2,11.2,0,0,0-2.529-4.193,11.86,11.86,0,0,0-6.194-3.489c-1.6-.32-2.657-.192-2.673-.288a3.2,3.2,0,0,1,.7-.112,4.8,4.8,0,0,1,.848,0,6.259,6.259,0,0,1,1.168.1,11.7,11.7,0,0,1,6.562,3.409,11.444,11.444,0,0,1,2.769,4.385,10.4,10.4,0,0,1,.208,5.954,12.26,12.26,0,0,1-3.313,5.714,10.82,10.82,0,0,1-13.236,1.825,12.308,12.308,0,0,1-4.8-4.594,10.291,10.291,0,0,1-1.424-5.794,11.572,11.572,0,0,1,1.472-4.978A11.812,11.812,0,0,1,209.668,148a6.705,6.705,0,0,1,1.1-.4,4.2,4.2,0,0,1,.832-.208A2.049,2.049,0,0,1,212.309,147.248Z" transform="translate(-2.643)" fill="#263238"/><path d="M242.7,173.145a10.729,10.729,0,0,0-1.6.688,7.363,7.363,0,0,0-3.089,3.2,6.4,6.4,0,0,0,.08,6.242,6.594,6.594,0,0,0,12.244-1.6,6.306,6.306,0,0,0-1.6-6.034,7.426,7.426,0,0,0-3.841-2.209c-1.04-.224-1.6-.16-1.6-.24a3.441,3.441,0,0,1,1.729,0,7.4,7.4,0,0,1,4.193,2.113,7.538,7.538,0,0,1,1.793,2.8,6.77,6.77,0,0,1,.144,3.841A7.33,7.33,0,0,1,237.5,183.82a6.578,6.578,0,0,1-.9-3.713,7.538,7.538,0,0,1,4.417-6.4,3.489,3.489,0,0,1,1.681-.56Z" transform="translate(0.84)" fill="#263238"/><path d="M124.6,85.292h-5.17L108.147,69.575V59.219s-8-.5-7.042,13.012-.08,10.083-.08,10.083-16.966,0-18.374,1.6c-1.024,1.072-1.488,17.926-1.6,27.065a9.891,9.891,0,0,0,6.978,9.923,7.17,7.17,0,0,0,1.825.256c4.225,0,25.848-3.441,25.848-3.441h8.931Z" transform="translate(-22.984)" fill="#0093dd"/><path d="M139.406,82.459l-3.185,35.356H127.37V83.163Z" transform="translate(-22.984)" fill="#0093dd"/><path d="M203.138,90.205a14.1,14.1,0,0,0-.112-1.456c-.112-.96-.144-2.417-.256-4.273,0-.928-.112-1.985-.176-3.2s-.368-2.4-.56-3.761-.448-2.817-.688-4.369a16.963,16.963,0,0,0-.512-2.4c-.208-.816-.432-1.6-.656-2.513a85.42,85.42,0,0,0-9.939-23.864,89.341,89.341,0,0,0-22.759-25.432l-3.873-2.881c-1.36-.9-2.8-1.713-4.209-2.593l-2.161-1.3a17.382,17.382,0,0,0-2.209-1.232l-4.577-2.161c-.784-.368-1.6-.768-2.353-1.12l-2.481-.912-5.122-1.825c-1.713-.576-3.505-.944-5.282-1.424L132.539,2.8c-.448-.1-.9-.24-1.36-.32L129.8,2.257A87.085,87.085,0,0,0,118.439.944C116.5.944,114.565.688,112.6.72l-5.922.3a15.679,15.679,0,0,0-2.993.192l-2.849.464c-2,.336-4.017.56-6.018.976a93.006,93.006,0,0,0-11.94,3.505L79.914,7.25c-.5.176-1.008.352-1.488.544l-1.44.7-5.858,2.785c-1.889,1.024-3.7,2.225-5.57,3.329-.928.576-1.9,1.088-2.769,1.745l-2.641,1.969A100.834,100.834,0,0,0,50,26.953L45.455,32.01,44.3,33.275c-.352.432-.672.9-1.024,1.36l-2.049,2.737-2.049,2.641-1.809,2.945L35.58,45.919l-.912,1.488c-.272.512-.5,1.04-.752,1.6-1.008,2.1-2.033,4.209-3.041,6.322s-1.6,4.4-2.433,6.626a95.647,95.647,0,0,0-4.61,28.217,95.247,95.247,0,0,0,4.61,28.265l2.417,6.626,3.041,6.306.768,1.6.9,1.488,1.809,2.961,1.793,2.945,2.065,2.753,1.985,2.689,1.024,1.36,1.152,1.264,4.545,5.01a100.832,100.832,0,0,0,10.147,8.627l2.641,1.969c.864.672,1.841,1.168,2.753,1.761,1.873,1.1,3.7,2.289,5.586,3.313l5.778,2.8,1.44.688c.48.208.992.368,1.472.56l2.977,1.088a95.572,95.572,0,0,0,11.94,3.489c2,.416,4.017.656,6.018.976l2.977.464c.992.128,2,.128,2.993.192l5.922.3c1.969,0,3.905-.16,5.842-.224a81.853,81.853,0,0,0,11.316-1.312l1.392-.208c.448-.1.9-.224,1.344-.336l2.689-.688c1.761-.48,3.553-.848,5.266-1.408l5.042-1.841,2.481-.912,2.369-1.12,4.642-2.225a16.74,16.74,0,0,0,2.225-1.232l2.145-1.3c1.424-.88,2.849-1.7,4.209-2.593l3.873-2.881a89.342,89.342,0,0,0,22.823-25.352c.656-1.072,1.328-2.129,1.937-3.2l1.6-3.2,1.5-3.2c.24-.512.512-.992.72-1.5s.384-1.04.56-1.6l2.161-5.826c.64-1.873,1.008-3.729,1.488-5.442.224-.864.448-1.7.656-2.513a16.753,16.753,0,0,0,.48-2.321c.24-1.6.48-3.025.688-4.385s.448-2.609.56-3.745.128-2.209.176-3.2c.112-1.857.208-3.2.256-4.257s.112-1.456.112-1.456v1.456c0,.96-.112,2.4-.176,4.273,0,.944-.1,1.985-.144,3.2s-.336,2.4-.528,3.761-.432,2.753-.624,4.353a16.869,16.869,0,0,1-.5,2.4c-.208.816-.432,1.6-.64,2.529-.48,1.729-.848,3.585-1.456,5.474s-1.392,3.825-2.145,5.874c-.176.512-.368,1.024-.56,1.6s-.464,1.024-.7,1.6l-1.5,3.2-1.6,3.2c-.608,1.072-1.28,2.129-1.937,3.2a89.244,89.244,0,0,1-22.807,25.608l-3.873,2.929c-1.36.9-2.8,1.729-4.225,2.609l-2.161,1.312a18.874,18.874,0,0,1-2.225,1.248l-4.69,2.257-2.369,1.136-2.5.912L140.7,176.2c-1.729.56-3.537.944-5.314,1.424l-2.7.7c-.448.112-.9.24-1.36.336l-1.392.208a80.554,80.554,0,0,1-11.412,1.344c-1.937,0-3.905.272-5.874.24l-5.97-.288a15.762,15.762,0,0,1-3.009-.192l-3.025-.464c-2-.32-4.049-.56-6.066-.976a94.431,94.431,0,0,1-12.036-3.505l-3.009-1.088-1.488-.56-1.456-.7-5.826-2.8c-1.921-1.04-3.745-2.241-5.634-3.361-.928-.592-1.9-1.088-2.785-1.761l-2.673-1.985a102.523,102.523,0,0,1-10.243-8.691l-4.61-5.122L43.662,147.7l-1.04-1.376-2.065-2.769-2.065-2.7L36.668,137.8l-1.809-2.993-.912-1.488-.768-1.6-3.073-6.4c-.816-2.225-1.6-4.449-2.465-6.69a96.368,96.368,0,0,1-4.658-28.489,96.384,96.384,0,0,1,4.674-28.489l2.449-6.69,3.073-6.4c.256-.528.5-1.072.768-1.6l.912-1.5,1.825-2.977L38.493,39.5l2.081-2.689,2.065-2.769c.352-.464.688-.928,1.04-1.376L44.831,31.4l4.593-5.058a100.932,100.932,0,0,1,10.259-8.691L62.42,15.7c.88-.656,1.873-1.168,2.785-1.761,1.809-1.136,3.617-2.321,5.554-3.345l5.826-2.817,1.456-.688c.5-.208.992-.368,1.488-.56l3.009-1.088A94.43,94.43,0,0,1,94.575,1.921c2.017-.416,4.065-.64,6.066-.976L103.65.5c1.008-.144,1.985-.128,3.025-.192l5.97-.3c1.969,0,3.937.176,5.874.24A83.229,83.229,0,0,1,129.93,1.6l1.392.208,1.36.336,2.7.7c1.777.5,3.585.864,5.3,1.44l5.074,1.857,2.5.928c.816.352,1.6.752,2.385,1.12l4.61,2.257a16.919,16.919,0,0,1,2.241,1.232L159.652,13c1.424.9,2.865,1.713,4.225,2.625l3.889,2.913a89.629,89.629,0,0,1,22.807,25.608,85.116,85.116,0,0,1,9.859,24.008c.208.864.432,1.713.64,2.529a16.869,16.869,0,0,1,.5,2.4c.224,1.6.448,3.041.64,4.4s.416,2.609.528,3.777.1,2.209.144,3.2c0,1.857.128,3.2.176,4.273S203.138,90.205,203.138,90.205Z" transform="translate(-22.984)" fill="#0093dd"/></g><g transform="translate(67.835 62.397)"><path d="M346.849,121.416h0a2.4,2.4,0,0,1-2.353-2.449l.48-21.335a2.465,2.465,0,0,1,1.008-1.889,2.417,2.417,0,0,1,2.113-.336,15.2,15.2,0,0,0,12-1.5,13.972,13.972,0,0,0,6.8-8.675A14.2,14.2,0,0,0,364.7,74.36a15.509,15.509,0,0,0-9.907-6.9c-7.859-1.456-16.485,3.793-19.206,11.684a2.4,2.4,0,0,1-4.529-1.6c3.489-10.051,14.533-16.693,24.632-14.837A20.3,20.3,0,0,1,368.728,71.7a19.094,19.094,0,0,1,2.865,14.581A18.79,18.79,0,0,1,362.5,98.048a20.455,20.455,0,0,1-12.8,2.577l-.48,18.47a2.385,2.385,0,0,1-2.369,2.321Z" transform="translate(-30.784 -62.397)" fill="#85c226"/><path d="M350.514,131.979a3.505,3.505,0,1,1-1.021-2.489,3.521,3.521,0,0,1,1.021,2.489Z" transform="translate(-31.644 -62.397)" fill="#85c226"/><path d="M84.139,367.768a16.6,16.6,0,0,1-10-3.2,16.005,16.005,0,0,1-6.13-11.012,14.4,14.4,0,0,1,13.764-16.6,16.293,16.293,0,0,1,9.459,2.353l6.4-12a2.4,2.4,0,1,1,4.241,2.241l-7.7,14.565a2.4,2.4,0,0,1-3.777.624,11.028,11.028,0,0,0-8.339-2.913,10.115,10.115,0,0,0-7.234,3.457,10.451,10.451,0,0,0-2.065,7.795,11.332,11.332,0,0,0,4.257,7.731,13.252,13.252,0,0,0,16.453-1.44,2.4,2.4,0,1,1,3.361,3.425A18.23,18.23,0,0,1,84.139,367.768Z" transform="translate(-67.837 -62.397)" fill="#85c226"/><path d="M101.569,318.248a2.689,2.689,0,1,1-.145,2.062,2.689,2.689,0,0,1,.145-2.062Z" transform="translate(-67.837 -62.397)" fill="#85c226"/><path d="M568.666,327.371a2.385,2.385,0,0,1-1.937-1.008l-9.6-13.284a2.417,2.417,0,0,1-.336-2.113,2.385,2.385,0,0,1,1.456-1.6,11.076,11.076,0,0,0,6.306-6.178,10.131,10.131,0,0,0,.112-8,10.291,10.291,0,0,0-6.066-5.3,11.332,11.332,0,0,0-8.819.368,13.284,13.284,0,0,0-6,15.4,2.4,2.4,0,0,1-4.562,1.488,18.054,18.054,0,0,1,8.4-21.175,16.133,16.133,0,0,1,12.58-.608,15.141,15.141,0,0,1,8.851,7.859,14.869,14.869,0,0,1,0,11.844,16.006,16.006,0,0,1-6.29,7.474l8,11a2.417,2.417,0,0,1-1.953,3.809Z" transform="translate(-1.837 -62.397)" fill="#85c226"/><path d="M576.972,331.132a2.689,2.689,0,1,1-3.777-.512,2.689,2.689,0,0,1,3.777.512Z" transform="translate(-1.837 -62.397)" fill="#85c226"/></g></g></g></svg>