<svg xmlns="http://www.w3.org/2000/svg" xmlns:xlink="http://www.w3.org/1999/xlink" width="141.147" height="109.091" viewBox="0 0 141.147 109.091"><defs><clipPath id="a"><path d="M1.715,0a1.706,1.706,0,0,1,1.7,1.742A1.752,1.752,0,0,1,1.7,3.5,1.706,1.706,0,0,1,0,1.761,1.752,1.752,0,0,1,1.715,0Z" transform="translate(0 0.67) rotate(-11.32)" fill="none"/></clipPath><clipPath id="b"><path d="M1.73,0A1.684,1.684,0,0,1,3.424,1.727,1.774,1.774,0,0,1,1.693,3.49,1.684,1.684,0,0,1,0,1.764,1.774,1.774,0,0,1,1.73,0Z" transform="translate(0 1.396) rotate(-24.06)" fill="none"/></clipPath><clipPath id="c"><path d="M1.4,0A1.372,1.372,0,0,1,2.8,1.357,1.388,1.388,0,0,1,1.4,2.72,1.372,1.372,0,0,1,0,1.363,1.388,1.388,0,0,1,1.4,0Z" transform="translate(0 2.789) rotate(-85.426)" fill="none"/></clipPath><clipPath id="d"><path d="M1.4,0A1.37,1.37,0,0,1,2.79,1.353a1.381,1.381,0,0,1-1.4,1.357A1.37,1.37,0,0,1,0,1.357,1.381,1.381,0,0,1,1.4,0Z" transform="matrix(0.053, -0.999, 0.999, 0.053, 0, 2.786)" fill="none"/></clipPath></defs><g transform="translate(1.619 0.035)"><g transform="translate(-1.619 -0.035)"><path d="M267.065,298.1h-1.322v-1.36a.3.3,0,1,0-.6,0v1.36H263.82a.309.309,0,0,0,0,.618h1.322v1.358a.3.3,0,1,0,.6,0v-1.358h1.322a.309.309,0,0,0,0-.618Z" transform="translate(-248.684 -279.426)" fill="#fff"/><path d="M1018.755,243.277h-1.322v-1.358a.3.3,0,1,0-.6,0v1.361h-1.322a.309.309,0,0,0,0,.618h1.322v1.361a.3.3,0,1,0,.6,0V243.9h1.322a.309.309,0,0,0,0-.618Z" transform="translate(-958.487 -227.75)" fill="#fff"/><path d="M988.729,577.007h-.991v-1.02a.226.226,0,1,0-.451,0v1.02H986.3a.232.232,0,0,0,0,.463h.991v1.021a.225.225,0,1,0,.451,0v-1.021h.991a.232.232,0,0,0,0-.463Z" transform="translate(-930.971 -542.729)" fill="#fff"/><path d="M51.154,201.537h-.991v-1.02a.225.225,0,1,0-.451,0v1.02H48.72a.232.232,0,0,0,0,.464h.991v1.02a.225.225,0,1,0,.451,0V202h.991a.232.232,0,0,0,0-.464Z" transform="translate(-45.641 -188.795)" fill="#fff"/><path d="M2386.823,1.219h-.991V.2a.225.225,0,1,0-.45,0V1.219h-.991a.232.232,0,0,0,0,.464h.991V2.7a.226.226,0,1,0,.451,0V1.683h.991a.232.232,0,0,0,0-.464Z" transform="translate(-2251.159 0.035)" fill="#fff"/><path d="M1968.479,165.21h-.991v-1.019a.225.225,0,1,0-.45,0v1.02h-.992a.232.232,0,0,0,0,.463h.992v1.02a.225.225,0,1,0,.45,0v-1.022h.991a.232.232,0,0,0,0-.463Z" transform="translate(-1856.126 -154.554)" fill="#fff"/><path d="M609.324,53.362h-.992v-1.02a.225.225,0,1,0-.45,0v1.02h-.991a.232.232,0,0,0,0,.464h.991v1.02a.225.225,0,1,0,.45,0V53.824h.992a.232.232,0,0,0,0-.464Z" transform="translate(-572.708 -49.119)" fill="#fff"/><path d="M1517.283,345.441h-.991v-1.019a.225.225,0,1,0-.45,0v1.019h-.991a.232.232,0,0,0,0,.464h.991v1.022a.225.225,0,1,0,.45,0v-1.02h.991a.232.232,0,0,0,0-.464Z" transform="translate(-1430.073 -324.446)" fill="#fff"/><path d="M2477.283,745.441h-.991v-1.019a.225.225,0,1,0-.45,0v1.019h-.991a.232.232,0,0,0,0,.464h.991v1.022a.225.225,0,1,0,.45,0v-1.02h.991a.232.232,0,0,0,0-.464Z" transform="translate(-2336.578 -701.503)" fill="#fff"/><path d="M2446.953,376.992h-.991v-1.02a.225.225,0,1,0-.45,0v1.02h-.991a.232.232,0,0,0,0,.464h.991v1.02a.225.225,0,1,0,.45,0v-1.02h.991a.232.232,0,0,0,0-.464Z" transform="translate(-2307.938 -354.187)" fill="#fff"/><path d="M22.617,753.214h-.991v-1.023a.225.225,0,1,0-.45,0v1.02h-.991a.232.232,0,0,0,0,.463h.992V754.7a.225.225,0,1,0,.45,0v-1.02h.99a.232.232,0,0,0,0-.463Z" transform="translate(-18.696 -708.828)" fill="#fff"/><ellipse cx="11.256" cy="4.818" rx="11.256" ry="4.818" transform="translate(5.176 80.183)" fill="#29abe2" opacity="0.42"/><ellipse cx="11.256" cy="4.818" rx="11.256" ry="4.818" transform="translate(118.635 83.265)" fill="#29abe2" opacity="0.42"/><ellipse cx="13.987" cy="5.987" rx="13.987" ry="5.987" transform="translate(26.685 86.928)" fill="#29abe2" opacity="0.42"/><ellipse cx="13.987" cy="5.987" rx="13.987" ry="5.987" transform="translate(87.313 86.928)" fill="#29abe2" opacity="0.42"/><ellipse cx="17.219" cy="9.705" rx="17.219" ry="9.705" transform="translate(52.151 89.682)" fill="#29abe2" opacity="0.42"/><path d="M2286.636,571.8a22.961,22.961,0,0,1,.384,4.3c-.2.778-1.7,1.429-1.7,1.429s3.247,2.367,4.474,1.649,1.1-.392,1.1-.392-1.289-.815-1.432-1.377-.053-5.435-.053-5.435Z" transform="translate(-2157.822 -539.001)" fill="#e08a68"/><path d="M2229.243,461.564s-1.085-.092-1.18,1.5.683,3.466.248,3.94-1.43.492-1.652-.038a.985.985,0,0,0,.563,1.241c.886.518,2.078.926,2.776.474a4.431,4.431,0,0,0,.358-3.65,8.991,8.991,0,0,1-.627-2.916A.849.849,0,0,0,2229.243,461.564Z" transform="translate(-2102.375 -435.087)" fill="#562f0f"/><path d="M2416.149,528.269s.107-.711.72-.488.647,1.2.39,1.58-.713,1.113-.848,1.071a.882.882,0,0,1-.291-.213Z" transform="translate(-2281.334 -497.466)" fill="#e08a68"/><path d="M2314.223,470.062a27.69,27.69,0,0,1-.189,2.815c-.141.727-1.578,1.937-1.942,2.158a1.654,1.654,0,0,1-.941.132,11.081,11.081,0,0,1-2.138-1.671,19.8,19.8,0,0,1-.815-2.676,19.554,19.554,0,0,1-.178-3.57c.34-1.745,1.8-2.344,3.535-2.012s2.281.52,2.471,1.908C2314.109,467.755,2314.223,470.062,2314.223,470.062Z" transform="translate(-2179.212 -438.47)" fill="#ef9e78"/><path d="M1.979,0A1.962,1.962,0,0,1,3.932,2,2.024,2.024,0,0,1,1.953,4.035,1.962,1.962,0,0,1,0,2.031,2.024,2.024,0,0,1,1.979,0Z" transform="translate(125.176 24.031) rotate(-13.34)" fill="#562f0f"/><path d="M2272.493,429.868a2.812,2.812,0,0,0,1.727-1.319c1.036-1.787-1.3-1.918-1.907-2.649-.673-.818-1.937-2.042-2.555-2.1-2.866-.254-3.26,1.345-3.26,1.345s-2.287.463-2.662,2.419c-.254,1.331.762,4.937,1.571,6.381a9.864,9.864,0,0,0,2.382,2.717s-1.825-5.113-1.326-7.291a1.843,1.843,0,0,1,.436-.886,1.746,1.746,0,0,0,.451-1.817C2269.664,429.393,2272.253,429.335,2272.493,429.868Z" transform="translate(-2137.498 -399.466)" fill="#603813"/><path d="M2278.635,537.523s-.266-.665-.811-.3-.354,1.328-.016,1.63.947.91,1.069.836a.909.909,0,0,0,.234-.278Z" transform="translate(-2150.42 -506.304)" fill="#ef9e78"/><path d="M2291.508,573.79a.417.417,0,1,0,.39-.454A.426.426,0,0,0,2291.508,573.79Z" transform="translate(-2163.664 -540.449)" fill="#fff"/><path d="M2418.843,561.46s1.359.388,1.046,2.237c0,0-.382-1.021-1.059-1.215Z" transform="translate(-2283.892 -529.254)" fill="#603813"/><path d="M2394.3,520.237l-1.435.272s-.13-.012-.062-.1a4.233,4.233,0,0,1,1.257-.311C2394.278,520.114,2394.377,520.187,2394.3,520.237Z" transform="translate(-2259.3 -490.267)" fill="#330f1d"/><path d="M2327.155,519.563l1.626.294s.146-.015.065-.112a4.816,4.816,0,0,0-1.428-.341C2327.176,519.423,2327.068,519.506,2327.155,519.563Z" transform="translate(-2197.298 -489.61)" fill="#330f1d"/><path d="M2370.771,1452.678a11.867,11.867,0,0,0,2.328,2.735,1.2,1.2,0,0,1,.557.867.945.945,0,0,1-.183.746c-.458.531-.9.368-1.415.25a11.653,11.653,0,0,1-2.234-1.885l-.111-.295-.494-.918a1.259,1.259,0,0,1-.127-.835l.163-.842Z" transform="translate(-2236.904 -1369.187)" fill="#434580"/><path d="M2371.893,1448.12a10.2,10.2,0,0,0,2.052,2.759,1.146,1.146,0,0,1,.49.86,1.16,1.16,0,0,1-.216.855c-.457.531-.629.195-1.038.121-.521-.094-2.233-1.886-2.233-1.886l-.114-.295-.495-.918a1.261,1.261,0,0,1-.126-.834l.163-.843Z" transform="translate(-2237.962 -1364.888)" fill="#ef9e78"/><path d="M2234.891,1470.277l.21,1.628-.375.994-.111.057s-.228,2.282-.284,2.4a1.274,1.274,0,0,1-.4.7,1.238,1.238,0,0,1-1.637-.269,2.155,2.155,0,0,1-.625-1.17s1.467-3.417,1.524-3.768.284-1.171.284-1.171Z" transform="translate(-2107.162 -1385.381)" fill="#434580"/><path d="M2238.435,1464.68l-.15,1.463a3.019,3.019,0,0,1-.352,1.851h0l-.112.057s-.227,2.282-.284,2.4a1.279,1.279,0,0,1-.4.7c-.342.292-1.033.014-1.6-.574a1.308,1.308,0,0,1-.249-1.351s1.193-2.737,1.25-3.088.147-1.367.147-1.367Z" transform="translate(-2110.493 -1380.668)" fill="#ef9e78"/><path d="M2380.208,535.211c.181-.033.4-.09.464-.239.052-.115,0-.263-.154-.447-.271-.321-.052-1.955.056-2.558l-.136-.017c0,.005-.1.557-.152,1.151a2.5,2.5,0,0,0,.121,1.491c.125.147.171.26.137.336s-.148.126-.364.166Z" transform="translate(-2247.396 -501.437)" fill="#f07a6e"/><path d="M2369.369,683.26s4.05,7.431,4.188,9.068c.145,1.71-2.239,1.189-2.239,1.189l-2.284-5.652S2367.123,684.175,2369.369,683.26Z" transform="translate(-2236.156 -644.068)" fill="#3b3f72"/><path d="M2219.987,931.753a30.219,30.219,0,0,1,1.17,6.724c-.007.637-2.407,12.37-2.7,21.944-.01.321.279.56-.032.587l-.8.07c-.512.045-.839-.326-.788-.908l-1.282-8.969c-.009-.067-.016-.134-.02-.2l-.677-11.593.153,11.1a3.2,3.2,0,0,1-.088.8l-2.576,10.781s-1.155,1.214-1.733,0c-.132-.277.489-5.79.489-11.418,0-2.485-3.678-12.164-3.445-13.273.464-2.2,4.388-6.6,4.388-6.6Z" transform="translate(-2084.48 -877.401)" fill="#ef9e78"/><path d="M2219.8,931.705a30.21,30.21,0,0,1,1.17,6.724c-.007.637-.72,5.392-.72,5.392a13.935,13.935,0,0,1-11.264.669s-1.746-6.041-1.513-7.15c.465-2.2,4.388-6.6,4.388-6.6Z" transform="translate(-2084.294 -877.353)" fill="#333"/><path d="M2238.73,971.71l1.44.918s.618.353.344,1.553-1.989,2.189-1.989,2.189l-.412-3.177-.343-.635Z" transform="translate(-2112.922 -915.974)" fill="#ef9e78"/><path d="M2268.437,660.3l-.939-.594c.073,1.784-1.008,2.019-1.842,1.147l-1.246-1.95L2262,660.605s2.025,9.8,2.107,11.213c.051.868-1.813,2.9-.906,3.22a9.814,9.814,0,0,0,3.767.287,18.547,18.547,0,0,0,2.926-.212c.932-.267-.082-3.074-.154-4.933a12,12,0,0,1,.433-4.088Z" transform="translate(-2135.802 -621.105)" fill="#dadeea"/><path d="M2274.4,795.164c-.036-.623-.876-3.084-1.115-5.334a10.041,10.041,0,0,0,5.024,1.09,13.671,13.671,0,0,0,2.152-.176,15.785,15.785,0,0,1,.076,2.563c-.361,1.784.942,4.963.01,5.23a18.563,18.563,0,0,1-2.926.212,9.875,9.875,0,0,1-3.767-.287C2272.952,798.137,2274.455,796.034,2274.4,795.164Z" transform="translate(-2146.462 -744.526)" fill="#c0c3cc"/><path d="M2338.24,539.947c0,.273.158.493.348.49s.341-.224.338-.5-.158-.493-.348-.49S2338.237,539.674,2338.24,539.947Z" transform="translate(-2207.793 -508.506)" fill="#330f1d"/><path d="M2330.53,542.7s-.2.069-.47-.207a.758.758,0,0,0,.806.622Z" transform="translate(-2200.069 -511.372)" fill="#330f1d"/><ellipse cx="0.494" cy="0.343" rx="0.494" ry="0.343" transform="matrix(0.01, -1, 1, 0.01, 133.679, 31.927)" fill="#330f1d"/><path d="M2402.746,542.7s.2.069.469-.207a.757.757,0,0,1-.8.622Z" transform="translate(-2268.387 -511.372)" fill="#330f1d"/><path d="M2213.193,660.21a28.4,28.4,0,0,1,4.75,14.436,23.516,23.516,0,0,1-.9,2.638c-.453,1.008-1.81,5.588-3.167,6.83s-6.032-1.785-6.032-1.785.141-4.371,4.473-9.277c0,0-3.116-7.255-3.04-8.962S2210.931,660.754,2213.193,660.21Z" transform="translate(-2084.659 -622.34)" fill="#434580"/><path d="M2360.68,672.9s2.642,5.559,2.266,7.965a40.956,40.956,0,0,0-.678,6.053c.075,1.006,1.885,7.762,2.488,8.3s.979.123.979.123-.433-6.539-2.6-10.629a16.929,16.929,0,0,1,.138-3.173c.226-.776,1.747-1.41,1.672-2.574s-1.954-3.025-2.17-4.287C2362.447,672.773,2361.66,673.676,2360.68,672.9Z" transform="translate(-2228.982 -634.302)" fill="#434580"/><path d="M2369.07,1473.2v1.134l.5.389.157-.292Z" transform="translate(-2236.905 -1388.699)" fill="#434580"/><path d="M2407.949,1492.025s1.051,2.263-1.226,1.685l-.913-.81a2.141,2.141,0,0,1,1.259-1.62Z" transform="translate(-2271.598 -1405.742)" fill="#434580"/><path d="M2236.529,1527.631s-.273,1.407-.967,1.087c-2.095-.966-1.376-2.117-1.376-2.117l.355-.918s.78-.45,1.219-.129a6.188,6.188,0,0,1,.875.836Z" transform="translate(-2109.425 -1437.942)" fill="#434580"/><path d="M2345.152,592.886a22.442,22.442,0,0,1-2.722-.676,5.177,5.177,0,0,0,1.714.788A4.893,4.893,0,0,0,2345.152,592.886Z" transform="translate(-2211.75 -558.241)" fill="#fff"/><path d="M2285.52,665.12a24.029,24.029,0,0,1,1.3,4.531l1.95,1.04-1.226,1.412s3.176,4.088,3.538,6.169c0,0-2.022-4.757-4.188-6.095l1.226-1.412-1.661-.892A22.613,22.613,0,0,0,2285.52,665.12Z" transform="translate(-2158.011 -626.969)" fill="#3b3f72"/><path d="M2371,678.73l1.517,2.564-.253,1.152,1.047.706s-1.011,6.244-1.119,6.69l1.483-6.763-1.083-.669.181-1.189Z" transform="translate(-2238.728 -639.798)" fill="#3b3f72"/><path d="M0,0,3.848.044l.006.517L.006.517Z" transform="translate(128.222 57.559) rotate(-154.46)" fill="#3b3f72"/><path d="M2295.755,708.223l2.094-6.54-4.766-4.162-2.383,7.135Z" transform="translate(-2162.902 -657.51)" fill="#2e3192"/><path d="M2301.947,714.331l1.083-6.764L2299.491,704l-2.311,6.764Z" transform="translate(-2169.021 -663.618)" fill="#b3b3b3"/><path d="M2309.283,713.106l1.516-6.838-3.539-3.568-2.311,6.764Z" transform="translate(-2176.358 -662.393)" fill="#ccc"/><path d="M2316.63,709.439l1.949-7.061-3.539-3.568-2.311,6.764Z" transform="translate(-2183.705 -658.726)" fill="#e6e6e6"/><path d="M2317.857,717.989l2.022-6.54-3.539-3.568-2.31,6.764Z" transform="translate(-2184.932 -667.276)" fill="#29abe2"/><path d="M2364.915,777.388a1.682,1.682,0,0,0-.01-.848,3.847,3.847,0,0,0-.45-1.147,39.776,39.776,0,0,0-4.391-2.753,9.51,9.51,0,0,0-.724,1.635,48.3,48.3,0,0,0,3.874,3.791A1.193,1.193,0,0,0,2364.915,777.388Z" transform="translate(-2227.717 -728.322)" fill="#3b3f72"/><path d="M2360.1,772.68a37.585,37.585,0,0,1,3.481,2.1,3.643,3.643,0,0,0-1.668.931,2.806,2.806,0,0,0-.525.688c-1-1.007-2.01-2.082-2.01-2.082A9.383,9.383,0,0,1,2360.1,772.68Z" transform="translate(-2227.755 -728.359)" fill="#2e3460"/><path d="M2314.136,747.254l-.938-.967a1.955,1.955,0,0,0-.939-.595,12.535,12.535,0,0,0-1.685-.222s-.288.322-.1.495a2.451,2.451,0,0,0-.024,1.066c.142.3.145.669.289.892a9.782,9.782,0,0,0,2.383.372l.505.52a1.021,1.021,0,0,0,.578-1.487" transform="translate(-2181.501 -702.71)" fill="#ef9e78"/><path d="M2240.06,701.717a1.434,1.434,0,0,0-2.022.074,1.453,1.453,0,0,0-.361,1.932s3.466,7.136,4.044,7.284,1.083.669,1.589.446a50.325,50.325,0,0,0,3.971-4.236c.324-.367.16-.707-.17-1.067-.316-.344-.659-.754-1.346-.419l-2.455,2.453Z" transform="translate(-2112.624 -661.112)" fill="#3b3f72"/><path d="M2390.368,773.3a2.027,2.027,0,0,1,.867-.421,1.548,1.548,0,0,1,1.372.719,2.659,2.659,0,0,1,.12,1.214l-1.059-.5h0c-.1.189-.505.025-.49.04h0a.924.924,0,0,1-.813-1Z" transform="translate(-2257.01 -728.533)" fill="#ef9e78"/><path d="M1202.849,267s.88,5.325.581,6.5-2.57,2.159-2.57,2.159,4.9,3.577,6.761,2.49a18.252,18.252,0,0,0,2.472-1.626s-1.453-.2-1.668-1.05-.08-8.214-.08-8.214Z" transform="translate(-1133.792 -251.684)" fill="#e08a68"/><path d="M1237.946,99.936a45.948,45.948,0,0,1-.577,4.593c-.3,1.177-2.769,3.015-3.388,3.342a2.71,2.71,0,0,1-1.554.123s-2.922-2.1-3.344-2.953a32.821,32.821,0,0,1-1.08-4.47s-.771-4.686.047-5.868,3.176-3.66,5.983-2.942,3.689,1.082,3.867,3.374C1237.979,96.144,1237.946,99.936,1237.946,99.936Z" transform="translate(-1159.113 -86.376)" fill="#ef9e78"/><path d="M1372.648,180.277l-2.071.779a.289.289,0,0,1-.188-.344,2.87,2.87,0,0,1,1.747-.933C1372.5,179.85,1372.725,180.112,1372.648,180.277Z" transform="translate(-1293.87 -169.461)" fill="#333"/><path d="M1280.436,181.443l2.433.574a.332.332,0,0,0,.167-.413,3.2,3.2,0,0,0-2.092-.792C1280.548,180.944,1280.331,181.267,1280.436,181.443Z" transform="translate(-1208.909 -170.421)" fill="#333"/><path d="M1288.519,1591.351s3.057,4.8,4.819,5.227c0,0,1.554,1.387.724,2.347a3.32,3.32,0,0,1-3.212.746c-.933-.214-4.042-3.413-4.042-3.413l-.207-.533-.311.533-1.14-.853.622-4.374Z" transform="translate(-1213.385 -1499.771)" fill="#64342f"/><path d="M1067.186,1621.391l-.1,3.52-1.14,1.814-.207.107s-.415,4.161-.518,4.374a2.349,2.349,0,0,1-.724,1.28c-.621.534-2.177,1.28-3.213.213a3.922,3.922,0,0,1-1.139-2.133s2.9-6.934,3.005-7.571.518-2.134.518-2.134Z" transform="translate(-1000.914 -1527.89)" fill="#64342f"/><ellipse cx="0.518" cy="0.747" rx="0.518" ry="0.747" transform="matrix(1, -0.01, 0.01, 1, 77.072, 12.47)" fill="#2b203e"/><ellipse cx="0.518" cy="0.747" rx="0.518" ry="0.747" transform="matrix(1, -0.01, 0.01, 1, 72.409, 12.517)" fill="#2b203e"/><path d="M1344.282,203.488c.274-.05.6-.136.7-.361.079-.177,0-.4-.233-.676-.409-.484-.078-2.954.084-3.864l-.2-.027c0,.009-.149.841-.231,1.74a3.791,3.791,0,0,0,.183,2.257c.188.223.258.393.207.506s-.223.191-.551.251Z" transform="translate(-1269.182 -187.169)" fill="#f07a6e"/><path d="M1306.446,298.474l-2.986-.614s-.334.014.063.61,2.128.758,2.128.758S1306.431,299.069,1306.446,298.474Z" transform="translate(-1230.551 -280.774)" fill="#fff"/><path d="M1133.126,810.9a38.06,38.06,0,0,1,.991,7.544c.074,3.575-3.867,30.7-4.61,35.777a1.031,1.031,0,0,1-.921.888l-1.207.106a1.278,1.278,0,0,1-1-.361,1.357,1.357,0,0,1-.407-1.011l.791-31.139-6.326,34.024s-3.168,1.407-4.042-.427c-.4-.845.783-37.913,1.484-41.237a11.7,11.7,0,0,1,3.253-5.621Z" transform="translate(-1053.955 -763.011)" fill="#8c6239"/><path d="M1293.344,1318.051a16.633,16.633,0,0,0,2.014-.129c-.942,6.822-1.875,13.235-2.2,15.45a1.031,1.031,0,0,1-.921.888l-1.207.106a1.278,1.278,0,0,1-1-.361,1.359,1.359,0,0,1-.407-1.011l.43-15.244A12.425,12.425,0,0,0,1293.344,1318.051Z" transform="translate(-1217.606 -1242.166)" fill="#7c4f29"/><path d="M1118.02,1215.1a12.3,12.3,0,0,0,5.294,3.5c.306.165.16.315.473.453l-3.391,18.835s-3.168,1.407-4.042-.427c-.229-.479.056-12.637.471-23.665A13.407,13.407,0,0,0,1118.02,1215.1Z" transform="translate(-1053.918 -1144.178)" fill="#7c4f29"/><path d="M1179.543,56.449a1.624,1.624,0,0,0,1.021-1.611,10.3,10.3,0,0,1,.582-4.06c.307-.323,6.429.361,8.391-.353l.451,3.728.411-3.8s2.687-.314,1.77-2.388c-1.8-4.079-4.283-.845-7.081-.817s-6.035-.834-7.265.566-.934,2.251-.934,2.251.456,4.263,1.3,5.8Z" transform="translate(-1111.127 -43.272)" fill="#333"/><line x1="0.418" y1="3.457" transform="translate(78.443 7.426)" fill="#666"/><path d="M1180.194,119.382a8.253,8.253,0,0,0,1.237.544,12.1,12.1,0,0,0-.2,2.785,1.624,1.624,0,0,1-1.021,1.611l-1.354-.68c-.78-1.426-1.231-5.189-1.292-5.732A8.054,8.054,0,0,0,1180.194,119.382Z" transform="translate(-1111.791 -111.145)" fill="#666"/><path d="M1188.385,837.19a3.166,3.166,0,0,1-1.762,2.6,9.817,9.817,0,0,1-5.7,1.174c-1.348-.318-5.285-2.347-5.493-3.521l.035.036Z" transform="translate(-1109.779 -789.169)" fill="#262728"/><path d="M0,0,.623,0,.635,2.028l-.623,0Z" transform="matrix(-0.975, -0.223, 0.223, -0.975, 70.191, 51.836)" fill="#222a4e"/><path d="M.022.007.646,0,.625,2.017,0,2.024Z" transform="matrix(-0.912, 0.409, -0.409, -0.912, 76.722, 51.041)" fill="#222a4e"/><path d="M0,0,.625.007.648,2.023.022,2.016Z" transform="matrix(-0.902, -0.431, 0.431, -0.902, 67.998, 51.081)" fill="#222a4e"/><path d="M.029.009.659,0,.63,2,0,2.009Z" transform="matrix(-0.733, 0.68, -0.68, -0.733, 78.909, 49.798)" fill="#222a4e"/><path d="M1200.453,203.979s-.374-1.116-1.3-.574-.7,2.141-.182,2.669,1.467,1.585,1.672,1.476a1.5,1.5,0,0,0,.41-.431Z" transform="translate(-1131.58 -191.596)" fill="#ef9e78"/><path d="M1121.914,407.985l-2.235,2.792-4.954-3.257-6.395,3.212s2.692,10.427,2.816,12.561c.077,1.311.014,4.437-.046,6.654a3.413,3.413,0,0,0,2.235,3.327,15.848,15.848,0,0,0,5.692,1.142,21.832,21.832,0,0,0,3.965-.79,3.56,3.56,0,0,0,2.538-3.17c.314-4.048.844-12.07.359-14.889a21.3,21.3,0,0,0-2.319-6.621Z" transform="translate(-1046.418 -384.144)" fill="#dadeea"/><path d="M1313.06,428.924l1.762-.747,1.347.747-1.347-2.134Z" transform="translate(-1239.74 -402.309)" fill="#babbbf"/><path d="M1208.449,378.535l-.328-1.81-3.767-3.695-1.634,2.577,3.457,3.805Z" transform="translate(-1135.549 -351.632)" fill="#dadeea"/><path d="M1317.615,387.81l.983.849a25.571,25.571,0,0,1,.933,3.521l-1.244-1.6-1.667,1.508A5.349,5.349,0,0,0,1317.615,387.81Z" transform="translate(-1243.102 -365.564)" fill="#dadeea"/><path d="M1260.98,439.656l2.177-1.706.621,1.494-1.14-.427Z" transform="translate(-1190.562 -412.829)" fill="#babbbf"/><path d="M.884,0,1.975,0a.888.888,0,0,1,.879.9.9.9,0,0,1-.884.909l-1.091,0A.888.888,0,0,1,0,.913.9.9,0,0,1,.884,0Z" transform="translate(75.171 51.954) rotate(173.8)" fill="#ced0d8"/><path d="M.728,0,1.794,0a.731.731,0,0,1,.723.744.742.742,0,0,1-.728.749L.723,1.5A.731.731,0,0,1,0,.752.742.742,0,0,1,.728,0Z" transform="translate(74.985 51.801) rotate(173.8)" fill="#262728"/><path d="M1341.722,1605.722a8.96,8.96,0,0,0,1.293.713,3.811,3.811,0,0,1,.653.438c.084.072.691.658.46.771-.049.024-.279-.092-.329-.115a3.605,3.605,0,0,1-.379-.172,2.344,2.344,0,0,1-.608-.444c-.314-.328-.425-.8-.763-1.1a.083.083,0,0,0-.1-.011.088.088,0,0,0-.04.095,2.57,2.57,0,0,1-.076,1.527.978.978,0,0,1-.125.286c-.063.074-.059.141-.128.046a1.2,1.2,0,0,1-.056-.542,4.729,4.729,0,0,1,.011-.516,4.783,4.783,0,0,1,.216-1.09.084.084,0,0,0-.161-.046,4.95,4.95,0,0,0-.236,1.549c0,.2-.046.839.238.9s.429-.588.476-.772a2.836,2.836,0,0,0,0-1.385l-.14.084a3.738,3.738,0,0,1,.534.816,2.132,2.132,0,0,0,.573.58,3.426,3.426,0,0,0,.8.4c.138.05.354.172.468.018.284-.385-.509-1-.746-1.174-.549-.4-1.22-.579-1.751-1-.085-.067-.167.082-.085.149Z" transform="translate(-1266.455 -1513.41)" fill="#3f1d1b"/><path d="M1099.462,1640.754a11.974,11.974,0,0,0,.573,1.925,5.546,5.546,0,0,1,.231,1.086,3.488,3.488,0,0,1,.012.533c-.007.12-.01.482-.12.583-.223.207-.289-.057-.371-.23a5.514,5.514,0,0,1-.223-.54,3.541,3.541,0,0,1-.207-1c-.029-.664.33-1.262.282-1.919a.087.087,0,0,0-.062-.081.083.083,0,0,0-.094.037,3.4,3.4,0,0,1-.935,1.07,3.251,3.251,0,0,1-.514.313c-.106.052-.71.374-.6.013a2.1,2.1,0,0,1,.471-.59,5.924,5.924,0,0,1,1.656-1.273c.1-.051.011-.2-.085-.149a6.1,6.1,0,0,0-2.086,1.783c-.095.127-.252.344-.145.511s.324.072.459.026a3.426,3.426,0,0,0,.752-.363,3.588,3.588,0,0,0,1.17-1.255l-.156-.043a5.043,5.043,0,0,1-.239,1.3,2.941,2.941,0,0,0,0,1.033,4.613,4.613,0,0,0,.364,1.12c.078.172.188.585.438.545s.334-.35.37-.551a3.573,3.573,0,0,0-.019-1.218c-.154-.918-.64-1.747-.758-2.669-.014-.108-.181-.11-.167,0Z" transform="translate(-1035.915 -1546.423)" fill="#3f1d1b"/><path d="M1286.794,437.615a2.383,2.383,0,0,1-2.317-.235l-.947.782,1.063,1.916-.456,5.747,2.165,3.4s1.026-2.346,1.026-2.581-1.14-6.685-1.14-6.685l.8-1.759Z" transform="translate(-1211.855 -412.291)" fill="#747cbb"/><path d="M1112.374,419s6.949,9.734,7.178,11.493c0,0,1.873-7.49,1.954-10.687.008-.309-.181-.64-.03-.795.013-.013,1.267.809,1.267.809s2.619,2.7,2.508,11.611c-.086,6.742-.843,12.01-.111,13.605a7.541,7.541,0,0,1,.111,6.8s-4.786.469-5.7-6.216c-1.114,3.653-3.765,5.38-5.469,5.63-4.786.7-5.469-.352-5.469-.352l1.595-8.8s-.368-9.36-1.038-11.482-2.849-7.915-1.355-9.629Z" transform="translate(-1045.45 -394.965)" fill="#161e3a"/><path d="M1299.864,281.43s-.038-.43-.931-.5a16.183,16.183,0,0,0-2.6-.358c-.342.144-.911.287-.911.717a30.5,30.5,0,0,0,4.444.86S1300.092,282,1299.864,281.43Z" transform="translate(-1223.083 -264.447)" fill="#333"/><path d="M1186.336,454.232c1.237-6.831.919-10.636.453-11.715-1.265-2.929-7.044-6.389-7.9-6.887l3.04-1.24-3.572-1.507-.339-4.772-.111.009.344,4.844,3.377,1.425-3,1.224.106.057c.066.038,6.608,3.78,7.952,6.893.462,1.07.773,4.835-.461,11.643Z" transform="translate(-1112.121 -403.553)" fill="#283460"/><path d="M1335.384,440.8a20.949,20.949,0,0,1,2.127-6.119,8.737,8.737,0,0,1,1.275-1.825l.073-.072-2.467-.693,2.293-1.284-1.263-4.555-.111.033,1.238,4.465-2.462,1.377,2.549.716a9.445,9.445,0,0,0-1.222,1.773,21.034,21.034,0,0,0-2.143,6.16Z" transform="translate(-1260.712 -401.799)" fill="#283460"/><g transform="translate(75.047 11.296)" opacity="0.69"><g transform="translate(0 0)" clip-path="url(#a)"><path d="M1.715,0a1.706,1.706,0,0,1,1.7,1.742A1.752,1.752,0,0,1,1.7,3.5,1.706,1.706,0,0,1,0,1.761,1.752,1.752,0,0,1,1.715,0Z" transform="translate(0 0.67) rotate(-11.32)" fill="#fff" opacity="0.43"/><path d="M0,0,5.143.073l.008.566L.008.566Z" transform="translate(4.248 3.656) rotate(-129.26)" fill="#fff" opacity="0.43"/><path d="M0,0,5.143.073l.006.406L.006.406Z" transform="translate(3.663 4.178) rotate(-129.26)" fill="#fff" opacity="0.43"/></g></g><g transform="translate(70.528 11.112)" opacity="0.69"><g transform="translate(0 0)" clip-path="url(#b)"><path d="M1.73,0A1.684,1.684,0,0,1,3.424,1.727,1.774,1.774,0,0,1,1.693,3.49,1.684,1.684,0,0,1,0,1.764,1.774,1.774,0,0,1,1.73,0Z" transform="translate(0 1.396) rotate(-24.06)" fill="#fff" opacity="0.43"/><path d="M0,0,5.143.073l.008.566L.008.566Z" transform="translate(4.508 3.902) rotate(-129.26)" fill="#fff" opacity="0.43"/><path d="M0,0,5.143.073l.006.406L.006.406Z" transform="translate(3.924 4.424) rotate(-129.26)" fill="#fff" opacity="0.43"/></g></g><path d="M1.781,0A1.693,1.693,0,0,1,3.516,1.715,1.8,1.8,0,0,1,1.735,3.475,1.693,1.693,0,0,1,0,1.761,1.8,1.8,0,0,1,1.781,0Z" transform="translate(74.662 13.881) rotate(-56.86)" fill="none" stroke="#42210b" stroke-width="3"/><rect width="0.795" height="0.818" transform="matrix(-1, 0.014, -0.014, -1, 75.337, 13.811)" fill="#42210b"/><path d="M1259.595,223l-.795.011.008.526a1.329,1.329,0,0,1,.688.516Z" transform="translate(-1188.504 -210.207)" fill="#42210b"/><path d="M1409.62,220.849l.625-.009.01.525a1.1,1.1,0,0,0-.528.534Z" transform="translate(-1330.919 -208.171)" fill="#42210b"/><path d="M1235.618,217.089l-1.368-.369.119.388,1.256.508Z" transform="translate(-1165.322 -204.288)" fill="#8c6239"/><path d="M1.74,0A1.716,1.716,0,0,1,3.453,1.756a1.781,1.781,0,0,1-1.74,1.782A1.716,1.716,0,0,1,0,1.782,1.781,1.781,0,0,1,1.74,0Z" transform="translate(70.619 12.128) rotate(-15.95)" fill="none" stroke="#42210b" stroke-width="3"/><path d="M201.7,505.973a1.361,1.361,0,0,1,1.446-.592c.045.006.091.013.138.022,1.179.223-1.38-6.683-1.38-6.683S200.221,504.26,201.7,505.973Z" transform="translate(-189.734 -470.113)" fill="#210812"/><path d="M227.766,575a21.418,21.418,0,0,0-.358,4.015c.185.728,1.586,1.333,1.586,1.333s-3.029,2.208-4.174,1.538-1.024-.366-1.024-.366,1.2-.76,1.337-1.285.049-5.07.049-5.07Z" transform="translate(-211.171 -542.018)" fill="#e08a68"/><path d="M206.683,472.07a28.261,28.261,0,0,0-.309,2.841,5.806,5.806,0,0,0,1.555,2.515,1.682,1.682,0,0,0,.914.308,11.043,11.043,0,0,0,2.427-1.265,13.1,13.1,0,0,0,2.092-6.043c-.03-1.8-1.384-2.674-3.168-2.667s-2.367.092-2.8,1.439C207.2,469.791,206.683,472.07,206.683,472.07Z" transform="translate(-194.723 -440.928)" fill="#ef9e78"/><path d="M219.724,519.776l1.337-.243s.111-.054.023-.106a3.938,3.938,0,0,0-1.2.149C219.7,519.661,219.642,519.757,219.724,519.776Z" transform="translate(-207.295 -489.62)" fill="#330f1d"/><path d="M282.086,522.506l-1.268-.9s-.087-.108.028-.118a4.579,4.579,0,0,1,1.166.736C282.162,522.4,282.18,522.527,282.086,522.506Z" transform="translate(-264.988 -491.575)" fill="#330f1d"/><path d="M188.852,1396.774a11.048,11.048,0,0,1-2.173,2.551,1.119,1.119,0,0,0-.522.808.88.88,0,0,0,.171.7c.427.495.84.344,1.321.233a10.858,10.858,0,0,0,2.083-1.759l.107-.275.46-.854a1.172,1.172,0,0,0,.119-.779l-.152-.785Z" transform="translate(-175.623 -1316.502)" fill="#434580"/><path d="M193.361,1392.574a9.5,9.5,0,0,1-1.914,2.574,1.067,1.067,0,0,0-.457.8,1.083,1.083,0,0,0,.2.8c.427.495.587.181.968.115.485-.087,2.083-1.759,2.083-1.759l.106-.275.461-.855a1.171,1.171,0,0,0,.118-.778l-.152-.786Z" transform="translate(-180.191 -1312.543)" fill="#ef9e78"/><path d="M334.106,1413.28l-.2,1.519.35.928.106.057s.212,2.129.265,2.237a1.2,1.2,0,0,0,.371.655,1.156,1.156,0,0,0,1.527-.251,2.006,2.006,0,0,0,.583-1.09s-1.368-3.188-1.422-3.515-.265-1.09-.265-1.09Z" transform="translate(-315.152 -1331.698)" fill="#434580"/><path d="M330.86,1409.773l.308,1a2.813,2.813,0,0,0,.329,1.726h0l.106.058s.212,2.128.265,2.237a1.2,1.2,0,0,0,.371.655c.318.273.964.013,1.495-.533a1.224,1.224,0,0,0,.233-1.262s-1.114-2.553-1.166-2.88-.137-1.276-.137-1.276Z" transform="translate(-312.272 -1328.653)" fill="#ef9e78"/><path d="M237.546,536.813c-.157-.071-.34-.172-.369-.322-.022-.118.056-.239.236-.371.315-.229.468-1.759.5-2.33l.127.015c0,.005-.031.527-.111,1.077-.108.75-.253,1.2-.431,1.326-.145.1-.211.2-.2.272s.108.148.294.233Z" transform="translate(-223.806 -503.171)" fill="#f07a6e"/><path d="M164.546,910.818a28.344,28.344,0,0,0-1.092,6.273c.006.594,3.053,11.539,3.326,20.47a.6.6,0,0,0,.569.548l.745.065a.773.773,0,0,0,.87-.847l.4-10.679-.844-8.688,2.953,10.729.911,10.42s1.955.868,2.495-.264c.123-.258-.293-5.136-.293-10.386,0-2.318,1.681-11.347,1.463-12.381-.435-2.052-4.093-6.157-4.093-6.157Z" transform="translate(-154.194 -857.728)" fill="#3b3f72"/><path d="M214.631,1253.15a9.265,9.265,0,0,1-3.121.949,63.753,63.753,0,0,1,.651,7,.6.6,0,0,0,.569.548l.745.065a.773.773,0,0,0,.87-.846Z" transform="translate(-199.572 -1181.271)" fill="#2d3259"/><path d="M310.195,1176.82a10.142,10.142,0,0,1-1.33,1.553,9.8,9.8,0,0,1-2.135,1.792l.032.115.911,10.42s1.955.868,2.495-.264c.123-.258-.293-5.136-.293-10.386A30.135,30.135,0,0,1,310.195,1176.82Z" transform="translate(-289.486 -1109.319)" fill="#2d3259"/><path d="M316.163,948.08l-1.344.856s-.576.329-.32,1.449,1.855,2.041,1.855,2.041l.384-2.964.32-.593Z" transform="translate(-296.761 -893.699)" fill="#ef9e78"/><path d="M201.918,657.546l.875-.555c-.067,1.663.941,1.884,1.719,1.07l1.162-1.82,2.251,1.592s-1.89,9.145-1.965,10.461c-.047.809,1.691,2.7.844,3a9.172,9.172,0,0,1-3.513.27,17.348,17.348,0,0,1-2.73-.2c-.869-.249.077-2.868.144-4.6a11.208,11.208,0,0,0-.4-3.814Z" transform="translate(-188.887 -618.598)" fill="#dadeea"/><path d="M207.107,783.387c.034-.581.817-2.877,1.04-4.977a9.356,9.356,0,0,1-4.687,1.016,12.683,12.683,0,0,1-2.006-.164,14.788,14.788,0,0,0-.071,2.391c.334,1.663-.879,4.63-.009,4.879a17.323,17.323,0,0,0,2.73.2,9.17,9.17,0,0,0,3.513-.27C208.462,786.16,207.06,784.2,207.107,783.387Z" transform="translate(-189.699 -733.761)" fill="#c0c3cc"/><path d="M57.7,638.652s-.295-.719-.345-.834c-.232-.532.338-1.638.108-2.388-.2-.665-1.123-.525-1.123-.525s-.378-1.041-.748-.946-1.167,1.382-1.167,1.382a1.955,1.955,0,0,0,.185,1.873,3.211,3.211,0,0,0,1.018,1.048l.787,1.319Z" transform="translate(-51.093 -597.589)" fill="#e08a68"/><path d="M53.227,629.226h0c-.34-.16-.566-.4-.5-.545l2.062-4.531,1.231.576-2.062,4.536C53.892,629.4,53.566,629.386,53.227,629.226Z" transform="translate(-49.626 -588.349)" fill="#333"/><path d="M53.277,634.06a2.49,2.49,0,0,1,.953.37c.306.259.271,1,.271,1l-.85,2s-.439.225-.546-.211c-.034-.14.068-.665-.51-.455-.417.152-.408.353-.408.353s-.647-1.019-.239-1.614A11.285,11.285,0,0,1,53.277,634.06Z" transform="translate(-48.774 -597.69)" fill="#ef9e78"/><path d="M.389,0a.409.409,0,0,1,.4.405l.009.8a.386.386,0,0,1-.389.4.409.409,0,0,1-.4-.405L0,.4A.386.386,0,0,1,.389,0Z" transform="translate(5.657 37.202) rotate(27.63)" fill="#ef9e78"/><path d="M91.857,682l-2.914,5.385L85.957,683.1a2.35,2.35,0,0,0-1.517,1.423l3.444,5.385a2.233,2.233,0,0,0,.994.682,3.159,3.159,0,0,0,1.258-.274l1.524-1.7Z" transform="translate(-79.583 -642.88)" fill="#3b3f72"/><path d="M.463,0C.717,0,.922.14.921.317S.712.639.458.641,0,.5,0,.324.208,0,.463,0Z" transform="translate(14.88 32.111) rotate(-75.68)" fill="#330f1d"/><path d="M271.063,551.62s.167.108.47-.08a.693.693,0,0,1-.863.379Z" transform="translate(-255.436 -519.903)" fill="#330f1d"/><path d="M222,539.342c-.023.253.1.473.279.489s.337-.176.359-.429-.1-.472-.279-.489S222.027,539.09,222,539.342Z" transform="translate(-209.479 -508)" fill="#330f1d"/><path d="M215.407,540.638s-.193.045-.417-.238a.71.71,0,0,0,.69.655Z" transform="translate(-202.859 -509.402)" fill="#330f1d"/><path d="M191.231,430.5a9.18,9.18,0,0,0-.694,6.582,6.259,6.259,0,0,1-1.17-5.139c.51-3.374,1.734-4.875,2.464-5.491a4.122,4.122,0,0,1,2.726-.8c2.9.283,3.012,1.95,3.012,1.95s1.553.167,1.58,2.186c.018,1.374-.987,5.5-2.048,6.789-.814.988-2.208,1.067-2.855,1.352,0,0,2.723-3.843,2.61-6.109a1.89,1.89,0,0,0-.279-.964,1.774,1.774,0,0,1-.129-1.9C193.663,431.235,191.564,430.011,191.231,430.5Z" transform="translate(-178.573 -401.221)" fill="#603813"/><path d="M283.463,465.008A2.088,2.088,0,0,0,282.408,463a9.164,9.164,0,0,1-1.863,2.008,1.675,1.675,0,0,0,.347,1.066,1.9,1.9,0,0,1,.279.964c.111,2.264-2.61,6.109-2.61,6.109.647-.287,2.134-.338,2.791-1.014C282.51,470.937,283.481,466.378,283.463,465.008Z" transform="translate(-262.886 -436.442)" fill="#3f220a"/><path d="M190.593,539.67a9.051,9.051,0,0,1-1.263.224,6.111,6.111,0,0,0,1.226,4.68A8.221,8.221,0,0,1,190.593,539.67Z" transform="translate(-178.591 -508.714)" fill="#3f220a"/><path d="M320.988,553.3s.383-.613.861-.147.118,1.39-.271,1.628-1.1.729-1.213.631a.952.952,0,0,1-.185-.32Z" transform="translate(-302.187 -521.26)" fill="#ef9e78"/><path d="M320.487,587.858a.421.421,0,0,1-.51.319.435.435,0,0,1-.309-.525.418.418,0,0,1,.771-.122A.444.444,0,0,1,320.487,587.858Z" transform="translate(-301.691 -553.631)" fill="#fff"/><path d="M224.692,657.51a26.5,26.5,0,0,0-4.432,13.466,22.011,22.011,0,0,0,.844,2.462c.422.941,1.688,5.213,2.953,6.371s5.628-1.663,5.628-1.663-.131-4.078-4.173-8.654c0,0,2.907-6.768,2.836-8.36S226.8,658.017,224.692,657.51Z" transform="translate(-207.835 -619.795)" fill="#434580"/><path d="M166.925,669.34s-2.465,5.186-2.114,7.431a37.991,37.991,0,0,1,.633,5.647c-.071.944-1.758,7.24-2.321,7.747s-.914.115-.914.115.4-6.1,2.425-9.915a15.8,15.8,0,0,0-.128-2.96c-.211-.723-1.63-1.316-1.56-2.4s1.823-2.82,2.025-4C165.278,669.222,166.011,670.066,166.925,669.34Z" transform="translate(-153.02 -630.947)" fill="#434580"/><path d="M252.736,1415.9v1.058l-.47.362-.147-.272Z" transform="translate(-237.92 -1334.686)" fill="#434580"/><path d="M189.282,1433.455s-.981,2.111,1.145,1.572l.851-.756a2,2,0,0,0-1.174-1.511Z" transform="translate(-178.369 -1350.579)" fill="#434580"/><path d="M346.19,1466.681s.255,1.313.9,1.014c1.954-.9,1.282-1.974,1.282-1.974l-.332-.856s-.729-.42-1.137-.12a5.77,5.77,0,0,0-.816.78Z" transform="translate(-326.653 -1380.627)" fill="#434580"/><path d="M229.047,662.09a22.352,22.352,0,0,0-1.212,4.23l-1.819.971,1.145,1.319s-2.964,3.814-3.3,5.755c0,0,1.886-4.438,3.907-5.686l-1.145-1.319,1.549-.832A21.106,21.106,0,0,1,229.047,662.09Z" transform="translate(-211.234 -624.112)" fill="#3b3f72"/><path d="M194.923,674.78l-1.414,2.392.235,1.074-.977.659s.943,5.824,1.045,6.24l-1.381-6.309,1.011-.624-.167-1.109Z" transform="translate(-181.556 -636.075)" fill="#3b3f72"/><path d="M.005.041,3.6,0,3.59.483,0,.523Z" transform="translate(16.919 55.608) rotate(-25.54)" fill="#3b3f72"/><path d="M232.618,593.331l-2.252-.053s-.167-.076.039.6a.754.754,0,0,0,.739.507S232.621,594.3,232.618,593.331Z" transform="translate(-217.317 -559.245)" fill="#c1272d"/><path d="M232.361,593.329l-2.252-.009s-.244.034.124.256a4.707,4.707,0,0,0,1.645.144S232.424,593.588,232.361,593.329Z" transform="translate(-217.06 -559.287)" fill="#fff"/><path d="M14.29,523.835l-1.926-.843L9.223,519.76l-2.5,5.8,4.235.057,2.2.962a.624.624,0,0,0,.824-.344l.641-1.556A.655.655,0,0,0,14.29,523.835Z" transform="translate(-6.194 -489.946)" fill="#161e3a"/><path d="M.295,0A.309.309,0,0,1,.6.307L.662,6.6a.293.293,0,0,1-.295.3.309.309,0,0,1-.3-.307L0,.3A.293.293,0,0,1,.295,0Z" transform="translate(2.76 29.372) rotate(23.59)" fill="#fff"/><path d="M455.2,647.867l.58-.662a1.722,1.722,0,0,1,.3-1.232c.4-.389.858-.664.939-.921s.438-1.09.438-1.09.4-.1.446.2a1.285,1.285,0,0,1-.2.787,5.775,5.775,0,0,1,.942-.492c.25-.059.983-.621,1.749-.412,0,0,.238.27.111.371a2.646,2.646,0,0,1-.347.217s.6.44.256.942-1.622.74-1.855,1.185a4.25,4.25,0,0,1-1.226,1.4,2.444,2.444,0,0,1-.985.192l-.58.661Z" transform="translate(-429.683 -607.008)" fill="#ef9e78"/><path d="M334.894,683.92l3.207,5.449,2.986-4.284a2.347,2.347,0,0,1,1.517,1.421l-3.444,5.385a2.232,2.232,0,0,1-.994.682,3.161,3.161,0,0,1-1.258-.274l-2.74-4.192Z" transform="translate(-315.397 -644.69)" fill="#434580"/><path d="M631.759,447s-.7,4.235-.462,5.171,2.044,1.718,2.044,1.718-3.9,2.845-5.377,1.982A14.376,14.376,0,0,1,626,454.58s1.156-.158,1.327-.835.064-6.534.064-6.534Z" transform="translate(-590.966 -421.359)" fill="#e08a68"/><path d="M589.7,314.119s.223,2.718.459,3.653,2.2,2.4,2.695,2.658a2.153,2.153,0,0,0,1.236.1,14.475,14.475,0,0,0,2.661-2.352,25.968,25.968,0,0,0,.859-3.556s.613-3.728-.037-4.668-2.528-2.911-4.759-2.34-2.935.86-3.076,2.684C589.671,311.1,589.7,314.119,589.7,314.119Z" transform="translate(-556.68 -289.871)" fill="#ef9e78"/><path d="M598.584,387.318l1.754.018a.235.235,0,0,0,.056-.309,2.234,2.234,0,0,0-1.551-.223C598.59,386.956,598.485,387.213,598.584,387.318Z" transform="translate(-565.042 -364.561)" fill="#330f1d"/><path d="M673.1,388.175l-1.985-.02a.269.269,0,0,1-.056-.351,2.521,2.521,0,0,1,1.76-.215C673.1,387.767,673.216,388.06,673.1,388.175Z" transform="translate(-633.479 -365.284)" fill="#330f1d"/><path d="M564.591,1500.484s-2.432,3.818-3.833,4.158c0,0-1.236,1.1-.577,1.867a2.644,2.644,0,0,0,2.555.594c.742-.169,3.215-2.716,3.215-2.716l.167-.424.247.424.907-.678-.495-3.479Z" transform="translate(-528.631 -1414.179)" fill="#64342f"/><path d="M540.772,579.42s-3.83,9.727-3.914,11.164a25.4,25.4,0,0,0-.25,3.421c.085,1.26,2.248,6.753,2.248,6.753l1-1.71Z" transform="translate(-506.539 -546.184)" fill="#ced0d8"/><path d="M769.09,1524.4l.082,2.8.907,1.443.167.085s.33,3.309.412,3.479a1.864,1.864,0,0,0,.577,1.018c.494.424,1.731,1.019,2.556.172a3.12,3.12,0,0,0,.907-1.7s-2.308-5.516-2.391-6.022-.412-1.7-.412-1.7Z" transform="translate(-726.082 -1436.567)" fill="#64342f"/><path d="M613.584,408.087c0,.328-.19.593-.417.59s-.41-.27-.407-.6.191-.592.418-.59S613.587,407.76,613.584,408.087Z" transform="translate(-578.463 -384.115)" fill="#2b203e"/><path d="M680.154,408.748c0,.328-.19.592-.418.59s-.41-.27-.406-.6.19-.592.418-.59S680.157,408.42,680.154,408.748Z" transform="translate(-641.323 -384.737)" fill="#2b203e"/><path d="M633.266,396.589c-.218-.04-.478-.108-.557-.287-.063-.141,0-.316.185-.537.325-.385.062-2.352-.067-3.074l.163-.021c0,.007.119.669.183,1.383a3.017,3.017,0,0,1-.146,1.8c-.149.177-.205.313-.164.4s.178.151.437.2Z" transform="translate(-597.278 -370.146)" fill="#f07a6e"/><path d="M626.869,476.2l3.051-.053s.329.088-.171.677-2.229.4-2.229.4S626.779,476.881,626.869,476.2Z" transform="translate(-591.779 -448.837)" fill="#c1272d"/><path d="M626.88,476.155l3.05,0s.329.039-.167.287a7.642,7.642,0,0,1-2.229.156S626.793,476.44,626.88,476.155Z" transform="translate(-591.79 -448.837)" fill="#fff"/><path d="M571.966,879.505a22.346,22.346,0,0,0-1.17,6.2c-.059,2.843,3.075,24.418,3.667,28.457a.82.82,0,0,0,.733.707l.96.084a1.017,1.017,0,0,0,.8-.287,1.08,1.08,0,0,0,.324-.8l-.628-22.344,5.031,24.638s2.52,1.12,3.215-.34c.32-.671-.623-30.157-1.181-32.8a9.308,9.308,0,0,0-2.587-4.47Z" transform="translate(-538.837 -828.157)" fill="#222a4e"/><path d="M606.852,1283.069a13.316,13.316,0,0,1-1.6-.1c.75,5.426,1.492,10.527,1.75,12.289a.82.82,0,0,0,.733.707l.96.084a1.016,1.016,0,0,0,.8-.287,1.081,1.081,0,0,0,.324-.8l-.343-12.126A9.891,9.891,0,0,1,606.852,1283.069Z" transform="translate(-571.372 -1209.249)" fill="#161e3a"/><path d="M716.18,1201.2a9.783,9.783,0,0,1-4.212,2.786c-.243.131-.49.251-.738.36l3.059,14.982s2.52,1.12,3.215-.34c.182-.381-.044-10.051-.375-18.823A10.54,10.54,0,0,1,716.18,1201.2Z" transform="translate(-671.446 -1131.32)" fill="#161e3a"/><path d="M587.63,277.288a1.291,1.291,0,0,1-.812-1.281,8.183,8.183,0,0,0-.464-3.229c-.245-.258-5.114.287-6.675-.28l-.358,2.966-.215-3.354s-.74-.262-.154-1.1,1.342-2.362,3.566-2.339,5.028.306,6.006,1.42a3.01,3.01,0,0,0,2.05,1.122l-.836.925a18.453,18.453,0,0,1-1.034,4.614Z" transform="translate(-546.327 -253.254)" fill="#3d1623"/><path d="M588.561,270.1c-.978-1.114-3.779-1.4-6-1.419s-2.982,1.5-3.566,2.339.154,1.1.154,1.1v.026a2.087,2.087,0,0,1,.566.4l.007-.04c1.56.568,6.43.024,6.675.281l.018.023a2.162,2.162,0,0,1,1.471-.6,2.078,2.078,0,0,1,1.754,1.013c.094-.631.141-1.082.141-1.082l.836-.925A3.024,3.024,0,0,1,588.561,270.1Z" transform="translate(-546.363 -253.273)" fill="#330f1d"/><path d="M593.05,900.6a2.518,2.518,0,0,0,1.4,2.065,7.794,7.794,0,0,0,4.534.933c1.072-.255,4.2-1.866,4.371-2.8l-.028.029Z" transform="translate(-559.852 -848.942)" fill="#262728"/><path d="M.01,0l.5,0L.5,1.61l-.5,0Z" transform="matrix(0.975, -0.223, 0.223, 0.975, 39.532, 53.12)" fill="#222a4e"/><path d="M0,0,.5.005l.017,1.6L.017,1.6Z" transform="matrix(0.912, 0.409, -0.409, 0.912, 35.351, 52.587)" fill="#222a4e"/><path d="M.018.006.515,0,.5,1.6,0,1.609Z" transform="matrix(0.902, -0.431, 0.431, 0.902, 40.947, 52.638)" fill="#222a4e"/><path d="M0,0,.5.007.524,1.6l-.5-.007Z" transform="matrix(0.733, 0.68, -0.68, 0.733, 34.044, 51.898)" fill="#222a4e"/><path d="M725.131,401.834a2.022,2.022,0,0,1-.971-.256,1.354,1.354,0,0,0,.8.936l1.077-.54a3.68,3.68,0,0,0,.206-.463A2.085,2.085,0,0,1,725.131,401.834Z" transform="translate(-683.656 -378.479)" fill="#330f1d"/><path d="M835.252,1046.874a12.625,12.625,0,0,0-.486-2.811c-.212-.318-1.815.563-1.8.563s-.508.219-.352.459c.009.014.019.2.031.211.268.355,1.541-.587,1.634-.426.243.418.243,2,.405,2.255C834.785,1047.28,835.252,1046.874,835.252,1046.874Z" transform="translate(-786.038 -984.112)" fill="#64342f"/><path d="M723.908,396.939s.3-.888,1.035-.456.561,1.7.144,2.122-1.166,1.262-1.331,1.174a1.183,1.183,0,0,1-.326-.344Z" transform="translate(-682.966 -373.628)" fill="#ef9e78"/><path d="M581.2,559.21l1.778,2.22,3.941-2.59,5.086,2.555s-2.141,8.294-2.24,9.99c-.061,1.043-.011,3.529.037,5.291a2.716,2.716,0,0,1-1.778,2.65,12.61,12.61,0,0,1-4.527.908,17.047,17.047,0,0,1-3.154-.631,2.83,2.83,0,0,1-2.021-2.519c-.25-3.22-.669-9.6-.286-11.842a16.958,16.958,0,0,1,1.845-5.267Z" transform="translate(-545.53 -526.785)" fill="#dadeea"/><path d="M593.654,764.693q.033-.394.1-.783a14.5,14.5,0,0,1-9.11,3.786,12.993,12.993,0,0,1-2.648-.277c.07,1.116.146,2.147.21,2.972a2.83,2.83,0,0,0,2.021,2.519,17.428,17.428,0,0,0,3.154.631,12.612,12.612,0,0,0,4.527-.908,2.716,2.716,0,0,0,1.78-2.649C593.646,768.222,593.593,765.736,593.654,764.693Z" transform="translate(-549.417 -720.092)" fill="#ced0d8"/><path d="M626.593,575.857l-1.4-.594-1.072.594,1.072-1.7Z" transform="translate(-589.19 -541.226)" fill="#babbbf"/><path d="M783,998.11l-1.055,1.753s-.973,1.169-.811,2,.568.584.568.584v2.088s.568.668.811.251,2.19-.585,2.6-1.42-.486-3.174-.486-3.174l.164-1Z" transform="translate(-737.435 -940.859)" fill="#ef9e78"/><path d="M674.48,535.779l.261-1.44,3-2.939,1.3,2.05-2.75,3.026Z" transform="translate(-636.744 -500.918)" fill="#dadeea"/><path d="M625.672,543.16l-.78.675a20.815,20.815,0,0,0-.742,2.8l.989-1.273,1.326,1.2A4.25,4.25,0,0,1,625.672,543.16Z" transform="translate(-589.219 -512.004)" fill="#dadeea"/><path d="M792.767,603.75s4.2,9.421,4.452,11.54-3.495,12.92-3.495,12.92-2.226-.34-2.308-1.528l1.846-11.816-2.638-4.244S789.717,604.938,792.767,603.75Z" transform="translate(-746.297 -569.119)" fill="#dadeea"/><path d="M672.206,584.4l-1.731-1.358-.494,1.188.907-.34Z" transform="translate(-632.495 -549.596)" fill="#babbbf"/><rect width="3.545" height="0.509" transform="translate(39.381 37.855)" fill="#ced0d8"/><path d="M.7,0l.865,0a.714.714,0,0,1,.7.72.7.7,0,0,1-.7.716l-.865,0A.714.714,0,0,1,0,.716.7.7,0,0,1,.7,0Z" transform="translate(35.832 53.201) rotate(6.34)" fill="#ced0d8"/><path d="M.575,0l.848,0A.59.59,0,0,1,2,.6a.581.581,0,0,1-.575.592l-.848,0A.59.59,0,0,1,0,.592.581.581,0,0,1,.575,0Z" transform="translate(36.204 53.48) rotate(6.2)" fill="#262728"/><path d="M604.862,1511.569c-.429.335-.966.482-1.406.8-.21.154-.762.583-.6.918.138.287.794-.131.965-.238a1.781,1.781,0,0,0,.488-.442,4.662,4.662,0,0,1,.477-.724l-.14-.083a2.284,2.284,0,0,0,.017,1.172c.045.154.152.606.379.564s.2-.477.2-.644a3.938,3.938,0,0,0-.186-1.323.084.084,0,0,0-.161.046,3.832,3.832,0,0,1,.172.871c.007.1.011.2.009.3a1.385,1.385,0,0,1-.036.484c-.036.095-.066.09-.091-.016a1.793,1.793,0,0,1-.1-.242,2.028,2.028,0,0,1-.045-1.17.088.088,0,0,0-.039-.1.082.082,0,0,0-.1.012c-.27.251-.363.631-.621.892a1.907,1.907,0,0,1-.494.351c-.091.047-.532.308-.514.047.01-.144.279-.35.383-.438a3.072,3.072,0,0,1,.49-.326,7.343,7.343,0,0,0,1.036-.574c.085-.067,0-.216-.085-.148Z" transform="translate(-569.082 -1424.814)" fill="#3f1d1b"/><path d="M794.034,1539.441c-.1.733-.475,1.391-.6,2.122-.056.332-.2,1.3.265,1.442.184.057.253-.149.32-.287a4.073,4.073,0,0,0,.334-.905,2.431,2.431,0,0,0,.047-.872,5.359,5.359,0,0,1-.205-1.129l-.156.044a2.888,2.888,0,0,0,.925.992c.175.115.824.543,1,.273s-.38-.762-.529-.918a4.985,4.985,0,0,0-1.254-.932c-.1-.051-.18.1-.084.149a4.869,4.869,0,0,1,.953.654,4.732,4.732,0,0,1,.357.353c.089.1.38.368.386.5s-.023.085-.121.076a.983.983,0,0,1-.295-.115,2.654,2.654,0,0,1-.438-.258,2.7,2.7,0,0,1-.757-.86.083.083,0,0,0-.093-.038.086.086,0,0,0-.062.081c-.032.5.229.947.226,1.444a2.691,2.691,0,0,1-.156.844,4.192,4.192,0,0,1-.18.441c-.028.057-.056.119-.088.178q-.034.169-.132.015c-.218-.141-.159-.6-.141-.832a4.289,4.289,0,0,1,.177-.87,10.3,10.3,0,0,0,.462-1.544c.014-.109-.146-.155-.161-.046Z" transform="translate(-749.006 -1450.971)" fill="#3f1d1b"/><path d="M697.163,1071.54l12.494-6.68s.649-.084.649.167,1.136,10.021,1.136,10.021l-12.413,8.432s-1.783.168-1.623-.083-.406-11.688-.406-11.688Z" transform="translate(-658.009 -1003.767)" fill="#64342f"/><path d="M699.4,1193.676s-1.783.168-1.623-.083c.1-.152-.307-8.207-.385-11.586a.248.248,0,0,1,.493-.044Z" transform="translate(-658.376 -1113.962)" fill="#471f1c"/><path d="M716.454,1119.762c-.563,0-7.578-.761-7.874-.793l.008-.083c.073.008,7.306.793,7.865.793a1.912,1.912,0,0,0,1.114-.437l.082-.057c.178-.129,2.369-4.332,3.8-7.124l.071.039c-.365.715-3.581,6.987-3.826,7.155l-.08.057A1.99,1.99,0,0,1,716.454,1119.762Z" transform="translate(-668.944 -1048.273)" fill="#471f1c"/><ellipse cx="0.548" cy="0.564" rx="0.548" ry="0.564" transform="translate(47.307 69.693)" fill="#f7931e"/><path d="M768.636,1075.329a17.731,17.731,0,0,1-.649-3.59c.118-.365.97-1,1.422-1.312a.305.305,0,0,1,.462.344c-.006.016-.011.033-.018.051-.163.418-1.055.918-1.136,1.253s.568,2.505.568,2.839S768.636,1075.329,768.636,1075.329Z" transform="translate(-725.02 -1008.976)" fill="#64342f"/><g transform="translate(33.099 22.488)" opacity="0.69"><g transform="translate(0 0)" clip-path="url(#c)"><path d="M1.4,0A1.372,1.372,0,0,1,2.8,1.357,1.388,1.388,0,0,1,1.4,2.72,1.372,1.372,0,0,1,0,1.363,1.388,1.388,0,0,1,1.4,0Z" transform="translate(0 2.789) rotate(-85.426)" fill="#fff" opacity="0.43"/><path d="M.006.057,4.1,0,4.1.449,0,.506Z" transform="translate(-0.692 2.696) rotate(-52.95)" fill="#fff" opacity="0.43"/><path d="M0,.057,4.1,0l0,.323L0,.38Z" transform="translate(-0.111 3.168) rotate(-52.95)" fill="#fff" opacity="0.43"/></g></g><g transform="translate(36.497 22.595)" opacity="0.69"><g transform="translate(0 0)" clip-path="url(#d)"><path d="M1.4,0A1.37,1.37,0,0,1,2.79,1.353a1.381,1.381,0,0,1-1.4,1.357A1.37,1.37,0,0,1,0,1.357,1.381,1.381,0,0,1,1.4,0Z" transform="matrix(0.053, -0.999, 0.999, 0.053, 0, 2.786)" fill="#fff" opacity="0.43"/><path d="M.006.057,4.1,0,4.1.449,0,.506Z" transform="translate(-0.703 2.504) rotate(-52.95)" fill="#fff" opacity="0.43"/><path d="M0,.057,4.1,0l0,.323L0,.38Z" transform="translate(-0.121 2.976) rotate(-52.95)" fill="#fff" opacity="0.43"/></g></g><path d="M1.419,0A1.354,1.354,0,0,1,2.806,1.362,1.428,1.428,0,0,1,1.388,2.755,1.354,1.354,0,0,1,0,1.393,1.428,1.428,0,0,1,1.419,0Z" transform="translate(32.69 24.839) rotate(-64.81)" fill="none" stroke="#42210b" stroke-width="3"/><path d="M0,0H.633V.651H0Z" transform="matrix(1, -0.024, 0.024, 1, 35.911, 23.806)" fill="#42210b"/><path d="M702,409.736l.633-.016.009.419a1.063,1.063,0,0,0-.532.432Z" transform="translate(-662.73 -386.218)" fill="#42210b"/><path d="M584.987,412.59l-.5.012.01.419a.873.873,0,0,1,.436.407Z" transform="translate(-551.769 -388.923)" fill="#42210b"/><path d="M713.35,404.147l1.076-.337-.083.312-.984.443Z" transform="translate(-673.448 -380.647)" fill="#8c6239"/><path d="M1.419,0A1.353,1.353,0,0,1,2.805,1.362,1.43,1.43,0,0,1,1.387,2.756,1.353,1.353,0,0,1,0,1.394,1.43,1.43,0,0,1,1.419,0Z" transform="translate(36.099 24.668) rotate(-63.66)" fill="none" stroke="#42210b" stroke-width="3"/><path d="M1498.17,210.608a6.555,6.555,0,0,0,.78,2.18,7.165,7.165,0,0,1,.892,2.065l2.563-.115,1.115-4.818Z" transform="translate(-1414.535 -197.878)" fill="#e08a68"/><path d="M1790,433.58s.718,4.343.475,5.3-2.1,1.761-2.1,1.761,4,2.917,5.517,2.032a14.773,14.773,0,0,0,2.016-1.326s-1.185-.162-1.361-.856-.065-6.7-.065-6.7Z" transform="translate(-1688.573 -408.709)" fill="#e08a68"/><path d="M1786.691,301.226a37.218,37.218,0,0,1,.574,3.731c.028.992-1.493,3.015-1.9,3.417a2.225,2.225,0,0,1-1.188.463,14.578,14.578,0,0,1-3.277-1.519,26.156,26.156,0,0,1-1.843-3.242s-1.65-3.484-1.274-4.6,1.672-3.614,4.025-3.718,3.129-.026,3.78,1.725C1785.869,298.252,1786.691,301.226,1786.691,301.226Z" transform="translate(-1678.509 -278.761)" fill="#ef9e78"/><path d="M1.714,0c.934-.008,1.68,1.332,1.667,2.992S2.6,6,1.667,6.012-.013,4.68,0,3.02.781.008,1.714,0Z" transform="translate(116.274 22.269) rotate(-16.72)" fill="#fff" opacity="0.3"/><path d="M1890.277,361.637l-1.721.54a.237.237,0,0,1-.139-.287,2.33,2.33,0,0,1,1.463-.68C1890.174,361.285,1890.346,361.505,1890.277,361.637Z" transform="translate(-1783.031 -340.483)" fill="#330f1d"/><path d="M2100.16,502.427s.442-1.075.518-1.249c.349-.8-.505-2.453-.161-3.577.306-1,1.681-.786,1.681-.786s.567-1.56,1.121-1.417,1.748,2.071,1.748,2.071a2.925,2.925,0,0,1-.279,2.806,4.826,4.826,0,0,1-1.525,1.569l-1.179,1.978Z" transform="translate(-1982.98 -466.973)" fill="#e08a68"/><path d="M2091.328,374.692c.494,1.8,1.807,2.99,2.931,2.663s1.634-2.051,1.139-3.849-1.806-2.992-2.928-2.663S2090.833,372.893,2091.328,374.692Zm.259-.021c-.411-1.491-.128-2.879.63-3.1s1.706.809,2.117,2.3.128,2.879-.63,3.1S2092,376.162,2091.587,374.67Z" transform="translate(-1974.462 -349.519)" fill="#333"/><path d="M2139.966,487.035h0a.408.408,0,0,0,.248-.2.429.429,0,0,0,.04-.32l-1.906-7.239-.788.217,1.907,7.241A.407.407,0,0,0,2139.966,487.035Z" transform="translate(-2018.296 -451.788)" fill="#333"/><path d="M2125.746,495.55a3.717,3.717,0,0,0-1.428.555c-.458.389-.407,1.491-.407,1.491l1.274,2.99s.657.337.816-.315c.051-.21-.1-1,.765-.682.625.229.613.529.613.529s.969-1.525.357-2.417A16.934,16.934,0,0,0,2125.746,495.55Z" transform="translate(-2005.406 -467.125)" fill="#ef9e78"/><path d="M.611,0a.578.578,0,0,1,.583.593l-.014,1.2a.612.612,0,0,1-.6.607A.578.578,0,0,1,0,1.806L.014.607A.612.612,0,0,1,.611,0Z" transform="translate(119.722 31.799) rotate(152.37)" fill="#ef9e78"/><path d="M1813.687,385.538l1.947-.609a.273.273,0,0,0-.046-.361,2.6,2.6,0,0,0-1.792.311C1813.569,385.138,1813.542,385.458,1813.687,385.538Z" transform="translate(-1712.385 -362.443)" fill="#330f1d"/><path d="M1913.19,381.914c.1.322.353.526.577.456s.327-.388.232-.71-.353-.526-.577-.456S1913.095,381.592,1913.19,381.914Z" transform="translate(-1806.395 -359.324)" fill="#2b203e"/><path d="M1847.89,401.813c.1.322.354.526.577.456s.327-.388.232-.71-.353-.525-.577-.455S1847.795,401.491,1847.89,401.813Z" transform="translate(-1744.734 -378.083)" fill="#2b203e"/><path d="M1948,567.39l4.363,8.065,4.473-6.417a3.509,3.509,0,0,1,2.272,2.129l-5.158,8.068a3.35,3.35,0,0,1-1.488,1.021,4.73,4.73,0,0,1-1.885-.408l-2.281-2.553Z" transform="translate(-1839.299 -534.844)" fill="#282247"/><path d="M1883.191,379.486c.2-.1.439-.249.468-.449.022-.157-.087-.312-.334-.474-.429-.282-.721-2.294-.8-3.044l-.167.028c0,.006.071.693.208,1.415.186.983.4,1.563.647,1.721.2.13.289.247.275.348s-.132.2-.374.326Z" transform="translate(-1777.316 -353.979)" fill="#f07a6e"/><path d="M1865.545,455.86l-3.016.855s-.3.185.358.615,2.306-.268,2.306-.268A1.151,1.151,0,0,0,1865.545,455.86Z" transform="translate(-1758.526 -429.711)" fill="#c1272d"/><path d="M1865.2,455l-3,.9s-.313.137.245.229a7.966,7.966,0,0,0,2.235-.509S1865.361,455.256,1865.2,455Z" transform="translate(-1758.193 -428.9)" fill="#fff"/><path d="M1864.7,1500.905s2.483,3.9,3.915,4.245c0,0,1.263,1.127.589,1.907a2.7,2.7,0,0,1-2.61.607c-.758-.173-3.284-2.774-3.284-2.774l-.167-.433-.253.433-.926-.693.5-3.556Z" transform="translate(-1758.053 -1414.566)" fill="#4c2421"/><path d="M1684.854,1525.343l-.084,2.86-.926,1.472-.167.087s-.334,3.38-.421,3.556a1.908,1.908,0,0,1-.59,1.04c-.506.433-1.768,1.041-2.61.172a3.193,3.193,0,0,1-.926-1.734s2.358-5.634,2.442-6.153.421-1.733.421-1.733Z" transform="translate(-1585.411 -1437.444)" fill="#4c2421"/><path d="M1738.415,866.892a30.945,30.945,0,0,1,.8,6.129c.06,2.9-3.141,24.941-3.745,29.067a.837.837,0,0,1-.748.722l-.981.086a1.042,1.042,0,0,1-.814-.294,1.106,1.106,0,0,1-.331-.82l.643-25.3-5.14,27.646s-2.574,1.144-3.284-.344c-.327-.688.636-30.8,1.206-33.5a9.545,9.545,0,0,1,2.642-4.571Z" transform="translate(-1628.492 -816.053)" fill="#282247"/><path d="M1868.589,1278.915a13.507,13.507,0,0,0,1.636-.105c-.766,5.543-1.524,10.753-1.787,12.553a.837.837,0,0,1-.749.721l-.981.086a1.042,1.042,0,0,1-.814-.294,1.108,1.108,0,0,1-.331-.82l.349-12.385A10.114,10.114,0,0,0,1868.589,1278.915Z" transform="translate(-1761.456 -1205.327)" fill="#191733"/><path d="M1726.172,1195.325a9.992,9.992,0,0,0,4.3,2.845c.248.135.13.256.384.368l-2.755,15.3s-2.574,1.144-3.284-.344c-.185-.389.044-10.267.383-19.227A10.829,10.829,0,0,0,1726.172,1195.325Z" transform="translate(-1628.493 -1125.768)" fill="#191733"/><path d="M1783.306,888.24a2.572,2.572,0,0,1-1.432,2.109,7.957,7.957,0,0,1-4.631.953c-1.094-.26-4.294-1.906-4.463-2.86l.028.029Z" transform="translate(-1673.843 -837.291)" fill="#262728"/><path d="M0,0,.506,0l.01,1.644-.506,0Z" transform="matrix(-0.975, -0.223, 0.223, -0.975, 102.627, 54.048)" fill="#222a4e"/><path d="M.018.006.525,0,.508,1.639,0,1.644Z" transform="matrix(-0.912, 0.409, -0.409, -0.912, 107.933, 53.406)" fill="#222a4e"/><path d="M0,0,.508.006.526,1.644.018,1.638Z" transform="matrix(-0.902, -0.431, 0.431, -0.902, 100.847, 53.432)" fill="#222a4e"/><path d="M.023.007.536,0,.512,1.625,0,1.632Z" transform="matrix(-0.733, 0.68, -0.68, -0.733, 109.71, 52.394)" fill="#222a4e"/><path d="M1729.3,539.528l-1.816,2.267-4.026-2.645-5.2,2.61s2.187,8.472,2.288,10.2c.062,1.065.011,3.6-.037,5.4a2.774,2.774,0,0,0,1.816,2.7,12.872,12.872,0,0,0,4.625.927,17.685,17.685,0,0,0,3.222-.642,2.893,2.893,0,0,0,2.062-2.574c.255-3.289.685-9.808.292-12.1a17.313,17.313,0,0,0-1.884-5.38Z" transform="translate(-1622.361 -508.224)" fill="#dadeea"/><path d="M1884.6,556.533l1.432-.606,1.094.606-1.094-1.733Z" transform="translate(-1779.432 -522.976)" fill="#babbbf"/><path d="M1799.615,515.593l-.267-1.471-3.06-3-1.328,2.094,2.809,3.091Z" transform="translate(-1694.786 -481.802)" fill="#dadeea"/><path d="M1888.3,523.14l.8.688a20.852,20.852,0,0,1,.758,2.86l-1.01-1.3-1.354,1.226A4.34,4.34,0,0,0,1888.3,523.14Z" transform="translate(-1782.16 -493.132)" fill="#dadeea"/><path d="M1842.29,565.256l1.769-1.386.5,1.213-.926-.346Z" transform="translate(-1739.479 -531.526)" fill="#babbbf"/><path d="M.718,0,1.6,0a.721.721,0,0,1,.714.734.732.732,0,0,1-.718.739l-.886,0A.721.721,0,0,1,0,.742.732.732,0,0,1,.718,0Z" transform="translate(106.672 54.146) rotate(173.8)" fill="#ced0d8"/><path d="M.589,0l.863,0a.591.591,0,0,1,.585.6.6.6,0,0,1-.589.606l-.863,0A.591.591,0,0,1,0,.609.6.6,0,0,1,.589,0Z" transform="translate(106.851 54.455) rotate(173.66)" fill="#262728"/><path d="M1907.653,1512.412a7.713,7.713,0,0,0,1.058.583c.2.108,1,.583.859.852-.06.115-.13.04-.237,0a2.6,2.6,0,0,1-.334-.155,1.782,1.782,0,0,1-.458-.349c-.244-.266-.338-.635-.6-.88a.082.082,0,0,0-.1-.012.088.088,0,0,0-.039.1,2.137,2.137,0,0,1,.038.86,2.072,2.072,0,0,1-.092.355,1.886,1.886,0,0,1-.1.229c-.018.09-.041.106-.069.046-.111-.039-.061-.726-.052-.84a3.943,3.943,0,0,1,.176-.89.084.084,0,0,0-.161-.046,4.042,4.042,0,0,0-.19,1.351c.006.162-.02.654.232.657.23,0,.331-.459.377-.638a2.324,2.324,0,0,0,0-1.134l-.139.084a3.123,3.123,0,0,1,.431.66,1.739,1.739,0,0,0,.446.459,2.718,2.718,0,0,0,.632.326c.131.049.334.166.437.019.223-.316-.355-.782-.557-.935-.458-.344-1.022-.5-1.472-.848-.085-.067-.167.082-.084.148Z" transform="translate(-1800.912 -1425.464)" fill="#3f1d1b"/><path d="M1710.763,1540.865a10.814,10.814,0,0,0,.479,1.6,4.4,4.4,0,0,1,.167.794,1.7,1.7,0,0,1-.048.849c-.181.336-.248.023-.317-.123a4.369,4.369,0,0,1-.183-.451,2.856,2.856,0,0,1-.157-.763c-.027-.545.263-1.032.229-1.574a.086.086,0,0,0-.063-.081.083.083,0,0,0-.094.037,2.766,2.766,0,0,1-.736.851c-.1.078-.885.573-.938.38-.029-.11.309-.436.39-.525a5.165,5.165,0,0,1,.4-.395,4.959,4.959,0,0,1,.974-.668c.1-.051.011-.2-.084-.148a5.065,5.065,0,0,0-1.277.953c-.146.151-.734.673-.533.942.188.251.807-.156.987-.271a2.94,2.94,0,0,0,.968-1.033l-.155-.043a5.621,5.621,0,0,1-.21,1.153,2.472,2.472,0,0,0,.045.89,4.171,4.171,0,0,0,.34.924c.075.151.149.361.348.283.436-.172.31-1.076.254-1.416-.124-.762-.521-1.447-.622-2.211-.014-.109-.175-.063-.161.046Z" transform="translate(-1613.547 -1452.268)" fill="#3f1d1b"/><path d="M1863.233,563.6a1.936,1.936,0,0,1-1.882-.191l-.771.635.864,1.557-.371,4.668,1.759,2.765s.836-1.906.836-2.1-.926-5.432-.926-5.432l.648-1.432Z" transform="translate(-1756.75 -531.092)" fill="#c80000"/><path d="M1721.538,548.46s5.647,7.909,5.831,9.338a61.552,61.552,0,0,0,1.587-8.683c.007-.251-.147-.52-.024-.646.01-.011,1.029.657,1.029.657s2.129,2.192,2.037,9.434c-.07,5.478-.686,9.758-.093,11.054a6.129,6.129,0,0,1,.093,5.527s-3.889.381-4.629-5.051c-.907,2.968-3.059,4.371-4.444,4.574-3.888.574-4.444-.287-4.444-.287l1.3-7.147s-.3-7.6-.844-9.329-2.313-6.428-1.1-7.822Z" transform="translate(-1621.565 -517)" fill="#362d56"/><path d="M1781.59,577.093c1-5.55.746-8.641.368-9.518-1.028-2.38-5.724-5.191-6.416-5.6l2.47-1.007-2.9-1.225-.276-3.877-.093.007.279,3.936,2.745,1.158-2.438.995.086.049c.056.03,5.369,3.071,6.46,5.6.376.869.628,3.928-.374,9.464Z" transform="translate(-1675.693 -523.985)" fill="#4e4575"/><path d="M1902.7,566.19a17.03,17.03,0,0,1,1.727-4.972,7.106,7.106,0,0,1,1.036-1.483l.06-.057-2.006-.563,1.863-1.043-1.025-3.7-.089.026,1,3.628-2,1.12,2.071.582a7.7,7.7,0,0,0-.993,1.44,17.093,17.093,0,0,0-1.741,5Z" transform="translate(-1796.438 -522.571)" fill="#4e4575"/><path d="M1728.121,269.285s-.487-2.065,0-2.532l-.4-2.135a20.152,20.152,0,0,0,4.335.52,22.082,22.082,0,0,0,2.962-.492l.669,2.352-.213-2.734a6.6,6.6,0,0,0-.03-2.279c-.263-.559-1.007-2.622-4.747-1.6s-6.193,1.663-6.6,3.486-.239,3.691.256,4.339,3.218,3.124,4.407,4.574.815.769.815.769Z" transform="translate(-1627.65 -245.184)" fill="#330f1d"/><path d="M1776.02,417.694s-.542-.785-1.146-.141-.074,1.842.454,2.131,1.5.893,1.638.759a1.217,1.217,0,0,0,.223-.434Z" transform="translate(-1675.566 -393.362)" fill="#ef9e78"/><path d="M1717.3,837.748l.918.549a5.719,5.719,0,0,1,1.376-.685,6.959,6.959,0,0,1,3.16,1.229c.306.364.255.728-.306.683,0,0,.1.734-.407.754,0,0,.561.566-.255.657,0,0,.51.455-.56.547a8.325,8.325,0,0,0-2.09-.592,1.76,1.76,0,0,0-1.07.344s-.917.111-1.071-.115a5.159,5.159,0,0,1-.357-.956l-.613-.819Z" transform="translate(-1620.245 -789.555)" fill="#ef9e78"/><path d="M1633.6,577s-5.554,7.291-5.4,8.97-.459,2.2,1.886,5.506c2.231,3.144,3.06,3.3,3.06,3.3l2.192-2.1s-3.415-4.563-3.619-5.455a2.819,2.819,0,0,1,.51-2.308c.458-.682,2.062-2.436,2.062-2.436S1636.2,580.616,1633.6,577Z" transform="translate(-1537.314 -543.903)" fill="#362d56"/><path d="M1125.25,756.629l1.109.574a6.72,6.72,0,0,1,1.56-.9c.645-.2,3.392.8,3.773,1.2s.347.832-.31.82c0,0,.167.85-.425.91,0,0,.693.621-.253.786,0,0,.626.495-.617.678a9.7,9.7,0,0,0-2.481-.54,2.07,2.07,0,0,0-1.226.479s-1.064.2-1.258-.057a6.07,6.07,0,0,1-.481-1.09l-.77-.912Z" transform="translate(-1061.092 -712.897)" fill="#ef9e78"/><path d="M1017.433,455.92s-5.992,8.916-5.7,10.865-.386,2.606,2.577,6.3c2.82,3.513,3.8,3.639,3.8,3.639l2.417-2.608s-4.3-5.084-4.6-6.111a3.3,3.3,0,0,1,.439-2.733c.489-.83,2.246-2.993,2.246-2.993S1020.715,459.96,1017.433,455.92Z" transform="translate(-955.195 -429.768)" fill="#161e3a"/><path d="M1475.64,119.659l.258,1.071,12.093-.813-1.177-4.887Z" transform="translate(-1393.26 -108.43)" fill="#161e3a"/><path d="M2.07,0C3.2-.008,4.107,1.5,4.095,3.36s-.939,3.38-2.07,3.388S-.012,5.251,0,3.388.939.008,2.07,0Z" transform="translate(92.473 5.938) rotate(-13.93)" fill="#161e3a"/><path d="M1.344,0C2.076,0,2.662,1.217,2.652,2.729S2.04,5.47,1.308,5.475-.01,4.259,0,2.747.612.005,1.344,0Z" transform="translate(93.769 6.285) rotate(-13.93)" fill="#b3b3b3"/><path d="M1.126,0c.612,0,1.1,1.218,1.089,2.73S1.7,5.471,1.089,5.475-.01,4.257,0,2.745.514,0,1.126,0Z" transform="translate(93.769 6.287) rotate(-13.93)" fill="#bdccd4"/><path d="M1449.9,138.824l.449,1.865,9.018-.567-1.283-5.322Z" transform="translate(-1368.955 -127.066)" fill="#161e3a"/><path d="M2.254,0c1.231-.008,2.218,1.63,2.2,3.659S3.436,7.34,2.205,7.348-.013,5.718,0,3.689,1.023.008,2.254,0Z" transform="translate(87.953 7.013) rotate(-13.93)" fill="#161e3a"/><path d="M1.463,0c.8-.005,1.435,1.325,1.424,2.972S2.221,5.958,1.424,5.963-.011,4.638,0,2.992.666.005,1.463,0Z" transform="translate(89.365 7.391) rotate(-13.93)" fill="#b3b3b3"/><path d="M1.226,0c.666,0,1.2,1.327,1.186,2.973s-.56,2.985-1.226,2.99S-.011,4.637,0,2.99.56,0,1.226,0Z" transform="translate(89.366 7.392) rotate(-13.93)" fill="#bdccd4"/><path d="M.852,0a.836.836,0,0,1,.833.855l-.008,1.2a.864.864,0,0,1-.844.866A.836.836,0,0,1,0,2.07L.008.866A.864.864,0,0,1,.852,0Z" transform="translate(80.003 11.486) rotate(-13.93)" fill="#161e3a"/><path d="M1385.972,286.7l.07-.077-.212-13.046a8.41,8.41,0,0,0-4.1.233l.207,10.929q-.1.051-.2.11l-7.83-2.546,2.02,6.628s4.985,1.136,6.421,1.369a2.831,2.831,0,0,0,2.557-.47,3.013,3.013,0,0,0,1.164-2.39A3.091,3.091,0,0,0,1385.972,286.7Z" transform="translate(-1297.189 -257.732)" fill="#161e3a"/></g></g></svg>