<svg xmlns="http://www.w3.org/2000/svg" xmlns:xlink="http://www.w3.org/1999/xlink" width="255.913" height="106.799" viewBox="0 0 255.913 106.799"><defs><linearGradient id="a" x1="0.5" x2="0.5" y2="1" gradientUnits="objectBoundingBox"><stop offset="0" stop-color="#e32e28"/><stop offset="1" stop-color="#be2126"/></linearGradient></defs><g transform="translate(-70.7 -175.4)"><path d="M367.225,198.438s-1.493-10.452-6.044-15.074c-5.831-6.044-12.3-6.044-15.287-6.4-21.331-1.564-53.4-1.564-53.4-1.564h-.071s-32,0-53.4,1.564c-2.986.356-9.457.356-15.287,6.4-4.551,4.622-6.044,15.074-6.044,15.074a233.98,233.98,0,0,0-1.493,24.6v11.519a233.981,233.981,0,0,0,1.493,24.6s1.493,10.452,6.044,15.074c5.831,6.044,13.439,5.831,16.852,6.47,12.23,1.138,51.835,1.493,51.835,1.493s32.068-.071,53.4-1.564c2.986-.356,9.457-.356,15.287-6.4,4.551-4.622,6.044-15.074,6.044-15.074a233.98,233.98,0,0,0,1.493-24.6V223.04A204.706,204.706,0,0,0,367.225,198.438Z" transform="translate(-42.043)" fill="url(#a)"/><path d="M194.091,275.993h-9.741v-5.617c-3.7,4.2-6.826,6.328-10.168,6.328a6.156,6.156,0,0,1-6.115-3.982A20.621,20.621,0,0,1,167,265.185V224.3h9.741v41.88c.213,1.422.853,1.991,2.062,1.991,1.849,0,3.555-1.635,5.617-4.48V224.371h9.741v51.622Z" transform="translate(-27.827 -14.13)"/><path d="M145.788,241.107c0-5.546-1.138-9.67-3.057-12.23-2.56-3.555-6.613-4.977-10.737-4.977-4.622,0-8.177,1.422-10.737,4.977-1.991,2.631-3.057,6.826-3.057,12.3v18.345c0,5.475.924,9.244,2.915,11.874a13.724,13.724,0,0,0,21.829,0c1.991-2.56,2.844-6.4,2.844-11.874V241.107Zm-9.741,19.411c.5,5.12-1.067,7.679-4.053,7.679s-4.622-2.56-4.053-7.679V240.112c-.5-5.119,1.067-7.537,4.053-7.537s4.622,2.418,4.124,7.537Z" transform="translate(-13.725 -14.014)"/><path d="M93.738,240.885v28.086H83.5V240.885S72.9,206.4,70.7,200H81.437l7.253,26.877L95.8,200h10.737Z" transform="translate(0 -7.108)"/><path d="M401.357,251.9V241.449c0-5.475-1.067-9.457-2.986-12.017a12.916,12.916,0,0,0-10.95-5.333,13.362,13.362,0,0,0-11.092,5.333c-1.991,2.56-3.129,6.826-3.129,12.23v17.918c0,5.4,1.28,9.244,3.2,11.8a13.255,13.255,0,0,0,11.163,5.262c4.835,0,8.6-1.849,11.163-5.546a12.572,12.572,0,0,0,2.133-5.546,59.533,59.533,0,0,0,.356-6.044v-1.422h-9.741c0,3.7,0,5.9-.071,6.4-.5,2.489-1.849,3.7-4.124,3.7-3.2,0-4.551-2.346-4.48-7.11V251.9h18.558Zm-18.416-13.3c0-4.764,1.28-6.044,4.408-6.044,3.057,0,4.266,1.422,4.266,6.115v5.546h-8.675Z" transform="translate(-87.41 -14.072)" fill="#fff"/><path d="M344.814,217.267c-3.413,0-6.755,2.062-9.741,5.759V200.7H325.9v68.473h9.172v-5.12c3.057,3.84,6.47,5.831,9.741,5.831,3.7,0,6.4-1.991,7.608-5.759a38.374,38.374,0,0,0,1-10.239V233.479a37.406,37.406,0,0,0-1.209-10.168C351,219.4,348.511,217.267,344.814,217.267Zm-1.067,37.116c0,5.12-1.209,7.039-3.84,7.039a7.183,7.183,0,0,1-4.835-2.346v-31a7.364,7.364,0,0,1,4.835-2.346c2.7,0,3.84,1.493,3.84,6.613Z" transform="translate(-73.742 -7.311)" fill="#fff"/><path d="M304.091,276.2h-9.741v-5.617c-3.7,4.2-6.826,6.328-10.168,6.328a6.156,6.156,0,0,1-6.115-3.982A20.62,20.62,0,0,1,277,265.387V225h9.741v41.383c.213,1.422.853,1.991,2.062,1.991,1.849,0,3.555-1.635,5.617-4.48V225.071h9.741V276.2Z" transform="translate(-59.612 -14.332)" fill="#fff"/><path d="M254.8,269.173H244.637V210.441H233.9V200.7h32.21v9.741H254.8Z" transform="translate(-47.158 -7.311)" fill="#fff"/></g></svg>